<?xml version="1.0" encoding="UTF-8"?>
<svg id="Livello_1" data-name="Livello 1" xmlns="http://www.w3.org/2000/svg" xmlns:xlink="http://www.w3.org/1999/xlink" viewBox="0 0 700 700">
  <defs>
    <style>
      .cls-1 {
        mask: url(#mask);
      }

      .cls-2 {
        opacity: .3;
      }

      .cls-3, .cls-4 {
        font-family: Sotoportego-Medium, Sotoportego;
        font-size: 220px;
        font-weight: 500;
      }

      .cls-4 {
        fill: #c2452d;
      }

      .cls-5 {
        fill: none;
        stroke: #fff;
        stroke-miterlimit: 10;
        stroke-width: 2px;
      }
    </style>
    <filter id="luminosity-invert" x="-1161.24" y="-114.06" width="1946.88" height="1102.9" color-interpolation-filters="sRGB" filterUnits="userSpaceOnUse">
      <feColorMatrix result="cm" values="-1 0 0 0 1 0 -1 0 0 1 0 0 -1 0 1 0 0 0 1 0"/>
    </filter>
    <mask id="mask" x="-1161.24" y="-114.06" width="1946.88" height="1102.9" maskUnits="userSpaceOnUse"/>
  </defs>
  <g class="cls-1">
    <g class="cls-2">
      <path class="cls-5" d="M558.95,424.81l.21.31.31.62,1.55,2.69.83.31v.1l25.38,9.22,2.07,1.66,1.24,1.04.83,1.04.83,1.14.31.41.62,1.04.93,1.45,1.14,1.86,1.97,3.11,2.38,3.83,2.59,4.45,1.86,3.21.31.52.62,1.04.52.83.62,1.04.83,1.35.31.41.52.93.41.62.31.52.41.83.41.83.31.83.41,1.24.41.93.52,1.24.1.41.1.41.1.62.1.52.1.62.21.83.21.83.31,1.04.1.62.1.83.1.93.1.93.1.83v1.55l.1,1.24-.1,1.14-.1.41-.1.83,1.66.31-.62,3.32-.62-.1-1.04,4.45-.31,1.45-.31,1.24-.1.21v1.14l.1.31.1.31.1.21.1.31.1.31.1.21.1.21.1.21.31.31.31.31.31.31.21.21.21.1.31.1.21.21.31.1v.21l.1.1-1.45,10.26v.31l-.1.21-.1.21-6.11,4.14-3.42,6.01-1.86,3.11-3,4.87-1.97,3.32-.1.21-.21.31-4.04,3.83-4.35,3.63-.21.1-.21.1h-.31l-.21-.1-.21-.1-.1-.31-.62-.83-4.45,3.21-5.49,3.52-1.04.62-2.9,1.97-5.18,3.63-.93.62-2.38,1.97-.83.73,1.14,1.86-9.32,5.39-1.14-1.97-.52.1h-.31l-.52-.21-.52-.31-.21-.21-.1.1-2.18-3.11-.52-.62-2.59-3.83-.31-.83,1.24-.83-.62-1.04-.31.1-.1-.31-.83.41.21.31-.41.1-.1-.31-.41-.83-.1-.31.1-.41-.52-1.04-.93-2.18-2.38.93-.93-2.38,3.11-1.55-.62-2.59v-.1l-.62-2.59-.21-1.04-.1-.31-.31.1-.31-1.24.31-.1-.21-.83-.52.31v-.31l-.41-1.04-.1-.21-.62-1.76-.1-.41-.62-.83-.1-.1-.1-.1-.1-.1-.52-.62-.1.1-.1-.21-.73.62-.41-.73-.1-.21-.93-1.97v-.21l-1.76-4.25-1.35.52-.31-.52-.31.1-1.45-2.8,1.24-.62-1.04-2.28.83-.1-2.8-7.36-.1-.21-1.66-4.14-.1-.21v-.1l.93-1.45.83-1.66-2.59-4.04-.21-.73-.31-.83h-.1l-.1-.52.83-.21-.1-.62-.52.1-.31-2.38.52-.1-.1-.31v-.41l-.1-.41-.62-6.32v-2.28h.1l.1-1.76-.31-.1.31-2.18-.1-.31.1-1.04-.1-.31.1-.62.41-.1.62-2.18.31-.62.62-1.97.1-.31.62-1.35.52-1.14.52-1.24,1.14-2.8.73-1.97v-.1l.73-1.76,9.01-10.15,1.66-1.76,2.9-2.18-.1-.62-.1-.52.1-.62v-.31l.1-.31.1-.31,1.76-1.45-.93-1.66v-.21l-1.04-1.66-.1.1-.1-.1.1-.1-1.24-2.28v-.21l.21-.1,1.86-1.04h.1l1.35-.83.62-2.49.1-.1.62-2.59-.62-1.04,12.12-8.91Z"/>
      <path class="cls-5" d="M620.69,542.49l1.45,1.14,1.45-.31,2.8-.31,11.08-1.76,1.66-.1,1.45-.1,4.66.1,2.9.62,3.52,1.24.1-.31,5.8,2.38,5.18,6.53.31.41,16.16,20.1.73,1.04,7.56,10.15-1.14.83,2.38,3.21-1.55,1.14-2.49-3.32-.83.1-.52-.1-.1-.1-.21-.1-.21-.1-.1-.31-2.49,1.24-.62.31-4.45,2.28-14.5-19.79-1.04-1.55-4.97-6.73-21.24,10.15,1.97,4.45.21.41,1.86,4.25,8.49-3.94,2.59,5.49,7.15-3.32.52,1.24-.1.1-.52.21-4.45,2.18-.41.1-4.66,2.18-.41.21-2.38,1.14-.52.21-2.18,1.04,2.9,8.08.1.1.1.21.21.21.1.1.21.1h.93l.52-.1.52-.1,1.97-.1,3.73-.52-.1.52-.1.73.1.52v.62l.1.62.1.62.21.52.1.31.1,1.66.1,1.97-.31.62-.1.41-.21.52-.1.83.21,1.24.21.62.31.52.31.31.1.31.31.1v.21l-6.32.73-.31-.1-.31-.1-.31-.1-.62-.1.1.62.62,2.9.1.52,1.04,5.8.1.62,1.55,6.84.1.41,1.04,5.8.1.52,1.76,9.53.1.62,1.24,6.73.1.62,1.35,7.36.1.41.1,1.14,1.04.1.83,4.97v.31l.52,3,.1.31.41,2.9.62,4.25h.21l.1.83h-.1l.1.52,5.08,26.73,1.35,6.53.52,3.42,3.31,17.61.52,2.8,4.87,25.17.41,2.18,6.84,34.81.41,2.18,7.46,39.78.31-.1.62,2.9-.31.1,2.8,14.61.31,1.45,3.52,19.37.1-.1.1.52.1.83v.31l-.1.41-.31.52-.21.21-.31.1-.21.1-.52.1-8.39-1.45-.31-.1-5.18-.93-.52.52-3.21-.62-.31-.1-7.46-1.35-4.35-1.24-.31-.1-16.47-4.87-1.14-.41-14.61-5.28-23-14.09-2.59-1.66-15.02-9.22-.1-.83-5.9-3.63-.21-.21-1.35-1.24-.73-.73-16.68-15.75-15.75-15.02-.1.41-2.69-2.59,4.25-27.66.73-4.87.21-2.07.31-1.66.31-1.86,1.04-7.98.1-1.24,2.69-19.16,2.28-16.68h-.1l.52-4.35h.31l.1-.52.62-4.87.31-2.49,1.24-9.12.62-38.02.21-5.08-.1-1.35v-2.59l-1.76-12.64v-.1l-3-21.86-.1-.83-.31-2.07v-.21l-.31-1.97-.21-1.35-2.18-15.64-1.04-.31-.62.21-.62-2.18-.52.1-.41-2.49-.31-.31-.41.1.1-1.55,2.18-.31.31-.21,1.86-8.7.31-.31-.93-1.66,15.12-7.25,48.9-22.58Z"/>
      <path class="cls-5" d="M762.61,688.87l1.55-1.24.21-.1.31-.1h.31l.1.1.21.1.31.31.31-.21.31.41-.1.1,2.9,3.11,1.45,2.18,1.04,1.45.73,1.24,8.7,36.47-5.8,2.49-4.25,2.59.83,1.66.21.52.1.31.41.93.21,1.04.1,1.24.1.83.1,1.04v1.45l-.31,1.24-.21.83-.1.62-.31.41-.31.31-.41.31-.31.31-.21.52-.21.21-.31.1-.21.62-.31.31-.31.41-.21.31v.1l-.62.1-.52.21-3.11-10.88.1-.83-.1-.52-.52-.1-2.38,1.45.1.1-1.04.62-1.45-3.11-4.45,1.97-.52.83.83,1.76.1-.1.21-.1h.21l.21.1.1.1.21.21.1.21.21,1.04-5.8,2.18.93,2.28,5.39-2.18,2.49,9.01,5.59,20.93h.21l.1.52.1-.1.31.41.52.62.41.83.31.73.31.62.62.83.52.62.52,1.24.21.83.1.41.1,1.45.83,2.69-.83.31.31.73.73-.31.41,1.04-1.45.52,7.25,25.79.31.21,5.18,18.75,1.97,7.25-1.24,2.49-2.28,4.04-6.22,3.52,1.66,2.9.52-.31,1.76,3.11-1.86,1.04-1.76-3.21-.1-.31-.62-1.14.52-.21-1.04-1.97-.31.21-1.97-3.52-15.85,8.39-3.31,1.55.62,1.14-.1.1-5.49,2.9-2.38-.1-12.22,5.7-18.96,7.04-.83.31-.83.31-.83.1-.73.1h-.62l-.62.1-.62-.1h-.73l-.31-.1-.52-.1-.41-.1-.52-.1-.41-.1-.41-.21-.52-.31-.52-.21-.52-.31-.31-.31-.41-.21-.31-.52-.21-.21-.41-.52-.21-.41-.1-.31-.21-.31-.1-.21h-.21l-2.69-13.88-.41.1-.52-2.38h.1l-.41-2.38-.31-1.55v-.21h-.1l-.1-.52h.1l-5.08-26.52-5.18-26.21-.83-4.45-.21-2.49-6.53-33.98-.52-2.18-.52-2.8-.52.21-.31-2.59.52-.1-7.67-40.3-.52-1.55-.31-2.07.83-1.04.41-.1-.31-1.04,1.97.31.41,1.45h1.97l.62-.83h1.45l-.1-.31v-.31h.41l31.8-.52v-.31l4.45-.1,1.04.62h2.38l.31.1h.1l.1.73.41-.41h.83l1.04.21.73.1,1.86.1.52-.1.52-.1h.62l.62.1.62-.1.62-.1.52-.1.52.1.31.1.1.1,3.73-.1h1.04l9.01-.31,6.73-1.86,6.32-8.7,1.76-2.49.31-.41.31-.1,6.22-4.14Z"/>
      <path class="cls-5" d="M548.17,613.35l.1,1.04.52-.1.41,3.32.1.62.21,1.24.1.1.1,1.45.41.1.21,1.24h-.31l.1.83-.1.31.31,1.66.1.21.21,1.66.1.1.21,1.86v.1l.21,1.55.1.1.52,4.25v.83l.62.1.21.1.21.83.62,1.35-.31.1,1.45,3.11,3.83,6.73.62,1.04-1.66,1.24.21.31-.52.31.52,1.14-1.14.62.1.31-2.28,1.66.21.31-.21.52.21,2.38.21-.1,1.04,1.35-1.04.83.31.52.21,2.38,1.45,1.76.52,5.49-1.24.1,1.04,9.32.41,3.32.1,1.66,1.04,9.43-1.24,8.39-.31,2.49-.73,5.9-4.97,34.7-1.66,11.6-.31,1.76-.1.52-.93,1.66-3.21,8.49-24.24,4.25-10.26-11.91-6.84-7.77-12.33-14.3-2.38-2.9-.41.31-.31-.31-.62.31-3.21-4.25.52-.41-.41-.52.52-.31-6.32-8.18-.83.62-1.97-2.59-.21.1-.21-.41-.21.1-1.35-1.76.1-.1-.31-.41.1-.1-1.45-2.07-.31-.52.83-.52-6.32-8.29-3.94-5.18-6.22-8.39-.93.83-3.42-3.52.73-.83-5.8-5.59-.73.83-6.01-5.39-7.77-6.11-2.69-1.97-4.25-2.9-3.42-2.18-4.04-2.59-.1-.31v-.1l.52-.83,1.76-2.9.31-.62,4.87-3.32,1.66-.62,2.38-.73,3-.52v-.1l4.87-.83.1.1,7.87-1.45,5.49-1.04h.1l2.59-.52,1.45-.52,10.26-4.04,9.74-3.73,4.97-1.97.83-.31v-.31l1.45-.52v.1l.31-.1.1.1,1.14-.52,1.66-.62,2.69-1.24.1.1,1.76-.73,3.63-1.55,8.81-3.83,3.11-1.35,5.59-2.28,1.24-.52.83-.31,8.6-3.52,2.38-.93,1.97-.73,3.73-1.55.1-.1.73-.21.1-.1.52-.21,2.9-1.24,1.04-.41,4.56-1.66,4.04-1.45,4.25-1.24Z"/>
      <path class="cls-5" d="M627.32,199.39l26.83,46.2,2.59,44.03.31,2.18,1.24,19.79-6.01,1.76-9.32,2.59-.1-.31-5.7,1.45-.21.1-.31-.1-.21-.1-.1-.1-13.88,3.73-.1.52-.31.31-1.97.52.21.83-4.14,3.32-15.02,12.33-1.97,1.66-.62.52v.1l-1.35,1.04-.21-.1-8.6,7.04-.1.52-.21.1-.21-.1-.52.21-.83.73-.31-.31-2.07,1.76-.52.41-.52.52-.93.73-.62.52-2.59,2.07.31.31-.62.52-2.07,1.76-.1.52-.41-.1-2.38,1.97.21.31-7.67,6.11-.21-.21-3.42,2.9.1.1.1.1-.1.21h-.31l-.21-.1-1.04,1.24-2.49-1.86-1.35,1.86-2.8,3.73.31.1.21.31-.1.52v.52l-.31-.21-10.46,8.39.1.21-1.35,1.35-1.76-.52-.1-.31-15.23-2.38-22.58-3.73-2.69,3.63-.73-.31.1.31-3.63-1.04.1-.1-.83-.31-.83-.21-9.95-2.59-.31-.31v-.41l1.04-4.04.1-.52-.31-.41-5.39-1.35-.31.73-.52-.1.31-.83-7.25-1.76-.21.83-.52-.21.21-.83-7.15-1.76-.21.73-.52-.1.21-.83-7.25-1.76-.21.73-.52-.21.21-.62-7.04-1.76-.21.62-.62-.1.21-.83-7.25-1.76-.1.73-.41-.1.1-.73-8.08-2.07-.21.73-.52-.1.1-.73-6.32-1.66-.31.73-.31-.21.1-.62-5.39-1.45-.1.83-.52-.21.1-.73-5.49-1.35-.21.73-.41-.1.1-.83-10.98-2.69-.1.73-.62-.1.31-.83-12.02-3.11-.31.62h-.31l.21-.83-8.49-2.18-.21,1.04-.52-.1.31-1.04-7.04-1.76h-.52l-.52.1-.41.21-.52.52-.21.41-.52,1.14-2.18,6.22-.31.62-.52.1-3.52-1.14-1.55,3.83,2.69,1.14,1.04.52.31.21v.21l-1.04,2.69-.52,1.76-.31.21-1.04,2.49.21.21-1.04,2.8-.31.31-.31.1-3.94-.62-2.18,6.22.93.31-.52,1.45,2.38,1.45.21.1.1.21.1.31-1.45,4.04-.1.21-.31.31-1.97-.52-1.04-.21-2.18-.52-1.35,3.83,2.18.62,1.04.31,1.66.52.1.1.1.1.1.1.1.21-1.97,5.49-.31-.1-.62,1.66.31.1-1.24,3.42-.52.1-.31.73.1.1.1.41-1.76,5.08-.1.1-.21.1h-.21l-.21.73.21.31.1.21-3.83,10.57-5.8,16.16-.1.31-.1.31-.31.31-.31.31-.31.21-.31.1h-.31l-.41.1-.31-.1-5.39-1.76-.1-.1-.1-.1-.1-.31-.93-.1-.31.1-9.12-3h-1.14l-.31.1-.31.1-.21.21-.21.21-.93,2.28-4.87,12.22-.31.62-.21.31-.52.1-1.14-.31-1.04-.31-19.79-5.39-.21-.1-.21-.21-.1-.1-.1-.31v-.1l3.31-11.81.1-.31.1-.1.1-.1.31-.1.31-.1.73-2.59h-.1l-.31-.31-.1-.21v-.31l.52-1.76.21-.31.41-.1h.1l.31-.31.41.41-.1.41.62.21.73-2.8,8.6,2.38,1.35-4.97-9.74-2.8h-.1l-.31-.21-.1-.21.21-.83.31-.31.1-.1.41.1,1.97-7.15-.31-.1-.21-.21-.1-.31.41-1.45.21-.1.31-.1h.31l1.24-4.45-6.63-2.59.52-1.66,6.73,2.07,6.63,2.38,4.77-13.47.41.1.31-.93-.31-.1,5.8-16.37-6.53-2.38-1.14-.52-.31-.21-.31-.31-.1-.31-.1-.31-.1-.31-.1-.41v-.41l.1-.41,4.87-12.95.21-.62h.31l.41-1.04-.1-.1-.21-.21.31-.83,4.35-11.71-.41-.1,3.42-10.46.1-.31,1.76-6.22v-.21l-.1-.21-.1-.21-.1-.31-.1-.21-.21-.21-.31-.21-.1.1-8.49-1.76-.1-.1.62-3.32,10.26,1.97.73.62h2.69l19.89,4.04.73.1,9.43,2.59,23.72,6.11.1-.31,7.77.62,5.18-2.9,20.82-5.8.31-.1,18.13-4.97.31-.1,21.13-5.7,2.49-.73,6.11-1.66,2.8-8.08,19.99-18.75,17.82-16.89,10.26-9.74,8.08-7.67,4.35-4.04,2.9-1.76,7.15-4.66,26.21-17.4,28.7-7.46,31.29-8.08Z"/>
      <path class="cls-5" d="M487.47,449.88l4.35,2.18.31-.52,1.35.62-.21.62,6.53,3.52,11.71,7.25-3.31,6.01-.31-.1v.31l-.31,1.24v.21l-.31,1.97-.21.52-.21.62,2.07.41.1.1-.41.73-.31.31-.1,1.45.1.31-.1.1-.1.62v.1l-.73-.1-.1,1.04-1.14.1-.1.31.1.31-.21.83.21.21-.1.41.62.1-.31,1.55-.83-.1-.1.83-1.04,5.39.21,1.24,1.14-.1.1,1.55-1.04.21.41,2.38.1.83.31,1.66,1.45,6.32v.31l.52,2.07.1.21.52,1.97-.31.1.31,1.14.21.73.73-.73,1.76-.52.62,2.18-2.69.73.1.31.31.83.83,3.42.41.73,2.07,4.97,2.9-1.24,1.04,2.69-1.04.52-.52.1-1.35.62,1.45,3.32,2.38,5.7,1.97,4.56.1.31,1.66,4.25-2.69.93-15.95,5.9-.83.31-1.04.31-3.21.83-1.04.31-3.11.83-1.76-6.73-2.07-5.39-2.49-1.97-1.45-1.04-.73-.62-5.59-4.56-.52-.52-1.14-2.69-.21.31-.1-.31-.62-.83-.1-.1-.31-.93h-.1l-.41-1.04-.21-.62-.31-1.24-.1-.31-.52-2.59-.41-2.69-.52-4.14-.62-4.66-.83-6.53-.41-3.32-.31-2.59v-.93l.21-1.24.1-.62.31-2.59,1.14-2.18.1-.41,1.14-2.38.31-.52.52-.93.52-1.45.62-1.14.83-1.45,1.24-2.59.31-1.45.41-1.76.21-1.86.31-2.07.62-3.52.62-1.76.62-1.76,1.04-2.8,1.76-5.08.62-1.24.83-2.69,1.66-2.69Z"/>
      <path class="cls-5" d="M438.99,436.31l1.24.31.1.31,1.97.31,8.81,1.24,10.57,1.66.1.1,2.69.62.31.1,2.18.62,1.97.52v-.1l1.04.31-.1.41,1.24.41.1-.41,1.24.31-.1.41.83.21.1-.52,5.39,1.76-.62,1.66,1.04.31.52-1.45,4.04,1.24-.41,1.14,1.45.62-.62,2.69-.31.93-.83,2.38-.52,1.24-.83,2.9-.52,2.59-1.35,4.66-.93,3.21-1.14,4.25-1.04,3.32-.21.83-.31,1.14-2.8,6.94-.21.41-4.04,8.6.31,2.8v-.1l.21,1.04.41,2.69.21-.1.1,1.24h.21l.1.83h-.1l1.35,11.19.1.83h.1l.1.62-.1.1.21,2.49.62,3.42.1-.1.21.83h-.1l.83,3.11.31,1.35h-.1l.52,1.86.62,1.14,1.55,1.76-.1.1.41.62.21-.1,1.76,2.07,4.04,3.83.62.52-.21.1,1.55,1.24.62.52,3.11,2.69.1-.1.52.41-.1.1,1.45,3.52.93,5.18.1.31-4.04.93-5.18,1.14-11.29.62-.52.1-1.45.31h-.1l-14.5,1.55-1.04.1-.31-1.66-1.14-9.32v-.21l-1.24-9.53.1-.21.31-.21v-.1l.83-.73-.52-1.97-.21-.73-.31-1.24-.31-1.97h.21l-.1-1.04h-.1l-.21-1.45-.41-2.69-.73-3.83-.31-2.9-.1-1.24-.1-.1-.31-2.18-.73-5.8-.52-3.83-.21-1.45-.31-3.32-.1-1.35-.31-2.18-.1-.83-.52-4.14-.52-4.04-.83-6.94-1.45-11.6-.31-2.38-1.76-15.23-.83-6.63-.73-5.59-.21-1.04v-.41h-.31v-.93Z"/>
      <path class="cls-5" d="M465.61,391.14l.41-.1,1.66.62v.62l2.69.83,16.58,5.28.31-1.14.21.1,1.66-5.7,3.11.73,3.21.83,3.83.93.93,4.25,2.69.62,14.19,2.8,22.69,4.25v.1l.62,1.66v.1l6.11,10.46.21-.1.1.41-.31.1-18.44,15.54-.62.93-14.5,24.34-17.09-11.29-5.28-3.42-2.9-1.45-9.32-4.77-2.59-1.24-5.8-2.9-1.24,1.97-1.66-.73-.41-.21-1.24-.52-.1.1-.21.41-12.02-2.28-14.92-2.59-2.18-.52-.21,6.32.1,1.97.1,1.04.21,3.32.1,1.97.93,6.53.52,3.73.73,7.25.83,6.84,3,22.58.62,4.77,2.28,18.03,1.35,10.46.73,6.22.1-.1.21,2.07-2.07.1v-.21l-8.6-.41-22.89-1.04-3.73-.21-19.37-.93-12.02-.62-11.19-.62-3.63,1.66-8.08,3.52-3,1.24-7.25,3.63-5.8,2.69-.31.1-.73.41-.31.1-6.11,2.9-.62.31.1.1-8.18,4.25-.1-.31-.52.31-.83.93-3.11,2.69-2.18-1.66-.1.1.1,1.45-2.9,3.73-1.66.1-1.04,1.45-1.45.21-1.24,1.45-1.35.1-1.24,1.55-1.35.1-1.24,1.45v.1l-2.38,1.55h-.52l-3.73,2.18-1.45,6.63-.93,4.25-1.04,2.38-.41.93h-.1l-.1.41-.31.62-2.28,2.69-1.35,2.28h-.31l-3.83-2.49-1.24-.83-19.68-13.05-5.39-3.63-.1-.21-.1-.21,2.38-3.42,1.97-3.11.31-.41.1-.83-.52-.52.62-2.9.41-1.86.21-.83.41-1.76.1.1.73-2.9.41-1.14,1.55-6.11.21-.62.31-1.24,1.76-6.73,4.04-15.02,3.83-14.92.83-4.66,1.04-19.68.1-1.04.83-7.87.1-1.14.1-1.86.31-.93v-.1l1.04-4.97,1.45-3.73,4.66-11.81.1-.21.21-.1.41-.1h.31l.31.1,15.95,4.35.41.1,3.94,1.14.93.31.52.1.41.1.31.1.21.1.1.31v.31l-1.97,12.12h-.31l-.21,1.04.31.1-.52,2.69v.93l.1.21.1.1.31.31.31.21.52.1,12.02,1.97.31.1.1.1.21.1.21.1.1.31.1.21.1.31.1.31.1.31v.62l-.62,3.94,6.84.93-.1-.21-.1-.1-.1-.21.31-1.45.1-.21.1-.21.1-.1.31-.1,1.14.21.1.1.1.1.1.31-.31,1.66-.31.31,6.53.83.62-3.83.1-.31.1-.31.31-.31.31-.31.52-.31.62-.1,8.81,1.35,25.59,4.04,20.2,3.32,5.8.93.83.21.83-.1.83-.1.83-.21.73-.31.73-.41.73-.52.73-.52.62-.83.52-.62.52-.83.21-.52.93-2.8,13.05-42.27,2.18-7.46-.1-.31-2.9-.83-.93-1.76,1.35-4.25,1.76-.83,2.8.83.31-.1,3.94-12.74.62-.83.52-.21.83-.1,8.08,2.38,8.18,2.28.31-.1,4.56-3.83.31-.1,1.55.21.31.83,5.8,1.86,4.45-6.73-5.7-1.76-.62.41-1.66-.62-.21-.1v-.52l.83-1.24.21-.1.52-.1,1.45.62.1.52,3.42,1.04,4.66-6.84-3.31-1.14-.41.1h-.41l-1.24-.52-.21-.31v-.31l.41-.73.83.1Z"/>
      <path class="cls-5" d="M519.48,547.26l.62,1.35.1.1.62,1.55.31-.1.1.31.41.83v.1l.52,1.45.41.62.62,1.24.1.1-.21.1.41,1.04.31-.1.83,1.97.1.1.1.1.31.62.1.1.21.52.1.21.21.31-.52.21,1.24,2.38-.31.1,2.18,4.04,2.38-1.35,4.45,7.87-2.49,1.24.31.52-.31.21.31,1.04,1.24,2.69,1.04,2.28v.1l1.04,2.38,2.9,6.63,2.07,1.35,1.76-.73,1.35,3.32,1.66-.62.1.21,2.18-.83.1.31-.62.21.41,1.35-.62.1.31,1.14h-.1l.31,1.04.21-.1v.1l.1.41.1.83.31,1.04.1.41,1.04,3.52.62,2.38.62,1.76,1.45-.41.21.83-.31.1.1.52-1.24.41v-.1l-4.35,1.55-7.46,2.69-1.66.62-9.01,3.73-.21.1-.83.31-.1.1-7.77,3.21-8.6,3.52-.83.31-1.24.52-8.81,3.63-8.81,3.73-7.98,3.32-1.66.73-8.81,3.73-9.74,3.94-10.46,4.25-3.11.21-2.59.1-.83.31-2.18.52-7.87,1.45.1.31h-.1l-4.77.83-6.22,1.35-1.35.31-1.66.83-1.14.62.1-1.76-1.14-.1-.21,1.86h-.1l-.1.83-2.9-.21-1.66,2.38-1.76,2.8-.31.62-.31.31-.31.21-24.97-14.81-23-13.67-35.95-21.34-28.28-16.68-1.66-1.04-3.73-2.28v-.21l1.45-2.69,1.14-3.32.62-1.45.52-1.04.31-.83.1-.1.1-.1h.1l-.1-1.35-.1-2.07-.62-5.9.73-1.04,1.45-1.45,1.14-1.45,2.18-1.55,1.45-1.04,1.55-1.04,3.42-2.38,2.59-1.76.83-.62,2.69-1.76,2.18-1.24.62-.31,2.07-1.14,3.52-1.66-.1-.31,1.55-.62,2.59-1.24,1.04-.52,6.32-2.9.93-.52,3.11-1.45.52-.31.73-.31.52-.21,5.39-2.59,3.52-1.66,2.38-1.14,3.73-1.76.83-.41,1.66-.83,4.45-2.07,3-1.45.52-.31.73-.31.62-.21.52-.1h.31l.52-.1h.52l.52.1,4.66.1,3.31.31,11.91.52,22.79.83,12.12.41v-.1l.83.1v.1l9.95.31,1.97.1v-.1l1.04.1-.1.1,5.59.1h.31l.1.1h.41l.31.21.31.21.31.31.21.41.1.41v.31h-.1l.83,7.87v.21l.93,9.53.21,1.66-.41.1-8.81.73.52,3.52,8.81-1.14,1.97-.31,2.28-.21,15.33-1.55h.31l1.55-.31,21.24-2.8v-.1l.93-.1.1.1.93-.1,5.18-.62.1-.21.83-.1.1.1,2.18-.31,1.55-.62,13.99-6.11,1.24-.72Z"/>
      <path class="cls-5" d="M151.82,261.96l14.5,9.84h.1l3.31,2.18v.21l8.6,5.8-.1.83,2.59.41,2.07.31,2.8.52,2.9.62,6.22,1.04.1.1,1.35.21h.1l17.09,3.32.1-.31,4.97,1.24,11.19,2.8,8.08,1.97,14.4,3.21,1.04.31,8.18,1.76-.41,1.04-.31.73-9.12,21.75-.1.41,23.72,8.49,1.24-3.83-17.82-6.11,7.04-20.41-.31-.1.41-1.14.1-.31,16.78,3.63,33.25,7.04.62.1-.73,3.32v.1l-.1.1-11.19-2.49-.31,1.04-.1.1-.73-.21-1.04,4.04.62.1.1.1.1.1-.83,3-.1.1-.21.1-.62-.21-1.04,4.14.41.1.1.21.1.31-.73,2.59v.1l-.1.1-.1.1-.52-.21-1.14,4.35.41.1.1.31.1.93,8.08,2.9.31.1.1.21v.21l-5.18,14.09-6.73,18.23-.31.73-7.56,20.51,4.25,1.76-.62,1.55-4.66-1.66-3.73,2.07-12.33,38.33-.1.1h-.1l-.52-.1-.62,1.97.52.21v.31l-.21.31-.31,1.04-.21.62-1.76,5.8,1.97.62-.1.83-.1-.1-1.76,5.59.21.1-2.38,6.73-.21,2.9,4.25,1.86-.1.31.52.1.41.21.41.1.1-.31,3.52,1.24.21,1.66-.83.1v.52l.83-.1.1,2.38h.1l.62,1.04-.1,1.97-2.18-.31v.1l-1.86-.1-3.73-.21-6.53-.21-2.18-.1-.83-.1-6.01-.21h-.41l-.73-.1-8.81-.52-.21-.93-2.07-8.81,2.59-2.8.52-.52,2.28-2.49,1.24-1.45.52-1.66,1.86-5.8,8.18-25.48,5.8-17.82,2.59-7.87.52-1.45.31-.83,3.73-8.6.31.1,2.07-4.66.1-.31-6.42-2.8-.52.83-.83-.41-.1.41-11.08-5.28-2.07-1.04-2.49-1.14-1.14-.52-.1.1-8.7-4.45-.31-.1-1.35-.62-2.9-1.45-3.21-1.66-.83-.31-2.8-1.35-1.76-1.24-.31-.21-.73-.52-1.86-1.04-1.55-.1-8.81-3.11-3.11-1.04h-.62l-8.08-.83-2.59-.41-3.42-.52h-.1l-6.22-1.04-1.66-.21-.62-.1v.31l-7.15-.41-2.69-.1-1.04-.1h.1l-2.8-.1-3.83-.21-3.52-.1-2.69-.21-1.55-.1-3-.52-1.55.1-8.18-.31-.83-.31-1.04-.1-2.59-.1-.21-.1h-.1l-.1-.1v-.1l-.1-.1v-1.14l.1-1.45.1-.83v-1.14l.21-2.59.1-2.18.1-1.14.1-1.76.1-.62,1.45-12.33,1.66-14.3-.31-.1.73-7.67h.41l.1-.73.31-1.04,1.45-14.19.52-4.66-.1-.1,1.04-10.15-.62-.1.1-.83.62.1-.31-.83,1.04-1.45Z"/>
      <path class="cls-5" d="M233.45,469.87l.1-.1v-.1l.1-.1.1-.1.31-.1,4.45-.52h.83l1.24-.1.1.1h1.24l8.6.31h.93l6.32.1h.83l8.81.21,3.73.1,3.73.21.1,3.42-.1,2.07h-.31l-.1,1.97.1.1-.1.31-.1,1.04v.31l-.1-.1-1.04,11.29-1.04,13.47.31.1-.1.31.21.1v.31l-2.28,8.49-.1-.1-1.55,4.97-1.66,6.01-.83,3.11.1.1-.1.62-1.04,3.83-2.69,11.08-1.55,6.42-.52,2.18-.31,1.04-.73,1.45-1.04,2.28-.62,1.24-2.18,2.9-2.28,3.52-.1.1h-.31l-14.4-10.67-1.04-.73-.1.1-1.97-1.45.1-.1-1.04-.73-1.04-.83-12.85-9.74-4.25-3.11-.1-.1-.1-.1v-.1l2.38-5.08,2.28-3.52,2.07-2.59,1.35-1.55,5.9-7.15,3.52-4.14.1-.41.52-2.49.62-1.24.21-.52,1.04-1.97,1.97-5.8-.31-1.55-1.55-9.12-.1-.52-.41-2.9-.1-.62h-.1l-.41-2.49-.52-3.52-.73-5.59-.31-1.04-.1-1.76-.1-.1.21-.62Z"/>
      <path class="cls-5" d="M249.51,370.53l5.18,2.38,6.32,3.52,3.63,2.18,3.83,2.07-2.07,4.56-.31.73-2.59,5.28-2.59,4.87-.93,1.86-1.76,3.42-.1.1-.52,1.24-1.24,2.38-2.9,4.56,1.45.62,1.76.73-1.24,4.14-.62,1.97-4.14,12.53-5.18,16.16-1.24,3.73-3.11,3.52-.52.62-3.21,3.52v.21l.31,1.76.31,1.24-.31.1.1.41h.31l1.24,5.9-.21.21-.1.1h-.1l-.83.1-.1-.1-5.08.83-1.66.21-1.14-1.97-.21-.52-1.66-1.76-1.86-1.97-.73-.62-.62-.31-4.45-2.9-3.73-3.21-2.18-2.18-.1-.1-.73-.52-.1-.1-1.66-1.66-.93-1.04-2.69-3.63-3.63-5.49-.31-.62-2.38-3.83-1.55-2.49-.93-1.76-1.04-1.76-2.18-4.66v-.1l-1.24-2.59,4.04-2.9,3-2.49,1.04-.62.52-.31.31-.21,3.52-3.11,3.52-3.11.93-.83.31-.21,4.25-3.11,1.24-.83,2.59-2.38,2.38-2.18-.1-.1,2.28-2.38,3.31-3.32,1.04-.93.73-.73,5.8-6.32,1.04-1.14,3.73-4.04.1-.1.52-.52.52-.52,2.9-3.32.31.1,3.63-4.97.83-1.35Z"/>
      <path class="cls-5" d="M142.5,347.84l.41-.1,7.56-.1,1.24.1,4.56.21,1.66.1,9.95.73,3.83.21,3.73.21v-.1l7.04.62,3.83.41,1.66.21,2.69.1h1.97l5.39.41,4.87.62,2.9.62,2.69.52,1.76.52,5.59,1.97.62.31.93.52,4.87,2.18.83.31.21-.62,7.04,3.52.21.1.62.31.1.1,1.04.52.83.31,1.86.93,1.14.62.1.1,10.15,6.01-.1.1-4.56,6.22-.52.83-.21-.1-.41.52-.62.62-.21.21-1.76,2.18-.41-.31-.31.41-3.31,3.63-3.31,3.63-.52.41.41.52-2.49,2.38-1.24,1.24-3.83,3.83-.21.31-1.76,1.97-2.18,1.55-4.04,3.11-.52.31.1.1-1.04,1.04-.73.62-2.18,1.76-.62.52-4.77,3.83-2.59,1.76h-.1l-.52.52-.52.31-2.18,1.76-7.36,5.7.93,1.76,1.35,2.69,2.18,4.87.52,1.04.41,1.04,2.59,3.42,2.49,3.21.31.52v.1l3,5.39.52.93,1.45,2.49,1.14,2.07,1.24,1.66,1.04,1.24.1.1.31-.41.83.62.31.52,4.04,3,5.7,4.87,1.14.93,1.24,1.24.1-.1.62.62-.1.1,2.69,2.59-.1.1.1.1-.52.73.62,1.45,1.76,3.21.52,2.8.1.62.52,2.59.52,2.59.62,4.25.1.62.62,2.18,1.45,6.22-.21,2.9-.1,1.35-.1.62-.52,1.86-1.04,3-.41,1.04-.21.41-.21.31-.31.52-1.04,1.97-1.76,3.11-.52.62-1.24,1.04-4.66,4.25.31.31-1.45,1.45-.1-.1-1.04,1.04-2.59,2.69-1.14,1.45-2.38,3.42-3,4.87-.1.1-1.76-1.04-.1-.1-2.38-1.45-4.25-1.76-.31-.21-3.63-1.24-.31-.1-5.59-1.76-.62-.21-1.76-.52-1.97-.41v.1l-6.01-.93-.31-.1-3.42-.31-4.97-.41-1.35-.1h-.41l-3.52-.31h-.41l-2.18-.21-.31-.1-2.28-.1-.52-.1-8.29-.62h-.31l-2.59-.21-.31-.1-3.94-.31h-.31l-5.08-.52-.62-.1-3.31-.31-.1-.1-.1-.1.62-6.32.62-3.83v-.1l1.14-8.08,1.45-7.46.31-.93.41-2.59,1.04-4.97.62-2.59.1-.83.52-2.59.52-1.14.73-3.11.62-2.38h.1l.31-.83,1.04.31,2.38-7.25h.1l.52-2.59,1.45-6.73,1.24-4.45.62-3,.73.1.31-2.18.1-.93.1-.83.1-.62.1-.73-.1-1.66-.21-1.04-.41-1.35-.73-5.28h-.52l-.21-1.04-.1-1.04v-.1l.1-.1.1-.1-1.55-3.63-1.45-1.76-.93-2.28-.83-1.66-.62-2.28h.1l-.31-.93-.62-1.14-.1-.52h-.1v-.31l-1.24-3-.31-1.35.1-4.04.83-4.04.52-1.97h.1l.31-2.38.83-6.11.52-4.87v-.52l-.1-2.69-.31-.1-.1-1.76.31-1.66v-.52l-.93-6.22-.62-3.73-.52-2.07-.73-3.21-.62-3.32h.21v-1.24l-.73-.1v.1l-.62-.1-.21-1.24-1.04-5.18h-.1l-.1-.52h.31l.1-.52h-.52l.1-4.66.1-1.35.41-1.14Z"/>
      <path class="cls-5" d="M42.43,183.64l.83-2.18,2.59,1.97,13.16,9.84,1.35,1.04,14.61,11.19.31.21,1.76,1.35,4.04,3.11,20.3,15.12.83.62,3,2.28.31.1,29.94,21.96,2.18,1.55,3.83,2.9,5.18,3.73-1.45,1.97-.62,5.8-.83,7.67-.83,7.25-.62,6.94h-.93l-.52,4.04h.83l-.1,1.24h.1l-.62,6.84-.1.73h.62l-.31,3.21.21,3.73-.93.1-.52,5.39.1.52.83.1-.21,4.97-1.04-.1-.31.31-.1,3-.1,2.18-.31,5.8.1,1.24-.62,7.56-.62,6.42-3.21.1h-4.66l-6.94.31h-3.31l-2.07-.1-4.56-.52-6.53-1.45-1.55-.31-3.52-.83-4.97-1.14.1-.83-.31-.1-.31.73-.62-.21-.1.1-2.9-.73-1.04-.41.21-.73-2.28-.62-5.59-1.45-3.52-.93-.1.1-7.77-2.28h-.1l-1.04-.31-1.97-.52-2.69-.83-1.45-.31-3.73-.62-1.86-.21-1.24-.1-4.45-.83-1.45-.41-.1.31-.83-.1-.62-.21-.41-.1-1.97-.21-2.18-.31-5.59-.52-.83-.1-1.66-.31-1.45-.21-.83-.1-.73-.1-.1.41-1.55-.21-1.04-.1-1.14-.1-1.97-.21-5.8-.52-1.76-.21-2.8-.31-.52-.1-.41.1-1.04-.31h-.21l-7.56-.62-1.14-.31-2.59-.62-2.49-.52-4.14-.62v.1l-1.66-.41.1-.62-.93-.21-6.63-1.45.93-5.8.52-1.76.41-2.59h.1l.1-.62.62-1.45.21-.52,3.73-9.43,5.39-13.88.1-.31.83-2.18.31-.62-1.24-.41.52-1.55.73-1.76,7.87-20.51,3.63-9.12-.41-.1.83-2.18.41.21,1.24-3.32,5.39-13.67.52-1.66h.21l3.83-9.12,3.31-7.77-.31-.1.41-1.04-.1-.1,3.73-8.81.52-1.04.52.21,7.04-15.02.93-1.45Z"/>
      <path class="cls-5" d="M37.66,330.64l2.49.31,9.53,1.45.1-.41,1.04.1h.31l1.66.31,6.32,1.45,1.97.41,4.04,1.04,5.49,1.04.21.1,1.04.31,6.94,2.18,4.25,1.24,8.08,2.28.93.31,1.97.52,6.73,1.66-.52,4.56-.31,3-1.04,11.81-1.14-.31-1.35-.52-4.14-.83-1.97-.83-.83-.31-.1.52-1.04-.41-.62-.41-.1-.1-.52-.31-.52-.31.1-.31-1.35-.62-.1.31-1.04-.62.1-.21-1.04-.52-5.49-3-2.69-1.66-3.42-1.97-1.55-.93-3.31-1.86.21-.62-1.76-.83-1.45-.73-1.35-.73-2.38-1.35-3.42-1.66-1.45-.62-2.18-1.04-2.49-1.14-2.38-1.04h-.21l-1.45-.41-.31-.1-2.9-1.66.21-.41-4.04-2.28-2.07-1.45.31-2.38Z"/>
      <path class="cls-5" d="M104.38,349.5h6.73l9.74-.1h3.21l11.71-.1,2.69,9.43,1.24,2.9.83,2.07.93,2.9h.21l.21.73-.1.1,1.55,4.35.21-.1.21.62-.21.1.52,2.8h.1l.1.41.73,7.36.1,1.55.41,3.73-.52,3-.52,2.69h.21l-.31,1.97-.52-.1v.52l.21.1-1.66,8.81-1.04,8.7.52,1.35.21.62.21-.1.41,1.24.1.52h-.21l.31.93.52,1.24.1.52,1.86,4.25.21.62.21.31,1.66,2.38,2.38,4.45.31.52.62,2.18,1.14,5.39.1.93-.21,1.24-.1,1.14-.21,1.04-.1.1-1.04,5.18-.21.73-1.55,6.73-1.66-.41-.41,4.25-.52,2.59-.1.62-2.59,9.12-.21.73-.62,2.18h.21l-.52,1.76-.31,1.04-.1.62-4.04,17.4-1.97,12.43-.31,3.83-.62,6.32-.1.21-.21.21-1.97-.21-.31-.1-5.08-.41h-.31l-1.97-.1-1.55-.1-1.04-.1-2.18-.31-2.18-.21-3.11-.31-4.25-.31-.31-.21-.1-.21-.1-.31-.1-.93v-2.28l-.1-1.45.1-1.24v-3.73l.31-8.39.1-1.04.21-3.73-.1-2.8-.1-3.83-.21-1.45-.21-4.66-.31-3.11-.31-3.52-.41-4.04,1.04-.1-.83-5.59-.31-.83-.83-2.69-.62-4.25-.41-4.14-.1-2.59-.41-6.32v-1.45l-.73-.1.1-3.52v-4.87l.21-8.7-.1-.62-.21-5.7-.1-1.66-.1-1.66h.1l-.31-10.88.1-.1-.1-.73-.21-13.16-.1-1.97h-.83l-.52-.52-.1-1.55-.1-1.45.52-.1-.1-1.97-.62-1.86-.31-3.32-.21-1.55v-.21l-.31-2.69v-.21l-.31-2.8-.21-1.66-.21-2.18-.1-.52-.1-2.9,1.14-9.22,1.76-5.39Z"/>
      <path class="cls-5" d="M48.54,343.59l6.53,2.9.62.31.62.41,4.87,2.59,2.28,1.14,2.28,1.24v.1l.31.31,4.25,2.18,3.11,1.66,2.38,1.24,5.39,3.11.62.31,5.59,2.69.31.1.52.31.31.1,2.9,1.14,1.66.73,4.87,1.97.31,6.32.21,8.6-.1,1.97.1.31.21,3.11h-.41l.1,1.97.52-.1.1,1.24.1.62-.41.1.1,1.24h.41l.31,4.25h-.41l.1,1.24h.52l.41,4.45h-.41l.1,1.04.41-.1.52,5.59.41,5.39.41,2.9.1.41.1,1.76.52,7.46.1,1.66-.62,5.18.62.93-1.04,1.97-1.24.1h-.83l-2.18.1-2.07.1-1.24.1-.83.1-1.04.1-2.59.21h-.41l-.62.1-4.25.21h-.21l-1.04.21-8.29,2.28-.1-1.66-.52-4.14h-.21v-.41l.21-.1-.1-.52-.1-.31.21-4.56v-.52l-.1-.52v-1.24l-.1-.83-.21.1-.1-.52h.21v-.52l-.1-.52-.1-.41-.1-.21-.1-.31-2.18-3.83-.52-1.04-.62-1.04-1.45-2.69-.52-.83-2.18-3.83-2.59-4.45-.1.1-.31-.73.1-.1-1.24-2.18-.1.1-.31-.31-.1-.31.1-.1-.21-.31-.62-1.04-.1.1-.41-.73.1-.1-1.86-3.32-.1.1-.52-.83.1-.1-1.35-2.28-.52-.93h.1l-.31-.52-1.45-2.49-.62-1.04-.21-.41-.31-.52-3.83-7.25-.31-.52-.1-.31-.1.1-.1-.31.1-.1-1.66-3-.1-4.45v-3.94l.1-4.45.1-2.9v-.52l.52-5.08-.31-1.66-.1-.62v-1.45l.31-1.14,1.14-7.25Z"/>
      <path class="cls-5" d="M80.76,441.18l1.76-.73,1.04-.31.1.52,3.94-.52,2.49-.21,1.45-.1,1.14-.1,6.32-.31h.62l1.24.83.1,2.9.21,1.97.83,6.32,1.86,12.53.1,1.45.31,2.07.52,14.19-.21,17.82-.1,2.18-.31,4.25h.73l.1,1.97v4.04l.1,1.24v.41l.1,1.97v.21l.1,1.24v.62l-.1.31-.1.31-.21.21-.21.21-5.18.31-3.42.31-4.87.52-.21.1-3.73.41-.21.1-1.35.1-1.04.41-2.69.31h-.21l-1.76.1-.1.1.1.31-.1.41-.1.31-.31.31-.52.31-.73.1-.21.1-3.63.52-.31-.1-.31-.1-.31-.21-.1-.21-.21-.31-.1-.41v-.21l-.31.1h-.21l-4.66.62h-.31l-.52.1-4.14.52-2.38.52-5.49,1.45-.52.1-5.28,1.45-.52.1-.83.1-.52-.52-.21-1.04-.1-.31-.31-1.86-.31-1.45-.31-1.04-.73-3.52-.31-1.14h-.1l-.62-5.49-.1-.83-.41-3.32-.83-5.08-.1-.93-.41-2.59-.31-3.21-.31-2.69-.31-2.8-.73-6.53-.31-3-.31-2.49h-.1l-.31-2.9-.1-.83.1-1.24.1-.31-.1-.1-.1-1.04-.1.1v-6.73l2.49-.52,1.45-.31,1.04-.1-.1-.31.52-.83,4.25-5.18,1.45-1.45,3.42-3.52,2.49-.93,1.45-.62h.1l2.69-.93v.1l1.14-.41.31-.1,1.04-.31.31-.1,7.46-2.9,2.59-1.04-.1-.31,1.86-.73.21.31,4.66-1.97.41-1.14Z"/>
      <path class="cls-5" d="M2.54,328.47l4.45.31,1.04.1,4.04.31,1.86.1-.21-.1,1.35.1-.1.31,1.14.1,1.14.1,3.11.52,2.69.52,3.11.52v-.1l4.97.62,1.24.21v.73l.83.83,1.66.52.83.62.52.31,1.24.73.31,1.04v.31l3,1.45-.1.31,3.31,1.97,1.04.62.1.1,1.55.73-.41.83-.1.21-.31,1.86-1.04,4.35-.62.93.52,7.46v2.9l-.1,6.01h-.1l-.1,1.97h-.1l-.1,1.76-3.52,1.35-.62.52-3.52,1.97-4.87,2.69-.73.52.1.1-.1.1-.1-.1-.41.31.1.1-.1.1h-.1l-1.35.83-2.28,1.76-1.76,1.55-.31.31-4.35,4.45-.73.83-.73.93-.73.93v-.1l-.62-.52-.52.52.73.52.1.1-.62.83-.1.21-.52.62-2.18,2.9-.52.62-1.24,1.66-.52.62-1.04,1.45.31.31-2.59,3.11-3.52,3.21-.21-.1-1.35.62-1.45.62-1.04.52-.52.21-.83.41-.83.52-2.18.83-1.66.41-.31-.93-.31-1.04-1.24-3.52-.62-2.18-.1-.73-.21-1.04-.93-5.9-.52-.73-.21-.93-1.24-4.66-.93-3.73-.62-.73-1.76-1.97-.1-.21-.21-.52-.83-1.24-.31-.31-1.97-2.38-2.9-3.52-4.35-4.87-.1-.31-.41-.62.41-.93.1-.21,3.73-4.77,2.49-3.73,1.14-1.66,1.97-2.8.93-1.24,2.38-3,.1-.21.21-.73.52-.62.1.1,3.31-5.39v-.1l.1-.52-.21-.1.1-.21.1.1.31-1.24.83-1.35,3.83-6.11.1-.1,1.76-1.45h.1l1.55-1.24,1.55-1.97Z"/>
      <path class="cls-5" d="M41.08,374.98l1.66,3.32.62,1.45.31-.1.52,1.04-.31.1.83,1.66,1.14,2.18,1.24,2.69,1.97,3.73.31-.1.31.62.73.93.52.83-.41.21v.1l1.76,2.49.1.1,1.97,2.59.1.1.31.31.1.21,3.21,4.45,3.21,4.56,1.97,3.42.93,1.76,3.52,6.01.1.1.21.41.31.83.1.21,1.24,1.45.52,1.04.52.83.52,1.35.1,2.9h-.31v4.04l-.1.62v1.35l-.1,1.04.31,4.66.1,1.76-.52,1.45-.52.31-1.45.62-4.87,2.18-.1.1-.62.31-.21.1-4.25,2.07-2.07-2.49-.41-.41-2.28-2.18-2.07-1.45-1.24-.62-2.38-1.45-1.14-.41-1.55-.62-1.24-.62-1.04-.52-1.24-.83-3.52-1.35-3.52-1.24-.93-.31-1.76-.62-.52-.1-1.66-.31-.31-.1-.73-.52-.62-.1-2.38-1.04-4.45-2.59-.52-.31-1.24-.31.1-.41h-.31l-.52-.1-.41-.1h-.52l-.41.1-.41.1-.93.41-1.86.83-6.32,3-.83-1.04-.62-.73-2.9-3.73-.31-.52-1.24-1.66-.31-.41-1.14-1.55-4.97-6.53-.83-1.14-1.24-1.14.21-.41.1-.1,1.66-1.35h1.66l2.8-1.55.21-.1.41-.21.21-.1.93-.52.52-.31,3.73-1.97.31-.31,3.94-3.52,1.24-1.66,1.35-2.38.52-.62.62-.62,1.55-1.66.1-.21.52-.52,2.07-2.9.52-.62,1.86-2.59.52-1.24,2.18-3.32,2.69-2.07,1.45-1.14h.1l.52-.31,3.31-2.07,4.56-2.59,4.87-2.28Z"/>
      <path class="cls-5" d="M-45.52,118.48l.62-2.38,4.97,3.52.52.31,1.45,1.04.62.52,5.8,4.35.1-.1,3.52,2.69.41.31,4.45,3.32,9.53,7.04,5.08,3.83.52.21,1.55,1.24.41.31,2.69,2.18.41.31,4.25,3.21,11.19,8.39,2.18,1.55-1.24,1.76-3.21,5.59-2.07,3.32-1.04,1.97-3.94,7.04-1.04,1.86-6.22,10.98-4.25,6.94h-.1l1.66.93,2.9,1.66-2.69,5.59-4.97,12.22-.1.21.31.1-.31.62.1.1v.1l-2.69,6.42-1.35,2.9-.1-.1-1.86,5.18-1.14,3.21-.52,1.35-1.24,2.18-1.76,3.32v.21l-.62.93.1.1-1.66,3.32.1.1-2.8,4.97-.73,1.04-1.24,3.32-1.55,3.73-2.38,5.49-.93,2.28-.31.31-.41,1.45-2.49,6.63-3.73-.73-1.04-.83-.83-1.35-1.24-2.38.1-.21-.52-1.45-.41-.83-.21-.83-.31-1.04-.1-.31-.31-1.55.31-7.36-.83-1.14-.62-1.24-.73-1.76-1.35-2.8-.93-1.35-2.07-3.52-.52-.83v-.31l.21-.31.52-.31-1.04-2.07-.52-.73-3.11-4.97-1.24-1.97-.31-.52-4.04-6.22-.1.1-1.97-2.07.21-.1-5.8-5.59,1.04-3.83,1.55-6.53.1-.31.31-4.04.52-3.63.1-.83v-.1l.1-.31.52-2.69.31-4.04v-.41l.31-3.52.21-1.66.41-5.39,1.04-4.04,1.97-7.77.21-.83,1.24-4.87.93-3.11,1.14-4.04.52-1.97,3.42-10.67.62-1.76,2.9-10.05.41-1.45.73-2.18,3.42-14.61Z"/>
      <path class="cls-5" d="M15.91,163.96l1.14-1.76,1.76,1.35,2.9,2.18.21.1,5.18,3.73,4.45,3.32.1.1,1.76,1.35.41.31,2.9,2.18,1.45,1.04-1.04,2.28-2.59,5.49-2.69,5.59-2.59,5.9-.73,1.55-.62,1.24-1.45,2.9-.31.62-.31.83-2.38,5.08-.62,1.66-1.04,2.18-1.45,3,.1.1-1.24,2.8-2.38,5.59-.31.62-.1-.1-.31,1.04-2.07,6.01-1.35,3.73-.1.41-1.24,3.73-1.45,4.04-.21.41-.73,1.97-.62,2.07-1.04,3.42-.52,1.66-1.76,4.45-1.04,3.52-.52,1.45-1.76,5.28-1.04,3.42-.21.31-1.04,3.52-.93,2.59.21.83-1.24,1.24-.62,1.97-.31.62.21.1-.31,1.04-.21-.1-1.45,4.45-.21.62-1.97,5.9-.21.62-.62,2.28-.1.31-1.86,6.22-.21,1.24-.52,2.9-.41,1.45-.31,2.69-.1,1.97-.21,1.14-.62,4.77-.31,1.66-4.04-1.14v.1l-.52-.1-4.25-1.04-.1-.1-1.66-.52-1.97-.52-2.9-.83-.52-.21-1.04-.21-5.59-1.14v-12.64l-.31-4.45-.21-.1-.31-5.59v-7.25l-.1-.52.41-1.97.83-4.14.41-1.97.1-.31,1.86-6.22.73-1.97.1-.1.31-.41.31-1.04,5.8-12.74,1.24-2.59,1.86-3.52.31-.52.31-.52.1.1,1.24-2.18,1.76-3.83,2.69-5.9,1.76-4.25-.1-.1.83-1.97,1.24-2.59.1-.31,2.59-6.73.21-.73,1.24-3.32,5.18-11.81.93-2.28-.1-.1v-.1l1.76-3.73-.1-.1.62-1.14.52-1.24,2.59-6.32,3.31-8.08.21-.52,1.35-3.11.93-1.76,2.07-3.94,1.24-1.97,3.52-5.9Z"/>
      <path class="cls-5" d="M-8.23,415.69l.31.31.41-.31,1.45.93,1.04,1.24.52.62.62,1.04,3.52,4.45.52.62.1-.1.52.62-.1.1.31.41.31.52,1.24,1.55.41.62,2.59,3.73.52.62.31.31-.21.1.62.62.21-.1,1.14,1.35.31.31.62-.41,3.42-2.18,2.49-1.35,2.28-.83,1.24-.1,1.35.31,1.04.31,4.04,1.97.41.21,1.66.83.31.1.41.21.31.21,4.66,1.45.73.21.83.31,1.45.52,2.07.62,3.52,1.45.93.52,5.59,2.9,1.66.93,1.55.83,1.24,1.04,2.8,2.38-1.55,1.97-.62.83-.83,1.04-1.04,1.24-.41.52-1.66,1.97-1.04.31-3.11,4.66-.83,1.04-1.35.62-1.66-.1-1.45-.21-1.24-.52-.31,1.04-.1.1.1,3.63v.41h.31v1.04l.31,3.94.1.52.1,1.24.1.52.73,6.84.31,2.18.31,2.28.1,5.49h.1l.1,1.66.31,2.69.31,2.49.52,4.25.1.93.21,2.18.31,2.59.41,2.69.1.83.93,6.73.1.31.31,3.42.1,1.04.1.31.73,4.35.21,1.14-.52.1-.41.1-1.14.21-.52.1-2.38.52-3.73,1.04-5.7,1.45-.41.21-2.49.62-.41.1-1.66.41-1.14.31-2.9.83-4.87,1.45-2.28.62-.52.1-1.24.41-.31-.1-.1-.21-1.04-3.32-.31-1.04-.83-2.18-1.04-2.59-.31-.73-.52-1.45-.1-.31-1.24-3.52-2.9-8.6-.31-.62-.31-.73-1.76-5.08-.1-.52-.83-3.63-1.76-6.63-.62-2.69-1.97-7.46-.31-1.45-.1-.31-1.35-5.49-.1-.41-.1-.21-.41-1.45-.52-1.66-1.04-2.28-1.45-5.28-.41-1.24-.21-.52-.21-.73-.62-2.59-.1-.52-.31-1.04-.73-3.11-.41-1.24-.52-1.97-1.35-4.25-.83-2.49-.83-2.18-.93-1.76-1.45-2.59-.62-.83-.73-.93-1.04-1.24-1.04-1.14-2.28-2.59,6.11-7.56,1.66-2.18,1.66-2.18.83-1.14.93-1.04,2.49-2.59,1.45-1.24Z"/>
      <path class="cls-5" d="M-85.3,414.24l5.08.52,3.83.31.31.1,2.9.31.31-.52,1.24.31.62-1.76,1.35-.21,4.45.62.1.1.52.1,1.86.52,1.24.52.52.1,3.21,1.24,1.86,1.04,3.94,3.63,1.24,1.14.52.93.1.21,1.76,2.18,2.38,3.32,2.38,3.21,2.49,3.42,1.04,1.45-1.14.93.93.93,1.76,1.86,3.11,3.32,1.55,1.55,2.8-2.38,1.24-1.04,1.04-.83,2.18-1.14,2.69-.1.62.31.52.1,2.18,3,.31.31.62.62.52.62-.1.1.41.83h.1l.62,1.35,2.8,8.81.1.31v1.55l.21.31,1.04,4.25.62,1.45.1.31.1.62h.1l.1.73-.21-.1.31.52.31-.1.31.93.1.21.1.31-.31.1.1.52h.21l.21.93,1.04,4.56.31,1.14.52,1.66.52,1.97,1.76,6.32,2.69,9.12,1.14,4.14,1.45,4.97,2.69,9.12.1.73.1.73,1.97,6.73-.1.1,1.45,5.59.1.21.52,1.66.1.31.21.62.62,2.69.62,2.18.83,3.11.1.62-.1.31-.1.41-.21.31-.21.31-.31.21-1.35.52-.41.21-3.83,1.66-.31.1-.62.31v.1l-4.56,1.86-.31.1-2.8,1.24-.31.1-5.59,2.38-.31.1-1.45.62-.31.21-1.66.62-.41.1-3.83,1.66v.1l-.52.31-.31.1-1.55.62-.41.1-1.45.62-.52.21-1.35.62-.41.1-2.38,1.04-.52.21-1.35.62-.52.1-11.81,5.08-.41.21-.93.31-.1.1-.41.1-.31-.83.1-.1-.1-.31-.83-3.11.1-.1.1-.1-.21-.31-.52-1.35-.62-1.66-.41-1.04-5.49-15.75-1.86.83,1.45,3.52-3.21,1.24-8.91,3.32-9.01,3.32-4.45,1.66-2.18.83-2.28.83-9.01,3.32-.73.31.21.52-5.18,1.97.1.41-1.97.83,2.07,5.28-.52.31.62,1.66.93,2.38.31.73h.1l2.28,6.01,1.04,2.8,1.86,4.87v.1l.52,1.24-.83.31.1.31-5.49,2.49-3.83,1.35-1.24.62-.31-.62-.83.31.52,1.04-10.46,4.87-.1-.1-.62.21-.31.31-.21-.1-.1.1-.31-1.04-.83.41.62,1.24-.52.21.1.31-1.35.62-.93.31-.31-.62-.52.21.21.41-4.66,1.97-.41-1.24-.62.21-.1.1.62,1.45-.73.31-.21.1-.31.1.52,1.24-6.11,2.38-.83-1.97-1.97.73-.1-.1-.1-.31-.83.21.1-.31-.52-.1-.1.31-.62-.31.1-.1-.31-.21-2.69-7.04-.52-1.35-1.97-4.87-1.04-2.69-1.35-3.52-1.97-4.87-1.66-4.14-.21-.52-.31.1-1.04-4.25-1.04-4.04h.41l-.73-3.11-.52-2.07-.62-3.63-.83-4.25-.41-1.76-1.04-1.76-.52-1.04-3.42-5.9-2.59,1.24-6.32-2.69-.83-2.38-.31-.62-.31-.83-.1-.62-2.59-9.01-.52-1.35.1-.52-1.76-4.66-1.55-4.04-.52.1-.73-2.18-.21-1.14-2.69-4.45-.31-.52-1.45-2.18-.1.1-3.73-5.9,4.35-1.86,5.9-2.59,2.38-.62,3.52.1,5.8-.31,1.24-.1h.21l1.66-.1h.31l4.25-1.14.1-.1.52-.31.62-.31,2.9-1.24,1.86-.83,1.97-1.24,2.59-2.18,1.35-1.24.21-.21.73-.93.73.83,3.73,4.25,4.87,5.49.1.1,1.24,1.35.1.1,6.32,6.84,2.8,1.66.52.31.83.52,1.86,1.04,4.56,7.15.31.52.31.1h.41l-.1-.31.1-.31.21-.21,3.73-2.9.41-.1.31.1.21.21.52-.21.62-.1h.52l.31.1.1.1.1.1.31-.21,3.21-2.59.1-.1.1-.1.41-.41.83-.52.21-.1.62-.52.52-.31,1.45-1.14,2.9-1.97.73-.52,1.66-.93,3.73-2.07,1.45-.83.73-.52.83-.52.1-.1,1.24-1.14,3.63-2.9,3.11-2.59,3.52-2.8,1.66-1.35-.83-1.76-1.04-2.18-.52-1.24-.83-1.97-.1-.62-.21-1.24.1-.1-.1-.52.21-.1-.31-.83.41-.21-.1-2.59h.1l.52-1.66.62-1.76.31-.73.21-.62.93-2.18,1.45-3.42,1.45-1.04-1.97-1.76-.83-.83-.83-.62-1.97-1.66-.1-.1-.1-.1-.83-.52-.52-.52-3.11-1.97-2.18-1.55-1.14-.73-3.11-2.18-1.55-1.24-.41.62.1.1.1.1.1.1v.21l-.1.1h-.21l-.1-.1-.1-.1-.1.21-2.38.83-1.14-.31h-.1l-4.04-1.04-1.04-.31-5.9-3.11,3.52-6.11-.41-.31,1.14-1.97.52.21.1-.31.31-1.24,1.45-2.38.52-.83.31.21,1.04-1.76,2.28-3.73.31-.41.31-.31,4.35-6.22.31-.41.83-1.24,2.49-3.63,1.04-1.55Z"/>
      <path class="cls-5" d="M692.89,596.57l1.45-1.24,2.49,3.32.21-.1.1-.1.31-.1h.31l.21.1.31.1.1.1.21.1,54.28,72,.31.41.21.31v.31l-.1.52-.1.31-.1.21-.21.1,2.59,3.42-1.45,1.14-2.59-3.52-.31.21-.21.1h-.31l-.31-.1-.1-.1-.21-.1-.21-.21-54.18-71.79-.62-.83-.1-.21v-.62l.1-.31.1-.21.1-.1.1-.1-2.38-3Z"/>
      <path class="cls-5" d="M73.71,682.34l-.41-1.45.83-.93,1.14.31.31,1.14-.83.83,11.08,3.11,14.5,4.04,11.4,3.21-.31.62,19.58,6.53,21.13,7.15,15.54,5.18-.31-1.24.83-.73.52.1.62.31.31,1.14-1.04.83-1.04,3.42.41.1-3.11,9.22-.1.1-.1.52.31-.1.31.31.1.21.1.21,1.24-.31.52,2.9-.83.1.52,2.18.1.31.21.31.31.41.31.31.1.31.1.31-.1.52-.41.83-.31.52-.21.52-.21.52.1,1.14.1.41,6.11,1.66.31.21.21.21.1.41v.31l-.1.31-6.94,23.1-.41.73-.41.62-.62.73-.52.62-.52.52-.52.52-.62.41-.41.31-.52.21-.62.31-.73.31-.62.31-.62.1-.73.1-.52.1-.62.1-.31.1h-.31l-.31.93-.62-.21-.52-.31.31-1.04.1-.1,1.04-4.04-6.63-2.18-6.11-2.07.1-.31-1.45-.52-.1.31-5.8-1.86-2.59,7.87-2.18,6.42,7.25,2.38,7.04,2.38,6.73,2.28,1.04-4.04-.1-.1.31-.93.62.21.41.1.1.1-.31.83.52.31.93.62.83.62.83.73.52.41.52.62.52.52.31.52.52.52.31.62.52.83.31.73.21.73.1.62.1.62.1,1.24.1,1.04-.1.83-.1,1.35-.21,1.66-.41.1-1.55,7.77-7.46,37.29-2.07,10.15-.31.52-.41.62-.31.31-.31.31-.31.1-.31.1-34.08,10.77-3.11.93-.52.1-.52.1-.31-.1-.31-.1-.31-.1-.31-.1-.31-.1-.31-.31-.31-.41-12.95-26.52-13.78-29.21-8.49-16.89-2.38-4.66-.31-.31-.73-1.97-1.45-2.69-1.66-3.11-1.66-3.11-4.97-9.84.21-.1-.62-1.24-.31-.52-.73-1.66-.83-2.38-1.97-6.53-8.6-29.11,5.39-11.4.31-1.04,1.76-2.8,3.52-11.08.31-1.35.31.1,2.49-7.46.1-.31.1-.1.21-.1.31-.1,4.04.21,4.87,1.45,2.28-1.76.52-1.35Z"/>
      <path class="cls-5" d="M168.29,704.2l-.52-1.45.93-1.14-.31-1.35.1-.21-.31-.83-.21-.41-.21-.52-.31-.62-.31-.52-.62-.83-.62-.73-.31-.31-.52-.62-.52-.52-.52-.52-.52-.52-.52-.41-.62-.31-.62-.41-.52-.31-.52-.21-.62-.31-.52-.21-1.76-.52-2.9-.93-2.49-.83-5.28-1.66-3.11-1.04-2.49-.73-10.46-3.42-6.22-2.07-2.9-.93-3.73-1.24-4.87-1.66-3.73-1.24-3.94-1.24-5.49-1.76-2.49-.83-1.45-.52-1.66-.52-1.45-.52-.93-.21-.73-.1-.62-.1-.62-.1h-.52l-.62.1h-.83l-.73.1-.73.1-.73.1-.62.1-.52.1-.52.1-.62.31-.73.31-.62.31-.52.31-.73.52-.52.31-.31.1v.1l-.31.21v.31l-.93.62v.52l.1,1.04-1.35.83-1.45-.73-.1-1.55.83-.62,2.07-1.45.83-.62.62-.52.83-.52.41-.21.73-.31.83-.41.83-.31.93-.31.83-.1.62-.1.83-.1.83-.1.83-.1.62.1.52.1.52.1.52.1.52.1.52.1.52.1.52.1.83.31,1.86.62,1.66.52,2.18.73,2.07.62,4.87,1.55,3.83,1.24,5.59,1.76,5.7,1.86,9.84,3.21,7.56,2.38,4.35,1.45,3.21,1.04,4.14,1.45,2.38.62,1.76.62,1.45.52,1.14.41.62.21.83.31.52.21.52.21.52.31.52.31.41.31.52.31.41.31.52.31.31.31.52.41.52.41.52.52.52.52.52.52.31.41.52.62.52.83.52.73.31.52.31.62.41.93.21.52.21.62.31.73.83,2.59-1.04,1.14-1.35-.52Z"/>
    </g>
  </g>
  <text class="cls-3" transform="translate(111.15 278.95)"><tspan x="0" y="0">D</tspan></text>
  <text class="cls-3" transform="translate(402.02 278.95)"><tspan x="0" y="0">O</tspan></text>
  <text class="cls-4" transform="translate(115.19 578.95)"><tspan x="0" y="0">V</tspan></text>
  <text class="cls-4" transform="translate(426.74 578.95)"><tspan x="0" y="0">E</tspan></text>
</svg>