<?xml version="1.0" encoding="UTF-8"?>
<svg id="Livello_1" data-name="Livello 1" xmlns="http://www.w3.org/2000/svg" xmlns:xlink="http://www.w3.org/1999/xlink" viewBox="0 0 700 700">
  <defs>
    <style>
      .cls-1 {
        mask: url(#mask);
      }

      .cls-2 {
        filter: url(#luminosity-invert);
      }

      .cls-3 {
        opacity: .3;
      }

      .cls-4 {
        fill: #c2452d;
      }

      .cls-5 {
        filter: url(#drop-shadow-4);
      }

      .cls-5, .cls-6, .cls-7, .cls-8 {
        fill: #fff;
        font-family: Sotoportego-Medium, Sotoportego;
        font-size: 220px;
        font-weight: 500;
      }

      .cls-6 {
        filter: url(#drop-shadow-1);
      }

      .cls-7 {
        filter: url(#drop-shadow-2);
      }

      .cls-8 {
        filter: url(#drop-shadow-3);
      }

      .cls-9 {
        fill: none;
        stroke: #fff;
        stroke-miterlimit: 10;
        stroke-width: 2px;
      }
    </style>
    <filter id="luminosity-invert" x="-441.24" y="-114.06" width="1946.88" height="1102.9" color-interpolation-filters="sRGB" filterUnits="userSpaceOnUse">
      <feColorMatrix result="cm" values="-1 0 0 0 1 0 -1 0 0 1 0 0 -1 0 1 0 0 0 1 0"/>
    </filter>
    <mask id="mask" x="-441.24" y="-114.06" width="1946.88" height="1102.9" maskUnits="userSpaceOnUse">
      <g class="cls-2">
        <rect width="700" height="700"/>
      </g>
    </mask>
    <filter id="drop-shadow-1" filterUnits="userSpaceOnUse">
      <feOffset dx="0" dy="0"/>
      <feGaussianBlur result="blur" stdDeviation="7"/>
      <feFlood flood-color="#c2452d" flood-opacity="1"/>
      <feComposite in2="blur" operator="in"/>
      <feComposite in="SourceGraphic"/>
    </filter>
    <filter id="drop-shadow-2" filterUnits="userSpaceOnUse">
      <feOffset dx="0" dy="0"/>
      <feGaussianBlur result="blur-2" stdDeviation="7"/>
      <feFlood flood-color="#c2452d" flood-opacity="1"/>
      <feComposite in2="blur-2" operator="in"/>
      <feComposite in="SourceGraphic"/>
    </filter>
    <filter id="drop-shadow-3" filterUnits="userSpaceOnUse">
      <feOffset dx="0" dy="0"/>
      <feGaussianBlur result="blur-3" stdDeviation="7"/>
      <feFlood flood-color="#c2452d" flood-opacity="1"/>
      <feComposite in2="blur-3" operator="in"/>
      <feComposite in="SourceGraphic"/>
    </filter>
    <filter id="drop-shadow-4" filterUnits="userSpaceOnUse">
      <feOffset dx="0" dy="0"/>
      <feGaussianBlur result="blur-4" stdDeviation="7"/>
      <feFlood flood-color="#c2452d" flood-opacity="1"/>
      <feComposite in2="blur-4" operator="in"/>
      <feComposite in="SourceGraphic"/>
    </filter>
  </defs>
  <rect class="cls-4" width="700" height="700"/>
  <g class="cls-1">
    <g class="cls-3">
      <path class="cls-9" d="M402.96-65.5l13.05,5.8,1.76.21,9.84,3.32,1.04.41,1.45.52,7.46,2.9,8.29,3.42,12.64,5.28,1.14.52,9.95,4.97.73.31,6.63,3.32,5.39,2.59,1.86.93.73.41,1.66.83,6.32,2.9.31.1,3.32,1.66,4.04,1.86,3.73,1.86,1.45.62,1.45.62,7.46,3.52,3.63,1.76,1.24.62,1.04.31,3.83,2.07,5.9,4.14,5.8,4.14,2.69,2.07.1-.1,4.04,2.69-2.49,3.83-1.35,1.97-7.04,11.08-1.04,1.66-9.22,13.88-6.73,10.67-4.04,6.32-.93,1.97-.1-.1-1.24-.83-.52-.41-3.83-2.9-2.49-1.86-1.86-1.35-.83-.62-5.08-3.73-2.18-1.76-.93-.62-1.04-.73-.62-.41-.83-.52-2.59-1.76-.41-.31-.31-.21-.31-.21-.1-.1-.31-.1-.31-.21-2.69-1.66.21-.31-.52-.31-.21.31-.21-.1-3.11-1.76-3.32-1.97-.31-.1.1-.21-.41-.31-.1.21-.31-.1-2.38-1.45-.31-.21-.41-.1-1.14-.52-1.86-.83-5.49-2.38-1.45-.62-4.66-2.07-.41-.21-1.35-.62-.41-.1-1.97-.62-3.11-1.14-.31-.1-1.14-.31-.21-.1-2.38-.83-2.69-.83-4.87-1.55-4.45-1.55-9.01-3.11-1.66-.52v-.1l-6.94-2.59-4.14-1.55-4.66-1.76-7.04-2.8-.83-.31-7.98-3.21-10.67-4.35.62-1.66.31-.62,5.59-13.57,12.95-30.87,3.32-7.77.83-1.97Z"/>
      <path class="cls-9" d="M203.43-65.5l3.73.62,4.66.83,5.59,1.86.31-.62.62.21,9.01,3.11,9.22,3.21,3.52,1.24,5.49,1.86.21.1,2.69.93,6.11,2.07,6.32,2.18,2.59.83,3.73,1.35,4.97,1.76,8.18,2.9,1.35.52,1.76.83,3.11,1.14,8.6,3.11.93.31,4.45,1.55,3.52,1.14,1.76.62,2.18.73.83.52,3.83,1.45,1.24.52,5.8,2.38,1.66.62,2.38.93,4.25,1.35,2.59.83,1.66.52,2.69,1.04,1.14.52,3.32,1.24,1.04.52.21.1,1.97.62,2.8,1.35,1.45.62,1.76.73,6.84,2.59,1.66.62,5.39,2.28.62.31.93.31,4.97,1.55,4.14,1.24-3.83,11.29-4.77,13.36-.21.41-.1.31-.1.31-.31.93-1.35-.41-2.69-1.14-.62-.31-.1.21-.31-.1v-.21l-3.73-1.24-8.81-3.11-3.42-1.24v-.21l-.73-.21-.1.31-.31-.1.1-.31-9.22-3.11-1.35-.62-7.04-2.69-2.49-1.04-1.35-.62-6.63-2.59-6.22-2.49-.1.21-1.04-.41.1-.21-.52-.21-.93-.41-6.53-2.49-5.39-2.18-1.97-.62-.1.21-.31-.1.1-.31-.52-.21-.1.31-.31-.1.1-.1-3.11-1.04-.31-.1-.83-.21-.41-.1-3.83-1.24-1.66-.62-.52-.1-5.7-1.86-2.9-1.45-8.6-4.04-1.97-.93-3.83-1.97-2.69-1.24-3.83-1.86-7.46-3.73-7.98-3.83-1.55-.73-.83-.52-1.24-.62-.1.1-2.9-1.35-3.63-1.76-3.73-1.76-3.73-1.45-.31-.21-.93-.41-2.18-.83-6.53-2.59-7.77-3.11-1.76-.73,2.18-6.32.52-1.24h-.1l3.63-10.05Z"/>
      <path class="cls-9" d="M375.71-6.14l2.18.83.83.31,4.45,1.76,3.21,1.24,2.28.83,1.14.52,3.32,1.24,2.59,1.04.1.1.62.1.31.1,1.04.41,6.94,2.38.52.21,3.52,1.24.83.31,2.28.93,1.76.83,1.14.52,7.46,3.11,3.32,1.35,3.52,1.45,1.04.41.73.31,1.24.52.1-.1.52.31,6.63,2.59-3.73,5.28-1.45,1.66.52.41-2.59,3.42-3.83,5.28-3.73,4.25-1.14,1.24-.31-.1-4.45-1.24-1.45-.52-3.11-1.14-8.81-3-.62-.31-1.55-.52-6.42-2.18-.31-.1-.52-.21-2.07-.62-.52-.21-2.18-.73-8.08-2.69-1.14-.41-4.66-1.66-1.24-.62-.21-.1-3.52-1.04-.73-.21-4.04-1.24-1.04-.41.41-1.14v-.1l.62-1.66,1.45-4.45,5.49-14.92,1.35-4.87Z"/>
      <path class="cls-9" d="M442.84,18.51l2.38.93,3.94,1.76.62.31,2.18,1.04,1.24.62,4.77,2.59,1.76.83,1.66.83.1-.21,3.83,1.86,1.24.62.62.31.52.31,2.38,1.45,1.97,1.14,1.45.83,1.04.62,1.97,1.14,2.9,1.66.31.31,3.11,1.86.83.52,1.76,1.04.1-.1,4.66,3.42.62.52,1.04.83.83.73,5.59,4.25-5.18,5.9-.41.52-.62.83-1.14,1.45-.62.62-3.52,4.14-3.32,3.94-.73.83-.52.83-2.07,2.69-.52.62-3-2.59-3.52-3-1.35-1.04-2.38-1.86-1.76-1.45-.83-.62.52-.62-3.42-2.28-1.86-1.14-.62-.31-3.32-1.66-4.77-2.49-5.59-2.9-2.69-1.45-2.07-1.14-1.35-.62-.52-.21-.21-.1-.83-.31-5.59-2.59-2.18-1.04-.62-.31-3.94-1.66-1.66-.52,1.04-1.24.41-.52,3.32-4.25,4.97-6.32,2.18-2.8-.21-.1,1.24-1.97,1.14-1.76,2.69-3.52Z"/>
      <path class="cls-9" d="M501.27,52.18l2.18,1.24,3.32,1.97.21.1.21.1.93.52,1.04.52.1.1v.1l.52.21v-.1l.1.1,2.9,1.76,1.24.62,4.25,2.49.1.1,7.25,4.25.83.62,5.8,3.32.1-.1,9.74,5.49,4.04,3.52.62.41.62.52,1.35.83.1.1.1-.1,8.81,6.32.83.62-.83.93-1.14,1.35-1.76,2.18-.21.21-1.24,1.55-.21.21-1.35,1.66-.21.21-.83,1.14-.73.83-.31.41-.1.1-3.32,3.83-.1.1-4.04,4.45v.62l-.1.21-.1.52-3.42,4.14-.62-.62-3.11,3.52-.21.1-.21-.31-1.04-.62-4.97-3.11-1.24-.93-7.56-5.7-4.77-3.52-2.69-2.07-.83-.62-3.11-3.21-.31.21-1.04-1.04-.1-.1.1-.1-1.66-1.45-7.15-6.32-3.83-3.42-.73-.52-1.24-.83-1.04-.73-1.66-1.24-1.45-1.66-3.11-2.38-1.97-1.55.52-.62.41-.62.1-.1.62-.83,1.14-1.45,1.24-1.66,1.66-1.97.83-1.04,1.86-2.38,1.97-2.28,1.66-1.66,3.52-4.04,2.69-3.42Z"/>
      <path class="cls-9" d="M277.81,35.61l3.21,1.04,1.45.41,10.26,3.21,6.01,1.66-.1.21,3.11.83.31.1,1.04.31.73.31,4.97,1.66-1.35,3.83-.52,1.04-1.45,3.11-1.45,3.11-1.04,2.69-.93,2.69-.31.83-.21.52-2.69,2.8-.1-.1-1.86,2.38-.62.21-5.18,2.59-2.69,1.55-5.18,2.69-2.18-4.97-.73-1.66-1.45-3.11-1.55-3.52-1.45-2.07-2.59-3.52-.1.1-.31-.31-.52-.62-.52-.62.1-.1-3.73-3.83,1.35-1.66,3.42-5.7.31.1.52-.83,1.35-2.49-.31-.21.31-.62.21.1,1.24-2.18.1.1,1.14-2.07Z"/>
      <path class="cls-9" d="M142.73-54.52l1.97.1.41.1.83.1,3.11-.52.62-.21,3.52-.93v-.1l.62-.21,1.04-.52.41-.21.62-.83.41-.31.52-.31.52.1.62.31.62.1.93-.1,1.35-.1,1.35-.31.93-.31.73-.31.41-.21.41-.31.93-.62-.21-1.66-.21-.52-.31-1.14,1.45-.31h.41l-.52-1.04,1.04-.31.41,1.04,1.24-.31-.41-1.55,12.43-2.69,9.32-2.28,3.32.62,1.24,1.45.1.93-.1.52-.31,1.76-.31,1.45-.52,2.18-1.14,4.45-1.04,3.73-.31,1.35-1.04,3.73-1.45,5.39,5.39,1.86-.52,2.38,7.25,2.38,1.04-2.28,2.69.93,8.81,2.9,2.18.62,6.53,2.18,7.87,2.59.83.52,9.74,4.45,5.9,2.8.31,2.28,3.42,1.86.83.62.31.21,2.9,1.35.62.31.1-.21,4.97,1.97,6.22,2.38,1.24.31.52.31.93.41,2.59,1.24.93.52,2.38.73,3.42,1.04-.31,1.86-.62,4.35-1.76,12.53-.31,1.76-.41,2.9-.52,3-.52,2.38-.52,2.07-.41,1.97-2.28-.93-4.66-1.66-2.49-.62-5.8-1.66-.1.1-1.04-.41v-.1l-14.4-4.35v.1l-1.14-.31v-.1l-12.12-3.73v.1l-1.14-.31v-.1l-13.67-4.25-.1.1-1.14-.31.1-.1-1.55-.52-.93-.31-4.25-1.24v.1l-1.76-.52v-.1l-9.74-2.9-16.26-4.97-21.34-5.9-25.59-6.84-.41-.21-.31-.31-.31-.31-.1-.31-.1-.31-.1-.31.1-.31.1-.52.31-1.24.1-.52.1-.52,6.94-24.34,1.04-3.52.52-1.45.83-.93.73-.21,1.97-3.63Z"/>
      <path class="cls-9" d="M280.3-5.83l4.45.93h.21l.83.21h.21l4.97,1.04,6.94,4.04,4.04,2.28.41.21.83.62,1.45.93,3.73,1.14,2.69.83.83.31,3.11.93,2.9,1.14,4.45,1.76,3,1.14,4.87,1.76h.1l1.04.52.21.1,4.45,1.45,1.45.52,2.9,1.04,1.86.73,2.59.93,1.76.62,3.32,1.24,1.76.52,2.28.62.62.1,4.45,1.45,1.76.52,1.97.62,1.76.52.62.21.31.1,9.22,3.11.31.1.83.1.31.1,4.87,1.45.83.21,7.98,2.49-1.66,4.97-2.9,8.39-1.76,4.87-2.9,7.98-.52,1.45-2.38-.83-1.45-.41-2.07-.83-8.6-2.69-1.04-.31-5.8-1.86-3.73-1.14-.1.1-.93-.31v-.21l-.93-.31-1.14-.41-.21-.1-6.73-2.18-.1.1-1.04-.31v-.1l-15.85-5.18-1.76-.62-.83-.21-.1.1-14.92-4.97-3.42-1.14-1.45-.52-.1-.1-.93-.31-.21-.1-1.35-.52-24.45-7.36-2.18-.62-1.04-.52.21-1.97,2.18-12.95.21-1.14,1.24-7.46,1.24-8.91Z"/>
      <path class="cls-9" d="M130.4-12.57L184.48,3.49l11.4,3.52,13.16,4.04,1.04.41,16.16,4.97,7.87,2.49,27.76,9.01,1.86.52,4.25,1.24,3,1.45-5.08,12.12-5.18,2.69-8.08,1.97-7.15,1.76-11.08,3.32-5.39-1.14-1.24-.31-.62-.1-3.11-.83-7.15-2.9-5.39-2.18-6.94-2.69-3.83-1.55-1.76-.83-1.04-.31-6.11-1.86-4.97-1.45-.62-.21-6.42-1.76-2.69-.73-5.28-1.55-17.82-5.7-.1.1-.52-.31-7.98-2.69-6.11-1.97-4.35-1.55-2.59-1.04-1.35-.41-2.49-1.04-2.38-1.04-1.45-.62-1.04-.52-2.9-4.25,3.73-9.84.31-.62,5.59-13.67Z"/>
      <path class="cls-9" d="M48.97-34.84l3.94,1.76,1.24-2.59,8.6-.93,24.45-2.59,7.98-.83,8.81-.83v.41l.83-.1-.1-.52.62-.1,3-.31v-.83l17.2-1.86h.41l.41.1h.1l.31.1.52.31.52.31.31.41.31.52.1.52v1.04l-.62,2.69-1.66,7.87-1.97,9.32-.21,1.24-1.14,5.49-1.04,5.08L119.94-.03l-.1.83-2.38,10.67,4.04,6.53.83.31,2.69,1.24,4.25,2.18,9.53,3.52,1.04.31,6.01,2.07,4.66,1.45,2.38,1.04,4.25,1.24-.31.93,2.28.21.1-.1.52.1,1.14.31,2.38.52,1.76.31.62.1,3.52,1.04.31.1,3.83,1.45,4.25,1.14v.1l7.25,1.97.52.1.83.1.52.21,2.59.62,2.69.73,5.59,1.66,3.21,1.35.62.31h.1l.93.41,6.53,2.9.1-.31,4.87,1.86,3.32,1.45,5.7,2.38,4.25,1.76.73.83,13.47-.62,5.7-1.55,8.18-2.18,1.04-.31,5.18.52.31-.41,4.35,1.76,4.56,5.18.62.52,4.56,5.59.62,1.76,1.24,2.28.93,1.66,1.86,4.87,1.66,3.11,3.11-.31,3.94-.73,7.67-3.94,4.87-2.9,1.04-1.24,1.24-2.18.93-1.76.41-.73,1.14-2.59.21-.41-.21-.1.41-.73,3.11-7.46,3-6.94,11.29,2.9,1.66.52,12.02,3.11-.1.1,2.69.52,1.04.21,1.45.41,2.49.83,5.08,1.76.62.31,1.24.31,1.97.41-.1.31,4.45.52,3.52.52,2.18.52,5.9,1.76.73.31,4.04,1.45,1.24.73,4.25,1.66.52.21,2.38.93,5.28,2.07-1.55,5.49.52.1-.41,2.69-.62-.21-.52,3.11,1.24.1-.1.31-.1.83.31.1-.1.83-.41,1.45-.52,3.42-1.24,5.18-.52,1.45-1.86,5.59.83.31-1.66,4.66h-.1l-3.11,8.39.1.1-1.55,3.73-.1,1.14-.31,1.24v.1l-.31,1.66-2.49,3.94-3.42,5.59-.41.62-.83,1.66-.31-.1-.62,1.04-.93,2.18-.41,1.04-.93,2.49-.93-.31-.52,1.14-.83,5.28-1.86,6.53-.52,1.55-.31.93-.21,1.86-.83,3.73-1.14,5.8-.83,4.04-3.63.1-3.73.1-1.24-.41-4.04-1.24-2.9-.31-.52-.1-1.04-.1-.52.41-1.55.93-.62.1-.83.1-6.32-.1h-.73l-1.76-.1-3.11-.1-2.38-.21-5.49-.41-4.87.1v.31h-1.04l-.1-.31h-4.97l-.1.73-8.7-.31-.83.1h-1.97l-.1.41-4.25.21-.1.52-12.43-.73-3.52-1.24-1.14-.83-3.52-4.66-.52-1.04-3.32-4.87-6.42-14.19-1.35-6.53-1.45-5.59-.21.1-.1-.41-.62-1.97-.52-1.04-2.9-2.38-1.86-1.86-2.07-1.45-8.81-5.8-.93-.62-10.26-6.94-5.59-3.52-.73-.52-9.12-5.59-13.47-8.49-11.81-6.01-9.22-4.45-12.95-4.45-15.02-5.08-9.01-3.11-10.88-3.73-17.82-8.49-4.14-3.32-.41-.41-1.97-1.97-.41-.52-9.32-9.01-14.92-13.88-8.18-5.08-1.04-.73-8.08-4.87L35.2-2.83l-.21-1.45,5.39-11.81.83-1.86,7.77-16.89Z"/>
      <path class="cls-9" d="M32.5,7.01l24.34,12.02,16.89,11.29,5.39,4.45,5.18,4.45,10.67,9.22.73,1.04-1.45,1.76-4.45,4.66-4.77,4.77-6.42,6.11-1.24,2.28.52.31-2.9,3.94-.52.73-7.87,10.26-7.87,10.26-.52.93-6.32,7.87-.31.52-2.9,3.73-5.18,6.42-6.73,7.67-.62.62-4.45,5.08-.31-.31-2.38,2.69-.1.1-3.83-3.52-3.11-4.04-2.07-2.49-.83.83-1.24-1.04-.31.31-.52-.31.31-.41-.21-.41-1.76-1.45-4.04-3.73-3.11-3.83-4.66-5.8-4.77-5.8-2.07-.83-1.45-1.35-.83-.73-1.14-1.04-.62-.62-3.73-3.63-1.35-1.45-.83.83-.21-.31-2.18-2.49-.83.62-.41-.41-.31-.62-1.04-1.97-.31-.52-.31-.73-.1-.52-.21-.83-.1-.62.1-.52.41-.52-.31-.73-.41-1.04-.1-.52.1-.31.1-.52.62-1.97.1-.52.1-.41.1-.62.1-1.35.31-1.24.31-1.04.52-.83.41-.62v-.62l-.1-.83-.1-.83-.1-.62.1-.31.31-.62.21-.31.52-.31.93-.52.62-.52.73-.52.52-.52.1-.31.21-.21.41-.41h.1l9.01-15.54,1.14-1.97.1-.31L-.03,41.72l.62-.31.21-.31,1.14-1.66.21-.21,8.39-2.59.21-.1.1-.1,2.07-2.8.62-.93,2.9-3.83.62-.93.21-.31-.1-.1v-.21l1.45-1.97,1.04-1.35.31-.41.62-.83,2.69-3.73.1-.1.1-.1.1.1.31-.31.62-1.04,6.53-8.81,1.45-1.76Z"/>
      <path class="cls-9" d="M98.18,51.97l1.24.83.93,1.35.52.52,1.97,1.97.52.52,6.11,4.66,3.73,1.76,15.23,7.67,2.38.62-1.04,1.97-10.46,19.89-.31.52-.1.31-.1-.1-3,5.59-3.32,7.25-.83,1.86-2.18,4.87-1.45,3,.31-.1.52,6.01.1,1.04-.21,1.97-.31,1.14-2.8,4.97-3.73,6.32-3.83,6.53-9.01,14.81-.52.62-.62,1.24-.1.1v.1l-.83,1.45-1.04,1.55-3.52,5.7-.31.31-.41.1-.52.1-.52-.1-9.63-6.01-2.18-1.04-.62-.52-.21-.52.1-.52-4.04-3.52-2.69-1.97-.83-.52-5.39-3.73-4.04-3.21-4.04-3.21-8.39-6.94-7.25-6.32-.52-.21.1-.21v-1.66l6.53-7.77.62-.62,15.23-17.51.41-.52,9.53-12.02,9.32-11.5,3.21-4.25.83-1.24.52-.73,4.56-5.7,4.87-5.8,3.32-4.45,5.8-5.28.83-.52,1.55-.93Z"/>
      <path class="cls-9" d="M132.68,72.38l16.78,4.66,1.14.31,6.53,2.38,11.29,3.94,6.11,2.28.83.31,1.45.62,5.8,2.38,8.18,3.32,4.35,1.76,1.86.83,2.07,1.24,9.43,5.7,5.9,3.52,10.05,6.01,3.63,2.18.52.41,3.94,2.9,2.28,1.66,5.9,4.25,3.32,2.59,1.97,1.45,1.97,2.69.62.93.41.83.1.52,1.55,5.08.31.62,1.97,4.77.52-.1.62,1.45-.41.1.83,1.97.31-.21.52,1.14-.31.1.31,1.04.31-.1.31.1.31.21.73,1.66.1.52-.1.41-.21.31,3.42,8.18-.52.21.52,1.24.52-.31,2.69,5.18-.41.21.62,1.24.52-.31,3.83,7.25-2.28,1.14-18.03,8.18-3.52,1.66-.62.41-4.87,2.9-3.11,2.07-.1-.1-4.25,2.07-4.66,2.38-2.28,1.04.1.21-3.83,2.07-1.04.52-3.94,1.97.52.83-3.42,1.66-.1-.21-.52.31-.52-.83-.83.52-1.76.83-3.32,2.18-2.9,2.07.21.41-2.07,1.45-.31-.41-9.01,5.9-13.88,7.25-3.11,1.66-3.11,1.76-.52.31-.31.21-.52.31-.83.52-4.56,3.11-1.04.73-.62.41-2.07,1.45-.73.52-1.24.83-.83.52-2.59,1.66,1.66,2.18-.52.31-2.38,1.66-.41.31-1.45,1.04.1.1-.73.62-.31.31-.62.52-.41.31-.83.73-1.04.52-.1-.21-15.23,20.93-.52-.31-.62.93.93.73-1.97,2.9-2.28,3.32-.83,1.24-1.76,2.59-1.04-.62-.52,1.24-2.18,3.94-.31.52-1.35,2.18-.52.62-5.18,7.87-.83,2.9-.93,1.24.31.21-6.73,9.32-.31-.21-.93,1.35-.31-.31-.41.62.31.21-1.97,2.9-5.59,7.67-.83-.62-1.04,1.45-6.01,5.59-1.04.73-.83.52-.83.31-.83.31-.73.1h-1.04l-1.55-.21-1.24-.31-.93-.41-.31-.21-1.35-.93-.41-.41-.52-.31-.31-.41-.31-.52-.31-.52-.1-.31-.21-.52-.52-.83-.31-.83-.1-1.14v-1.55l.21-.73.31-.83.21-.52.52-.83.62-.83-5.9-9.53.31-.1.1.1.62-.31-.62-1.04-.83.52-4.25-7.25-9.74-16.16-5.28-8.81-4.97-8.08-.31.1-2.69-4.66-.1-.21-1.45-2.18-.1-.1-.83-1.45-.1-.1-.52-1.04-.1-.1-1.14-1.76-.1-.1-.41-.73.21-.1-.73-1.04.1-.31-2.38-3.94-.21-.31-2.18-3.63-.83-1.35-1.66-2.59-.1-.1-1.97-3.32-.1-.21-.31-.41.1-.1-.41-.62-.52-.73-.73-.52-.31-.93-.62-.62-.62-.73-.73-.62-4.25,6.11L.08,219.59l-.83-1.14.62-.31.73,1.04,19.79,14.09,4.14-5.8-1.24-1.24-.93-.83-10.77-8.08-1.24.83-6.32-4.66-1.24,2.18-.62-.52,1.04-1.76.21-.93-5.08-1.04-.52,1.04.1.21-.62,1.24.1.83.52,1.04-.31.1-1.04-1.86.31-.62-.21-.1-2.69-2.9-1.66-1.45-2.69-2.07-2.8-2.38-2.59-1.76-1.76-1.66-1.86-1.45-2.28-1.45-1.97-1.24-4.35-2.49-.52-.31-4.14-2.49-10.88-3.32-2.69.41-1.97.52-.52.1-8.29-3.83-.62-.1v-.83l-.52-.31-.62-.31-.62-1.24-.52-.93-.73-1.14-.31-1.04-.31-.62.62-.52.41-.62.1-1.14-.41-.62-.73-.31-.52-.62-.1-.93.1-1.35.31-.83.62-.1.93.1,1.04-.1h8.39l3.73-1.86,6.32-9.12,5.49-7.87,24.86-35.74.83-1.04,1.76-2.59,1.97-2.28.93-.83.83-.52.73-.31.62-.21,1.66-.52.1.1h.1l.31-.1.52-.1.52.1.31.1.31.1v.31l.41.31.21.1.1.31-.21.21,1.55,1.24,1.04.83,3,2.8,10.26,9.12,8.91,8.08,15.64,13.99,5.39,4.87,7.25,6.53,12.02,9.01,1.86,1.14,12.12,8.91.52-.62,4.25-6.22,2.69-4.35.62-.73.52-.52,1.35-2.59.21-.73,2.38-4.04,6.84-11.91,4.35-7.46,1.66-3.11,4.25-6.32.31-4.25-.52-6.94,5.9-11.6,3.83-8.08-.41-.21.83-1.86.1-.21.31-.52,1.24-2.69,9.43-17.3,1.04-2.38Z"/>
      <path class="cls-9" d="M391.46,33.95l.62-.1h.21l2.59.83.31.1.62.21,5.9,1.97,1.24.41,1.04.31,2.18.73,2.38.83,1.76.52,2.38.73,4.25,1.45,2.28.62,1.97.52,3.21.83,1.04.31,4.04,1.76v.1l3.63,1.76.52.31.1-.1.41.21,2.49,1.14,3.83,1.76.1.1,1.04,1.04h.1l1.97.93.41.1-.1.1.52.31.1-.1,4.45,2.38-.1.1,2.07,1.14.1-.1.52.31,3.83,1.66v-.1l3.11,1.24,1.24.93,2.59,1.86,2.28,1.55,3.11,1.97,1.76,1.24.62.52,1.45,1.14.1-.1,2.9,2.28.41.41,3,2.69-.1.21.41.31.1-.1,1.86,1.45-.41.62.41.41.1-.1,1.24,1.24,1.86,1.86.1-.1,4.14,3.94.1.1.83.93.31.1,4.04,3.21v.1l.93.83.73.52,1.04.83v.1l4.56,3.21.83.62.83.73,2.28,1.86.83.73,2.28,1.97,1.66,1.66,4.35,3.73,3.32,2.59,1.97,1.66,3.11,2.07,2.59,1.66,3.32,2.18,3.32,2.28,1.04.62.62.62-.83.93.1.1-8.49,9.95-4.66,5.49-3,3.32-1.45,1.55-.41.52-1.66-1.76.1-.21-1.24-1.24-.21-.31-2.69-2.9-9.95-10.15-4.77-4.97-6.22-4.87-.83-.73-7.87-6.22.1-.1-.62-.62-.1.1-8.91-7.25-.52-.52-1.55-1.24-.31-.21-3.73-2.38-6.32-3.94-10.67-6.94-6.11-3.83-10.15-3.52-1.04-.41-8.7-3.11-.83-.31-9.32-3.32-1.24-.41-7.04-2.59-.31-.1-1.66-.52-.31-.1-6.42-2.07h-.1l-1.04-.31v-.1l-8.49-3-1.55-.52.52-1.45,2.59-7.46-.1-.1.1-.52.21.1,3.73-10.88,2.8-6.32Z"/>
      <path class="cls-9" d="M391.87,70.52l5.49,1.55.93.1,1.45.41,7.77,2.07,16.06,5.08.31-1.04,1.76.52.31.21,6.84,1.76,4.56,1.97,1.14.52.62.41,1.97,1.24,3.21,1.97,3.32,2.18,3.52,1.97-.93,1.86-5.59,10.15-.83,1.45-.41,1.04-.31.31-7.77,13.67-.83,1.24-.83-1.24-.62-.31-3.73-1.97-4.04-1.97-1.66-.83-5.8-2.18-1.45-.52-6.73-2.28-5.18-1.76-5.9-1.86-.1.1-1.45-.62-6.22-2.28-4.77-1.76,1.04-4.25,1.04-2.8,1.66-11.5.62-6.73,1.55-5.9Z"/>
      <path class="cls-9" d="M451.75,94.24l1.97,1.14,4.45,2.69,4.04,2.18,1.66,1.04.83.52,1.04,1.86.31.31,8.49,5.7,5.18,3.52,8.29,6.53,3.73,2.59,6.53,6.94,3.42,4.04.31.62,5.7,7.15-1.35,1.04-1.24,1.14-4.97,4.25-1.66-1.35-.73-.62-1.66-1.24-2.28-1.86-4.45-3.94-10.15-8.81-8.6-7.46-4.66-2.18-3.73-2.8-.31-.21-1.24-.62-.52-.31-2.28-1.45-5.49-3.11-6.53-3.73v-.1l-.21-.21-.52-.31.31-1.24.31-.83,1.76-3.73,1.76-3.21,2.49-3.94Z"/>
      <path class="cls-9" d="M444.81,109.05l3.52,2.28-.1.1,3,1.76.1-.1.1.1,4.25,2.69.31.21,2.69,2.18.31.1,1.04.83,1.76.83,4.25,3.11,9.63,7.04,4.04,3.11,2.9,2.59,3.94,3.32,4.87,4.04,1.14.83,3.94,3.73-1.45,1.66-7.56,8.29-1.86,2.07-.73.83-14.61-12.22-4.45-3.73-.62-.62-2.18-1.76-1.97-1.45-.62-.52-5.8-3.83-.52-.52-2.69-1.76-.52.83-2.07-1.45.62-.83-.62-.31-1.66-1.14-.52-.21-.52-.31-.73-.52-2.59-1.86-.62-.21-2.18-1.66-1.97-2.07-1.04-.83-1.24-1.14.83-1.14,6.32-9.53,1.86-2.8Z"/>
      <path class="cls-9" d="M383.17,104.39l3.83,1.45,1.55.62.1-.21.52.21-.1.1,1.24.52.1-.1.52.1-.1.21,1.66.62,5.8,2.18.62.41,4.45,1.97.41.1,9.74,2.59.52.1.52.1,6.53,2.9,6.11,2.9,2.28,1.24,5.9,4.56-1.45,1.97-3,3.83h-.1l-1.14,1.35-1.76,1.45h-.31l-2.18.62-2.07.83-2.38,1.24-.41.41-.31.52-.1.52v.31l.1.62.83,2.59.52,1.45,1.35,3.94.52,1.45.83,1.04,3,3,2.9,2.18,3.32,2.59.52.41.73.52.41.31.21.31,2.28,2.9,3.73,5.8,2.49,3.83.1.73-.31.52-1.66.52-3.32,1.66-.52.31-.73.41-5.49,3.11-4.66,2.59-2.69,1.76-2.28.1-2.9.1-1.24.1-.41.1-4.25-.83-2.18-2.9-5.8-1.66-.1-.1-2.38-.62-1.14-.31-.52-.1-1.66-.41-7.46-1.35-.73-.1-.1.52-.52-.1.1-.52-1.04-.31-.1.21-5.39-1.24-1.97-.52-.21.83-.52-.1-2.28-.52-.31-.1-1.45-.31-.21.31-.31.31-.21.1-.31.1h-.73l-.41-.1-.52-.1-.52-.1-.52-.31-.31-.31-.1-.31v-.31l-1.35-.31-.41-.1-1.97-.41-.52-.1-2.49-.62.1-.93-2.69-.73-.1.62-.83-.31.1-.62-.52-.1-2.18-.73,1.45-7.87,1.97-8.39.21-1.04.1-.52v-.62l.31-.73,1.55-4.87.83-3.63.62-1.24.41-1.14.52-1.04,1.35-3.83,1.66-3.11,3.52-5.18,4.04-5.08-.1-.1-.1-.31-.1-1.66.1-.1.1-1.04-.21-1.55,2.18-5.7,1.97-6.22Z"/>
      <path class="cls-9" d="M-186.39,654.06v-.41l-8.49-4.77-.1-.1-.1-.21v-.1l10.26-18.54,1.76-3.32.41.21,4.87-8.81.52-.62,9.84-17.82.21-.31.21-.31-.31-.1-.1-.31v-.1l.1-.1,5.8-11.19.21-.52,1.76-3.52,1.76-4.04,1.97-3.83.41-.62,3.63-6.94,1.76-1.24.41-.62-.31-.41,9.01-15.75.1.1,9.01-14.5-2.38-1.45,1.66-2.8.73-1.14-.41-.21,7.67-14.5,3.73-5.59,8.49-12.43-2.49-1.66.73-1.14.31.21,1.86-2.9-.52-.31,7.36-13.67,14.81-23.31,13.16-22.58,1.04-.1,7.25-11.4,1.55-15.75.41-.52,4.04-5.8,1.24-1.55,2.28-2.9h.1l.1.1.1.1.1,1.04-.1.1-.1,1.35v1.35l.62.31.73.31.62.1.31.1.31.1.21.1.21.31.21.41.1.21.1.93.1.21.31.52.41,1.04.41,1.97.1.62.52-.1.31,1.45h.1l1.04,2.69-.62.21,2.18,5.39v.52l1.04-.41.21.52-.93.41.73,1.55.62-.31,3.73,9.01h.31l1.55,3.63,1.24,3.32,4.04,10.15-1.35.62,3.32,6.53,1.97,3.83,2.69,5.49,2.69,5.39,5.39,10.77.52-.21.1.31-.41.21.21.31.41-.1,1.55,3.11.52,1.14.31,1.04,4.97,15.02-.31.1.21.62.31-.1.62,2.18.62,1.97.31,1.14,2.38,12.33.62,3.73.21,1.14.41,2.49,2.8,16.99.31.31.83,1.24.1.52,1.14.83,3.83,2.9,4.45,3.32h.31l.52.31.52.41.31.31,1.24,2.49.31-.1.93,1.97.83,1.76,5.59,12.43-.1.1,2.8,7.04.52,1.55v.31l-.1.31-8.6,4.87-1.86.83-2.49,1.24h-.21l-7.46,3.52-.1-.1-.31.21-.1-.1-.62.31v.31l-6.94,3.52-5.8,3.52-.52.31-1.55.83-.52.31-2.18,1.24-1.97.93-3.32,1.45-2.69,1.24-.52.1-.73.41-.62.52-.31.52-.1.41.1.52.52-.1,3.32,9.84.31,1.24.52,2.38.31,1.45,1.35,11.29.83,6.53.1.73-.41.1v.62l1.55,15.02h.31l.83,8.6h-.73l.1.31h-.41l-.1-.21-3.83.52v.21l-.1.1h-1.04l-.1-.1-.1-.1-3.11.31-99.55,10.05,1.04,8.91-5.28.62-31.39-17.51-.41.21-.62-.31.1-.41-16.99-9.32-.31.21-.83-1.14Z"/>
      <path class="cls-9" d="M722.54,328.47l4.45.31,1.04.1,4.04.31,1.86.1-.21-.1,1.35.1-.1.31,1.14.1,1.14.1,3.11.52,2.69.52,3.11.52v-.1l4.97.62,1.24.21v.73l.83.83,1.66.52.83.62.52.31,1.24.73.31,1.04v.31l3,1.45-.1.31,3.31,1.97,1.04.62.1.1,1.55.73-.41.83-.1.21-.31,1.86-1.04,4.35-.62.93.52,7.46v2.9l-.1,6.01h-.1l-.1,1.97h-.1l-.1,1.76-3.52,1.35-.62.52-3.52,1.97-4.87,2.69-.73.52.1.1-.1.1-.1-.1-.41.31.1.1-.1.1h-.1l-1.35.83-2.28,1.76-1.76,1.55-.31.31-4.35,4.45-.73.83-.73.93-.73.93v-.1l-.62-.52-.52.52.73.52.1.1-.62.83-.1.21-.52.62-2.18,2.9-.52.62-1.24,1.66-.52.62-1.04,1.45.31.31-2.59,3.11-3.52,3.21-.21-.1-1.35.62-1.45.62-1.04.52-.52.21-.83.41-.83.52-2.18.83-1.66.41-.31-.93-.31-1.04-1.24-3.52-.62-2.18-.1-.73-.21-1.04-.93-5.9-.52-.73-.21-.93-1.24-4.66-.93-3.73-.62-.73-1.76-1.97-.1-.21-.21-.52-.83-1.24-.31-.31-1.97-2.38-2.9-3.52-4.35-4.87-.1-.31-.41-.62.41-.93.1-.21,3.73-4.77,2.49-3.73,1.14-1.66,1.97-2.8.93-1.24,2.38-3,.1-.21.21-.73.52-.62.1.1,3.31-5.39v-.1l.1-.52-.21-.1.1-.21.1.1.31-1.24.83-1.35,3.83-6.11.1-.1,1.76-1.45h.1l1.55-1.24,1.55-1.97Z"/>
      <path class="cls-9" d="M438.38,131.02l2.07,1.45,3.73,2.49,1.66,1.24,5.59,3.63,7.56,4.87,3.21,2.49.83.52,1.55,1.04,3.73,2.59,5.39,4.66.83.62,5.39,5.18-2.38,3.11.31.41.1.31v.31l-.1.31-.73,1.04-.52.21-.31-.1-.52-.21-1.97,2.69-.31-.21-.31.52-3.42,6.42-.31.83.52.31-1.35,2.69-1.66,2.59-.52.83-.1-.1-1.86,3.94-2.49,3.32-3.73,3.94-4.66,5.9-1.24,1.76-3.11-1.66-.31.52-.93-.52.31-.62-2.69-1.45-5.28-2.18-4.66-2.38-2.18-1.24-2.38-1.45-5.8-4.87,6.32-4.45.93-.52,6.53-3.11.62-.31,4.35-1.76h4.04l-.52-.83-3.73-6.42.1-.1-2.38-3.83-1.45-1.97-.31-.52-1.45-2.07-.41-.52-1.76-1.97-.62-.62-1.97-1.97-3.73-2.9-3.52-3.42-1.45-1.97-.52-1.24-.83-3.11-.83-2.9,6.73-2.9-.1-.31,2.18-.93,2.59-1.45.31.52,1.86-2.49,2.07-1.66Z"/>
      <path class="cls-9" d="M527.58,133.09l3.83,2.18.1,4.04-4.77,5.8-2.9,3.73-.1.1-.62.83-2.59,3.11-.62.73-3.83,4.77-3.11,4.97-5.18,7.98-5.39,9.22-5.18,9.32.21.1-.1.31-.1-.1-1.04,1.76-1.04,1.35-.1.41-2.59,5.28-1.14,2.38-1.86,3.73-1.24,2.38-.31.52-.31.83-5.18,7.67-3.42,5.08-1.76-1.14-.31.52-.62-.31.41-.52-1.35-.73-1.14-.73-2.18-1.45-.52-.41-.31-.1-1.97-1.45-3.63-2.59-1.66-1.14-1.97-1.45-1.24-.93-2.49-1.76-2.18-1.55-1.24-1.04.83-1.04,1.76-2.18.21-.31,2.49-2.38,7.77-9.84,1.66-2.38,1.66-2.59,2.07-3.52,3.32-5.39,2.28-3.73.83-1.45.21.21.83-.31.21.1,3.11-2.69.41-.52,1.45-1.55,4.14-3.21.52-.41,5.39-4.45,4.45-3.83,1.45-.93.83-.62,1.04-.52,2.38-1.24,2.38-1.86,3.83-1.45,5.39-1.55,1.24-1.55,3.94-4.87,4.66-5.59Z"/>
      <path class="cls-9" d="M582.28,50.21l7.87,5.59,10.57,7.56.41.31,5.8,4.04.41.31,5.49,3.83.31.31,6.11,4.35,3.94,2.69,1.76,1.35.31.21,3.73,2.59.31.31,5.8,4.04.41.31,5.9,4.04.31.31,4.66,3.32,7.67,5.39.62.52,9.01,6.32.31.21.73.62,4.66,3.32-.62,2.38-1.24,3.63h.1l-3.73,12.95-9.01,29.63-20.62-7.04-.1.31-2.18-.62-1.97-1.04-1.24-.31-3.52-.93-4.14-1.24-11.08-3.42-9.01-2.69-2.9-.93-1.76-.52-4.25-1.45-1.35-.52-12.22-4.87-13.26-5.08-2.18-.83-4.97-1.97-1.04-.31-1.97-.52-3.32-1.76-2.18-1.04-4.04-2.18,3.73-6.11,3.52-5.59,1.55-2.49-.1-.1,3.32-5.18.21.1,2.38-3.83.41-.52,1.86-3.11-.1-.1,1.04-1.66.1.1.62-1.04,1.76-3.32,2.18-4.04,4.66-10.77h-.1l1.45-3.32.1.1,2.8-6.94,1.45-3.32,1.04-1.86,2.59-6.11.21-2.38Z"/>
      <path class="cls-9" d="M544.15,123.76l2.18,1.55,6.53,3.83,2.18.31,7.15,2.9-5.59,8.18-3.21,4.14-.41.62-.62.83-1.76,2.38-3.73,4.87-.73.93-1.24,1.76-1.14,1.55-2.9,3.73-2.18,2.9-.1-.1-1.45,2.59.1.1-2.8,3.42-5.39,8.08-5.39-4.04-.93-.62-6.32-4.25-1.97-1.35,4.04-6.11.93-1.45,1.76-2.38-.1-.1.73-1.04,1.14-1.45.62-.83,2.07-2.8-.31-.21.52-.62.62-.93.83-1.55.41-.62.21.1.31-.52,4.14-5.8,3-4.56.62-1.04,3.32-4.66.73-1.24,1.45-2.38,1.66-2.59,1.04-1.55Z"/>
      <path class="cls-9" d="M563.63,132.88l3.11,1.66.1-.1,3.32,1.66,4.45,2.18.62.31,2.69.93,6.32,2.59,4.87,1.97,1.35.31,6.42,2.28-1.04,3.32-.83,2.9-.83,3.11-2.49,6.01-3,7.56-1.04-.31-2.9-1.14-3.32-1.24-1.04-.21-4.87-.83-1.04-.1-.62-.1-1.66-.31-9.32-3.52-3.83-1.45-1.24-.62-.31-.1-.83-.52-.41-.21-.52-.31-.62-.52-6.73-3.11,2.28-3.52,1.97-2.8,1.45-1.76,2.18-2.9,1.24-1.55,3-4.45,3.11-5.08Z"/>
      <path class="cls-9" d="M546.33,157.02l4.04,1.97,1.04.52,4.04,1.97.83.31.41.31,5.39,2.38,1.04.52,8.81,4.04-2.69,5.18-2.69,5.08-1.45,2.59-2.49,4.87-4.14,7.25h-.1l-.52.83-.52,1.04-2.59-1.45-.83-.52-5.08-2.9-2.38-1.35-3.11-1.97-.83-.41-1.66-1.14-6.53-4.25-.52-.31-3.52-2.18,6.73-9.43.31-.41,1.14-1.66.62-.93,3.83-5.8,1.76-2.28,1.66-1.86Z"/>
      <path class="cls-9" d="M573.47,168.31l2.38.62,3.11.83h1.24l.52.1,6.11,1.66-3.73,9.74-1.97,4.87-.1.1-.41.83-2.18,5.39-.83,1.86-1.45,3.63-2.07,4.77-1.66-.73-3.83-1.86-3.83-1.66-5.59-2.18,1.24-2.49,5.39-10.26,3.52-6.53.62-1.35,1.04-2.18.73-1.55.52-1.14.62-1.45.62-1.04Z"/>
      <path class="cls-9" d="M600.1,146.66l7.77,2.59.41.31,3,.93,3.73,1.04.62.31,6.63,2.59,3.52,1.24,2.59.93,1.97.52,8.39,2.69,17.51,4.97-1.45,7.36-.1.93-.1.21-.21.62-1.35,7.25-17.3-4.25-11.6-3.11-.62-.1-.31.62-.31.41-.31.1h-.31l-.1.1-.62-.21-.52-.1-.83-.1-.83-.1-9.22-1.97-13.36-1.55-4.45-.31.1-.93,2.28-7.04.21-.62,2.8-8.39.52-1.35,1.86-5.59Z"/>
      <path class="cls-9" d="M590.77,172.97l4.87.52,3.11.31,1.55.62.41.21.52-.1,5.9-.1.83.1,3.94.52,2.49.52,4.97,1.24.83.1,3.94.52,1.14.21,5.28.93,6.53,1.66.93.31,5.7,1.45,8.29,1.97-.21,2.9-.21,2.07-.31,2.9h-.1l-1.14,10.36h.52l-.1,1.04-.1.83-1.04,6.11-.21,1.97-.31,1.45.1.1-.73,2.59-1.04,2.69-.31.83-.62,1.66-.31.83-.83,2.28-2.38,6.32-1.86,3.94-1.14,2.07-3.21,5.59-1.14,2.38-2.38,3.63-.73,1.45-1.04-.1-1.45.93-.83.52-.83-1.45-1.45.73-3.21,1.55-3.52,1.66-3.94,1.76-1.97.83-1.24.41-1.66.62-.1.1-.41.1-.93.31-1.55.52-.83.31-.21-.62-1.24.41-2.38,1.14-2.38,1.04-2.38.93-2.18.83-2.18.83-1.97.52-1.97.31-1.76.21h-1.66l-1.66-.31-1.55-.31-.83-.1h-.1l-2.49.31-1.66.1v-1.14l-5.9-1.35h-.1l-1.55-.41-3.32.62-1.45,1.24-.62-.31-2.18,3.52-.52-.31-.21.31h-.1l-3.11,2.9-1.04,1.24-2.38,2.18-3.94-3.52-.62.83-4.66-3.32-3.11-2.18-6.73-4.25-.52-.21-.21.21-2.18-1.24-.41.62-.31-.21-.83-.52.52-.93-2.49-1.55-.73-.62-1.14-.62-.52.62-1.97-1.24.41-.62-1.45-.83.52-.93-.62-.31-.52-.21-1.04-.52-.52-.31-.31-.1-.62,1.04h-.41l-.21-.1-.31.62-.41-.31-.93-.62-2.69-1.66-.52.93-2.9-1.76-.1.21-.52-.41.1-.21-.41-.31.62-.83-1.76-1.04-.21.31-.83-.52-.41-.31-.62-.31.21-.31-1.97-1.14-.93-.62-.1.31-.1-.41-1.76-1.24-.83-.52-7.25-4.25-3.94-2.28-.83-.62-1.66-1.24-.83-.62-1.66-1.24-4.14-3.11-4.25-3.73,1.04-1.45.83-1.24,2.59-3.73,1.66-2.69,3.73-6.32.21-.52,1.35-2.28.31-.52,1.24-2.18.62-1.24,1.04-1.97.1.1.21-.31-.21-.1.62-1.04.62-1.14,1.76-2.9.83-1.45,2.18-3.83,2.38-4.14.41-.93,1.66-3.11,1.04-1.97,5.49-9.22,9.74,6.32.83.52.52.52,3.52,2.18,1.76,1.14,1.55.93.62.31,2.28,1.86.62.52,5.49,4.45,2.38,1.45.83.52,6.94,4.25,2.69,1.66.21-.31,1.14.62.83.52.1.21,2.59,1.24,1.76,1.04,3.73,1.76.73.31,8.39,4.04,1.04.52,3.83,2.28,1.35-2.18.52.52.83-2.07.31-.83,1.04-2.9.1-.52,1.04-2.8.1-.31.52.1.21-.52,1.45-4.35h.1l.21-.62h.1l1.35-3.52,1.04-2.18,2.18-5.7,1.55-3.83,1.35-4.25Z"/>
      <path class="cls-9" d="M674.48,118.48l.62-2.38,4.97,3.52.52.31,1.45,1.04.62.52,5.8,4.35.1-.1,3.52,2.69.41.31,4.45,3.32,9.53,7.04,5.08,3.83.52.21,1.55,1.24.41.31,2.69,2.18.41.31,4.25,3.21,11.19,8.39,2.18,1.55-1.24,1.76-3.21,5.59-2.07,3.32-1.04,1.97-3.94,7.04-1.04,1.86-6.22,10.98-4.25,6.94h-.1l1.66.93,2.9,1.66-2.69,5.59-4.97,12.22-.1.21.31.1-.31.62.1.1v.1l-2.69,6.42-1.35,2.9-.1-.1-1.86,5.18-1.14,3.21-.52,1.35-1.24,2.18-1.76,3.32v.21l-.62.93.1.1-1.66,3.32.1.1-2.8,4.97-.73,1.04-1.24,3.32-1.55,3.73-2.38,5.49-.93,2.28-.31.31-.41,1.45-2.49,6.63-3.73-.73-1.04-.83-.83-1.35-1.24-2.38.1-.21-.52-1.45-.41-.83-.21-.83-.31-1.04-.1-.31-.31-1.55.31-7.36-.83-1.14-.62-1.24-.73-1.76-1.35-2.8-.93-1.35-2.07-3.52-.52-.83v-.31l.21-.31.52-.31-1.04-2.07-.52-.73-3.11-4.97-1.24-1.97-.31-.52-4.04-6.22-.1.1-1.97-2.07.21-.1-5.8-5.59,1.04-3.83,1.55-6.53.1-.31.31-4.04.52-3.63.1-.83v-.1l.1-.31.52-2.69.31-4.04v-.41l.31-3.52.21-1.66.41-5.39,1.04-4.04,1.97-7.77.21-.83,1.24-4.87.93-3.11,1.14-4.04.52-1.97,3.42-10.67.62-1.76,2.9-10.05.41-1.45.73-2.18,3.42-14.61Z"/>
      <path class="cls-9" d="M735.91,163.96l1.14-1.76,1.76,1.35,2.9,2.18.21.1,5.18,3.73,4.45,3.32.1.1,1.76,1.35.41.31,2.9,2.18,1.45,1.04-1.04,2.28-2.59,5.49-2.69,5.59-2.59,5.9-.73,1.55-.62,1.24-1.45,2.9-.31.62-.31.83-2.38,5.08-.62,1.66-1.04,2.18-1.45,3,.1.1-1.24,2.8-2.38,5.59-.31.62-.1-.1-.31,1.04-2.07,6.01-1.35,3.73-.1.41-1.24,3.73-1.45,4.04-.21.41-.73,1.97-.62,2.07-1.04,3.42-.52,1.66-1.76,4.45-1.04,3.52-.52,1.45-1.76,5.28-1.04,3.42-.21.31-1.04,3.52-.93,2.59.21.83-1.24,1.24-.62,1.97-.31.62.21.1-.31,1.04-.21-.1-1.45,4.45-.21.62-1.97,5.9-.21.62-.62,2.28-.1.31-1.86,6.22-.21,1.24-.52,2.9-.41,1.45-.31,2.69-.1,1.97-.21,1.14-.62,4.77-.31,1.66-4.04-1.14v.1l-.52-.1-4.25-1.04-.1-.1-1.66-.52-1.97-.52-2.9-.83-.52-.21-1.04-.21-5.59-1.14v-12.64l-.31-4.45-.21-.1-.31-5.59v-7.25l-.1-.52.41-1.97.83-4.14.41-1.97.1-.31,1.86-6.22.73-1.97.1-.1.31-.41.31-1.04,5.8-12.74,1.24-2.59,1.86-3.52.31-.52.31-.52.1.1,1.24-2.18,1.76-3.83,2.69-5.9,1.76-4.25-.1-.1.83-1.97,1.24-2.59.1-.31,2.59-6.73.21-.73,1.24-3.32,5.18-11.81.93-2.28-.1-.1v-.1l1.76-3.73-.1-.1.62-1.14.52-1.24,2.59-6.32,3.31-8.08.21-.52,1.35-3.11.93-1.76,2.07-3.94,1.24-1.97,3.52-5.9Z"/>
      <path class="cls-9" d="M649.72,225.8l5.28,5.18,5.49,8.08.31.41,3.42,6.53.31.93,3.52,7.25.52,1.24.31.83,1.14,3,.93,2.69h.1l.62,1.86-.1,1.04.1,3.11.31,1.24-.62.52-1.45,1.45-2.07,2.07-.83.73-.21.1-2.8,4.25-3.42,5.39-2.9,5.59-.62,1.66-1.35,3.32-1.66,4.04-.83,2.38-1.24,2.18-3.31,4.45-2.18,3.11-.52-.41-6.63-4.66-.31-.41-2.69-1.55-.1.1-5.59-3.11-.52-.41-.52-.31-3.73-2.18-.41-.31-4.14-2.49-1.35-.62-4.04-1.66-2.49-1.14-2.28-1.04-1.04-.41-3.11-.83-1.76-.52-1.66-.52-1.45-1.04-.41-.31-.41-.41-2.59-3.52-.52-.31-3,.93-.83.1-4.04.21-4.66.41-3.73.62-2.18.31-8.08,2.18-2.28,1.24-1.66-2.38-.62-.93-.93-1.45-1.24.83-2.18-2.8-3.63-4.97-2.59-3.73,6.53-5.39.31-.31,3.11-1.97,1.24-.83,2.07-.52,2.18.1,1.76.31,2.38.52,2.07.62.1-.52.62.1,2.07.83,1.14,1.04,2.69.1,1.35.1.31.1.52-.1,1.66-.31,2.8-.52,1.45-.31,4.25-1.45,1.45-.52.21-.1,2.59-1.04,4.87-1.97,3.31-1.35,1.66-.62.83-.31,1.24-.52,4.77-1.86,2.69-.93,2.28-.62,1.24-.41.31-.1,1.45-.52,3.73-1.24.73-.41,1.45-.73.31-.93,1.55-.52,1.04-.93,1.76-2.69,3-4.56.52-.83,3-5.18v-.21l2.38-4.66,1.76-3.73,2.38-1.24Z"/>
      <path class="cls-9" d="M672.2,273.04l2.59,3.52.31.31.83,1.66.21.52.1.73.73.52,4.66,3.32-.41,3.94-.62,5.39.62.93.31,5.39h.1l.1,1.35h-.21l.31,4.66.52,3,.41,1.97v5.39l-.93-.1-.52-.1-4.87-1.04-.1-.1-1.35-.31-3.52-1.24-.83-.31-1.66-.52-3.42-.93-3.73-.73-2.28-.52-8.39-1.76,3.21-6.63,2.9-6.94,1.24-2.69,1.04-2.18,2.18-3.83,2.8-5.7.1.1.21-.31.31-.31,1.45-1.55,2.38-2.38.83-.83,2.38-1.66Z"/>
      <path class="cls-9" d="M572.33,288.79l6.94-2.07,2.49-.73,5.49-.31,2.28-.1,4.45-.31v.21l.41-.1,1.76.1v-.1l1.66.21.1-.31.83.1,2.59,3.21,11.5,4.56,3.42,1.66,3.52,1.66.31.21h.1l2.18,1.14,3.42,1.76,3.31,1.86.52.31,8.39,4.87.31-.52.21.1.31.21.83.52-.31.52.62.41.41.21,4.14,3.73-.1.1-1.04,1.45-1.04,1.24-1.04,1.45-.21.31-1.86,2.38.1.1-1.04,1.24-.31.1-.31-.21-.1.1-1.45-.31-1.55,2.9-.1.31-.1.1-.93.1h-.21l-.62,1.24-1.14,1.97-1.24-.62-1.35,2.18-1.24,2.07-2.38,3.94-1.24,2.18-3-.41-1.24-.1-2.69-.83.52-1.66-3.11-.41-2.18-.52-3.42-.93-6.11-.83h-3.63l-1.97-.31v-.41l-4.04-.83-1.97-.41-5.18-.41-2.38-.1h-.52l-1.86-.1.41-6.32h.1l-.83-4.45-1.04.1-.41-2.18-1.04.21-.1-.73.93-.21-.41-2.18-.73-2.18-.31-1.04-.73-1.76-2.18-7.87.62-.1-1.24-3.83-.62-2.49-1.35-4.04Z"/>
      <path class="cls-9" d="M648.99,311.58l.73-.52h.41l4.56,1.76,1.76.83,4.35,1.97.52-2.49,1.55.52.1-.31.62.1-.1.31,1.66.31.1-.31.52.1v.21l.31.1,4.25,1.04.52.31,5.18,1.35,1.66.52,2.9,1.14.1.1.62.31.62.31,1.14.52,2.28.83,3.94,1.66-.73,4.77-.73,2.69-.1.83-.62,3.52-.93,4.04-.52,1.14-.1.21-1.76,6.11-.83,2.69-1.24,3.63-.31.83-1.04,3.11-.31.83-.1.62-.62,2.28-.1.41-.21.62-1.97,2.69-3.31-.52-.52-.21-3.31-.62-1.66-.31-1.45-.31-.52-.1-1.55-.41-1.55-.1-.52-.1-2.18-.73-.41-.21-1.24-.52-3.73-1.45.62-4.97.41-1.66.31-.83.21-.83-1.76-.31-.52-.1-1.04-.1-1.97-.1-2.49-.52-5.18-1.24h-.1l-1.76-.1-4.87-.62-.62-.1.1-.31-3.73-.52-5.08-.62h-.41l-2.18-.31.62-3.83.31-2.38.62-1.24.41-.93,1.66-3.52.52-.52,1.45-2.07,1.45.73.83-1.45.21-.31.93-1.45.31-.62.83-.1.62.1,1.14-1.97.62-1.04.73-1.14,1.97-2.49,2.8-2.49.62-.62,1.45-1.24v-.1l1.35-1.66.52-.52.21-.21,1.04-1.04.72-.73Z"/>
      <path class="cls-9" d="M691.57,321.73l4.04,1.55,2.9,1.14,4.87,1.45.1.1.52.21,1.24.31.1-.1,3.21,1.35,1.76.62,4.56,1.76-3.83,7.67-.31.52-2.38,4.66-2.9,4.56-.1.1-.41.93-2.28,3.63-2.18,3.52-2.9,4.66-2.18,2.28-2.38,2.18-.1.1-.62.73-.62-.21-.52-.21-1.04-.93-.31-.21-4.04-3.73-3.73-2.59-.1.1-.73-.62,1.66-4.45,1.66-4.35.52-1.45-.1-.1,1.55-3.83,1.04-3.32v-.21l.1-1.14.1-.1.83-3.52,1.04-4.04,2.07-7.98h.1l-.21-1.04Z"/>
      <path class="cls-9" d="M627.24,346.91l7.25.52,1.45.41.52.1,2.49.52,2.69.52.83.1,1.04.21.1.1,2.38.41,3.83.62,2.69.73,1.35.31-.73,4.04-.83,2.59-.1.52.73.21,3.21,1.55,2.38.93.62.31.31.31,2.28.83.52-1.04.31.1,2.9.62.41.1.83.21,3.21.52,2.18.31.52.1.1-.21.62-.1,3.73,1.35.52.1.52-1.04.52-.62,2.49-3.11,4.45,3.32,2.69,2.59v.1l.73.83.1.1.62.73,2.38,2.38,3.31,3.83,2.18,2.38,2.07,2.69,1.45,2.18.41.52.31,1.04.1.31,1.04,1.76.31-.1.52.93.31.52.1.31.41.83-.1.1,1.24,2.38,2.18,6.22v1.14l1.04,3.21.52,1.76,2.07,6.42.41,1.14.31,1.04.31,1.04-2.07,1.76-.62.52-2.59,2.18-.83.21-2.59,2.9-.62.93-3.31,4.66-.31.52-3.73,5.18-1.24,1.66-.52.83.1.1.1.21v.31l-.62,1.35-.21-.21-1.66,2.38-.73,1.04-.62.62-1.35.1-2.18,1.24-3.94-4.45-1.66-1.86-1.97-3,.31-.1-1.55-2.69-.93-1.24-.62-1.04-4.04-5.18-.1-.21-.62-.93-.1-.1-.62-.62-2.69-2.8-1.14-.62-4.04-2.18h-.1l-2.28-1.14-.52-.31-.83-.41h-.1l-2.38-.52-.83-.31.1-.41-1.66-.62-.1.41-1.24-.31-.52,1.66-1.24.21-6.32.52-.93.1h-.41l-4.04.52-1.24.1-2.69-.52-2.49-.62-1.76-.52-2.59-1.04-3.42-1.66-1.86-2.59-.62-1.14-.73-4.25v-.31l-.1-.52-.62-4.87h-.52v-.1l-.1-3.52.62-1.55.31-2.8.31-2.28.52-2.69.21-.62.21-.73.31-.83,1.14-3.94.73-2.9.21-.62.1-.73.83-4.56v-.31l.1-.83.52-3.52.1-.62-.1-.52-.1-5.39v-.52l.31-4.14-.21-4.04Z"/>
      <path class="cls-9" d="M711.77,415.69l.31.31.41-.31,1.45.93,1.04,1.24.52.62.62,1.04,3.52,4.45.52.62.1-.1.52.62-.1.1.31.41.31.52,1.24,1.55.41.62,2.59,3.73.52.62.31.31-.21.1.62.62.21-.1,1.14,1.35.31.31.62-.41,3.42-2.18,2.49-1.35,2.28-.83,1.24-.1,1.35.31,1.04.31,4.04,1.97.41.21,1.66.83.31.1.41.21.31.21,4.66,1.45.73.21.83.31,1.45.52,2.07.62,3.52,1.45.93.52,5.59,2.9,1.66.93,1.55.83,1.24,1.04,2.8,2.38-1.55,1.97-.62.83-.83,1.04-1.04,1.24-.41.52-1.66,1.97-1.04.31-3.11,4.66-.83,1.04-1.35.62-1.66-.1-1.45-.21-1.24-.52-.31,1.04-.1.1.1,3.63v.41h.31v1.04l.31,3.94.1.52.1,1.24.1.52.73,6.84.31,2.18.31,2.28.1,5.49h.1l.1,1.66.31,2.69.31,2.49.52,4.25.1.93.21,2.18.31,2.59.41,2.69.1.83.93,6.73.1.31.31,3.42.1,1.04.1.31.73,4.35.21,1.14-.52.1-.41.1-1.14.21-.52.1-2.38.52-3.73,1.04-5.7,1.45-.41.21-2.49.62-.41.1-1.66.41-1.14.31-2.9.83-4.87,1.45-2.28.62-.52.1-1.24.41-.31-.1-.1-.21-1.04-3.32-.31-1.04-.83-2.18-1.04-2.59-.31-.73-.52-1.45-.1-.31-1.24-3.52-2.9-8.6-.31-.62-.31-.73-1.76-5.08-.1-.52-.83-3.63-1.76-6.63-.62-2.69-1.97-7.46-.31-1.45-.1-.31-1.35-5.49-.1-.41-.1-.21-.41-1.45-.52-1.66-1.04-2.28-1.45-5.28-.41-1.24-.21-.52-.21-.73-.62-2.59-.1-.52-.31-1.04-.73-3.11-.41-1.24-.52-1.97-1.35-4.25-.83-2.49-.83-2.18-.93-1.76-1.45-2.59-.62-.83-.73-.93-1.04-1.24-1.04-1.14-2.28-2.59,6.11-7.56,1.66-2.18,1.66-2.18.83-1.14.93-1.04,2.49-2.59,1.45-1.24Z"/>
      <path class="cls-9" d="M584.14,330.02l9.53,1.55,5.59.83,2.69.41,1.76.31,1.76.31,3.83.73,1.86.83,1.24.52,1.66.62,2.28,1.04,3.21,1.55.62.31.52.21.83.52.52.62.31.83v.1l.31,3.32.1.62.31,1.97.62,4.66.41,3,.1,1.04.1,2.28-.21,1.04-.1,1.76-.21,1.55-.21,1.35-.21,1.86-.31,2.18-.52,1.97-.1.52-.31,1.04-.1.73-.1.52-1.45,5.39-.31,1.04-.1.21-1.14,4.45-.52,1.14-.62,2.9-.1.62-.21,1.04-.31,7.04v.73l-.1,1.76-.1.52v.31l-.41,6.53.62.31.1-.31.1-.1.1-.1.1-.1.21-.1.21.1h.21l1.45.52h.31l.1.1.1.1.1.1.1.1v.21l-.1.1v.1l.1.1-.31.83,2.9,1.55.62.31,7.04,3.94-1.66,2.59-.62.93-.1.31-.62,1.04-1.97,3-.31.62-1.97,2.9-.31.52-.52.93-1.14,1.76-1.14,1.76-.52.83-.31.52-1.55,2.18-.31-.21-.62,1.04-.62.93-.73,1.04-1.97,2.8.31.1-.83,1.04-.31-.1-1.97,2.07-1.04,1.04-.21.21-.1.21-1.97,1.76-.62-.31-.52-.31-3.11-1.55-4.56-2.8-1.66-1.04.21-.21-2.18-1.45-.83-.52-.52-.31-.52-.41-1.55-1.24-5.59-5.08-6.01-5.39-1.04-1.04-6.42-6.94-3.73-4.04-.31-.31-.62-.73-.1-.21-3.11-3.73-2.8-3.73-.21-.31-.83-2.38-4.14-5.08-1.35-1.66-1.66-1.97-3-3.73-1.24-1.45,1.55-1.66-.41-.41-.1-.21v-.62l1.24-1.24.93-1.04.31-.21.52-.1.31.1.41.31,1.66-1.76h-.1l.31-.52.52-.62,1.04-1.45,3.73-5.9.93-1.45.62-1.04.62-1.04.31-.52,1.35-2.07.21-.21.31-.41,5.39-6.11.62-.73,7.46-10.67.52-1.04.1-.73.31.1,1.45-6.32,2.49-10.46Z"/>
      <path class="cls-9" d="M662.98,544.56l.41-.1h.21l.21.1.1.1,3.21,8.91.21.52,1.04,3.94.1.41.21-.1,1.76,2.69.62,1.76-.52.31-.62.21-7.04,3.32h-.1l-4.77,2.18-.1.1-6.73,3.11-.31.21-.1-.31-7.04,3.32v-.1l-6.84,3.11.62,1.66-2.49,1.14-.1.1-4.97,2.38-.1.1-.52-1.14-.1-.1-2.69-5.8-.62-1.55-.83-1.97-1.35-3.21-.62-1.66-.41-1.35-.21-.73-.1-.41-.1-1.04.1-.83.1-.62.1-.62.21-.62.1-.52.31-.52.31-.62.52-.73.62-.52.52-.41,1.04-.41,9.01-3.32,2.38-.83-.21-.52,1.97-.83.21.52,4.45-1.66,9.01-3.32,8.81-3.21,1.14-.52Z"/>
      <path class="cls-9" d="M611.18,446.87l2.18,1.04,4.25,2.28,2.9,1.24,2.38,1.04,1.04.31,2.28-.62.1-.1,3.52.41,4.14,1.97.62.41,4.45,3,1.14.73.83.52.1.1,3.42,2.28-2.38,7.25-.52,1.45-.93,2.8-.31,1.76v.62l-.1.83h.1l.52,3.32.31,2.07.62,1.14.62,1.14,1.45,2.38-4.56,3.83-2.9,2.07-1.55,1.04-2.9,2.07-.1.1-.1-.1-.52.41-1.55.93-.1.1-4.35,2.9-.73.31-1.24.83-.52.41-2.49,1.66-1.66,1.14-.73.52-2.28,1.66-.1.1-.62.41-.41.31-3.11,2.38-4.25-4.77-.31-.31-1.35-.93-1.35-.62-.73-.31-.21-.1-1.45.21-2.07.52-.62-.1h-.31l-.52-.1-.83-.31-.83-.52-.31-.41-2.9-3.21-.31.31-1.45-1.55.31-.31-1.97-2.18-.1-.1-1.14-1.04-.1-.1-4.87-5.59-.62-.73-3.63-4.04-.31-.31-1.14-1.24,4.35-5.49.1-.1,1.97-1.66-.52-2.9-.83-1.66.62-3.52.52.1.31-1.24-.52-.21.41-1.76.31-.1,4.04-2.38,1.76-1.04,1.76-.41.93-.41.73-.31v-.1l4.35-2.9.52-.52,2.69-1.76,2.38-1.66,2.49-1.55.62-.52,1.14-.83,1.04-.73.31-.21,1.66-.73Z"/>
      <path class="cls-9" d="M634.7,414.24l5.08.52,3.83.31.31.1,2.9.31.31-.52,1.24.31.62-1.76,1.35-.21,4.45.62.1.1.52.1,1.86.52,1.24.52.52.1,3.21,1.24,1.86,1.04,3.94,3.63,1.24,1.14.52.93.1.21,1.76,2.18,2.38,3.32,2.38,3.21,2.49,3.42,1.04,1.45-1.14.93.93.93,1.76,1.86,3.11,3.32,1.55,1.55,2.8-2.38,1.24-1.04,1.04-.83,2.18-1.14,2.69-.1.62.31.52.1,2.18,3,.31.31.62.62.52.62-.1.1.41.83h.1l.62,1.35,2.8,8.81.1.31v1.55l.21.31,1.04,4.25.62,1.45.1.31.1.62h.1l.1.73-.21-.1.31.52.31-.1.31.93.1.21.1.31-.31.1.1.52h.21l.21.93,1.04,4.56.31,1.14.52,1.66.52,1.97,1.76,6.32,2.69,9.12,1.14,4.14,1.45,4.97,2.69,9.12.1.73.1.73,1.97,6.73-.1.1,1.45,5.59.1.21.52,1.66.1.31.21.62.62,2.69.62,2.18.83,3.11.1.62-.1.31-.1.41-.21.31-.21.31-.31.21-1.35.52-.41.21-3.83,1.66-.31.1-.62.31v.1l-4.56,1.86-.31.1-2.8,1.24-.31.1-5.59,2.38-.31.1-1.45.62-.31.21-1.66.62-.41.1-3.83,1.66v.1l-.52.31-.31.1-1.55.62-.41.1-1.45.62-.52.21-1.35.62-.41.1-2.38,1.04-.52.21-1.35.62-.52.1-11.81,5.08-.41.21-.93.31-.1.1-.41.1-.31-.83.1-.1-.1-.31-.83-3.11.1-.1.1-.1-.21-.31-.52-1.35-.62-1.66-.41-1.04-5.49-15.75-1.86.83,1.45,3.52-3.21,1.24-8.91,3.32-9.01,3.32-4.45,1.66-2.18.83-2.28.83-9.01,3.32-.73.31.21.52-5.18,1.97.1.41-1.97.83,2.07,5.28-.52.31.62,1.66.93,2.38.31.73h.1l2.28,6.01,1.04,2.8,1.86,4.87v.1l.52,1.24-.83.31.1.31-5.49,2.49-3.83,1.35-1.24.62-.31-.62-.83.31.52,1.04-10.46,4.87-.1-.1-.62.21-.31.31-.21-.1-.1.1-.31-1.04-.83.41.62,1.24-.52.21.1.31-1.35.62-.93.31-.31-.62-.52.21.21.41-4.66,1.97-.41-1.24-.62.21-.1.1.62,1.45-.73.31-.21.1-.31.1.52,1.24-6.11,2.38-.83-1.97-1.97.73-.1-.1-.1-.31-.83.21.1-.31-.52-.1-.1.31-.62-.31.1-.1-.31-.21-2.69-7.04-.52-1.35-1.97-4.87-1.04-2.69-1.35-3.52-1.97-4.87-1.66-4.14-.21-.52-.31.1-1.04-4.25-1.04-4.04h.41l-.73-3.11-.52-2.07-.62-3.63-.83-4.25-.41-1.76-1.04-1.76-.52-1.04-3.42-5.9-2.59,1.24-6.32-2.69-.83-2.38-.31-.62-.31-.83-.1-.62-2.59-9.01-.52-1.35.1-.52-1.76-4.66-1.55-4.04-.52.1-.73-2.18-.21-1.14-2.69-4.45-.31-.52-1.45-2.18-.1.1-3.73-5.9,4.35-1.86,5.9-2.59,2.38-.62,3.52.1,5.8-.31,1.24-.1h.21l1.66-.1h.31l4.25-1.14.1-.1.52-.31.62-.31,2.9-1.24,1.86-.83,1.97-1.24,2.59-2.18,1.35-1.24.21-.21.73-.93.73.83,3.73,4.25,4.87,5.49.1.1,1.24,1.35.1.1,6.32,6.84,2.8,1.66.52.31.83.52,1.86,1.04,4.56,7.15.31.52.31.1h.41l-.1-.31.1-.31.21-.21,3.73-2.9.41-.1.31.1.21.21.52-.21.62-.1h.52l.31.1.1.1.1.1.31-.21,3.21-2.59.1-.1.1-.1.41-.41.83-.52.21-.1.62-.52.52-.31,1.45-1.14,2.9-1.97.73-.52,1.66-.93,3.73-2.07,1.45-.83.73-.52.83-.52.1-.1,1.24-1.14,3.63-2.9,3.11-2.59,3.52-2.8,1.66-1.35-.83-1.76-1.04-2.18-.52-1.24-.83-1.97-.1-.62-.21-1.24.1-.1-.1-.52.21-.1-.31-.83.41-.21-.1-2.59h.1l.52-1.66.62-1.76.31-.73.21-.62.93-2.18,1.45-3.42,1.45-1.04-1.97-1.76-.83-.83-.83-.62-1.97-1.66-.1-.1-.1-.1-.83-.52-.52-.52-3.11-1.97-2.18-1.55-1.14-.73-3.11-2.18-1.55-1.24-.41.62.1.1.1.1.1.1v.21l-.1.1h-.21l-.1-.1-.1-.1-.1.21-2.38.83-1.14-.31h-.1l-4.04-1.04-1.04-.31-5.9-3.11,3.52-6.11-.41-.31,1.14-1.97.52.21.1-.31.31-1.24,1.45-2.38.52-.83.31.21,1.04-1.76,2.28-3.73.31-.41.31-.31,4.35-6.22.31-.41.83-1.24,2.49-3.63,1.04-1.55Z"/>
      <path class="cls-9" d="M548.71,389.28l.73,1.66,5.8,7.56.73.93,2.18,3,1.97,2.59.83,1.04,3.42,4.04,2.69,3.32.31.52.62.83.21.31.41-.21,1.04,1.66.1.1v.1l1.35,1.66.52.62,1.24,1.45,1.04,1.24,2.07,2.28.41.41.1-.1,1.76,1.55.83.93.83,1.04,2.49,2.38,1.66,1.66,1.14,1.04,3.21,3.32,3.83,4.04.52.52,1.24.62.31.52.21-.1,2.18,1.14,1.04.52,2.59,1.35,1.35.62,3.42,1.97-3.21,3.63-1.45,1.04-.21.21-.31.1-2.49,1.76-1.45.93-3.52,1.97-.83.31-.83.41h-.1l-5.9,2.9-.52.52-.83.52-4.45,3.32,2.18,7.04-.31,1.04v.1l-.31,1.04-3.52,3.73-1.86,1.35.31.41-.83.62-.52.52-.41.41-1.24.93-.41.41-1.24,4.35-.21.31-.31.21h-.21l-1.66,1.55-.83.52-3.83,1.55-.1.1-.52.1h-.1l-2.9.31-.62.1-2.07.21-.93-.1h-1.14l-3.83.31-4.45.31-.83.31-1.04.31-.83.31-2.07.62-.41.1-1.14.52v.21l-.41.21-1.55.62-1.04.41-4.45,2.07-1.97.83-4.25-4.66-1.66-1.97-1.04-1.35-4.14-5.18-.21-.31-.52.31-1.24-2.38-.52-1.04h.1l-.52-1.04.1-.1-2.28-4.45.1-.1-.83-1.76-.52-1.24.62-.41-2.38-5.18-.83-1.24-.31-.62-2.28-4.45-1.97-3.94-.62-1.24-.62-.83-1.45-1.76-.31-.31-1.45-1.24-.31-.21.1-.1-1.76-1.66-1.04-.93-1.66-.93-3.63-2.9-1.04-1.14-7.25-6.01-3-2.49-3.11-3.83,1.24-.62-.1-.31-.1-.41.1-.41.31-.31,2.59-1.45.41-.31,2.28-1.24.31-.1.73,1.04,1.76-1.04.62-.31,5.28-3.11.83-.41-.1-.31.21-.1,1.97-1.14.31-.21,1.14-.62.21-.1.52-.31.1.31,1.76-1.04.21-.1,1.24-.73.21.31.62-.31.21-.1,1.76-1.04v-.41l.73-.41.41-.21.73-.41h.31l.1.1,1.86-1.04.1-.1,1.66-.83-.1-.1.31-.1.31-.21,1.55-.83v-.21l.1-.1.21-.21,1.86-1.04.21-.1.1-.1.21.1,1.66-1.04.31-.1.62-.31,1.35-.83.1-.1-.62-1.04,1.04-.73v-.41l1.14-.73.31-.31.1-.1.93-.52.41-.31,1.04-.62.83.41,3.52-2.59.21-.1,1.04-.73.31.31,6.11-4.45,4.14-2.9,1.66-1.24.31-.31,1.55-1.14.21-.1,1.55-1.14.21-.1.1.1,1.14-.83.52-.31Z"/>
      <path class="cls-9" d="M390.11,556.89l-.83,1.04-1.24,1.45-.41.52-4.87,4.66-.62.62-1.24,1.24-.31-.31-.41.41.21.31-4.66,3.83v.1l-3.11,2.59-.73.62-.52.41-5.39,4.25-1.97,1.55-2.28,1.76-3.42,2.59-1.76,1.45-.73.62-1.86,1.45-1.76,1.45h-.1l-5.9,4.66-1.24-4.04h.1l-.73-2.49-.52-1.14-1.35.31-.62.1-.21-1.14.83-.21,1.04-.31-1.45-4.14-.41-1.04h-.31l-.1-.1-.1-.21-.1-.52v-.31l.1-.21.21-.1-.52-1.45-1.76-6.53-.83-3-1.76-5.9v-.1l-.1-.62.1-.83.31-.1-.31-1.45-.1.1-1.35-5.59h-.1l-.1-.62-.21-1.04-.31-1.14-.21-.83-2.07-1.66-.93-3.42-.83.31-.31.1-.31-.1-.21-.31-.21-.1-.1-.31-.52-1.86-.1-.41-.41-1.76-.1-.1v-.1l.1-.21.1-.21.1-.1.31-.21.52-.1-.52-1.76.41-.1-.41-1.66-.1-.62-.1-.83-.31.1-.1-1.24h.31l-.31-1.86-.1-.62-1.45-7.67-.31-3.83-.31-2.49.83-2.38,1.97-4.97-.52-.21.52-.93,3.94-5.8.31-.1,5.9-3.94.41-.21,1.66-.83,5.39-2.69.31-.21,2.38-1.24-.1-.31.1-.31.52-.31-.1-.21.41-.21.1.1.93-.52h.31l.21.31,4.66-2.59-.1-.31.31-.1.52-.31.83-.52h.1l.1.21,2.28-1.24.31-.1.83-.31-.31-.52,1.24-.73.52-.31,2.49-1.45.1.1,1.76-1.04.21.31,1.45-.83-.21-.31,2.28-1.35.21-.31h.62l1.14-.52.1.31.83-.41,1.35-.62-.21-.41,1.45-.62.1.41,1.35-.62.62-.1,5.9-1.76,1.04-.41.62-.21,6.22-2.69.21.31,3.63,6.63-.1.1.52,1.14,3.73,8.29,3.21,6.01.1,2.9-.1.62,8.91-1.04h1.04l.73-.31.1.21,3.32-1.55,4.04-1.97,4.04-1.86.31.52,1.35,2.07.52.73,2.18,3.42.1.31.31.41,4.25,6.84.62,1.04,1.24,1.86,1.76,2.69,1.24,1.76,1.14,1.66,2.38,3.32.21.31.41.52,3.52,3.73,1.97,2.18,3.11,4.14.62.83.21.31.83,1.04-.93.93-.1.1-2.18,2.28-1.35,1.35-5.39,5.8.41.52-1.04,1.24-2.38,7.04-.52,1.86-.93,3.11-1.14,4.66-1.35,4.87v.1l-.31.62v.1l-2.28,7.36-.1.31-1.97,6.63-.62,2.28-.41,1.45-1.76,6.32h-.21l-.1.62-.21.73-2.69,9.95-.73,2.69-1.45,6.53-.52,2.18-.52,2.18-1.14,4.87-.21.73-.21,1.04-.83,3.73-.31,1.66-.21.93-.31,1.97-1.97-.31-1.76-.31-.1.52-.83-.21-6.94-1.04-4.35-.41-1.66-.31-1.66-.52-3.21-.83,2.69-8.18.21-.73,1.45-5.18.83-3.32.1-.62,1.76-6.32.62-2.8,1.04-4.25.52-1.97-1.45-.52-.1.31v.1h.1l-.21.52h-.1l-1.55,5.49-1.24,4.66h.1l-1.14,4.25h.1l-.1.31-1.35,5.08-1.24,3.94-.31.93-2.38,8.18-2.8-1.14-.1.41-2.38-1.04-.83-.41-.41-.1-2.69-1.14-.31-.1.1-.41-.52-.21-.1.21-.52.1-.73-.1-.62-.21-.52-.21-.62-.31-.62-.41-.52-.52-.31-.41.1-.41-1.04-.41v-.1l-1.04-.41-.1.31-.62-.31-1.76-.93-.52-.31.31-.52-.21-.1-2.8-.52-.41-.41-.1-.31.31-.52-.1-.1-.1-.1v-.21l.31-.73,1.66-2.9.31-.62,2.59-4.66.73-1.24,3.52-6.42.41-.73,1.66-3.32.52.21.62-3.21.31.1.21-1.04.52-.93.52-1.24.21.1.41-.62.1-.73h.52l1.14-1.45,4.04-6.42,4.04-6.42.31-.52,5.18-8.18-.73-.52-.31.41-8.18-5.39-.1.21-1.45-.93-1.86-.93Z"/>
      <path class="cls-9" d="M390.63,559.07l3.73,2.69.52.41,4.56,3-2.59,4.14-1.24,1.97-.31.62-2.8,4.56-.52.93-.62,1.04-2.07,3.63-3.21,4.45-.31.52-.1.1-.31.73-.83,1.97-1.14,1.97.1.21-1.66,2.9-.83,1.35-.62.93-.52.73-.41.62-.1.1-.93,1.45-.31.52-1.76,2.59-.31.62-.52.83-.31.41v.1l-2.18,3.32-.73,1.35-.31.62-2.38,4.14-3.83-2.38-1.14-.73-2.59-1.66-1.45-.93-1.45-.93-.73-.62.21-.31-.52-.52-.31.31-5.39-4.97-.1.1-.52-.41-.31-.52-.93-1.14-1.97-2.49-1.35-1.66,7.67-6.11v-.1l2.38-1.86.83-.73,6.53-5.18,2.07-1.66,5.18-4.25.52-.41.83-.62.31-.31,2.9-2.49,2.38-1.97,2.49-2.18,2.18-2.18,7.15-6.63Z"/>
      <path class="cls-9" d="M421.19,458.17l.1.21h.1l3.94,6.94,1.24,1.97h.1l3,4.87.93,1.45.1-.1.31.41-.1.1.31.62.31.41,1.24,1.86,1.55,2.38.93.83,1.45,1.86.62.83.52.83.62.83,1.04,1.24.62.73.1-.1.93,1.04-.31.31,2.18,2.18.21.31,2.69,3.42,1.86,2.69-4.97,4.97-1.97,1.66-1.76,1.35-2.69,1.66-2.49-3.94-2.18-3.42-.52-.83-1.97-3.32-1.86-3.32-1.04-1.97-.1-.62-6.42,3.11-5.39,2.69-2.69.41.21.52-.93.31-4.66.83.1-.62-2.38-3.83-1.35-2.18-.83-1.66-1.04-1.76-3.11-6.84-1.66-3.73-1.66-3.52-.41-.73,1.04-.52,3.11-1.45,4.77-2.38-.1-.41.1-.31,1.45-.73h.21l.31.1.1.31,2.49-1.24.1.1.41-.21,2.49-1.14,4.25-2.28,2.59-1.45,3.83-1.76Z"/>
      <path class="cls-9" d="M476.3,433.3l.62.62,6.22,6.94.1.1.21.21,5.39,4.66,1.76,1.24.31.1,3.32,2.38.1-.21,3.83,2.9.62.52.41.31,1.04,1.04v.1l.52.52.21-.21.62.93,1.66,1.55.52.62.21.21.31.52.1.1.21.31.62.73.21.21.1.52,1.24,2.18,2.18,5.18.1.21.1.31.52,1.24.62.83-1.24,1.04,1.97,3.83.1.1.52,1.24v.1l.41.83.1.1,1.04,1.97,1.66,3.32h.1l.62,1.14.31.52.1.21,1.76,3,3.11,4.04-4.25,3.52-3.32,3.11-2.07,1.66-8.6,6.84-.62.52-1.24.83-4.97,4.25-1.97,2.59-.93,1.24-2.18,2.69-.52.62-.1.31-.31.52-.1.1-2.18,4.87-.83,4.87-.1.62-.62,4.66-.31,5.08-.1.21-5.18.1h-.21l-1.04-.1-1.76,5.59-5.28-.52-.52-.1-3.73-.62-2.38-.52-1.97-1.04-.31-.21-.1-.1-.31-.31-.1-.21-.31-.83-2.9-6.11.83-.41-.62-.62-1.24-1.24-.73-.83-2.69-2.8-.83-.93-.31-.31-.62-.62-.83-.83-2.8-4.14-.62-.62-.83-.83-3.42-4.35-.62-.73-1.76-2.38-.41-.41-1.24-1.45-.21-.1-2.69-4.35,3.32-2.69.83-.73,3.32-2.8,4.87-4.97.52-.83-.31-.31-2.28-2.38-1.04-1.35-2.18-2.38-1.55-1.66-3.52-3.94-.1-.1-.41-.62-.1-.1-.52-.62-3.32-4.66-2.18-3.21-2.07-3.11-3.11-4.87-1.45-2.18-3.83-6.11,5.59-3,4.56-2.38,1.66,3.11,1.76,2.9,2.18,3.11,1.45,1.97.83,1.14,3.63,4.45,3.73,4.45.62.62.52.52.1.21,1.66,1.66,3.21,3.11.93,1.04,1.04,1.35,1.24,1.45.83-.62h.1l-1.04-1.35.31-.31-1.45-1.76-3.73-4.14-2.18-2.49-.1-.21-.52-.62-.1-.21-3.63-3.73-.62-.73-1.76-1.97-1.76-2.38-1.66-2.38-2.18-3.32-3.63-5.39,8.81-4.04.62-.31,2.9-1.04-.31-.52,1.55-.62.21.52,4.04-1.45.1-.62,1.14-.41.62.31,10.05-3.83,5.28-2.59,7.04-4.35Z"/>
      <path class="cls-9" d="M522.71,492.46l3.11,3.32,2.69,3.11.83,1.04,1.24,1.45,3,3.52,1.45,2.18.41.52.31.41.73,1.04,3.42,4.87.52,1.04.73,1.97.83,2.07,1.86,4.87.41,1.76.1.62.1.31.1,1.14-.1.1.1.52.93,3.73-.41.21,1.45,4.25.1.1-8.6,3.83-2.8,1.45-1.55.73-1.66,1.14-2.59,1.76-.31.31-.73,1.04-.93.52-3.11,1.86-3.73,2.18-3.83,2.07-.73.41-1.76.93-5.8,3.73-.62.41-1.14-1.55-1.97-1.76-3.11-.1-1.24-.1h-1.76l-.1-.1-.1-.83-3.63,1.45-.21-.31-1.14-.41-.52-.1-.1-.1-2.69-5.18-1.24-2.38.31-.41.21-.1-1.66-4.04.1-.83v-1.86l-.1-3.73.1-.83.1-1.97.62-5.18,1.45-3.42.1-.31.1-.31,1.86-3.94.62-.73.1-.31.41-.52,2.59-3.32,1.76-2.18,4.45-3.73,1.04-.83.62-.52.52-.41.21-.1,3.42-2.69,2.18-1.55,2.9-1.97,2.18-1.55.1-.1.62-1.76,1.04-1.04,1.45-1.04.73-.62,3.11-2.69.52-.41Z"/>
      <path class="cls-9" d="M453.82,533.58l3.73,2.59.1.1.1.1.83.52,2.38,4.97v.52l.1.31.1.83.1,1.45v.1l-1.55,8.49.1.1.1.21.62.1-.41,2.69-.62-.1-.21.1-1.04,4.77,1.45.31,3.83.52,2.38.31,3.63.62,3,.83.52,1.35-.1.1.1.1-2.18,6.94-1.97,6.32-.52,1.66-.21,1.45-.52,3.83-.83,5.49-.62,4.14-.83,5.08-1.66,9.43v.31l.1,9.53.1,3.21.62.1v3.83l-1.55-.1.1,2.69v.52l-1.04.1.1.62h-1.04l-.31.1h-.83v.93l-1.04,1.04h-3.11l-1.04-.93-.1-.73-1.24.1h-.41l-2.28.1-.52-.1-2.69.1-.52-.31-6.22.41-1.55-.83-5.8-.21v.52l-8.08-.52-1.76-.21h-.52l-2.59-.31,1.14-5.39.31-1.04.21-.93.52-2.18,1.35-4.66.31-1.24h.21l1.04-3.32.31-.83,1.04-4.35v-.1l.31-.83h.1l.31-1.45-.1-.1.1-.21.21-.73.21-.73,1.76-7.46.1.1.52-2.49.73-2.59,1.14-3.32.73-2.38.21-.62,1.14-3.73.73-3.11.83-2.38.1-.41,2.28-7.04v-.1l.1-.73v-.21l.1-.31,1.76-6.11.31-1.04,1.86-6.42.1-.41.31-1.04,1.86-5.08.83-1.66.73-1.35,1.24-1.97h.1l2.38-2.59,1.55-1.55,2.18-2.18v-.1Z"/>
      <path class="cls-9" d="M462.52,545.91l3.32.31,2.69.41,1.86.21,1.55.1,7.87.83-.52-3,.1-.83.21-.83,1.04-.62,4.87-.31.62-.1v.93l.62,6.42v.62l.1,6.22-5.39.73-.62.83h-.31l-.31,6.42-.62,5.08-.62,6.11-.21,1.45-.1.52-.41,2.59-.1.31-.31,2.18-.52,1.86-.31,1.04-.1.93-.31,1.45v1.24l-.21,1.35-.31,5.59-.31,5.8v3.83l-.1,4.87-.31.1.1,1.24v5.9l.1,2.69v3.32l.1,2.49-.1,1.35-3.11.62-2.18.41-2.59.52-2.38.52-.1-4.25-.1-3.32v-2.38l-.1-2.59.73-5.7.1-.93.1-1.55.31-2.38.21-1.66.21-1.97.1-1.14.1-.73.31-1.86,1.04-7.04.1-.31.62-2.59.1-.31,1.04-4.77.41-1.66.31-1.14.41-1.76,1.45-5.59.21-.62,1.35-5.08.62-2.69.1-1.24-.1-.31-.31-.73-.83-.52-2.38-.31-2.8-.1-3.52-.83-1.24-.31-.62-.21v.1l-2.69-.52.21-1.55.31-1.97v-.62l.1-.62.41-3,1.04-6.94Z"/>
      <path class="cls-9" d="M482.2,559.48h.52l.52-.83,1.04-.1,1.24-.1,1.86-.1,1.66-.21,1.45-.31,1.55,1.04,1.66.1,5.08.1h.31l1.76-.1h.41l.31.31.21.21.1.41.31,1.45.52,2.28.31,1.76.41,5.7.1.52.52,3.11.1.62.41,2.49.1.73.1.93.1.73.21,2.38.62,5.28v.52l.1.93.1.41.62,3.83.31,2.59.31,2.18.31,2.59.1.62.1.83.1.62.31,3h.1l.1.62.1,1.04.52,4.87.52,4.66.62,5.39.1.73-.21.1.31,2.38-6.53.83-.1-1.24-1.04.1-.41.1-.83.1.1,1.24-3.63.41-.31-2.18-1.04.1-.1-.52-.62.1h-.52l-1.14.1h-.52l-.83.1-.73.1v.41l-1.45.21h-.41v.41l-2.49.21-3.52.31-.62.1-5.28.73v-12.12l.1-2.9v-2.18l.1-2.38v-3.32h-.1l.1-6.73.21-1.76.83-6.63.1-1.24.31-1.45.1-.62.31-1.24.1-3,.52-1.66.1-.41.41-2.28.1-.31.62-3.73.31-3.21.1-1.14h-1.04v-.83h.41l.21-8.91Z"/>
      <path class="cls-9" d="M504.48,561.14l1.04-.21,3.73-1.24,1.76-.52,3.73-1.97,2.28-1.76.1.1.73-.52,3.63-2.28,3.83-1.97.62-.31,2.59-1.35,1.04-.52.73-1.14.1-.1,2.59-2.28-.1-.1,3.32-1.97,2.9-1.76,3.52-1.24,4.97-1.66,2.9,6.42.93,1.97.41-.21,4.25-1.24,1.45-.1,1.86.62.83.31,1.45,1.04.31.52.73,1.04.41,1.14.31.62.31.93.1.41.52,2.49.52,2.69v.1l.31,2.69v2.18l.31,1.24.31,1.76-.52.1.31,1.14.41-.1.31,1.97-.31.1v.31l.21.52,1.66,4.66.1.31.31.62,1.45,4.04.62,1.86.31.83,2.18,5.59,1.04,2.8,2.38,5.8.1.41,2.69,7.25-4.66,1.76-4.04,1.45.31.83-3,1.04-.73.31-.73.31-.83.21-4.87,1.76-2.18.93.31.62-2.18.83.1.21-.41.21-3.73,1.24-.1-.1-.21.1-.52.1-1.04.41-.52.1-.41-1.55-1.45.52.1.62-1.04.31-3.94.93-.1-.62-1.45.31-.52.1-2.18.52v-.1l-1.97.31-3,.62-1.76.41-3.73.83-1.24.31.21.83-.41.1-.83.21-.83.21-.93.21-.41.1-1.97.41.31,1.24-9.74,1.97-.52-1.76-.62-5.49-.52-4.77-.52-4.25-.1-.52-.41-3.52-.21-1.14v-.31l-.1-1.24-.1-.73-.31-2.49-.31-2.07-.41-2.9-.31-4.14-.1-.52-.41-1.24-.1-.62-.1-.52-.1-.1-.83-5.8-.21-1.97-.31-1.76-.41-2.69-.1-.62-.52-2.18-.31-3.21-.21-1.66-.1-4.97Z"/>
      <path class="cls-9" d="M530.58,647.12l3.11-.31h.62l.52-.1.62-.1,1.66-.21,1.66-.1.1.1,11.29-.83,5.08-.41h.31l3.32-.31.62.1,7.77-.52-.1-.1,4.35-.31v.21l1.76-.1,11.6.62,5.59.31,4.56.21,11.91.93.1-.62,5.08.31-.1.83,3.31.21.52.1.21.1.1.1.21.21.1.1.1.1v.41l-.1.21-.1.21-7.56,5.59-18.03,12.95-4.45,3.11-8.81,6.32-4.56,10.46-19.37,23.93-1.14,1.45-1.45-1.14-1.04-1.35-.62-.83-.21.1-.21-.31.21-.1-1.45-3.42h-.1l-.21-.31.21-.1-.52-1.35-.21-.52-.21.1-.1-.41.21-.1-.73-1.76-.21.1-.1-.41.21-.1-.73-1.76-.1.1-.21-.52.21-.1-.73-1.76-.1.1-.1-.41.1-.1-.73-1.66-.1.1-.21-.41.21-.1-2.8-7.15-.31-1.24-.83-3-.62-2.59-.1-.1-.83-3.42-.83-3.32.31-.21.1-.31-.62-2.8-.21-.1h-.41l-.73-3.11-.1-.83-.1-.31-1.35-5.59-.62-.73-.31-1.24-.21-.83-.21-.93-2.07-7.87v-1.04Z"/>
      <path class="cls-9" d="M527.58,647.12l.62,2.59,1.24,5.8.31,1.14.1.52.21.1.31,1.24.1.1.52,1.04.21.62.1.52.1-.1.52,2.07.62,2.9.1.41.21.83,1.45,6.53.31,1.14-.1,2.18v1.66l.83-.1.31,2.38.52,1.86.1.62,1.35,3,1.24,2.69.73,1.97,1.14,3.21v.1l.31.83,1.76,4.66,1.14,2.69.31-.21.52,1.04.31.73-.31.21,3,6.73,1.24,2.69.93,1.66-.52.62-3.21,4.04-3.32,3.83v.1l-.83,1.14-11.91,9.95-2.69,1.76-4.87,3-6.84,4.25-15.75,9.53-.83.52-.1.41-1.86.83-.52-2.49-.31-1.76-.52-2.8-1.45-9.22-1.45-9.53-.1-1.45-1.24-8.6-1.14-7.36-.31-2.07-1.04-6.53-.52-2.9-.73-4.45-.31-3-.1-1.14-.1-.93-.1-.52-.83-7.25-.21-1.66-1.14-8.7-.1-.73-.52-4.66-.31-2.38v-.31l-.31-1.04-.1-.21-.1-.73-.31-1.66-.1-1.04-.1-2.38h-.31l-.31-3.73.31-.52-.1-.52.93-.1v-.31l2.59-.31.1.41.83-.1,3.52-.62v.21l2.49-.31,2.59-.31,1.66-.21.41-.1h.62l.52-.1,5.49-.41v.21l1.97-.41-.1-.31,6.11-1.24,5.8-1.14.1-.1,2.69-.1,6.53-.41Z"/>
      <path class="cls-9" d="M469.15,654.89l2.49-.41,1.55-.21.83-.1,3.52-.41,2.9-.1.62,5.08.1,1.35.21,2.8.1.62.93,1.24.1.52.31,1.04.62,5.8.52,4.25.52,5.18.52,4.97.41,4.45.1,1.66.31,3.83.31,4.14.31,4.04.52,5.39.21,2.59.1,1.97.41,4.97.21,2.18.52,6.63.52,1.45.52,3.83.62,5.49.31,3.42,1.04-.1.41,2.59.1,1.14h.1l.41,2.38.73,4.66.21.93.62,2.38-1.14.52-.41-.21-.83.31-3.73,1.14-3.63,1.24-14.61,2.9-5.39.73-.62.1-5.39-.1-1.35-.1v.41l-1.76-.31.1-.31-15.54-2.18-15.02-1.97-.52-.1-3-.41-2.59-.31-3.11-.52-2.69-.52-4.14-.73-4.97-.93-1.97-.62.62-1.45,1.97-6.32,1.45-4.45,1.24-3.73h.1l.31-.83h-.1l1.45-4.35.83-2.49.83-2.59,1.24-3,.83-2.28.1-.41,1.66-4.97.31-.62.31.1,1.55-3.63.52-1.35,1.66-4.14.21-.83.31-.93.52-1.66.52-1.35.31-.73.52-1.24.62-1.86.31-.62.62-1.76.52-1.35.1-.31.21-.83,2.18-5.8,2.18-5.9h.52l.62-.52h1.55l.21-.1,6.22.1,5.7.1,3.94-.1,5.7-.21,3.83-.21,3.94-.21,3.21-.21,3.83-.31.62-.1,2.38-.21.31-.1.21-.31.1-1.66.1-.73.31-.93.1-3.32.1-1.04-.1-1.14v-.93l-.62-6.42-.1-.83-1.24-8.6Z"/>
      <path class="cls-9" d="M412.69,653.23l.1-.31.1-.1.31-.21.1-.1,1.14.31-.1.41,1.45.31.1-.52,1.04.21.62.1h1.04l.1-.1,7.67.31.1-.31,2.28.41-.1.31,2.59.52.1-.31,3.21.62.21.21.52.1.21.31v.21l-.1.21.83.31,1.14.1.1-.52,1.35.1-.1.52,3,.1.1-.52.1-.31,1.04.1h2.9l.93.1.83-.21.1-.73,1.04-.83,2.59.1h1.04l2.59-.1,1.04.93v.83h-.52v.31h.21l.21-.1h1.14l.1-.1,1.24.1.31-.1,1.04.1.31-.1h.31l-.1.31h.41l7.77-1.24.62,7.15.1,2.18.52,6.32.1.1-.1.62v.1l-.1,2.18v2.28l-.1.83.1.1v.41h-.41l-.1.73-.1.52-.1.31-.1.1-.21.21-.31.21-.1.1-.1.1-.62.1-.62.1h-3.21l-1.24.1h-1.45l-2.8-.1-2.49.1-7.56.21h-9.01l-1.55-.1-.83-.1-6.11-.73h-.21l-1.45-.1-.1-.1h-.41l-.21.73-1.86-.41-.52,1.97-.31,1.04-.83,2.59-1.55,4.45-.21.52-1.97,5.39-.31.93-.1-.1-1.24,3.52-1.76,4.45-.31.73-2.59,6.84-.52.93-.1.31-2.18,5.49-1.35,3.52-.21.41-.21.41-.52,1.24-.73,1.76-.73,1.76-.21.62-1.66,4.66-.21.52-1.24,5.18-.93,2.9-.1.41-.83,2.59-1.04,3.32-1.66,4.77-.1.21-.52,1.45-1.55-.41-3.32-1.04-6.42-1.97-7.46-2.18-4.04-1.24-.41-.1-2.18-.62.41-1.97.41-1.97.21-.93.31-1.24,1.55-6.53.21-1.45.31-1.45,1.45-4.25.93-2.07.41-1.14.52-1.35,3.63-8.81,1.66-3.83.41-1.04,1.45-4.04.62-1.66.62-1.45.52-1.04,1.97-4.66,1.45-3.21.62-1.24,2.18-4.25,2.59-5.18,1.66-3.11,3-5.9.1-.21.62-1.45.31-.31.1-.1.31-.62.83-1.45h.1l3.32-7.15.52-1.04.52-1.04,2.69-6.11Z"/>
      <path class="cls-9" d="M328.06,601.85l.21.21,4.04,3.63,1.45,1.45-.1.1,4.87,5.59,2.07,2.07.31-.1.31.21.73.93v.21l-.1.1,2.18,2.18-.21.31,1.04,1.04,6.63,5.28-.1.31-.52.62-1.04,1.66-1.86,2.9,1.66,1.04,3.42-5.08,3.21,1.97,2.38,1.66,1.66,1.04,1.04.62,1.45.93,2.69,1.76.52.31.1-.1h.1l.73.52.1-.1.52.31,1.76.93.52.31-.31.73,2.69,1.97-1.76,3.32,2.38,1.24,1.97-3.73.52-1.04,6.32,3,2.8,1.24.31-.52,1.45.62-.21.52,3.94,1.66-.1.1,7.04,2.18.83.31,5.08,1.66.83.31.73.21,3.42,1.97-1.66,6.53-.31,1.04.41.1-.31,1.14-.1.62-2.59,5.39-.31-.21-1.24,2.69-.52,1.04-.1.1-.52,1.24-.31.41-.62.73-3.32,4.04-1.14,1.55-2.18,5.28-.83,2.07-1.76,4.04-1.86,4.66-1.76,4.35-1.86,4.56-1.66,4.04-.41,1.14-1.45,4.04-.52,1.55-.41,1.14-2.38,6.11-.83,2.18-1.76,4.35-.31,1.97-.1.62-.1,1.35-1.04,3.11-1.76,3.94-.21.52-.41,1.04-.93,2.9-.62,1.86-2.28-.62-.31-.1-5.39-1.66-8.18-2.49h-.1l-4.25-1.24-3.32-1.04-.31-.1-7.04-1.97-.31-.1-4.56-.73-3.42-.83-.1.1-2.38-.52-.62-.1-.1.21-.21.1h-.31l-1.66-.52-.1.1-.21.1-.21.1-3.94-1.24-.21-.1-.1-.1-.1-.21.1-.31-2.07-.52.31-.93-3.94-1.04-4.87-1.14-4.04-1.14-8.18-2.38.1-.41-.83-.31-11.29-3-1.97-.62-1.24-.31-.52-.1-.1-.1-.1-.1-.21-.31-.1-.21-.1-.31-.1-.31v-.31l-2.07-.62.83-2.28,3.73-8.18,3.83-6.42.41-.62-.1-.1,1.24-2.07,4.87-8.29-.1-.1.41-.62,2.38-3.73,2.69-6.73,2.18-5.39.93-3.52h-.1l1.24-4.04-.21-.1.21-.62h.1l1.24-4.66.21-1.66.1-.83h-.41l.21-1.45.41.1.31-3.11.21-1.55.62-2.8-.31-.1.31-1.04h.1l1.24-4.66,2.28-6.11-.62-.21.52-1.45.62.1,1.45-4.14.41-1.24,1.04-2.18-.21-.1.41-.93.1.1,2.49-6.22.31-.73,3.21-8.18.1-.1,1.04-3.32.41-1.24,1.35-1.45,4.25-4.56,1.14.21Z"/>
      <path class="cls-9" d="M319.87,604.44l-.52,1.55-1.97,6.73-2.69,6.73-2.18,5.39-1.14,2.28-1.14,1.97-.62,1.24-.52,1.24-1.66,4.87-1.24,3.52-.1.41-1.35,5.49.21.1-.31,1.45-.21-.1-1.45,5.9h.1l-1.45,5.7-.21,1.66-.41,1.04-2.18,7.04-.1.31-1.76,4.35-.93,2.07-5.08,12.64-1.35,2.59-1.55-.93-3.83,6.32-.1.31-3.94-2.59-4.25-2.69-4.04-2.69-.1-.52-.52-.1-3.73-1.97.1-.31-8.18-4.14-2.8-1.35-1.24-.52-6.11-2.8-.31-.31-1.04-.31-7.04-3.32-.62-.31-2.59-1.04-.62-.1.31-1.66,4.04-9.12,4.77-12.53-.1-.1.31-1.04h.1l1.35-6.73-.1-.1.1-.93.1-.1h.1l-.31-5.8h-.1l-.1-.83.21-.1-.62-9.74-.1.1-.1-.83h.1l-1.04-3.73-.52-1.35-2.69-9.22-.62-1.35-.31-.62,1.04-.62.21-.1,3.11-1.55,2.69-1.45,4.97-2.28.52-.21,3.63-1.45,1.55-.41.52,1.45,4.25,9.74.62,1.04.52.62,2.9,2.9,1.14,1.35,3.32,1.14.1.1,3-.31-.93-2.59,3.11-1.66,3.83-1.24,1.04-.52,7.25-2.38,1.24-.31v-.52l5.28-1.04,10.26-.83,5.59-.31,7.25.41Z"/>
      <path class="cls-9" d="M316.66,577.3l1.04,2.59.52,1.14,1.45,3.42.31.52.21-.1.52,1.24.52-.21,2.49,5.8-.1.1,1.66,4.35,1.24,3-1.45.83-2.07,1.24-1.45.52-1.14.41-2.69.1-4.56.1-2.28.1-7.46.31-2.38.21-3.63.31-2.07.1-1.14.21-3.73,1.24-.1-.52-2.69.83.1.31-.83.31-3.32,1.24-1.14.52-1.04.41-3.63,1.86-3.73,2.07h-.1l-2.49,1.45-4.25-4.45-.52-.62-.41-.62-2.18-4.66-.31.1-.31-.62.21-.1-1.04-2.49-1.14-3.11-.41-1.24,8.6-4.35,1.55-.83,2.59-1.35v.1l4.14-1.97.62-.21,4.04-1.35,1.35-.41,4.14-1.24.73-.21,4.25-.83.41-.1,2.8-.62.62-.1,3.94-1.04,2.59-.62,1.76-.41,2.18-.52,4.45-1.04,4.77-1.14Z"/>
      <path class="cls-9" d="M282.48,699.33l-1.86,3.21-.73,1.14-1.14,2.9-.41-.21-2.28,6.42-.73,1.66-.83,2.28-1.66-.52-.1.21-.31.31-.21.1-.31.1-.21.1-3.42-1.14-15.44-4.66-8.08-2.38-3.32-1.04.21-.83-1.04-.31-.21.83-12.95-3.94.21-.83-1.66-.52-.31.83-22.69-7.04-.1.1-.73,2.69-.21.41-.62,1.86,12.33,3.21-1.24,4.45-41.64-12.02,1.45-4.14,11.5,3.42.73-2.59.1-.21.83-2.9-17.2-5.8-8.81-2.59v-.1l-1.24-.31-11.29-2.49-.1-.1-3.11-.73-.1-.1-3.73-.83-.21-.1-.31-.1-.83.31-1.86-.41-2.28-.52-6.73-1.45-.73-.21.1-1.55.31-10.77.31-5.18.31-3.52.1-1.45-.62-11.6-.1-.83-.31-7.46-2.59-9.32-.93-1.66-9.53-13.16-.62-.73-9.32-11.5-.52-.62-1.14-1.35-6.01-8.39.1-.21,6.53-7.67h.1l6.32-5.39,1.45-1.24,5.9-4.97,4.35-3.21.1.1,4.04-2.28,3-1.66-.1-.31,1.97-1.04.1.31,2.28-1.24,3-1.66,3.73-1.76,3.42-1.66,7.04-3.32,5.28-2.28,1.76-.93,4.77-2.28,3.94-1.86.1.1,4.14-2.9,3.83-2.59,2.18-1.45,4.25-3.11-.1-.1,3.32-2.9.62-.62,1.14-1.14,4.04-3.83,2.38-3.52.1-.52,1.45-3.11.93-2.28,1.24-2.9,1.24-3.32-.1-.1.31-.93.21-2.69.52-3.11v-.73l.52-3.32.62-3.73.21-1.86.1-.1.1-.62v-.31l.52-4.87.1-.1.1-1.35.31-2.59.1-.93,1.45-1.66.93-.83.62-.52.31-.31,1.76-.83,1.45-.41,4.87-.31,3.21-.31,2.28.21,2.59.62,2.49.73v.1l1.66,1.14,1.45.93,1.04.73.1-.1,2.28,1.14.1.21.83.41-.21.31,1.86.83,3.11,1.55-.62,1.24.41.21-.31.62,3.32,1.35,1.24.52,2.9,1.14,1.76.73,1.55.62-.1.1,1.66.62.73.41,1.24.62,2.59,1.24,3.63,1.97h.1l.52.1v.1l.62.21.62.21.1-.1.31.1,3.21,1.14.83.21.93.41,4.04,1.45.31.1,1.66.62,1.55.83,1.35.52.73.31.83.31,2.49.62,3.32.83h.62l1.76.21.31-.1,3.52.1,7.04.21,14.09.31.52,9.84.93,7.46.1,1.14.41,3.83h.52v.31l.41,3-.52.1.31,1.04.62,3.21.83,3.32.21.62.52,2.18.52-.21,1.04,3.73-.52.21.52,1.55.52-.1.31,2.59h.62l.62.1.52.41.1.31.31,1.76.1.21-.1.31-.21.52-.31.41-.41.1-.31.1-.21.1.31,2.59-1.97.31-.1-.31-10.46,1.66.1.52-.1.21-1.04.1-.31-.1-.1-.52-6.73,1.04v.21l-4.25.52-.1-.1-10.15,1.97-9.43,1.76-.1.1-.93.21v-.1l-4.45.83-1.14.21-1.35.52-.93.31-1.35.31-3.32.52-12.74,2.18-3.73.52-1.24.31.1.31-1.35.21v-.31l-.31.1h-.21l-1.24.41-.31.1-9.63,1.86v.1l-1.76.93-.1-.21-4.45.83-5.8,1.45.1.21-.73.21-.1-.21-2.07.52-2.59,1.24-2.59.83-.62.21-.1-.1-6.53,1.66-3.32.93-.62.1-4.87,1.24-1.66.31h-.21l-.1-.1-.1-.31-3.21.62-1.45.31-4.45,1.14-2.9.83-3.11.52-2.38.83-6.73,2.49-1.45.52-3.52,1.35-3.52,1.35-.83.41.1,1.04,1.24-.62v.21l.31,1.35-.31.1.21.52.31-.1.21.62,2.69,8.29.93,2.69,1.35,4.14.83.93.31.62-.52.21,1.55,4.35.41,5.39.1.52.41,5.28.1.83.1,2.69.1.83.1,1.35v.52l.1.62-.31.1-.21.31-.31.52-.21.52-.1.62-.1.62-.1.83.1.83v.62l.1.62v.41l.1.1.1.21.73-.1v2.38l-.73.1.1.83-.21.31-.1.31-.1.41-.1.41-.1.31v.41l.1.52v.52l.1.41.1.31.21.52.31.41.1.21.41.1.31,1.76-.1,1.24v1.24l1.97.31,3.42.52.62.1,4.25.62,4.56,1.14,5.28,1.35.62.1,2.8.62h1.24l.1-.21,3.73.31,3.52,1.04.62.52,1.24.1,9.01,3.11-.1.21,9.01,3.32.62.31.62.31h.1l6.01,2.9-.62,2.59,3.42,1.45,3.21,1.24,3.11,1.24.1-.41.31-.52.31-.1.41-.1.41.1,1.76.73.21.21.21.31.1.31v.41l-.1.21-.1.21,2.18.83,1.14.62.83.31.31-.62,2.18.83-.1.62,5.59,2.18.1-.31,1.14.52-.1.31,2.9,1.24.41-.93.93.41-.52,1.04,2.9,1.35-.21.62,3.32,1.55.31-.73,11.6,5.59,1.14.62,2.28,1.04-.41.73,9.22,5.49Z"/>
      <path class="cls-9" d="M311.38,557.2l.1.1.41,3.73.31,3.32.1.52-.1.62.1.41,1.14,2.69,1.55,5.8-2.69.83-5.18,1.45-2.28.62-7.25,1.97.1.52-.83.21-.1-.52-4.04,1.04-2.38.62-3.11.83-1.76.21-1.14.31-2.9.83-4.25,1.55-.52.1-2.69,1.04-2.69,1.24-.83.62-5.9,3-3.73,2.18-1.24.52-1.55,1.04-3.73,1.66-1.76.62-3.32,1.24-1.97.52-4.45,2.18-.31.1-1.97.93-.83.83-1.76,1.24-.62.31-3,1.24-3.73,1.24v.1l-3,.62-3.42.41-.1-.1h-.83l-2.49.62-1.66.62h-.1l-1.04.41-2.38,1.14-1.35.62-4.04,1.76-5.28,2.07.31.62-2.18,1.24-3.52,2.28-.52.21-2.38,1.24-6.32,2.38-1.24.1-.52.21-5.18,1.14-2.69.31-4.77.31-1.55.21-8.39,1.14-.31-2.8-.1-.83-.83-8.08h.1l-.41-3.52-.31-2.9-.21-1.45-.21-.73-.31-.1-.73-1.97-1.97-5.18-1.04-2.69-.73-2.49-.73-2.49,3.52-1.35,4.56-1.86,4.45-1.14.73-.21,4.04-1.55,5.9-1.45.31-.1,1.45-.31,4.45-.93,3-.62v-.1l1.14-.21.1.1,7.46-1.66,1.04-.31,13.88-4.25.31-.1.62-.1v.1l.31-.1.1.1,11.4-1.86v-.21l1.24-.1.1.1,5.28-.73,1.35-.21,1.66-.31.1-.1,8.29-1.97,1.66-.41.1.21,5.7-1.45,4.87-.93,1.66-.52v.1l.83-.21,1.24-.62,2.59-.83,1.45-.21,6.11-1.04,1.76-.31,2.07-.31,3.73-.62,2.07-.31,1.97-.41,3.83-.62,1.14-.1,4.04-.31,6.53-1.14-.1-.41,3.73-.62,3.73-.62,4.87-.62.83-.21Z"/>
      <path class="cls-9" d="M239.59,606.93l.21-.1.31.1.21.1.21.1.1.21.21.52.62,2.69.1-.1.21.83-.1.1,1.66,5.9.31,1.45.1.31.93,4.35.1.73-.1.31.21,9.74.1.1v.73h-.21l-.21,4.87.1.1v.83h-.21l-.21,3.63-1.55,5.59.1.1-3.52,10.46-4.14,8.39-.83,1.45-6.32-2.59-4.25-1.76-5.39-2.59-1.97-1.04-16.37-5.8-3.63-1.04-.62-.31-11.19-2.49-.62-.1-6.84-1.66h-.1l-.62-.1-8.08-1.24-1.45.21-.1-1.24v-.21l-.31-4.56-.1-8.39.1-3.52.1-1.86,5.18-.83,1.86-.31,7.87-1.04,5.49-1.04,3.73-.93-.1-.1,4.25-1.86,1.76-.73,2.59-1.14,1.24-.62,1.35-.73,4.66-2.59,5.28-2.69,2.69-1.45,3.32-1.55.31-.1v.1l.93-.41,1.04-.62,1.45-.83,12.74-2.18,5.39-1.55Z"/>
      <path class="cls-9" d="M-20.54,627.54l-2.9-8.6-.41-1.04-1.66-4.45-.41-1.24-2.59-6.94.31-1.24.21-.52.93-.73,5.59-2.49,3.21-1.66.31-.31,1.45-.83.52-.1,1.66-1.04,5.39-3.73,1.66-.83,11.71-5.18,1.35-.73,4.35-1.86,1.66-.73,2.38-.73,5.9-2.28.73-.52.41-.73.1-.73-.62-3.83-.52-1.55-.93-3,.1-.1-.31-.73-.21.1-.1-.31-4.97-14.19.21-.1-.31-.83-.21.1-.1-.31-.1-.1-.52-1.66.1-.31.21-.1.1-.1-3.94-8.29-5.08-6.11-.1-.1-.41-1.35-6.53-10.98-.62-3.32-.52-3.52,3.83-1.24,8.18-3,4.87-1.86,3.94-1.45,1.66,2.18,2.49,3.42.52.73,2.59,3.73,1.35,1.76.93,1.66,1.97,3.73.83,1.66,2.18,5.18.83-.31,1.35-.52.83-.41,5.7-1.66,6.22-1.55,1.66-.41v-.31l3.11-.62,5.39-1.66,11.81-3.52.41-.1.83-.21,4.25-1.45,1.24-.41,3.73-.93.62-.31,5.59-1.55,3.94-1.14,1.76-.52v-.21l10.05-3.21.1.31,1.24-.41,1.14.31,2.18,2.9.31-.1.73,1.04.83-.52,3.21,4.66-.83.52.83,1.14-.21.1,1.24,1.76.21-.1.62,1.04,1.76,2.69,3.73,5.18,7.36,9.95,3,4.04,1.55,2.28.52,1.55-.31.21-12.33,8.08-1.04.83-9.01,6.53-1.45,1.24-1.55,1.55-2.9,2.9-4.66,4.45-2.28,2.38-1.45,1.66-1.45,1.66-1.66,1.45-2.38,2.49-4.56,2.9-5.59,3.21-.83.52-1.97,1.14-2.49,1.24-4.45,1.45-.73.31-1.76.62-.52.21-3.42,1.24-2.8,1.04-5.08.83-8.08,1.45-6.11-.1-9.74.1h-.93l-1.35.31-9.32,1.97-1.14.1-.31.21-.52.31-1.97,1.14-.83.52-3.32,2.07-16.06,11.08-4.04,2.18-1.14.52-4.87,1.97-4.25,2.18Z"/>
      <path class="cls-9" d="M-37.94,427.09l-8.91-26,.31-.1-1.76-4.66-.62.21-.21.21-.83-2.38-.41-.83-.31-.83-.31-1.14-.1-.41v-.31l-.21-.83v-1.04l.31-2.18.83-1.55,8.39-15.44,1.66-3.11,1.97-3.73.62-.93,1.45-2.38.62-1.04.93-.83,1.76-1.04.83-.21.83-.41.41-.62.1.1.62-.93-.1-.1,1.45-2.18,1.14-1.66.93-2.18,14.81-24.24,7.04-6.63.21.1,2.9-2.69-.1-.21,5.18-5.08h.21l4.97-3.32,1.14-.52,1.04-.52,12.74-6.11h1.66l.62.21,1.14.52.73.41.31.1,3.52,1.76.41.21.1.1,2.07,3,.21.31,5.28,7.77,1.35,2.38,3.42,5.39-.1.1.31.62.21.1,1.04,1.66.21.31,1.76,2.69.21.31,1.24,1.97.21.31,3.52,5.18.93,1.35-.1.1,3.11,4.04,7.87,3.11,2.9,1.24,3.52,1.14,1.97.62.83.31.62.1.31.1.52.1,1.04.1.83.1,1.24.1.31-.1h.52l3.83-.41-.1-.52.52-.1v.52l1.24-.1,2.9-1.04.1.62.31,1.24.31,2.18h.31l.21,1.66-.31.1,1.45,9.43v.31l.31,2.07.41,2.49v.21l1.24,8.08.41,1.66.41-.1.41,1.45-.41.1.1.83.52,1.97.21.73.52-.1.52,2.18-.52.1.93,3.73.41-.1.52,1.86-.52.1,1.04,4.35.1.21.1,1.76.31,3,.31,2.18-.31,4.97v1.14h-2.07l-.41-.1-.83.83-4.45-.21-.73-.1h-.41l-4.04-.41-2.28-.21-.31-.1-1.97-.31-2.18-.31-1.55-.31-1.45-.31-1.35-.52-.93-.41-.83,2.8,2.9.52,14.09,2.38.93-.1.52.1,1.24.1-.1,1.35-1.24.52-.31.1-14.5,5.08-13.36,4.66-2.59.83-2.38.83.1.21-1.66.62-.1-.31-16.37,5.7.1.31-1.76.62-.1-.31-21.55,7.25-7.87,2.49-.52.21-5.49,1.76-.21-.1-3.52,1.14v.21l-.31.1-1.35.31-13.88,4.77-11.81,4.04-2.59-7.36-3.63-10.67-1.24-3.73,5.8-1.97,4.25-1.45,3.21-1.04,2.07-.73-.21-.52,7.46-5.39-1.76-2.59-7.98,5.8-1.24.52-12.43,4.56Z"/>
      <path class="cls-9" d="M-5.1,512.66l-.52-2.9.31-.1-1.86-11.29-.31-1.97-.41-2.38-.41.1-.31-2.07.52-.1-1.45-9.01-.1-.1-.41-2.59-.1-.1v-.52l-.1-.21-.31-2.07v-.1l-.41-2.8-.21-1.14.31-.1-1.04-3.21-.1-.31-4.56-17.82-.41-1.24,14.09-4.66,1.24-.41.21-.1,7.25-2.18,1.55-.52.31-.1.62-.21,7.87-2.59,1.66-.52,7.67-2.59,1.86-.62,10.98-3.73,7.15-2.38,6.22-2.18,8.81-2.9,10.67-3.42,3.73-1.24h.31l12.53-4.04.31-.1,1.14-.31h.31l5.18-1.24h.1l1.35.52.41,1.76.52,1.97,3.52,13.57.52,1.76h-.31l.31,1.04h.21l.41,1.45,1.45,5.49,1.66,6.01.31,1.24.83,3.21.1.31-1.45.52-.1.1-5.18,1.76-2.18.73-1.14.31-8.39,3.11-5.59,1.55-10.77,3.73v.1l-3.32,1.35.1.21-3.52,1.35.1.41-1.76.73-15.12,5.18-6.11,2.18.52,1.66,4.45,14.92h.1l.21.62-.1.1.31.83v.1l.31,1.45-15.23,4.87-10.26,3.32-.41.1-1.24.52-.31.1-4.35,1.45-5.28,1.76-1.24.52-5.18,1.76-3.94,1.24-4.25,1.45-.83-.31Z"/>
      <path class="cls-9" d="M22.04,508.82l1.14-.52.41-.1.1-.21,1.24-.41,23.31-7.87,3.11-1.04,2.38-.83,6.32-2.07,11.08-3.83v-.1l1.45-.52,37.92-12.74.31-.1,1.45-.41.31.62.1.62.41,1.24v.1l-.1.1h-.21l1.45,5.49,1.66,5.8.1.52.1.31.1.31v.41l-.1.1-.62.52-6.84,5.39-4.87,3.73-.41.21-1.24.93-.31.21-.1.1-4.77,3-2.28,1.45-.41.31-.83.31-3.32,1.04-.52.31.31.73-2.07.83-10.26,2.9v-.1l-.73.1v.1l-1.04.31-.73.31-6.94,1.97-.83.21-.83.21-.93.31-3.32,1.04-.73.1-25.69,7.56-.93.31-.83-.1-.62-.52-.52-.62-7.46-12.43-3.42-5.59Z"/>
      <path class="cls-9" d="M105.33,456.51h.1l1.24-.41.1.52,1.66,6.11h.1l.52,1.76-.1.1,2.49,9.95h-.1l.1.52-1.55.52-.1-.1-.1.21-2.69,1.04-7.77,2.59-16.58,5.59-1.45.52-18.65,6.11-10.88,3.32-1.24.41-.31-.1h-.31l-.83-1.66-3-9.43.1-.1-2.18-7.04,2.69-.93,8.6-3,1.86-.62,6.94-2.28,3.73-1.24.73-.31,7.25-2.38.83-.31,3.52-1.14,2.9-.93,8.18-2.59,6.94-2.18,1.24-.41,6.01-2.07Z"/>
      <path class="cls-9" d="M104.09,411.24l.83.1,1.04.1,2.38-.1,4.97.1,1.14.1,3.73.1,5.28.1.73.1,2.49.31h.31l1.24.1,3.73,1.76,1.14.41,3.73,1.14,4.04,1.14.83.31.21-.21h.21l.93.31-.1.21,6.53,2.69,3.42,1.45.1-.1.41-.1.83.31-.1.21,4.04,1.97,4.66,2.28.1-.21.31.1.83.41-.1.31,2.59,1.24,5.7,2.9.41.1,1.35.93.31.62.1.52.62,6.22.1.83.83,1.76.83.62,1.97,1.66,1.24.83,2.38.83,1.66-.1h.73l1.97.1h.41l.52.1.62.1v.31l3.32.21,1.04.21.41.1.41.21.52.31.31.31.31.31.31.41.31.52.21.31.1.41.1.41.21.83v.62l-.1,1.24-.1,3.83-.21,3.83-.21,3.11.1,7.04-.1.83-1.04-.1-2.9-.41-3.11-.41-3.83-.73-1.45-.31-12.02-2.28-9.74-1.86-6.94-1.35-5.39-1.04-1.66-.41-1.76-.83-2.28-1.04-1.66-.83-.31-.21-1.14-1.97-1.04-1.24-.73-.93-.62-.41-6.11-5.39-9.32-4.97-4.97-2.59-1.66-.83-.1-.1-.62-1.45-.83-1.24-.31.21-.83-.93-2.9-5.18-.1-.1-3.32-9.22-1.55-4.97-.62-1.76-.83-2.59-.1-1.04.62-1.55Z"/>
      <path class="cls-9" d="M103.98,407.72l.1-1.86.52-10.26-.41-1.76-3.83-15.54-.52-1.97-.83-3.63-.1-.62-.31-2.28-1.45-7.67-.52-2.38-.83-4.56-.83-4.45-.52-4.25-.1-1.24-.1-.83-.1-1.14v-2.28l2.49-1.76-.31-.41,3.42-2.49.31.41,4.35-3.42-.21-.21,2.38-1.97.21.31,2.07-1.55.21-.21,1.97-1.66.31-.21,5.9-4.77,1.55-1.24,1.45,1.66,2.07,2.8,3.21,4.97,5.18,7.98.52.73.41.73.41.73,2.28,6.11.21.52,3.11,8.29.52,1.24,2.07,8.18.52,1.66.1.83-.21.52-.52.41-1.24.83-2.18,1.45-1.55,1.04-3.11,1.97-.62,1.14-.1,3.63-.52,2.69-.21,2.38-.1,1.66-.21,1.86-.62,6.22-.31,3.73-.1.52-.21,4.04v.62l.1.73v.93l-.52,3.73-.1.83-1.04.1h-.21l-1.66-.1-.1.21h-1.35l-.93-.1-8.18-.62-.31-.1h-.31l-.93-.1-6.53-.62-1.86-.1h-1.14Z"/>
      <path class="cls-9" d="M132.78,411.03v-7.04l.1-.52v-5.49l-.1-3.73v-6.94l.21-.73.31-1.76.52-3,.1-.73,1.35-2.9.73-1.04.52-.93,1.86-2.49.31-.1,1.97-.93,1.14-.52,1.66-.83.62-1.45-.93-4.87-1.66-8.08h-.1l-.31-1.04h.1l-.41-.93-3.83-8.6-3-6.84-.52-1.24-.52-.83-4.87-8.08-4.45-7.25-.41-.73-.31-.52-1.14-1.76,1.76-1.55v-.41l1.35-2.59.21.1.52-.93-.21-.1,4.97-8.39.31-.52.31-.52v-.1l3.52-5.59,1.04-1.45,1.66-2.28.1-.1.62-.83.1-.1,2.18-3.83.1-.1,2.07-3.83.1.1.41-.62-.1-.1.52-.83.62-1.04,1.97-3.42.21-.52.52-.73.1.1.41-.83-.21-.1,2.18-3.73.31-.31.73-1.04.62-.93,1.24-1.97,1.04-1.76,1.04-2.38,1.24-1.45-.1-.21,1.97-1.76-.1-.1.31-.31,1.55-1.76,5.39-5.59.73-.83,2.9-2.69,2.49-2.28,1.24-1.14.1.1.62-.62.62-.62.1-.21.83-.83.1-.1.73-.73,4.25-2.69,3.83-2.59,1.45-1.14.62-.41,2.18-1.66,2.49-1.97.62,1.04.31-.1.41.62,3,4.56-.31.21,1.55,2.28,1.24,1.86,3.11,4.87-.21.1.83,1.24.1.31,1.76,2.69.21-.1.21.52,3,4.45.73,1.14.31.41,1.76,2.59.52.73.31.41,5.8,8.49.62.83,1.45,1.76.73,1.04h.1l.93,1.35-.1.1.62.93,1.45,1.66,2.38,2.69,1.86,2.07.41.41,1.76,1.76,1.14,1.45,2.59,2.9.52.52,2.18,2.18,1.24,1.04,6.32,5.49,4.87,4.25.62.52,1.76,1.35,3.63,2.59,3.73,3.11,6.11,5.28.1-.1.41.41.52.41,1.24,1.04.62.41,4.04,2.9,1.24,1.24,4.77,3.94.31.31-.52.62-5.59,6.11-1.04,1.35-4.97,5.9-.62.83-1.45,1.76-5.59-1.04-2.9-.41-1.86-.31-1.35-.21-4.25-.62-1.76-.41-3.94-.73-3.73-1.24-1.24-.62-3.94-1.76.1-.1-1.04-.52-3.83-1.76-1.66-.83-4.45-1.55.1-.21-.62-.21-.1.21-2.07-.62-1.35-.41-5.8-1.45-2.69-.93-2.38-.83h-.1l-.31.41-.1.1-1.04.62-1.04,1.35-.31.41-.93,1.14-.52.52-.21.21-1.86,2.38-2.38,2.59-.62.52-.83,1.04-1.76,2.18-2.69,2.38-.83,1.24-.62,1.24-.21.31-.93,1.76-.83,1.86-.62,1.45-.1.41-.62,3.11-.31,1.04-.83,3.83h.1l-.52,4.04-.1.73-.1.62-.1,1.45-.1,3.21-.52,3.52-1.14,9.53,1.04,2.49.62,1.45,1.97,2.38,1.76,1.97.21.31.83,1.04,1.24,1.35,2.49,2.69,1.04.83,1.04.73,1.76,1.24,3.21,1.97.73.41,2.18,1.04,8.6,4.14.52.31,2.59,1.97-.1.31.41.31v-.21l.21.1,3.63,2.9,3.83,3.11.31.31,1.04.93.41.31-.1.1,1.76,1.76-.21.21,3.32,1.66,2.07.93,1.04.52,3.83,1.86-.83,2.9-.31.83-.31,1.24-.83,2.8-.83,2.69-.73,2.38-.41,1.55-1.97,6.53v.1l-.31,1.14-1.04,3.73-.31,1.14-1.24,4.25-.21.62-1.76,5.8.1,1.97-1.45,4.45-.21,2.07-6.11-.73-.73-.21-.21,1.66h-3.63l-1.76-.1-1.86-.1v.62l-5.9.1-4.66-.83.1-8.39h.1l-.1-2.69.31-3.32h.1l.1-4.04.31-3.83.1-1.97.41-1.66-1.76-.62v-.1l-2.9-.93-1.35-.52-.62-.31-1.76-.83-1.45-.62-2.8-1.24-.62-.41-2.9-1.14-3.63-1.45.1-2.59.83-5.39v-.52l-.31-.31-1.14-.31-.83-.31-.31-.1-1.66-.52h-.1l-.52-.1-1.45-.52-.41-.1-1.04-.52-.1.31-.83-.31.1-.21-3.63-1.45-5.8-2.38-.83-.31-.21-.1.1-.1-1.76-.73-8.81-3.52-3.63-1.55-.1.21-1.04-.52v-.1l-.41-.1-3.63-1.24-2.38-.83-5.08-1.97-1.14-.41Z"/>
      <path class="cls-9" d="M238.45,431.54l8.08,3.52,1.97.83,2.38,1.04.52.21,3,1.45,1.14.83,4.87,2.07.83.41,2.38,1.04.41.1.62.21-.31.62.52.21.31-.62,2.8,1.55,2.28,1.35,2.69,1.24.93.41,1.97,1.04,2.69,1.45.62.31.21.1.41.21.52.31,1.04.52.31.1,2.38,1.24,1.04.52,2.38,1.24.1-.21.93.41,1.04.62,1.14.62-.21.31,2.38,1.55,4.45,2.9,2.07,1.35,4.45,3.83.62.52,4.04,3.73.21.1.1.1,1.04.83.1.1,6.11,4.97-.1.1,5.28,4.77,2.18,1.66.1.1-.1.1-.52.52h.1l-.52.52-.1-.1-.52.62-1.04,1.24-1.24,1.45.21.31v.41l-.21.21-.31.1h-.1l-.31-.21-1.35,1.66-.41.31-4.56,3.32-3.52,2.49-.1-.1-4.45.21-1.76-.1v-.1l-.31.1-.1.52-6.94.1-13.05,1.24-.1-.1-3.32-.62-.1.1v.1l-1.76.31-1.04-.1h-1.45l-.1.31h-.83v-.31l-1.66-.31-.52-.1-.62-.21-.52-.1-.83-.31-.21-.1-.73-.31-1.04-.52-2.07-.83-.83-.41-2.69-1.04-.52-.31-1.04-.41-.52-.21-1.35-.62-1.76-.73-2.49-1.14-3-1.24-4.04-1.76-3.73-1.66-.1.31-5.7-3-1.24-.93.52-1.45-8.39-6.01-1.04-.73-1.45-.93-.83-.62-.52-.31-.1-.21v-.21l-.1-.31v-.21l.1-.52v-.21l.1-.31.1-.41.73-1.86.31-.93.41-1.14.52-1.45,1.45-4.04,1.04-2.8,1.24-3.32,2.18-5.9.93-2.59.21-1.24.1-.21.93-2.9,1.04-2.07-.31-.1,1.35-3.83,1.55-3.63Z"/>
      <path class="cls-9" d="M238.24,428.95l-.1-.73h.21v-3.32h-.21l-.1-.62-4.14-2.9-1.76-1.04-3.63-1.97.1-.1-1.76-.83-.62-.1-1.66-.73-2.59-1.86.1-.1-.52-.41v.1l-2.38-1.66-.83-.73-1.24-1.04-1.35-1.24-4.25-3.83-.62-.31-8.39-4.35-4.56-2.38-3.32-1.66-.41-.31-1.86-1.66-1.76-1.66-1.45-1.55-1.14-1.45-.93-1.24-.52-.62-.83-1.14-.83-1.35-.83-1.86-.31-1.35-.31-1.35v-1.86l.1-1.66.1-1.14.41-2.9.31-1.86.62-4.56v-.21l.21-1.45.1-.52.1-.73.93-5.18.31.1.1-.31-.41.31.31-2.38.21-1.24,3.73-7.67.21-.41.1-.21,5.18-6.73,2.07-2.69,2.07-2.18.31.31.52-.52-.31-.21,1.24-1.35.31-.31,1.04-.93.1-.1,1.97-2.18.1-.1,4.97,1.76,4.66,1.76.31.1,3.94,1.45,2.38.93,2.18.83,3.21,1.14,4.45,1.76v.1l1.14.31.41.1,4.66,1.55,1.76.62,1.35.41,1.24.21.93.21,1.66.31,3.63.31.83.1v.1l2.38.52,2.9.52h.93l4.66.52,1.66.21.93.1.1-.62.31-.52h.83l1.04.1.52-1.97h.1l.41-.93,3.11-4.25.41.1,1.35-1.66.62-.83,2.18-2.38,2.9-3.73h.31l.31-.83.83-.1,3.32-.21v-.31h.73v.31l3.42-.31.1,1.04,1.24-.1,2.69-.31,6.32-.73,5.9-.93,3.73-.83,2.28-.52,4.56-1.24,2.28-.52,1.35-.31,2.69-.31,4.66,7.46.21.41.62,1.04,1.04,1.97.41.62,2.8,5.39h-.31l.1,1.04.21.83,3.21,7.67v.1l.93,1.55.83,1.55-.83.52,3.11,4.66,1.04,1.66-.1.41.31.52h.21l3.83,6.42-4.66,1.97-.73.31-4.66,1.97-4.35,1.04-2.59.62-6.11,1.55-1.04.31-8.29,1.76-2.69.52-3.73.62h-.1l.93,3.11.31.62,1.24,2.9,2.28,5.08.31.83-.41.21,1.04,2.18.41-.1.52.83,1.76,2.9.52.62,2.28,1.97.1.31-.41.52.62.83.41.52.52-.52.83.93.1.21.31,1.04,3.21,1.76,2.59,2.28.73.62.52.52.31.31h.1l1.04,1.04.21.21.31.31,2.07,2.07,2.69,2.18v.1l1.97,1.66v.1l-.21.52-1.45,3.11.1.1-.73,1.66-1.04,2.18-.62,1.35-1.45,2.69-1.14,2.59.21.1-.31.52-.1-.1-.41.93,2.59,1.55.52.31h.1l.41-.62.52.21,2.59,1.24,1.66.83.41.21.62.31-.1.31,2.28,1.04.62.21,3.83,2.69,1.24,1.04.1.1,1.45.93,1.24,1.24,1.04,1.45-.83,6.53v1.14l.1.62.1.52.52-.1.31,1.55v.31l-.21.21-.21.1.21.83.1.83.52,2.18,1.24,3.52.21.1.1.1.21.21.52,1.35-.52.21.21.62-.41.31-.31.31-.31.31-.83.62-.31.31-1.24,1.14-.1-.1-.31.21-.1-.1-3,2.69h-6.42l-.93.83-.83.83.21.1v.41l-1.04.93-.41.1-.1-.21-1.66,1.55.1.31-1.55,1.55.1.1-.41.41.21.31v.31l-1.14,1.04h-.1l-.31-.31-.52.52-1.66,1.55-.31-.1-7.25-6.84-.52-.52-5.39-5.08-1.35-.52-.41-.31-1.24-1.04-1.55-1.45-1.35-1.04-2.59-2.69-.83-.52-.52-.52-.1.1-3-2.28-3.52-2.59v-.1l-4.87-2.18-.83-.41-.21-.1-.83-.41-.31-.1-.62-.31-2.59-1.14-1.55-.83-1.45-.62-.93-.52-.52-.31-.62-.31-.62-.31-5.8-2.69-1.14-.52-.62-.31-.73-.52-5.8-3.11-.31-.21-.62-.41-.62-.31v-.1l-4.45-2.38-1.04-.52-.1.1-1.24-.62-.41-.21-1.35-.62-4.87-2.59-3.11-1.55-.52-.31.1-.31-1.14-.52-.1.31-6.42-2.9-.1.31Z"/>
      <path class="cls-9" d="M351.26,465.73l-3.63-7.98.1-.1-.1-.83-.1-1.76-.1-1.97v-1.04l-.1-.21.1-1.45.1-5.39-1.04-2.18-.52-.52-2.69-2.59-.41-.31-.93-.62-.1.1-3.83-2.69-.52-.21-.62-.31-2.18-1.04-1.14-.52-.62-.31-.1.1-1.76-.62-.52-.21-1.24-.73-.52-.31-1.86-1.04,3.32-7.56.31-.73.1.1.21-.31-.1-.1v-.1l1.35-3,1.04-1.76.31-.52,1.04-1.55-1.45-.93-1.24-1.04-2.49-2.38v-.1l-.52-.52-1.24-1.35-1.04-1.24-.1-.21-.62-.83-.21-.1-.1.21-.52-.31-.62-.31.1-.1-.21-.1.1-.1-.83-.62-.1-.1-3.63-3-1.55-1.24-.62-.62-.21.1-.52-.52.1-.21-.52-.62-3.42-3.73-1.66-2.9-2.49-4.25-.1-.62-1.04-2.8-.1-.31-.1-.41-.73-2.49-.1-.52,1.04-.31,1.45-.31,5.59-1.55.1.31.62-.21,3-.83,4.45-1.24,3.63-.73.73-.31,2.59-.62.83-.21,3.52-1.24.73-.31,1.76-.62,1.24-.41.62-.31.31-.1,3.32-1.76v-.1l1.66-.83,1.86-.83,2.69,2.9,3.73,3.83.62.62.52.73v.31l-.1.31-.1.41,3.73,5.9-.1.1-.1.1-.1.1-.1.1-1.04.52-4.87,2.8-.93.52-1.24.62,1.04,1.66,1.24-.62.62-.41,1.97-1.04,1.55-.62,3.21-1.55.1-.1,1.66,4.35.62,1.76.62,1.76-.31.21,1.66,4.97.52,2.07.21.83-.62.31.1.62.1.1.52-.21.52,1.35-.52.31.52,1.14.31.62.62,1.97,1.45,2.49.52,1.66v.31l-.31.1.52,1.66v.1l.21.31-.52.31v.93h-.1v.52h.31l.1,1.24h-.83l.52,1.04.31.52.31.52.31.31.21.31,4.77,6.53.93.83,2.38,1.97,4.87,4.04.31.31,2.18,1.76,5.28,4.66.62.52.83.73-2.69,1.97.31.52-1.66,1.14-.52-.73-2.69,1.97-2.07,1.55.31.52v.31l-.1.1-2.18,1.66h-.41l-.41-.52-2.38,1.76-6.11,3.32-5.9,3.32-3.21,1.86-2.18,1.24-2.59,1.66.21.41v.1l-.1.1-1.04.62h-.21l-.1-.1-.21-.31-2.59,1.55Z"/>
      <path class="cls-9" d="M314.38,321.01l-1.55.52-4.87,1.66-1.04.31v.21h-.31l-.1-.1-2.28.62-1.24.31-4.35.83-1.97.21-1.24.21-1.04.1-3.63.1-.62-.1-3.94-.31-3.42-.21-4.97.21-2.28-1.24-1.86-1.14-2.18-1.24-1.66-.83-3.52-2.28-.52-.31-1.86-1.97-1.45-1.66-3.52-3.52-1.76-1.35-5.59-4.35-.1.1-1.04-.73.21-.1-.83-.62-7.36-5.7-.52-.52-.73-.52-1.24-.93-.62-.52-.52-.52-2.28-2.38-1.14-1.14-.1-.1-.83-.83-3.42-3.32-.1-.21-2.07-1.97-.21-.21-2.59-2.59-1.76-2.28-1.24-1.55-.41-.52-.52-.62-.83-1.04-1.76-2.18-1.66-1.97-1.04-1.35-.83-1.14-1.97-3.11-.62-1.04-.1-.31-.52-1.04-.52-1.04.1-.31v-.1l-.52-.83-1.86-2.59-1.76-3-1.04-1.66-2.38-3.83-1.35-2.18-.1-.21-2.8-4.45-2.18-3.42-.62-1.04-4.25-6.73,5.08-3.63,2.9-1.86,1.04-.62.21.31,4.77-2.9.1.1,5.08-3,1.24-.73,2.69-1.45h.1l2.38-1.24,1.04-.52,1.76-.83-.31-.52,1.45-.83.31.21.1.21,1.55-.83.83-.1.62-.31,4.56-2.49.21-.1,2.07-1.14.1-.1,2.38-1.04-.1-.41,1.24-.52.1.41,7.04-3.32-.1-.31,1.24-.52.1.31,3.83-1.76-.1-.41,1.35-.52.1.31,4.97-2.28,11.6-4.45-.1-.31,1.24-.52.1.31.73-.31,2.69-.93,1.35-.31,4.66-1.35,2.9-.73.1.41.83-.21-.1-.41,5.59-1.24.1.41.62-.1v-.31l7.67-1.24,2.18-.31,5.8-1.14,5.18-1.04-.1,7.25-.1,1.97-.31,7.36v.93l-.21,3.52-.31,4.66-.1,1.04h.21l-.21,1.35h-.1l-.21,1.35-.1.62-.1,1.35v.52l.1,1.24v2.49l-.21,1.24-.31,2.59-.31,2.38-.31,1.35v.1l-.62,3.32-.41,2.18-.21.93-.1.41-.21.83.21.1-.1.31-1.35,4.35-.1,1.66-.31.83-.21.31-.21,2.18-.31,2.9-.52,3.73-.62,2.69-.1.52-.31-.1-.31.93-.62,5.8-.1.52-.62,4.45.1,1.24v.31h-.1v.52h-.1l-.1,4.56h-2.49l.31,4.04v.1l.21.93.1,1.04.52,3.83.41,3.83.52,3.63.1.52.1.62.1.83.21,2.18.52,1.76.93,2.8.62.62.41.41,5.39,7.04.52.62.1.1.41.52.1.1,3.83,5.39,1.14,1.66,1.66,2.49Z"/>
      <path class="cls-9" d="M310.65,186.34l1.76-.1,6.53-.62,5.18-.52,5.08-.62v-.21l4.66.31,1.55.31.1-.52,3.21.62,2.18.41-.1.52h.1l7.36,1.45.1-.21.21-.31.31-.1.21-.1.21-.1.31.1.21.1.21.1.21.31.1.21.1.31v.21l6.73.93-.62,1.97-1.45,4.04-1.24,3.73-1.86,5.28-1.24,3.52.83.31-.83,2.18-1.14,3.21-.21.52-.1.52-.41.73-2.69,6.94-1.04,2.59-.41.83-2.18,4.25-.52,1.04-.83,1.86-.31.83-.83,2.07-.1.83.41,1.76.1.52.21,1.45.1.83-1.24,4.97.31.31.1.1,4.25,3.63,2.18,1.76,1.97,1.76.41.31.73.62.52.52.62.62,5.8,4.97-1.97,3.11-1.66,2.59-.1.31-.41.83-.31.52-1.35,2.69v.1l-2.18,4.45-.83,1.76-.52,1.04-1.24,2.18-2.18,3.83-.83,1.35-1.55,2.59-.1-.1-1.97,2.8.31.31,1.35,1.04,1.97,1.45-1.86,2.28-.83.83-1.76,1.97,1.76,1.76.31.31.62,1.14-.52.31-.31.21-5.28,4.87-.31.31.31.31-.83.83h-.1l-.21.31.1.1-2.59,2.38-2.59,2.18-1.14,1.04-.93.73-.83.62-1.66,1.24-.1-.1-1.66,1.35-2.8,1.66-1.66,1.04-1.24-1.45-1.76-2.38-3.21-4.25-1.76-2.07-.21-.31-.83-.83-.62-.83-.1.1-.21-.31-1.97-2.59-2.38-4.04-.31-.52-1.14-2.69-1.24-3.11-.31-1.55-.21-1.04v-.62l-.83-8.29.1-.1.1-2.8v-1.24l.31-3.11h.1l.62-4.97.21-1.24.21-1.14.83-7.15h.1l.1-.62.1-.62v-.31l.1-.1.21-2.18,1.45-7.36.52-2.18.21-1.14.31-1.24.1-.83.1-.31.1-.52,1.66-8.18.21-1.04v-.73l.62-3,.1-.83.1-.83.1-1.76.1-1.24.1-1.04.1-1.76.62-4.66h.21l.1-.41v-.31h.1l.1-1.24.1-4.04-.1-.1v-1.04l.1-1.14.31-4.25.1-1.35v-2.18l.21-8.18v-1.24l.1-7.87Z"/>
      <path class="cls-9" d="M360.17,188.41l4.66,1.04,1.14.21,6.22,1.24.1-.31,6.73,2.38-2.9,6.94-.73,1.76-.73,1.66-1.86,4.04-.21.52-.21.62-2.69,6.32-1.14,2.38-2.69,6.01-1.14,2.8-.31.62-.52,1.24-.62,1.76-2.28,4.45-2.18,3.52-1.24,1.97-1.45,2.49-.1.1-.31.62-.1.31-1.55,2.69-1.76,3-1.55,2.28-1.76-1.24-.93-.73-1.55-1.04-.62-.52-3.11-2.18.52-3.94-.52-.1-.1-2.38-.41-1.35-.31-1.04.21-1.76.52-1.86h.1l1.04-2.49,1.86-4.14,1.97-4.56.93-1.97h.1l3-6.53,1.97-4.04,1.14-2.59.41-1.66.1-.41.1-.21.73-2.9,1.97-6.11,1.86-5.9.21-1.04Z"/>
      <path class="cls-9" d="M381.1,193.38l6.22,2.18,6.11,2.18,3.52,1.66.31-.31.83.41-.1.1.52.21-.1.31,2.07,1.04,7.04,3.52,1.04.31.21.21,10.88,5.39-1.45,2.8-.31.52-2.07,3.42-.1.1-.41.93-3.63,5.39-.93,1.45-.31.52-.31.52-.52.62-1.86,2.8-.41-.31-1.24,1.86.41.31-1.04,1.45-.31.1-2.28,2.8-.73.93-.52.62-.62.73-.52.52-1.76,2.28-.93,1.14-.31.31-1.35,1.76-3,3.83-1.55,1.97-1.55,1.55-.52.52-2.18,2.69-1.35,2.18-.1.1-.52.62-.31.31-1.24,1.76-1.86,2.59h.1l-.41.52-1.14,1.66-1.45,3-.1.1-.31.41-.31.31-2.38,3.52-.73,1.04-1.04,1.45-3.11,4.56-.31.31-3.52,5.08-1.76,2.69-.62,1.04-.52.41-1.66,1.24-3.52,4.45-.52.52-2.59-1.76-.62-.31-.93-.83-.41-.21-.62-.41-3.11-2.07-.1-.1-4.56-3.21,2.59-4.35.52-1.14-.1-.1,1.45-2.69.52-1.04,1.97-4.04,1.97-3.63.1-.31.52-.83.21-.31,4.25-5.7.93-1.04-3.83-3.21-.52-.41-1.97-1.76-1.76-1.76-.31-.31-1.14-1.04.21-.31,1.76-3.21,1.24-2.07.31-.62,1.45-2.38.1-.1.31-.73.1-.1,2.18-3.32,1.97-3.32,1.35-2.18,1.55-3.32.83-1.66.31-.62.83-1.76.83-1.86.21-.52,1.86-4.66.83-1.97,1.76-4.04,2.07-4.66.52-1.04,3.73-7.46,3.73-6.73Z"/>
      <path class="cls-9" d="M421.91,211.92l6.94,3.32,1.76,1.04,4.45,3.11-5.7,7.46-1.86,2.38-3.42,4.25-.1.21-.31.31-.21.21-3.52,4.56-.41.52-1.97,2.59-3.11,4.04-.62.83-.31.52-1.04,1.04-.83.93-5.08,5.8-1.24,1.45-.41.41-1.76,2.18-2.18,2.69-1.14,1.45-.31.41-1.97,2.38-.93,1.04-.83,1.04-1.14,1.35-2.28,2.69v.1l-1.66,2.07-.31.52-2.18,3.21-.1.21-.52.62-2.07,2.8-1.24,1.66-1.66,2.18-.52.62-1.24,1.76-.52.83-1.66,2.59-.52.83-2.07,3.73.1.1-1.24,2.07-1.14,2.38-2.49,3.63-4.56-3.42-.52-.52-1.24-1.14-.73-.62-.52-.52-.52-.52-2.8-2.38,4.97-5.8,1.76-2.18,2.18-3.11,1.76-2.69.93-1.35,4.45-6.11,3.52-4.77.31-.31.1-.1,1.76-2.59,3.73-5.39.1-.21.52-.52.31-.41.83-1.24.31-.41,3.52-5.18.31-.41,5.59-6.94,2.59-3.32,2.69-3,.83-.93.1-.1,3.11-4.04,5.59-7.25.31-.31.52-.62.41-.52,3.73-5.39.52-.83,4.04-6.94Z"/>
      <path class="cls-9" d="M436.21,220l2.18,1.66.62-.83.21-.1h.52l.31.1,2.9,2.28.1.31-.1.31-.1.1-.73.83,2.18,1.76-1.45,1.86-.62.73-3.73,4.87-.73,1.04-1.04,1.55-4.66,8.18-.41.73-.83,1.24-3.52,7.25-.1.1-.31.52-.21.31-1.04,1.86-1.24,2.49-.83,1.66-.62,1.35-.93,1.86-.31.52-3.21,7.04.52.31-.1.21-.41.83-3.52,7.15-.31.52-1.35,2.69-.83,1.55-.62,1.14-1.55,2.9-.83,1.24-.52.83-.62,1.76-.31.93-1.76,3.52-.21.41-1.97,4.04.1.1-.31.62-.73,1.76-1.45,2.59-2.38,4.35-.62.83-2.18,4.14-.41.52-1.45,1.76-2.28,2.9-4.04-3.32-.1-.1.1.1-.83-.62-2.69-2.18-1.97-1.66-.83-1.04-.83-.73-.1-.1-1.45-1.24-.31-.21-2.9-2.49-.31-.31-3.21-2.38-.73-.52,3.83-5.8,1.24-2.18,1.66-2.9.52-.83,4.14-6.22,1.97-2.9,1.97-2.28.1-.1,1.66-2.38.93-1.35,1.66-2.28.1-.21.83-1.14.1-.21,1.66-2.07,1.66-2.18,1.04-1.24.31-.41.1-.1,1.97-2.59.73-.83,1.24-1.55,3.11-3.73.31-.41,1.35-1.66,2.18-2.49,3.42-3.73.83-.83,2.28-2.38.31-.41.52-.62,2.9-4.25.83-1.14.41-.62.52-.62,3.73-4.87.21-.31.52-.62.1-.1.1-.1,1.55-1.86,3.42-4.66,5.59-7.56.41.31Z"/>
      <path class="cls-9" d="M444.39,229.64l3.83,2.59,4.45,3.11.31.1.52.31-.1.1.83.62.31-.31.31-.1.52-.21.31-.1h.52l.21.1.21.1,3.11,2.59.21.31.21.31.1.31.1.31-.1.31-.1.31-.31.52.62.52.93.73,4.97,3.73-1.45,2.07-1.86,2.69-2.07,2.9-.41.52-1.66,2.38-1.45,2.07-2.07,2.9-1.76,2.9-1.35,2.18.1.1-.1.1-.21-.1-.1.31h.1l-.41.62-1.24,1.86-1.45,2.18-.41.62-1.66,2.59-1.45,2.69-.1.31-.31.52v.1l-1.04,1.76-.31.41-2.07,3.94-.31.52-.1.1-.52.83-1.24,1.97-.1.31-.83,1.66-.41.73-1.86,3.73-1.86,3.73-4.87,8.18-1.66,2.9-1.14,2.18-.41.83-1.45,2.18-1.24,1.76-2.49,3.32-1.66,2.28-.41.52-.52.83-.31.52-1.45,2.59-.52,1.04v.1l-.52,1.04-.73,1.45-.1.31-.31.52-.21.1-4.14,5.7-.73,1.04-1.76,2.59-4.77,6.32-2.69-3.11-1.97-2.28-.83-1.04-3.52-3.83-2.38-2.49-4.14-4.25,3.83-3.83,1.24-1.14,1.66-1.45,2.28-3.11.31-.41,2.49-3.94,1.66-2.18,1.04-1.66.21-1.04,1.66-3.52,2.18-4.35,2.18-4.25.31-.62,1.24-2.8.83-1.66.73-1.66.52-.73,2.28-4.45.62-1.24,1.76-3.63.52-.93,1.66-3.52,2.38-5.18,1.66-3.94.93-1.76.52-1.14,1.04-2.18,1.14-2.38,2.38-4.97.1-.1.21-.52.31-.52,2.69-4.25,2.69-4.66,4.66-7.98.62-1.24,1.76-2.69,1.45-1.76,1.24-2.38Z"/>
      <path class="cls-9" d="M350.02,289.93l3,2.07,2.18,1.45.62.52,2.18,1.55.83.52.1.1,2.59,1.76.93.73.83.73.52.41,1.45,1.14,2.69,2.18,2.38,1.97.73,1.14.41.62,3.21,2.59,1.66,1.35,1.86,1.45.52.52.83.73,2.18,1.76.83.52,1.04.73,1.97,1.45,1.55,1.35,3.73,3.73-4.97,4.66-1.24.83-3.52,2.18-1.76.93-3.32,1.45-.41-.52-.52-.62-1.04.62-.62.52-.1.1-3.21,3.32-1.24,1.04-1.76,1.66-.52.52h.1l-.41.31-5.49,5.49-.62.52-1.24,1.24-.31.31-1.55,1.97-2.69,2.9-.52.62-2.38,2.59-1.35,1.86-1.55,2.28-.62.83-1.76,2.07-.31.31-.21-.31-.31.31.31.31-1.24,1.24-1.66-2.07-3.83-5.49-.31-.41.1-.1-.31-.52-3.32-5.59-.31-.31-.83-1.24,1.35-.93.31-.21-1.97-5.8-.31-1.45,1.24-.73-1.55-2.07-.31.21-2.69-3.83-2.49-3.21-3.73-5.18-1.24-1.97-.62-1.14-.83-1.35,1.24-.93,3.21-2.69,2.38-1.76.52-.31,1.35-1.04,3.32-2.28,2.59-1.76-.52-.73.93-.73,4.04-3.94,2.18-2.07,2.69-2.69-.41-.31-.41-.41-.83-1.04-.1-.21-.1-1.04,2.38-2.69.83-1.04,3.21-3.73.1-.1h.31v.31Z"/>
      <path class="cls-9" d="M386.07,329.92l.31.31,3.63,3.94,2.59,2.9,3.32,3.73,2.07,2.18,1.04,1.14,1.97,2.28-.31.31.73,1.14.83,1.35.21.31.62.83,2.18,2.8,1.24,1.66,1.66,2.18.93,1.45,3.52,5.9.52,1.76.52,3.52.31,1.97.52,2.9v.1l.1.62v.21l.62,4.45.1,2.69.1,2.18.1,1.45.31,3.21.41,1.97.41,1.14.52,1.55.1,1.24h-.41l.52,3.32.52,3,.1,1.24v.21l.31,1.04,2.18,5.8,1.24,2.49.21.52,1.04,2.28,1.66,3.52.52,1.14.1.1.73,1.45,2.69,5.18-9.01,3.83-.62.31.1.1-.52.31-.1-.21-.62.31.1.1-3.32,1.24-.62.21-3.11,1.35-6.11,2.59-.52.31.31.62-1.14.52-.31-.62-.1.1-.62-.62-5.28,2.38-4.25-3.52,3.42-7.04.93-1.86.52-1.35,2.38-5.28.1-.1.31-.31.1-.21,3-5.18v-.1l.21-.41h.1l.83-1.35-.1-.1.83-1.45,1.04-1.97.62-4.25-.52-.1-.52-.1-.52,1.97-.1.21-.1.52-1.66,2.9-1.14,1.86-3.63,6.11-.1.21-.21.21-1.45,4.04-2.28,4.87-.83,1.97-1.97,3.73h-.1l-.52,1.24v.1l-.52,1.04-1.86-1.14-.1.1-3.11-1.97-2.28-1.76-.41-.31-.31-.31-3.11-2.69v.1l-2.28-1.97-.1.1-1.14-1.24-3.11-3.21-.83-1.04-.73-1.14-.41-.93-.21-.41-.21-.52v-.1l-.52-1.24-.31-1.24h.1l-.31-2.28-.31-2.28.1-.1-.1-.52.31-.1-.1-.31-1.04-2.59.31-.41-1.45-4.97.21-.1-.1-.41-.31-.83-.52-1.35-.83-2.28-1.76-5.28-1.04-3.11-1.24-3.73-.31-1.04-.62-1.76-.1-.52-.31-.73-.31-.52-.62-1.04-.31.21-1.35-2.07-.31-.52-1.45-2.18.31-.21-.52-.83-1.66-1.55-.73-.83-3.52-3.63-.62-.83-1.97-1.97,1.45-2.38.52-.83,1.97-2.38,1.66-1.97,2.07-2.49.93-1.14,2.9-2.69,2.69-2.69,1.66-1.66.52-.52,4.66-4.56,4.66,3,1.04.73.83.52,4.77,3.11-.1.1,1.14,1.04,1.66,1.45,2.38,2.07.62-.62-.73-.62.31-.31-1.76-1.35-1.97-1.45-1.45-1.24-4.04-3-1.24-.83-4.35-4.04,5.08-3.83,1.14-.62.62-.31h.1l.83-.83.93-.62,7.04-3.21Z"/>
      <path class="cls-9" d="M508.31,267.76l.52.31v.1l5.18,3.32.52.31,2.28,1.45.31-.52,5.18,3.42-.41.52,8.81,5.8-.21.41,9.12,7.15,1.66,1.24.21-.1,7.25,7.56-.21.21,1.55,1.76,5.8,6.11.1-.1,4.14,4.87.93,1.24,3.63,5.28.83,1.66,2.38,5.28-.1.1.1.31.83,3.52.83,3.11.52,1.76-2.9,6.42.1.83.31,2.59.62.52-6.53,6.42-3.32.52-1.14.21-1.04,1.24.41.31-3.32,4.04-.41-.31-1.97,2.28-2.49,2.59-1.24,1.45-.21.21-.52.62-.41.31-1.24,1.24-1.14,1.04-1.24,1.04-.93.83-1.66,1.45-.21.21-1.45,1.24-.31.31-.83.62-2.18,1.76-1.76,1.45-1.45,1.04-1.24.83-1.04.73-.1.1-1.45,1.04-.21.1-.93.62-.31.21-1.55,1.04-.1.1-1.97,1.35-.21.1-1.55.93-.1.1-1.66.93-.1.1-1.66,1.04.93,1.45-3.32,2.28-1.55-1.45-2.9,1.66-.1.1-8.39,4.87-.73.41-.31.1-.41-.1-.21-.21-3.42,2.38.41.52-.83.52-.1-.1-.62.52-.31-.52-2.69,1.86-1.45.83-1.97.93-1.66.83-5.9,2.8-2.28,1.24.1.21.1.31-.1.1-.31.1-.21.1-.31.21h-.31l-.31-.1-.1-.21-2.07.93-.52.21-4.04,2.07-2.69,1.24.21.52-.83.31-.21-.52-2.18,1.04-.1.1-.52.1h-.52l-.31-.1-.1-.31-1.14-1.97-1.97-3.73v-.1l-1.14-2.18-1.24-2.38-2.38-4.14-1.55-2.59-.93-1.35-1.24-1.76-1.97-2.69-.52-.62-.73-1.24-1.86-2.38-1.24-1.55-1.24-1.66-.31-.41-2.8-3.52-.52-.62-3.11-3.63-2.38-3.11-1.45-1.97-4.04-5.39-.31-.41,6.53-4.97.31-.1.41-.31,5.7-4.25,1.24-1.24.52-.52.52-.41,1.45-.83.73-1.14,1.14-1.76-.52-.62-1.76-2.18-.1-1.14,1.55-1.76,1.04-1.24,1.24-1.35,1.55-1.76,1.35-1.24,1.45-.93,1.76-.62,3.32-1.04,1.24-.73,3-2.59.52-.52.21-.1,2.69-2.9,2.07-2.28,1.35-1.66.1-.1.62-.62.52-.52.31-.41.52-.62,2.69-3.83,1.04-1.24,2.38-3.21.41-.52,2.8-3.42.21-.21,2.49-3.11.62-.93,1.04-1.76.52-.62.73-1.45.31-.52,1.97-3.52.31-.31,1.97-4.14.62-1.45.52-.83,1.45-1.97.31-.41,2.38-3.32.83-1.04,5.18-7.15.62-1.04,4.14-6.32v-.93Z"/>
      <path class="cls-9" d="M429.89,426.05l-2.18-4.25-.52-1.14-.52-1.04-.83-1.76-2.18-4.87.1-.1-.21-.41-.1-.31-1.04-2.49-1.24-3.42-.1-.31-.62-2.69-.83-4.04-.41-1.97-.1-.31-.52-2.18h.1l-.1-.62-.21-1.55-.1-.93-.31-2.69.41-.1-.62-4.45-.31-2.18-1.14-7.25v-.21l-.1-.62v-.1l-.41-2.9,3.32-1.04,3.52-1.24.52-.52.31-.31,2.59-1.66,3.73-2.59,3.83,4.97.41.52.31.52,1.04,1.45.83,1.04,2.69,3.63,1.66,2.28,4.04,4.56,1.55,1.86-.21.21.31.31,2.9,4.25-.1.1.73,1.04,1.24,1.66,4.04,6.32.52.73,1.97,3.52,1.24,2.18,3.21,5.9,1.04,1.86-.83.31.1.41-1.35.62-.41.21-2.8,1.14-.52.21-1.35.52-.41.31-1.66.62h-.52l-4.87,2.38-.1-.41-.83.31.21.41-6.73,3.11-.62-.1h-.62l-.52-.1-1.04-.1-3.32,1.14-1.04.31-3.94,2.07Z"/>
      <path class="cls-9" d="M418.49,368.14l-3.21-4.45-.62-.83-1.45-2.07-3.32-4.87-3.32-4.56-.62-1.04-1.55-2.18,4.56-5.9-.52-.41,2.49-3.52.73-1.04,4.04-5.49.52-.62.31-.62.83-1.66.41-.83.52-.83,1.45-2.69.21-.41.52-.93.31-.31,2.38-3.32,2.9-4.25.41-.62,1.97-3,3-4.35.21-.31,1.35-2.49,2.69-4.56.52-.73,1.86-2.8,2.69-5.28.31-.52.73-1.66.62-1.35.31.21.52-.83-.41-.21.31-.52.31-.73.21-.41-.1-.1.31-.52.31.1.31-.52-.31-.1,1.04-1.76.62-1.14.83-1.55.31-.62,2.69-5.28-.1-.1,2.07-3.32,2.38-3.73.31-.62,2.07-3.42.31-.41.1-.31.52-.73,4.87-6.73,2.8-3.94.83-1.24,1.86-2.69,3.83,2.9,3,2.18,6.53,4.87.83.52-.1.21,5.39,4.04.21.21,2.8,2.18.31-.31,3.32,2.28-.31.41,3.94,3,.21.21,3.11,2.38,1.45,1.04-.62,1.14-2.38,3.52-.62,1.04-1.24,2.07-.52.73-.83,1.14-1.76,2.69-.73,1.45-.31.41-2.07,3.94-.31.52-1.04,1.97-1.04,1.97-.93,1.76-.83,1.76-.31.41-.52.62-.21.31.31.31-.41.62-.73,1.14-.31-.21-3.52,4.45-.31.31-2.9,3.42-2.9,3.73-1.97,2.8-1.45,1.97-1.04,1.55-.1.1-.52.52-.52.62-.1.1-.1.1-1.45,1.86-3.21,3.11-1.66,1.66-.21.1-3.21,2.9-3,1.35-.83.41-.52.31-2.18,1.04-.62.41-1.24,1.35-2.18,2.49-.73.83-2.38,2.69-1.45,1.86.73,1.66.62,1.24-.31.31.31.31-.83,1.04-1.45,1.45-.52.52-.62.62-1.04.62-3.52,1.76-2.28,1.97-.31.31-3.52,3,.31.31-.62.52-.31-.31-1.35,1.14-.1.1-.62.62-.83.83-.31.21-4.45,3.52-1.45.83-1.04.62-2.49,1.04Z"/>
      <path class="cls-9" d="M105.95,507.17l3.52-2.8,8.49-6.63-.1-.1.52-.62.52-.52.52-.73.21.21.31-.31,1.97-2.9,1.76-2.49,1.97-2.59.31-.52,4.97-6.73.62-.83,4.87-6.84.41-.52-.21-.1.21-.52.1-.21-3.73-1.66-2.38.31-.73,1.66,1.04,1.97-2.18,4.66-1.35,2.9-.1.1-.21-.1-.83,1.45-2.69,3.73-.31-.1-.62,1.35-2.59.93-.73-1.97-2.18-5.59-.41-1.35-.31-1.14-.52-1.55-.83-2.8-.62-2.07-2.18-8.6-.31.1-.31-1.35.31-.1-1.76-6.94-.83-3.32-.62-2.59-.21-1.04-.52-1.24.83-.21.41-.1.31-.1.41-.1,2.59.21,1.66.83,5.59,2.59,4.25,1.97,3.73,2.18,1.66.93,4.87,5.18,3.94,4.25,4.66,2.18,2.28.83,1.66.41,5.7,1.14,29.11,5.8,1.14.31,2.38.52,4.97.41,4.45.41-.1,1.97-.31,8.81h.1l-.1.83h-.1l-.1,1.45-.1,1.04-.41,3.32h.1l-.1.83-.1-.1-1.24,10.88-.31.93-1.04,4.04-2.59,4.97-.83-.31-.1-.1-1.55,3.11.62.83-1.76,3.32-8.6,6.53-6.22,3.94-13.57,6.94.1.21-1.04.52-.1-.21-1.66.83-1.76.83-3.11,1.45v.1l-4.66,2.28-6.32,3.11-2.18.83-1.24-1.35-.62-.62-5.8-7.77-.83-1.14-8.49-11.5-.31-.31-.1.1-.62-1.04h.1l-9.53-12.74-2.28-2.9-1.04-1.45.1-.1.93-1.86Z"/>
      <path class="cls-9" d="M-369.23,552.85l-5.49,9.74-15.85-8.81-1.66-8.81,9.12-15.75,10.05,5.08,12.22-22.38-.1-.1v-.41l.1-.1.1-.1.1-.1v-.21l.1-.1h.31l12.85-23.52-.1-.1-.1-.1v-.31l.1-.1.21-.21.1-.1h.31l8.39-15.44-.1-.1-.1-.41.21-.21v-.1l.1-.1h.21v-.1h.31l8.39-15.44-.1-.1-.1-.1-.1-.1v-.21l.1-.1.1-.1v-.1l.1-.1.1-.1.1-.1h.21l.1.1,1.76-3.11,6.73-12.33-.1-.1-.1-.21v-.31l.1-.1.1-.1.21-.1.1-.1h.1l.1.1,8.39-15.33-.1-.1-.1-.21v-.21l.1-.21.1-.1.1-.1.31-.1h.21l6.42-11.71,10.98-20.1-.1-.1-.1-.1-.1-.1v-.1l-.1-.1.1-.1.1-.21.1-.1.1-.1.21-.1h.41l3.94-7.15-.1-.1-.1-.41v-.1l.1-.1v-.1l.21-.21.1-.1h.41l15.54-28.18,11.08-20.3,26.52-48.48,1.97-3.73,8.6-15.44,16.58-2.49.62-.1,1.66-.31.62-.1,2.8-.52,1.24-.21,3.52-.52,1.35-.21,3.32-.52,1.35-.21,3.32-.52,1.35-.31,3.52-.52,1.35-.21,3.32-.52,1.24-.21,1.97-.31.62-.1,1.66-.31.62-.1,1.66-.31.62-.1,1.55-.31.52-.1,23.31-3.73,5.18-.83,49.41-7.67,6.11-.52,18.85-25.07.52-.73.31-.31,1.04-.52.73-.1,8.18-.73.62-.1,8.08,3.32,1.45.41.52,1.45,4.04-1.24.73.52.21-.1,1.86.93-.31.41.1.1-.1.1.41.31.1-.1.83.41,1.45.73.21.1.31.21.1.1,1.97,1.24.31.1.21.1.31.1.62.31.1,1.04.41.1,1.35.21h1.86l1.66.1,2.59,1.55,1.04.83.31.21,1.04.83,1.55,1.24,1.97,1.04,3.11,2.18.93.41,3.21,2.18.41.41.41.62.31.52.21.52.31.62.31.62.52.31.73,1.35.41.83.31.73.1.52.1.62.52.73,3.52,2.9-1.24,1.45,1.14.93-.93,1.14,5.8,6.63,4.77,5.8,3.21-.62.52-.1.83,1.24.52.52,1.24,1.76.31.41,1.35,1.76.21.31,1.24,1.76.21.21-.52.21-1.55,2.38,3,4.35,2.07-1.24,3.83,5.59-2.07,1.45,1.66,2.38-2.9,2.9-5.59,4.14.41.52-17.71,10.88-6.11,4.14-4.87,3.63.73.73-4.25,4.45-2.49-2.49-1.66,1.66-.73-.52-1.66,1.97.31.31.21-.21,3.32,2.8-2.59,3.11-.93-.83-2.69-2.28-1.55,1.76.1.31-.52.52.62.52-10.15,17.51-1.24,1.76-4.56,2.59-2.69-1.97-.83,1.14,2.18,1.66-1.45.73-1.45,2.18.21.1-10.98,14.81-.31-.1-1.24,3.83-.1,2.38-.1.1-2.38,3.42-1.24,1.55-1.97,2.8-1.97,2.9-2.8-2.07-29.52,53.45-.31.52-80.7,147.21-.1.21-31.39,57.29-.41-.1-.73,1.24.41.21-1.76,3.32-.41.1-9.95-5.28-7.46-3.94-17.2-9.12,22.17-40.3-.1-.52.31-.62h.52l8.39-15.44-.1-.41.31-.62.41-.1,8.6-15.75-.1-.31.41-.83.31.1,8.6-15.54-.1-.31.31-.73h.31l8.81-15.85-.21-.31.31-.62h.41l8.49-15.54-.1-.31.41-.73h.31l8.6-15.54-.21-.31.52-.73h.31l8.6-15.54-.21-.31.41-.62h.31l4.04-7.36-.31-.31.41-.73h.41l3.94-7.15-.21-.41.41-.73h.52l8.6-15.64-.1-.31.41-.73.31.1,9.95-18.23-6.94-3.83,20.2-36.88-23-12.33-.1.31-.31-.1.1-.1-.73-.31v-.21l.1-.21-25.79-13.78-30.15,55.42-.21,1.04h-.83l-13.36,24.55.21.41-.41.62-.41-.1-87.02,160.47-37.71-20.72-29.42-15.54Z"/>
      <path class="cls-9" d="M-18.26,660.8l-1.04-11.08h-.41l-1.24-12.64.31-.1-.1-1.45,2.38-.31-.1-1.04,2.8-1.66,3.52-3.11,4.97-3,1.04-.52,4.14-2.69,3.21-2.18-.1-.21.93-.62.1.21,7.04-4.87h-.1l3.42-2.38.1.1,1.35-.93,2.69-1.24.31-.1,10.26-.52.1-.1-.31-3.32.1-.1.62-.1-.1-.21,1.35-.1,7.25-.52h6.73l7.46-.62,11.4-1.76,4.56-1.66-.1-.31,1.76-.62,5.28-1.97-.1-.21,1.86-.73,4.25-1.97,2.59-1.24,1.76-1.35,8.18-5.9,2.38,3.42,1.24,1.97,2.38,2.69,1.45,1.66,1.35,1.24,3.73,4.35v.1l.31.41h-.1l1.04,1.45,1.66,2.18.41.52.31.52,2.07,2.9,3.42,5.08.1-.1,3.83,5.9.83,1.35,1.45,1.66.73,2.28,2.18,6.73v.1l.62,11.91v5.49l.1.73v1.24l-.1.31-.21,5.08-.83,10.88-.1.52-.62,2.07-.52,1.45-2.9,9.32-.1.21-.1.1h-.31l-9.53-2.9-.31.31-.83-.21-.1-.41-14.5-4.45-.31.21-.73-.21-.1-.31-6.73-2.07-.21.21-.83-.31-.1-.31-6.73-2.18-.31.31-.83-.21-.1-.41-7.04-2.28-7.77-2.38-1.76,5.8-.52,1.66-11.4-1.97.1-7.77-10.46-.41-.31.31-.73-.1-.21-.31-9.43-.31-.21.31-.83-.1-.31-.31-6.42-.31v.31l-1.14-.1-.1-.31-8.18-.31v.31l-1.14-.1v-.31l-10.15-.52-7.87-.31-5.08-.21v.1l-.1.1-.1.1-.83-.1-.1-.1v-.21l-1.55-.1v.1l-.52.1v-.31l.62.41Z"/>
    </g>
  </g>
  <text class="cls-6" transform="translate(111.15 279.66)"><tspan x="0" y="0">D</tspan></text>
  <text class="cls-7" transform="translate(402.02 279.66)"><tspan x="0" y="0">O</tspan></text>
  <text class="cls-8" transform="translate(115.19 579.66)"><tspan x="0" y="0">V</tspan></text>
  <text class="cls-5" transform="translate(426.74 579.66)"><tspan x="0" y="0">E</tspan></text>
</svg>