<svg id="Livello_1" data-name="Livello 1" xmlns="http://www.w3.org/2000/svg" viewBox="0 0 540 540"><defs><style>.cls-1{fill:#b500b5;}</style></defs><title>icone sestieri3</title><g id="isole"><g id="isole_2" data-name="isole 2"><path class="cls-1" d="M209.08,189.06l1.38-3.85L224.1,178l4.41-2.38.79-.56.83-.71.91-.88.76-.94L232,172l.2-.59,5.12,1.44.09-.2.26-.27.26-.26.27-.21.32-.14.44-.09h.47l.27.06.32.09.74.29.35.12.26.17.36.3.29.38.24.26.41.3.35.32.23.24.24.2.21.15.2.21.85.23v.06l2.86.76,1.64.47,1.5.53.74.24,0-.06,2.94.94,2,.65.38.14,2.06.65,3.35,1-.14.41,5.55,1.94.21-.5.53.21,2,.67.15.09,2.74,1,.14.06.21.09.41.14,2.62.95,15,6.79-4.53,10.87-5.06,12.14-4.05-1.5-3.88-1.41-3.12-1.12-.76-.26-2.15-.71-.73-.23-.53-.15-3.44-1.09-.53-.17-2.82-1-1.24-.38L255,206l-.58-.2-2.36-.8-.91-.32-3.88-1.26-.41-.15-3.41-1.18-.67-.23-1.09-.44-.74-.33-.26-.08-2.53-.86-.85-.29-2.27-.79-1.67-.59L232,198l0-.06-1-.41-.41-.15-.09.18-.79-.3.05-.17-.23-.09-3.18-1.12,0-.23-.73-.27-.56-.2-.35-.18-3-1.15-3.88-1.5-4-1.5-4.79-1.82"/></g><g id="isole_3" data-name="isole 3"><path class="cls-1" d="M294.06,192.27l5.73,2.52.77.09,4.32,1.44.44.18.64.23,3.27,1.3,3.64,1.5,5.56,2.32.5.2,4.38,2.18.32.15,2.91,1.44,2.35,1.14.83.41.32.18.73.38,2.77,1.3.14.06,1.44.7,1.8.82,1.61.83.62.29.65.29,3.26,1.56,1.59.77.53.26.44.12,1.7.91,2.59,1.82,2.56,1.83,1.17.91.06-.06,1.79,1.2-1.08,1.71-.59.88L350.7,229l-.47.73-4.05,6.12-2.94,4.67-1.77,2.79-.41.86-.06,0-.53-.36-.23-.17-1.71-1.3-1.08-.82-.83-.59-.35-.29L334,239l-1-.76-.42-.26-.44-.33-.26-.17-.35-.24-1.12-.76-.18-.15-.14-.09-.12-.09,0,0-.12-.06-.12-.08-1.2-.74.09-.12-.24-.14-.09.11-.08,0-1.39-.79-1.47-.85-.11-.06.06-.09-.18-.12,0,.09-.12-.06h0l-1-.61-.14-.09-.18-.06-.5-.24-.82-.38-2.41-1.06-.65-.29-2-.91-.17-.09-.59-.29-.18-.06-.85-.3-1.35-.5-.12,0-.5-.14-.09,0-1.06-.35-1.17-.39-2.15-.67-2-.68-4-1.35-.73-.24v0l-3.06-1.15-1.82-.68-2-.79-3.11-1.24-.39-.14-3.49-1.41L283.71,217l.3-.74.11-.29,2.47-6,5.68-13.55,1.44-3.41.35-.79"/></g><g id="isole_4" data-name="isole 4"><path class="cls-1" d="M206.4,192.24l1.62.29,2.06.35,2.44.83.12-.3.29.09,3.94,1.35,4.06,1.41,1.55.53,2.41.83.09,0,1.18.42,2.67.91,2.8,1,1.14.38,1.62.59,2.2.79,3.59,1.27.59.23.76.35,1.35.5,3.77,1.38.41.15,1.94.68,1.56.5.79.29,1,.32.38.21,1.68.62.56.2,2.52,1,.74.27,1.06.41,1.88.59,1.14.35.71.23,1.18.44.49.24,1.47.56.47.23.09.06.88.3,1.24.58.62.27.76.32,3,1.15.73.29,2.36,1,.26.15.41.12,2.18.67,1.82.53-1.71,4.94L277.16,229l-.09.18,0,.11-.06.15-.15.41-.58-.17-1.21-.5-.26-.12-.06.09-.15,0V229l-1.62-.56-3.88-1.35-1.5-.56v-.09l-.32-.09-.06.15-.14,0,0-.12L263,225l-.59-.26-3.09-1.18-1.08-.44-.59-.26-2.91-1.15L252,220.63l0,.09-.47-.18,0-.08-.23-.09-.41-.18-2.85-1.09-2.35-1-.86-.26,0,.09-.11,0,0-.15-.2-.09-.06.12-.15-.06,0-.06-1.35-.44-.15-.06-.35-.09-.18,0-1.67-.55-.74-.27-.2-.06-2.5-.82-1.26-.62L232.21,213l-.88-.41-1.67-.88-1.21-.56-1.67-.83-3.3-1.61L220,207l-.67-.32-.38-.24-.53-.26-.06.06-1.24-.59-1.58-.76-1.62-.8-1.62-.61-.2-.09-.41-.18-.94-.35-2.86-1.15-3.41-1.35-.79-.32,1-2.77.24-.53h0l1.55-4.46"/></g><g id="isole_5" data-name="isole 5"><path class="cls-1" d="M282.1,218.31l1,.35.35.15,2,.76,1.41.56,1,.38.5.21,1.47.56,1.14.44,0,0,.27.06.12,0,.44.17,3.05,1.06.21.09,1.53.56.35.14,1,.42.79.35.5.21,3.27,1.35,1.44.59,1.53.64.47.18.32.15.53.2.06-.06.23.12,2.91,1.12-1.61,2.32-.62.73.2.18-1.11,1.5-1.71,2.32-1.61,1.88-.5.56-.15-.06-1.94-.56-.65-.23-1.38-.5L295,236l-.29-.12-.68-.21-2.82-1-.15,0-.23-.08-.92-.3-.23-.09-1-.32-3.53-1.18-.5-.17-2-.71-.53-.29-.08,0-1.56-.47-.32-.09-1.8-.53-.47-.18.18-.49v0l.26-.74.62-2,2.41-6.55.71-2.09"/></g><g id="isole_6" data-name="isole 6"><path class="cls-1" d="M311.61,229.16l1.06.41,1.73.79.29.15.95.44.52.29,2.09,1.12.77.38.73.38.06-.08,1.7.82.56.26.3.15.23.15,1,.61.88.5.65.36.44.26.88.5,1.27.71.14.11,1.36.83.35.2.79.44,0,0,2.06,1.49.29.24.47.35.38.33,2.44,1.85-2.26,2.58-.18.21-.29.35-.5.65-.29.29L331,249.09l-1.44,1.73-.32.38-.24.38-.91,1.21-.21.26-1.32-1.11L325,250.61l-.59-.47-1-.82-.76-.62-.38-.29.2-.26-1.49-1-.83-.5-.29-.15-1.44-.74-2.09-1.08-2.47-1.27-1.2-.61-.91-.5-.59-.27-.24-.09-.09-.06-.35-.14L308,240.59l-1-.44-.26-.12-1.74-.73-.7-.24.47-.56.17-.2,1.47-1.88,2.18-2.8.94-1.23-.09,0,.56-.85.5-.8,1.06-1.55"/></g><g id="isole_7" data-name="isole 7"><path class="cls-1" d="M337.24,244l1,.56,1.47.88.09.06.09.06.41.2.47.24,0,0v0l.2.09v0l.06,0,1.27.76.55.29,1.86,1.09,0,0,3.17,1.85.35.3,2.56,1.44.06-.06,4.26,2.41,1.79,1.56.3.17.29.21.59.38.06,0,.06-.06,3.88,2.77.35.26-.38.41-.5.59-.79.94-.09.09-.56.67-.09.09-.59.74-.09.09-.38.5-.32.35-.12.17,0,.06-1.47,1.68L357,266l-1.79,2v.26l0,.09,0,.21-1.5,1.82-.29-.27L352,271.6l-.09,0-.09,0-.47-.29-2.18-1.38-.55-.42L345.29,267l-2.08-1.56-1.21-.91-.38-.3-1.38-1.41-.15.09-.44-.44,0-.06.06-.06-.73-.64L335.8,259l-1.7-1.5-.33-.23-.53-.35-.47-.33-.7-.53-.62-.73-1.38-1.06-.85-.68.23-.29.18-.26.06-.06.26-.36.5-.61.56-.74.73-.88.36-.44.82-1,.85-1,.74-.73,1.55-1.8,1.18-1.38"/></g><g id="isole_8" data-name="isole 8"><path class="cls-1" d="M239.06,236.65l1.41.44.62.18,4.53,1.41,2.64.73-.06.09,1.39.39.11.05.44.15.33.12,2.2.7-.59,1.71-.23.47-.62,1.38-.62,1.38-.44,1.21-.41,1.17-.15.36-.08.23-1.18,1.24-.06-.06-.82,1.06-.27.08-2.29,1.12-1.2.68-2.27,1.2-1-2.2-.32-.71-.65-1.38-.67-1.53-.65-.91-1.12-1.53-.06.06-.14-.15-.24-.29-.23-.27,0,0-1.65-1.71.59-.73,1.5-2.5.11.06.21-.39.59-1.08-.12-.09.15-.27.09.06.55-1,.06.06.56-1"/></g><g id="isole_9" data-name="isole 9"><path class="cls-1" d="M179.74,197.09l.89,0,.17,0,.38,0,1.33-.23.29-.09,1.56-.41v-.06l.26-.09.44-.23.18-.09.26-.35.18-.15.21-.12.23,0,.3.12.29,0,.41-.06.59,0,.59-.15.41-.11.32-.12.18-.09.17-.12.42-.26-.09-.71-.09-.23-.12-.5.65-.12h.18l-.21-.44.44-.15.18.44.53-.14-.18-.68,5.47-1.18,4.11-1,1.47.3.56.64,0,.42-.06.23-.15.77-.14.61-.24,1-.5,1.94-.44,1.65-.15.59-.44,1.61L200,202l2.38.82-.21,1.06,3.18,1.05.47-1,1.2.41,3.85,1.26.94.29,2.85,1,3.47,1.15.39.21,4.26,2,2.61,1.23.12,1,1.5.82.35.27.15.09,1.26.58.27.12,0-.09,2.2.86,2.74,1,.55.15.24.12.41.18,1.12.52.41.21,1.06.32,1.5.47-.12.83-.29,1.91-.8,5.52-.12.77-.17,1.26-.21,1.32-.23,1-.24.91-.17.86-1-.41-2-.74-1.09-.29-2.56-.74,0,0-.47-.18v0l-6.32-1.92v0l-.5-.14v-.06l-5.32-1.62v.06l-.5-.15v-.06l-6-1.85,0,0-.5-.14,0,0-.68-.21-.41-.15-1.88-.56v0l-.77-.23v0l-4.26-1.29-7.14-2.21-9.38-2.61-11.23-3-.17-.09-.15-.12-.15-.15,0-.11,0-.15,0-.15,0-.11.06-.24.12-.53.06-.23.06-.24,3-10.7.44-1.53.23-.61.36-.42.32-.08.73-1.5"/></g><g id="isole_10" data-name="isole 10"><path class="cls-1" d="M240.18,218.49l1.94.41h.09l.38.09h.09l2.17.47,3,1.79,1.76,1,.18.09.35.26.62.41,1.65.5,1.2.35.35.12,1.39.41,1.29.5,1.94.77,1.32.5,2.12.79h0l.44.24.09.06,1.94.64.61.24,1.27.47.82.32,1.12.41.76.3,1.44.55.77.24,1,.29.26.06,1.94.62.77.21.88.26.79.24.3.08.11,0,4.06,1.36.12,0,.35,0,.12,0,2.11.62.36.09,3.49,1.09-.7,2.17L286,241.3l-.76,2.11-1.26,3.5-.21.62-1-.38-.62-.18-.91-.35-3.79-1.18-.44-.12-2.56-.82-1.61-.5,0,.06-.41-.15v0l-.42-.11-.5-.18-.08,0-2.94-1,0,.06-.44-.12v-.06l-7-2.26-.76-.27-.36-.08,0,0-6.55-2.18-1.5-.5-.65-.21-.06,0-.41-.15-.09,0-.58-.24-10.76-3.23-.94-.29-.47-.21L238,232l1-5.67.08-.5.53-3.3.65-4"/></g><g id="isole_11" data-name="isole 11"><path class="cls-1" d="M174.31,215.52l23.75,7,5,1.53,5.76,1.79.47.18,7.12,2.2,3.44,1.09,12.2,4,.82.24,1.88.55,1.32.62-2.23,5.32-2.29,1.21-3.53.85-3.15.76L220,244.32l-2.38-.5-.53-.14-.29-.06-1.35-.35L212.31,242l-2.38-.94-3-1.2-1.67-.68-.79-.35-.45-.15-2.67-.82-2.18-.65-.29-.09-2.82-.76-1.21-.33-2.32-.67-7.82-2.5,0,0-.23-.12-3.5-1.2-2.68-.89-1.91-.67-1.11-.44-.59-.18-1.09-.44-1.06-.47-.61-.26-.45-.21-1.26-1.85,1.65-4.32.14-.3,2.36-6"/></g><g id="isole_12" data-name="isole 12"><path class="cls-1" d="M138.53,205.7l1.74.79.53-1.11,3.79-.42,10.73-1.14,3.49-.35,3.86-.36v.18l.38,0,0-.24.26,0,1.33-.14v-.36l7.55-.82h.18l.17,0h0l.15,0,.2.12.21.15.15.17.11.24,0,.2v.44l-.26,1.21-.71,3.44-.88,4.11-.09.53-.5,2.41-.47,2.24-.85,4-.06.36L168.51,226l1.8,2.85.35.15,1.18.53,1.85,1,4.2,1.56.44.14,2.65.91,2,.62,1.05.47,1.89.56-.12.41,1,.09.06-.06.23,0,.5.15,1,.23.76.15.27,0,1.56.47.14,0,1.68.62,1.85.5v.05l3.18.89.2.05.35.06.21.09,1.15.27,1.17.32,2.44.73,1.41.59.27.12h.06l.41.18,2.85,1.26.06-.12,2.11.83,1.47.61,2.5,1,1.85.77.33.35,5.91-.3,2.49-.67,3.62-1,.47-.15,2.29.21.12-.18,1.91.77,2,2.29.29.23,2,2.47.27.77.53,1,.41.73.82,2.15.74,1.38,1.35-.12,1.73-.32,3.38-1.74,2.12-1.29.44-.56.53-1,.41-.76.18-.33.5-1.14.09-.18-.09-.06.17-.32,1.39-3.26,1.32-3,4.94,1.29.73.21,5.26,1.35,0,0,1.21.23.44.09.62.18,1.08.38,2.24.79.26.12.53.12.85.18,0,.14,1.94.21,1.55.23,1,.21,2.62.76.32.12,1.8.65.55.32,1.89.74.23.08,1.06.42,2.32.91-.68,2.41.24.06-.18,1.17-.26-.09-.24,1.36.56,0,0,.14,0,.38.12,0-.06.39-.17.61-.24,1.5-.56,2.3-.23.61-.83,2.44.36.12-.71,2h-.06l-1.38,3.67,0,0-.68,1.62,0,.5-.12.56v0l-.12.73-1.09,1.74-1.5,2.46-.17.27-.39.7-.11,0-.27.47-.41.94-.18.47-.41,1.08-.41-.14-.2.5-.39,2.32-.82,2.85-.21.68-.11.41-.09.82-.35,1.65-.5,2.53-.36,1.76-1.58.06-1.62,0-.53-.18-1.76-.53-1.27-.12-.2,0-.44,0-.21.17-.68.41-.26,0-.38,0-2.79,0h-.33l-.76,0-1.38,0-1.06-.08-2.41-.18-2.15,0v.15h-.47l0-.15h-2.2l0,.32-3.82-.12-.36,0h-.85l0,.18-1.85.09-.06.2-5.47-.32-1.55-.53-.5-.38L235.86,292l-.21-.44-1.44-2.12-2.82-6.23-.59-2.85-.64-2.44-.09,0-.06-.18-.27-.88-.2-.47-1.3-1-.82-.82-.91-.65-3.85-2.52-.41-.3-4.53-3-2.44-1.55-.32-.24-4-2.47L205,260.08l-5.17-2.65-4.06-2-5.67-2-6.58-2.23-3.94-1.38-4.79-1.65L167,244.5,165.13,243l-.17-.18-.85-.88-.18-.2-4.09-4L153.17,232l-3.59-2.24-.47-.32-3.52-2.15-13.05-7.55-.09-.65,2.35-5.2.38-.82,3.35-7.41"/></g><g id="isole_13" data-name="isole 13"><path class="cls-1" d="M131.33,224.13l10.7,5.26,7.44,4.94,2.35,2,2.29,1.94,4.67,4.06.33.44-.62.76-1.94,2.06-2.09,2.09-2.82,2.67-.53,1,.21.15-1.27,1.73-.23.32-3.44,4.53-3.44,4.53-.2.41L140,266.43l-.12.23-1.26,1.62-2.29,2.82-3,3.35-.27.3L131.12,277l-.14-.12-1,1.21,0,0-1.68-1.56-1.35-1.76-.91-1.09-.35.38-.56-.47-.12.12-.2-.15.11-.17-.08-.18-.77-.65L122.22,271l-1.35-1.68-2.06-2.53-2.09-2.53-.91-.38-.65-.59-.35-.32-.5-.47-.29-.29-1.65-1.59-.59-.62-.38.35-.09-.11-.94-1.09-.35.29-.18-.17-.11-.27-.45-.88-.14-.21-.15-.32-.06-.23-.09-.36,0-.26,0-.21-.06-.32-.14-.32-.18-.44-.06-.21,0-.15,0-.23.3-.85,0-.21,0-.18.06-.29,0-.59.12-.53.15-.47.2-.35.18-.27v-.26l-.06-.35-.06-.36-.06-.29.06-.12.12-.26.09-.12.23-.15.41-.2.3-.21.32-.23.21-.21,0-.15.09-.08.18-.18h0l3.94-6.85.5-.85.06-.12.91-.56.29-.12.09-.11.5-.71.09-.09,3.67-1.11.09-.06.06-.06.91-1.24.29-.41,1.27-1.7.29-.41.09-.12,0-.06v-.09l.65-.85.44-.59.12-.17.29-.39,1.18-1.61,0-.06,0,0,.06,0,.12-.12.29-.44,2.86-3.85.76-1"/></g><g id="isole_14" data-name="isole 14"><path class="cls-1" d="M160.17,243.85l.53.39.41.58.2.21.86.88.23.21,2.68,2,1.61.79,6.7,3.38,1.06.29-.44.86-4.58,8.76-.12.2-.06.12-.06,0L167.87,265l-1.44,3.2-.38.83-1,2.14-.61,1.32.14,0,.21,2.65,0,.44-.09.88-.15.5-1.23,2.18-1.65,2.79-1.67,2.88-3.94,6.53-.24.26-.29.53,0,0v0l-.38.62-.44.67-1.56,2.5-.12.12-.17.06-.24.06-.2,0-4.24-2.65-.94-.47-.29-.2-.09-.24,0-.21-1.76-1.52L144,290l-.35-.2-2.35-1.65-1.8-1.41-1.79-1.41L134,282.24l-3.21-2.79-.2-.09.05-.09v-.7l2.86-3.41.26-.3,6.7-7.67.18-.2,4.2-5.26,4.12-5.06,1.41-1.85.38-.56.24-.32,2-2.5,2.12-2.53,1.47-2,2.56-2.32.35-.24.68-.53"/></g><g id="isole_15" data-name="isole 15"><path class="cls-1" d="M175.33,252.85l7.38,2,.5.14,2.88,1.06,4.94,1.74,2.68,1,.38.14.64.27,2.53,1,3.59,1.47,1.91.76.82.38.91.56,4.15,2.5,2.61,1.56,4.41,2.64,1.59.94.24.18,1.73,1.26,1,.74,2.59,1.88,1.47,1.15.88.64.88,1.21.26.41.18.35.06.24.68,2.23.14.3.88,2.08.21-.06.29.65-.17.06.35.85.15-.09.23.5-.14.06.14.44.12,0,.15.06.12.09.32.71,0,.2,0,.18-.09.12,1.5,3.58-.21.09.24.53.2-.12,1.18,2.26-.18.09.3.56.2-.15,1.68,3.21-1,.5-7.91,3.58-1.56.74-.29.18L222,303.82l-1.38.91,0,0-1.88.91-2,1-1,.47,0,.09-1.73.82-.44.24-1.74.88.21.35-1.5.74-.06-.09-.23.15-.24-.39-.38.24-.76.35-1.47,1-1.27.91.09.18-.91.65-.15-.18-3.94,2.62-6.11,3.2-1.38.7-1.36.8-.2.12-.12.08-.2.12-.36.24-2,1.35-.47.32-.26.18-.91.65-.33.2-.55.38-.36.21-1.14.73.7,1-.2.15-1,.74-.18.11-.64.44,0,.06-.32.27-.15.14-.26.21-.18.15-.38.32-.44.24,0-.09-6.7,9.2-.24-.15-.26.41.41.33-.88,1.29-1,1.47-.35.53-.8,1.14-.47-.29-.23.53-1,1.73-.15.21-.59,1-.2.29-2.3,3.44-.38,1.3-.41.53.15.08L164,355.73l-.15-.09-.41.59-.12-.12-.17.27.14.08-.88,1.27-2.47,3.38-.38-.29-.47.64-2.65,2.44-.47.32-.38.21-.38.15-.35.12-.33,0h-.44l-.67-.08-.53-.15-.41-.18-.12-.09-.59-.41-.18-.17-.2-.15-.15-.18-.15-.23-.14-.21-.06-.11-.09-.24-.15-.32-.11-.39,0-.5v-.7l.08-.32.15-.36.09-.23.2-.38.27-.36-2.59-4.2.12-.06,0,.06.26-.15-.29-.47-.35.21-1.88-3.18-4.3-7.08L140,340.24l-2.17-3.56-.12.06-1.21-2-.05-.09-.62-1,0,0-.38-.65-.06-.06-.24-.47,0-.06-.5-.76,0-.06-.17-.33.09,0-.33-.48.06-.11-1.06-1.74-.08-.14-1-1.59-.36-.59-.7-1.12,0-.06-.85-1.46-.06-.09-.12-.18,0-.06-.18-.26-.23-.33-.33-.23-.14-.41-.27-.3-.26-.32-.33-.29-1.88,2.67L117,317.34l-.38-.5.3-.15.32.47,8.7,6.21,1.82-2.56-.56-.53-.41-.38-4.73-3.53-.56.35-2.79-2-.56.95-.26-.24.47-.79.08-.42-2.23-.44-.2.44,0,.09-.26.56.06.38.23.44-.14.06-.44-.82.11-.26-.09-.06-1.17-1.3-.74-.64-1.17-.91-1.24-1-1.11-.77-.77-.73-.82-.62-1-.62-.88-.56-1.91-1.08-.24-.12-1.82-1.09-4.79-1.44-1.21.18-.85.23-.23,0L92,302.41l-.29,0v-.27l-.21-.11-.29-.15-.27-.56-.23-.41-.33-.5-.14-.44-.15-.27.29-.2.18-.3.06-.5-.18-.26-.32-.15-.24-.26,0-.41.06-.59.12-.35.27-.06.41.06.47-.06h3.67l1.62-.83,2.79-4,2.41-3.44,10.94-15.7.35-.47.79-1.12.86-1,.41-.35.38-.2.32-.12.3-.09.73-.24.06,0h.06l.12,0,.2-.05.21,0,.14.05.15,0v.15l.18.15.09,0,.06.11-.09.09.67.56.47.35,1.33,1.24,4.49,4,3.91,3.55,6.88,6.15,2.35,2.11,3.21,2.85,5.29,3.94.82.5,5.32,3.91.24-.29,1.85-2.74,1.17-1.91.27-.32.2-.24.59-1.14.09-.33,1-1.76,3-5.23,1.91-3.29.73-1.38,1.86-2.8.14-1.85-.23-3.06,2.58-5.11,1.71-3.56-.18-.09.38-.82,0-.09.12-.23.56-1.21,4.14-7.58.5-.94"/></g><g id="isole_16" data-name="isole 16"><path class="cls-1" d="M289,236l.27,0h.09l1.11.38.12,0,.27.09,2.61.85.56.18.44.11,1,.33,1.06.38.76.23,1,.33,1.88.61,1,.3.86.23,1.41.39.47.14,1.79.8v0l1.59.8.2.12,0,0,.18.08,1.09.5,1.67.8.06,0,.47.47h0l.88.41.18.06,0,.06.23.11,0,0,1.94,1-.06.06.92.5,0-.06.2.12,1.71.74v-.06l1.38.56.56.41,1.14.82,1,.68,1.35.88.77.56.29.23.65.5.06-.06,1.26,1,.18.18,1.32,1.2-.06.09.18.15,0-.06.82.62-.18.29.18.18.06,0,.53.53.82.82.06,0,1.82,1.73,0,.06.38.42.12.05,1.77,1.42v0l.41.36.32.23.47.38v0l2,1.41.38.3.35.32,1,.82.36.33,1,.85.7.71,1.91,1.61,1.47,1.15.88.7,1.39.92,1.11.73,1.44.94,1.44,1,.44.27.3.26-.35.41.05.06-3.73,4.38-2.06,2.41-1.32,1.47-.65.68-.17.2-.71-.76.06-.09-.53-.53-.09-.15-1.2-1.26L335.89,276l-2.09-2.17-2.73-2.15-.38-.32-3.44-2.74.06,0-.3-.26-.06.06L323,265.25l-.23-.23-.68-.53-.15-.09-1.61-1.06-2.77-1.73-4.67-3.06-2.67-1.7-4.44-1.56-.47-.18-3.82-1.38-.36-.12-4.08-1.47-.53-.17-3.12-1.15-.12-.06-.73-.2-.15-.06-2.82-.91h0l-.47-.15v0l-3.73-1.32-.68-.24.21-.65,1.14-3.26-.05,0,.05-.2.09,0,1.65-4.8,1.2-3"/></g><g id="isole_17" data-name="isole 17"><path class="cls-1" d="M289.21,252l2.41.67.41.06.65.18,3.41.91,7.05,2.23.12-.47.76.21.15.09,3,.79,2,.85.5.21.29.17.88.53,1.41.86,1.45.94,1.55.88-.41.82-2.47,4.44L312,267l-.18.47-.11.14-3.41,6-.36.56-.38-.56-.29-.12-1.62-.85-1.76-.88-.74-.38-2.53-.94-.64-.24-3-1-2.29-.79-2.59-.83,0,.06-.65-.26-2.73-1-2.09-.77.44-1.88.44-1.23.74-5.06.29-2.94.65-2.49"/></g><g id="isole_18" data-name="isole 18"><path class="cls-1" d="M315.52,262.43l.85.5,2,1.21,1.79.94.74.44.35.23.47.83.15.11,3.73,2.5,2.29,1.56,3.65,2.85,1.64,1.12,2.86,3,1.5,1.8.14.26,2.5,3.15-.59.44-.56.5-2.2,1.88-.74-.59-.32-.29-.7-.56-1-.82-2-1.74-4.44-3.88-3.79-3.29-2-1-1.62-1.23-.12-.09-.55-.3-.21-.14-1-.62-2.41-1.38-2.85-1.65v0l-.09-.09-.21-.11.12-.56.12-.36.76-1.61.8-1.41,1-1.65"/></g><g id="isole_19" data-name="isole 19"><path class="cls-1" d="M312.46,268.93l1.56,1-.06,0,1.32.79,0-.06,0,.06,1.88,1.2.15.09,1.2,1,.12.06.44.38.77.39,1.88,1.35,4.23,3.08,1.77,1.36,1.29,1.11,1.73,1.47L333,284l.5.38,1.73,1.64-.64.71-3.33,3.65-.82.91-.32.35-6.44-5.38-2-1.65-.26-.26-1-.79-.86-.62-.29-.24L316.75,281l-.23-.21-1.21-.76-.23.35-.91-.65.29-.35-.27-.12-.7-.5-.21-.08-.23-.12-.32-.21-1.15-.82-.27-.09-1-.73-.85-.92-.44-.38-.53-.5.38-.5,2.77-4.17.79-1.35"/></g><g id="isole_20" data-name="isole 20"><path class="cls-1" d="M285.39,266.9l1.7.62.68.26.06-.09.2.09,0,0,.56.21,0-.06.24.06,0,.08.7.27,2.53,1,.3.17,1.94.89.17.06,4.26,1.14.24.06.2.06L302,273l2.7,1.3,1,.55,2.59,2-.65.86-1.32,1.7h0l-.5.59-.8.62h-.14l-1,.29-.91.35-1,.53-.18.18-.12.23,0,.21v.12l.06.29.38,1.12.21.62.59,1.73.2.65.36.44,1.32,1.32,1.26.94,1.47,1.15.21.17.32.24.18.12.09.11,1,1.3,1.61,2.55L312,297l0,.32-.15.24-.73.2-1.44.71-.21.12-.32.17-2.41,1.35-2.06,1.15-1.15.85-1,0-1.26.06-.56,0-.17,0-1.89-.38-1-1.27-2.52-.73,0-.06-1.06-.29-.5-.12-.21,0-.73-.18-3.29-.58-.33,0,0,.23-.23-.06,0-.23-.47-.12,0,.09-2.38-.56-.88-.24-.09.39-.21-.06-1-.24-.14,0-.62-.14-.09.11-.12.12-.09,0-.14.06h-.3l-.17,0-.21-.06-.21-.06-.2-.11-.12-.15-.06-.15v-.15l-.59-.11-.17-.06-.88-.18-.21-.06-1.09-.26.06-.41-1.2-.33-.06.27-.38-.12,0-.26-.24-.06-1-.33.62-3.47.85-3.7.09-.47,0-.2v-.3l.12-.32.67-2.12.35-1.59.27-.52.17-.5.21-.47.59-1.68.73-1.38,1.56-2.29,1.77-2.24-.06,0,0-.12-.06-.7.06,0,.06-.47-.09-.68.94-2.5,1-2.64"/></g><g id="isole_42" data-name="isole 42"><path class="cls-1" d="M309.64,278.6l.91.62,1.65,1.08.7.56,2.47,1.59,3.32,2.12,1.41,1.08.36.24.67.47,1.62,1.14,2.35,2.06.35.3,2.35,2.26-1.05,1.38.14.18,0,.12v.14l-.06.12-.32.44-.2.09-.12,0-.21-.09-.88,1.21-.15-.09-.14.23-1.5,2.83-.15.35.23.12-.58,1.17-.74,1.15-.2.35,0,0L321,303.5,320,304.94l-1.65,1.73-2,2.59-.53.76-1.38-.7-.15.23-.41-.21.15-.26-1.18-.65-2.32-1-2-1-1-.55-1-.62-2.55-2.15,2.79-2,.41-.23,2.85-1.35.27-.12,1.91-.79h1.79l-.23-.36-1.62-2.82,0,0L311,293.77l-.62-.86-.14-.23-.65-.91-.18-.24-.79-.85-.27-.29-.88-.86-1.61-1.29-1.53-1.5-.62-.85-.21-.56-.35-1.38-.38-1.27,2.94-1.26-.06-.15.94-.41,1.12-.65.12.24.82-1.09,1-.76"/></g><g id="isole_43" data-name="isole 43"><path class="cls-1" d="M348.82,279.48l1.68.94,0,1.76-2.09,2.53-1.29,1.62,0,.06-.3.38-1.14,1.38-.3.32-1.7,2.09-1.38,2.18L340,296.23l-2.35,4.06-2.26,4.09.09.06-.06.14-.06,0-.44.77-.47.59-.06.17-1.15,2.32-.5,1-.82,1.65-.56,1-.12.23-.14.39-2.27,3.35-1.5,2.23-.79-.5-.15.21-.26-.15.17-.24-.58-.32-.5-.32-1-.65-.21-.18-.12-.05-.88-.62-1.59-1.12-.7-.5-.88-.62-.56-.41-1.09-.76-.94-.68-.56-.44.38-.44.8-1,.09-.12,1.08-1.06,3.41-4.32.71-1,.73-1.14.92-1.56,1.47-2.38,1-1.65.39-.64.08.09.36-.15.09.06,1.35-1.21.17-.2.65-.68,1.82-1.41.24-.18,2.38-2,1.94-1.67.62-.41.38-.3.47-.23,1-.56,1.06-.82,1.67-.62,2.38-.68L345,284l1.74-2.12,2.11-2.44"/></g><g id="isole_44" data-name="isole 44"><path class="cls-1" d="M372.84,243.09l3.44,2.47,4.64,3.32.18.12,2.53,1.79.17.12,2.41,1.7.15.12,2.67,1.91,1.74,1.21.79.58.15.09,1.65,1.15.14.12,2.53,1.79.18.12,2.61,1.76.15.12,2,1.47,3.38,2.35.26.21,4,2.76.12.09.32.26,2,1.44-.29,1.06-.56,1.59h.06l-1.65,5.67-3.94,13-9.05-3.08-.06.14-1-.26-.88-.47-.56-.15-1.53-.41-1.82-.56-4.88-1.5L381,284l-1.29-.41-.77-.24-1.85-.62-.59-.2-5.35-2.12-5.82-2.23-1-.39-2.2-.88-.44-.12-.89-.23-1.47-.79-1-.47-1.79-1,1.62-2.68,1.53-2.47.67-1.09-.06,0,1.47-2.29.09.06,1.06-1.7.18-.24.82-1.38,0,0,.44-.71.06,0,.26-.47.8-1.47.94-1.79,2-4.73h0l.61-1.47.06,0,1.24-3.06.62-1.44.44-.82,1.11-2.68.3-.82"/></g><g id="isole_45" data-name="isole 45"><path class="cls-1" d="M356.08,275.42l.94.68,2.88,1.7.94.15,3.15,1.29-2.47,3.62-1.41,1.82-.18.27-.29.35-.76,1.06-1.65,2.14-.32.42-.56.76-.5.68L354.58,292l-1,1.3-.06,0-.64,1.11,0,0-1.24,1.5-2.35,3.53L347,297.65l-.41-.3-2.77-1.85-.88-.59,1.8-2.67.41-.62.76-1.06-.06,0,.33-.47.5-.64.29-.36.91-1.23-.12-.09.24-.29.26-.42.36-.67.17-.27.09.06.12-.23,1.82-2.56,1.32-2,.3-.44,1.47-2.06.32-.56.65-1,.7-1.15.5-.71"/></g><g id="isole_46" data-name="isole 46"><path class="cls-1" d="M364.67,279.42l1.35.74.06-.06,1.47.7,1.94.94.26.12,1.18.41,2.76,1.12,2.12.85.58.15,2.83,1-.44,1.44-.36,1.26-.38,1.35L377,292.09l-1.32,3.32-.44-.15-1.26-.49-1.47-.53-.45-.09-2.14-.35-.44,0-.3,0-.73-.15-4.12-1.53-1.67-.62-.53-.29-.12-.06-.38-.21-.18-.08-.23-.15-.3-.24-3-1.38,1-1.55.89-1.24.61-.79,1-1.27.53-.67,1.33-2,1.44-2.12"/></g><g id="isole_47" data-name="isole 47"><path class="cls-1" d="M357.05,290l1.77.88.44.24L361,292l.38.15.18.12,2.38,1,.47.2,3.85,1.77-1.2,2.29-1.18,2.23-.62,1.12L364.2,303l-1.83,3.21h-.06l-.2.35-.21.44-1.14-.61-.39-.21-2.23-1.29-1.06-.59-1.35-.88-.38-.18-.71-.5-2.88-1.88-.23-.15-1.53-.88,3-4.14.14-.18.5-.74.3-.41,1.7-2.55.8-1,.64-.83"/></g><g id="isole_48" data-name="isole 48"><path class="cls-1" d="M369,295l1.06.27,1.35.38h.53l.23.06,2.68.7-1.62,4.29-.88,2.12,0,0-.18.38-1,2.38-.35.83-.65,1.58-.91,2.09-.73-.32-1.65-.8-1.67-.73-2.47-1,.55-1.09,2.36-4.53,1.52-2.88.3-.59.47-.94.32-.67.24-.5.26-.62L369,295"/></g><g id="isole_49" data-name="isole 49"><path class="cls-1" d="M380.66,285.48l3.41,1.14.17.12,1.33.41,1.64.47.27.15,2.91,1.12,1.52.55,1.15.42.85.2,3.68,1.18,7.67,2.17-.65,3.24,0,.41,0,.09-.08.26-.59,3.2-7.59-1.85-5.08-1.35-.27,0-.11.27-.15.17-.15.06h-.11l-.06,0-.27-.09-.2-.06-.39,0-.38,0-4.05-.88-5.85-.67-2-.12,0-.41,1-3.09.08-.26,1.24-3.71.2-.59.86-2.49"/></g><g id="isole_50" data-name="isole 50"><path class="cls-1" d="M376.6,297l2.15.2,1.38.15.67.3.18.08.23,0,2.62-.05.38,0,1.74.24,1.09.23,2.17.56.35.06,1.74.24.5.09,2.32.41,2.85.73.41.12,2.5.65,3.65.88-.09,1.26-.09.91-.15,1.27h0l-.5,4.55h.21l-.06.47-.06.36-.44,2.67-.09.88-.14.62.05,0-.32,1.15-.47,1.17-.15.35-.26.71-.15.35-.35,1-1.06,2.77-.82,1.73-.5.91-1.41,2.44-.5,1-1,1.59-.32.61-.47-.05-.65.41-.35.2-.36-.64-.64.32-1.41.68-1.56.7-1.74.77-.88.38-.56.17-.73.27-.06,0-.18.06-.41.14-.67.21-.36.12-.09-.27-.52.18-1,.5-1.06.44-1,.41-1,.38-.94.36-.88.23-.89.15-.79.09h-.7l-.71-.12-.68-.12-.38-.06H373l-1.08.15-.71,0v-.5l-2.62-.59h0l-.67-.18-1.47.3-.65.56-.26-.15-1,1.53-.21-.12-.09.12h0l-1.38,1.26-.44.53-1.06.94L359.64,339l-.27.36-2-1.47L356,337l-2.94-1.86-.2-.08-.09.08-.94-.53-.18.3-.14-.09-.36-.21.24-.41-1.09-.67-.32-.27-.5-.26-.21.29-.88-.53.18-.29-.62-.38.24-.41-.3-.15-.2-.09-.47-.21-.21-.11-.15-.06-.29.47h-.18l-.09,0-.14.26-.18-.11-.41-.3-1.21-.73-.23.41-1.27-.79-.05.08-.24-.17,0-.09-.18-.12.27-.38-.77-.47-.08.12-.36-.24-.17-.12-.27-.11.09-.12-.85-.5-.41-.3-.06.12,0-.17-.8-.53-.38-.21-3.2-1.88-1.74-1-.38-.29-.73-.53-.36-.3-.73-.53-1.82-1.38-1.88-1.64.44-.62.38-.53,1.12-1.62.7-1.2,1.62-2.76.09-.21.58-1,.15-.24.53-1,.29-.52.47-.89.06,0,.09-.11-.09-.06.27-.44.29-.5.77-1.3.35-.64.94-1.71,1.06-1.82.17-.41.71-1.35.47-.86,2.41-4.05,4.29,2.79.35.2.21.21,1.56,1,.79.5.68.41.26.15,1,.82.27.24,2.41,1.94,1,.64.35.21,3,1.85,1.2.71.09-.12.5.29.38.24.06.09,1.15.55.79.45,1.62.76.32.15,3.7,1.76.47.24,1.68,1,.59-1,.23.2.36-.91.11-.38.47-1.27.06-.23.44-1.24.06-.14.21.06.09-.21.61-1.91h0l.09-.29h0l.59-1.56.44-1,1-2.5.68-1.71.73-1.67"/></g><g id="isole_51" data-name="isole 51"><path class="cls-1" d="M413.37,273.07l.27-1,2.17,1.56.24.15.62.47.26.2,2.53,1.91,0-.05,1.55,1.17.18.15,1.94,1.47,4.18,3.08,2.23,1.68.21.09.67.53.18.12,1.17.94.18.11,1.85,1.41,4.91,3.71.94.67-.53.77-1.41,2.44-.91,1.47-.44.85L434.65,300l-.47.82-2.73,4.82-1.85,3.06h0l.73.41,1.27.7-1.18,2.47-2.2,5.38-.06.09.12.06-.12.29,0,0v0L427,321l-.58,1.3-.06,0-.83,2.26L425,326l-.23.59-.53,1-.79,1.44V329l-.27.41.06,0-.73,1.44,0,0-1.23,2.18-.32.47-.53,1.44-.68,1.61-1.06,2.41-.41,1-.12.15-.17.62-1.09,2.91-1.62-.33-.44-.35-.35-.59-.56-1.06.06-.08-.24-.62-.17-.38-.09-.39-.12-.47,0-.11-.14-.68.14-3.23L413,335l-.29-.53-.33-.77-.58-1.23-.42-.59-.91-1.53-.23-.38v-.15l.09-.11.2-.15-.47-.91-.23-.32-1.38-2.21-.56-.85-.15-.21-1.76-2.73-.06,0-.86-.91.09,0-2.53-2.47.48-1.68.67-2.85,0-.12.15-1.79.2-1.59.06-.35v0l0-.15.21-1.17.12-1.79v-.18l.11-1.53.09-.7.18-2.36.44-1.76.88-3.41.09-.35.53-2.12.41-1.38.5-1.79.2-.86,1.5-4.67.27-.79,1.29-4.41.18-.65.32-.94,1.85-6.41"/></g><g id="isole_52" data-name="isole 52"><path class="cls-1" d="M440.36,293.06l.5-.79.79.58,1.26.95.09.05,2.3,1.65,1.94,1.44.05,0,.8.59.17.12,1.3,1,.62.44-.48,1-1.14,2.41L447.38,305l-1.14,2.61-.33.68-.26.56-.65,1.29-.12.26-.11.39L443.71,313l-.3.71-.47,1-.61,1.32,0,0-.53,1.23-1.06,2.47-.15.27-.06,0-.14.44L439.5,323l-.58,1.65,0,.18-.53,1.61-.62,1.77-.09.17-.32.85-.29.92-.45,1.49-.2.74-.77,2-.47,1.56-.23.64-.79,2.33-.45,1.5-.08.14-.47,1.56-.42,1.15.09.38-.53.56-.29.85-.12.29.09,0-.15.47-.08,0-.62,2-.09.27-.88,2.61-.09.27-.29,1-.06.12-.83,2.73-.08.53-.24,1.26-.18.62-.11,1.18-.06.85-.09.5-.26,2.08-.12.74-1.77-.5v0l-.2-.06-1.88-.47,0,0-.74-.21-.88-.23-1.26-.35-.24-.09-.47-.09-2.44-.5v-5.53l-.12-1.94-.08,0-.12-2.44v-3.21l0-.23.18-.86L418,344l.17-.85,0-.12.83-2.73.32-.88,0,0,.12-.18.14-.44,2.53-5.62.53-1.14.82-1.53.12-.21.12-.23.06,0,.56-1,.79-1.71,1.18-2.61.76-1.85-.06-.06.38-.89.56-1.11,0-.12,1.15-3,.09-.32.52-1.47,2.27-5.18.41-1,0,0v0l.79-1.65,0,0,.27-.5.2-.56,1.12-2.76,1.44-3.56.09-.2.59-1.38.41-.8.91-1.73.56-.85,1.56-2.68"/></g><g id="isole_53" data-name="isole 53"><path class="cls-1" d="M402.47,320.22l2.32,2.29,2.41,3.56.12.18,1.5,2.88.14.41,1.56,3.2.24.53.14.38.5,1.33.41,1.17h0l.3.83,0,.44.06,1.35.14.56-.26.2-.65.62-.91.91-.35.33-.09.05-1.23,1.89-1.5,2.35-1.27,2.44-.29.73-.59,1.44-.73,1.79-.36,1-.52.94L402.09,356l-.95,1.36-.2-.18L398,355.11l-.12-.17-1.17-.68,0,.06L394.24,353l-.24-.18-.2-.12-1.62-.94-.18-.12-1.82-1.08-.59-.27-1.76-.7-1.09-.5-1-.44-.44-.18-1.35-.38-.79-.24-.74-.23-.65-.44-.17-.12-.18-.18-1.12-1.56-.2-.11-1.32.41-.36,0-1.76.09-2,.17-1.62.27-.94.14-3.55,1-1,.56-.71-1-.26-.41-.41-.62-.56.36-.94-1.24-1.59-2.17-1.12-1.65,2.88-2.35.15-.15,1.35-.88.56-.35.91-.21,1,.06.77.15,1.05.23.92.3,0-.24.3.06.91.35.5.47,1.18,0,.58,0,.12,0,.24,0,.73-.11,1.24-.21.61-.12,1.85-.61.65-.24.09,0,1.12-.47,2.14-.88,1.44-.59L386,335l.35-.15.53-.21,2.09-.82,1.2-.41,1-.29.56-.18.15,0,.61-.24,1.65-.52.32-.18.62-.32.12-.42.67-.2.47-.41.8-1.18,1.32-2,.24-.38,1.32-2.26v-.09l1-2,.79-1.65.68-.82"/></g><g id="isole_54" data-name="isole 54"><path class="cls-1" d="M412.34,341l1.12,1.53.15.12.35.73.09.21.06.32.32.24,2.06,1.47-.18,1.73-.29,2.38.29.41.15,2.36h.06l0,.58h-.09l.15,2,.23,1.33.18.85v2.38l-.41-.06-.24,0-2.12-.44-.05,0-.59-.12-1.56-.53-.35-.11-.74-.21-1.5-.41-1.61-.32-1-.21-3.68-.79,1.41-2.91,1.27-3,.56-1.18.47-1,.94-1.67,1.23-2.5.06,0,.09-.15.12-.12.61-.67,1-1,.38-.35,1-.86"/></g><g id="isole_55" data-name="isole 55"><path class="cls-1" d="M368.49,347.91l3-.91,1.09-.32,2.41-.15,1,0,1.94-.15v.09l.18-.06.76.06v-.06l.74.09,0-.12.38.06,1.12,1.41,5,2,1.5.74,1.56.73.15.09h0l.94.5,1.5.79,1.46.83.24.11,3.7,2.15.15-.21.09,0,.15.09.35.21-.12.2.27.18.17.09,1.82,1.61,0,0-.48.65-.44.56-.47.62-.08.11-.83,1.06,0,0-.44.53-.12,0-.11-.09,0,.06-.65-.15-.68,1.3-.06.11,0,.06-.42,0h-.08l-.3.56-.5.85-.56-.29-.58.94-.56.91-1.06,1.74-.56.94-1.32-.18-.56-.06-1.18-.38.24-.71-1.35-.17-1-.24-1.5-.41-2.68-.35h-1.59l-.85-.12v-.18l-1.79-.35-.88-.18-2.27-.17L373.4,365h-.24l-.82-.06.17-2.76h.06l-.35-2-.47.06-.18-.94-.47.08,0-.32.42-.09-.18-1-.32-1-.15-.44-.32-.79-.95-3.44.27-.06-.53-1.68-.29-1.08-.53-1.65"/></g></g></svg>