<svg id="Livello_1" data-name="Livello 1" xmlns="http://www.w3.org/2000/svg" viewBox="0 0 540 540"><defs><style>.cls-1{fill:#b500b5;}</style></defs><title>icone sestieri6</title><g id="isole"><g id="isole_21" data-name="isole 21"><path class="cls-1" d="M365,223.73l.09.15.15.26.67,1.18.36.12v0l11.17,4.05.91.71.53.44.38.47.35.5.12.18.29.47.42.64.5.83.85,1.35,1,1.67,1.14,2,.83,1.41.14.24.3.47.23.38.3.47.38.59.12.18.2.41.18.29.14.24.18.38.18.38.14.35.18.56.18.41.2.56,0,.18.06.18.06.26.06.21.06.26.09.38.08.38.12.47,0,.27.06.38,0,.41.06.41,0,.36v.7l0,.53,0,.5,0,.18,0,.35.7.15L389,254.1l-.26-.06-.47,2-.15.62-.12.52,0,.09v.44l0,.15,0,.12,0,.09,0,.14.06.15.06.09,0,.09,0,.08.12.15.12.15.12.12.09.08.08.06.12.06.09.09.12.06v.09l0,.06-.62,4.49v.15l-.06.09,0,.09-2.7,1.82-1.5,2.64-.83,1.39-1.32,2.11-.88,1.44-.06.09-.09.15-1.79,1.67-1.91,1.59-.09,0-.09,0h-.14l-.09,0-.09-.06-.06-.12-.26-.35-2,1.41-2.41,1.56-.44.26-1.3.86-2.26,1.58-.41.27-1.06.88-.35.32.5.83-4.09,2.35-.5-.88-.24,0h-.14l-.24-.09-.2-.12-.09-.09-.06.06-.94-1.38-.21-.26L359,282.64l-.15-.35.56-.36-.27-.47-.11.06-.06-.11-.38.17.08.12-.17.06,0-.12-.18-.35-.06-.12.06-.18-.2-.47-.42-1-1,.41-.42-1,1.39-.68-.3-1.12v-.06l-.29-1.11-.09-.47,0-.12-.15,0-.14-.56.14,0-.09-.35-.2.12v-.12l-.18-.47,0-.09-.29-.76L356,273l-.29-.35,0-.06,0,0,0-.06-.24-.29-.06.05,0-.08-.32.29-.17-.32,0-.09-.42-.88v-.09l-.79-1.88-.59.23-.11-.2-.12,0-.62-1.24.56-.26-.44-1,.38-.06-1.23-3.24,0-.08-.71-1.83-.06-.08v-.06l.41-.65.39-.7-1.15-1.8-.09-.32-.15-.35h-.05l-.06-.21.35-.09,0-.26-.21.06-.11-1.06.23,0,0-.12v-.18l0-.17-.26-2.76v-1.24h.06l.06-.79-.12,0,.12-.94-.06-.15.06-.44,0-.15.06-.26.17,0,.3-1,.11-.27.27-.85.06-.12.29-.58.24-.5.23-.53.5-1.24.32-.85v0l.33-.79,4-4.44.7-.77,1.26-.94,0-.29-.06-.21,0-.26v-.15l0-.12,0-.11.76-.65-.41-.73v-.09l-.44-.74-.06,0,0-.06,0,0-.56-1v-.08l.09-.06.82-.47h.06l.59-.36.26-1.08,0-.06.3-1.15-.27-.47,5.23-4"/></g><g id="isole_22" data-name="isole 22"><path class="cls-1" d="M392.14,275.44l.64.5.62-.12,1.23-.15,4.85-.76.74,0,.65,0,2,0,1.27.29,1.53.56.05-.14,2.56,1.05,2.29,2.85.12.18,7.09,8.85.32.44,3.32,4.44-.5.38,1,1.41-.68.5-1.08-1.44-.36.06-.2,0-.06-.06-.09,0-.09-.06-.06-.14-1.08.55-.3.15-1.94,1-6.38-8.7-.47-.68L407,283.37l-9.35,4.44.85,1.94.09.18.83,1.85,3.73-1.73,1.12,2.41,3.14-1.47.24.53-.06,0-.21.08-1.94,1-.18.06-2,1-.18.09-1,.5-.23.09-1,.47,1.26,3.56,0,.06,0,.08.09.09.06.06.08,0h.39l.2,0,.24,0,.85-.06,1.65-.2,0,.2-.06.33,0,.23v.27l.06.29,0,.26.09.21.06.15.06.73.06.85-.15.3-.06.17-.08.21,0,.35.08.53.09.27.15.23.15.15.06.12.11.05v.09l-2.76.33-.12-.06-.14-.06-.15-.06-.3,0,.06.29.27,1.27.06.23.44,2.53.06.27.67,3,.06.18.44,2.56.06.23.79,4.21.06.26.56,3,.06.26.59,3.24.06.17.06.5.47.06.35,2.21V329l.2,1.32,0,.12.18,1.26.26,1.85h.09l.06.38h-.06l.06.24L411,345.93l.58,2.88.21,1.5,1.44,7.73.21,1.23,2.14,11.08.18,1,3,15.32.17,1,3.29,17.49.15-.06.27,1.26-.15,0,1.23,6.41.12.65,1.56,8.49.06,0,0,.24.06.35v.15l0,.17-.15.21-.09.09-.12,0-.08,0-.24.06-3.7-.65-.12,0-2.29-.41-.21.23-1.41-.26-.15,0-3.29-.59-1.91-.56-.15,0-7.23-2.14-.5-.18-6.41-2.32L387.43,410l-1.12-.71-6.58-4.06,0-.35-2.62-1.59-.08-.08-.59-.53-.32-.33-7.32-6.9-6.91-6.62,0,.18-1.21-1.12,1.88-12.17.33-2.14.09-.91L363,372l.12-.82.47-3.5.06-.53,1.18-8.41,1-7.35h0l.23-1.91h.15l0-.2.29-2.12.15-1.09.56-4,.29-16.7.09-2.23,0-.59v-1.12l-.76-5.55v0l-1.33-9.62-.06-.38-.11-.91v-.09l-.12-.85-.09-.59-.94-6.88-.44-.11-.26.08-.27-1-.21.06-.17-1.08-.12-.12-.18.06,0-.68.94-.12.12-.08.83-3.83.11-.11-.41-.74,6.64-3.2,21.35-10.23"/></g><g id="isole_23" data-name="isole 23"><path class="cls-1" d="M454.48,339.72l.68-.52.09-.06.11,0h.15l.06,0,.09,0,.11.11.12-.08.15.17,0,0,1.26,1.35.65,1,.44.65.32.53,3.83,16L460,360l-1.85,1.14.38.74.09.23.06.15.17.41.09.47.06.53.06.38.06.47v.68l-.12.53-.09.38,0,.27-.12.17-.14.15-.18.15-.12.14-.08.24-.09.09-.15.05-.09.3-.12.12-.11.17-.09.15v0l-.27,0-.2.09-1.38-4.79,0-.39-.06-.23-.24,0-1.06.65.06,0-.44.3-.62-1.35-1.94.85-.2.38.35.79.06,0,.09,0h.09l.08,0,.06,0,.09.09,0,.09.09.44-2.53.94.41,1,2.35-.94,1.09,4,2.47,9.17H456l0,.24.06,0,.14.17.21.27.18.35.11.32.12.27.27.38.2.26.21.56.09.36,0,.17,0,.62.36,1.17-.36.12.12.33.33-.12.17.47-.62.2,3.18,11.32.12.09L463.3,405l.85,3.17-.53,1.09-1,1.77-2.73,1.55.71,1.27.2-.12.77,1.35-.83.47-.79-1.41-.06-.12-.26-.5.2-.08-.47-.86-.15.09-.88-1.56-7,3.68-1.47.67.26.5,0,0-2.41,1.27-1.06-.06-5.35,2.5L433,422.79l-.38.12-.38.12-.38.06-.33.06h-.26l-.29,0-.3,0h-.32l-.12,0-.2,0-.18,0-.21-.06-.17-.06-.18-.09-.21-.11-.23-.09-.21-.15-.14-.15-.18-.09-.12-.2-.09-.09-.17-.23-.09-.18-.06-.15-.09-.12,0-.08h-.08l-1.21-6.12-.18,0-.2-1.06H426l-.18-1-.12-.67v-.09h-.06l0-.23h0l-2.23-11.64-2.26-11.5-.36-1.94-.08-1.09-2.86-14.93-.2-1-.21-1.23-.2.09-.15-1.12.21-.06L414,350l-.24-.67-.15-.91.39-.44.17,0-.12-.44.86.11.17.65h.88l.3-.35h.62l0-.15v-.12H417l14-.2v-.15l2-.06.47.29h1l.15,0h.06l0,.33.18-.18h.38l.44.09.32,0,.82,0,.24-.06.21,0h.29l.29,0,.3,0,.26-.06.21,0,.2,0,.12,0,.06.06,1.62,0h.44l3.94-.15,3-.82,2.79-3.82.76-1.09.12-.18.12-.05,2.7-1.89"/></g><g id="isole_24" data-name="isole 24"><path class="cls-1" d="M360.3,306.54l.06.47.21-.06.17,1.47.06.29.09.56,0,.06,0,.62.17.06.09.55h-.15l.06.39,0,.11.12.71,0,.09.09.73,0,.06.09.82v.06l.09.68,0,0,.24,1.88v.35l.26.06.09.06.09.35.27.59-.15.06.62,1.35,1.67,3,.27.47-.71.56.09.15-.21.11.21.5-.5.27.06.12-1,.73.09.12-.09.23.09,1,.08-.06.45.59-.45.35.15.21.09,1.06.65.79.23,2.41-.56,0,.47,4.12.18,1.47.06.73.44,4.15-.53,3.7-.15,1.09-.32,2.61-2.2,15.26-.71,5.09-.12.79,0,.23-.41.74-1.41,3.73-10.67,1.88-4.53-5.23-3-3.41-5.4-6.26L334.2,361l-.18.11-.15-.14-.26.14-1.41-1.88.21-.17-.18-.24.23-.12-2.79-3.61-.35.26-.85-1.11-.09.05-.09-.17-.09.06-.59-.8,0-.06-.14-.17,0-.06-.65-.91-.15-.24.38-.23-2.76-3.65-1.73-2.26-2.74-3.68-.41.36L318,341l.33-.35-2.53-2.44-.33.38-2.64-2.38-3.41-2.68-1.21-.88-1.88-1.29-1.5-.94L303,329.23l0-.12v0l.24-.38.79-1.26.12-.27,2.14-1.44.71-.26,1.06-.33,1.32-.23v0l2.12-.38,0,0,3.46-.65,2.41-.47h0l1.12-.21.62-.23,4.52-1.76,4.27-1.65,2.2-.85.38-.12v-.12l.62-.2v.05l.12-.05,0,.05.5-.2.73-.29,1.18-.56,0,0,.76-.33,1.59-.67,3.88-1.68,1.38-.59,2.44-1,.56-.23.35-.15,3.76-1.53,1-.41.89-.32,1.61-.68,0,0,.32-.09,0,0,.21-.09,1.29-.53.47-.18,2-.73,1.8-.65,2.17-.85"/></g><g id="isole_25" data-name="isole 25"><path class="cls-1" d="M395.07,124.7,406.86,145,408,164.33l.12,1,.53,8.67-2.65.76-4.12,1.15,0-.12-2.5.65-.09,0-.12,0-.09-.06-.06-.06-6.11,1.62,0,.2-.12.12-.85.23.09.39-1.82,1.47-6.62,5.41-.85.7-.26.24v0l-.59.47-.09,0-3.79,3.08,0,.21-.09,0-.09-.06-.23.09-.39.32-.11-.15-.91.77-.24.17-.21.24-.41.32-.29.21-1.12.91.12.15-.26.23-.92.8,0,.2-.17,0-1,.85.09.12-3.35,2.68-.09-.09-1.5,1.29.06.06,0,0-.06.09h-.12l-.09,0-.44.53-1.09-.82-.58.82-1.24,1.61.15.06.09.12,0,.24v.2l-.12-.09L358.65,206l0,.09-.58.58-.77-.23,0-.12-6.67-1.06-9.94-1.61-1.17,1.58-.32-.11,0,.14-1.58-.44,0-.06-.36-.11-.38-.09-4.35-1.12-.15-.12v-.17l.45-1.77,0-.23-.11-.18-2.35-.59-.12.33-.24-.06.12-.35-3.17-.8-.09.35-.24-.08.09-.36-3.14-.79-.09.32-.21-.06.09-.35-3.18-.79-.08.32-.24-.09.09-.29-3.12-.77-.08.3-.27-.06.09-.35-3.2-.8-.06.33-.18-.06.06-.33-3.53-.91-.09.33-.2,0,.06-.33-2.77-.73-.14.32-.15-.09.06-.29-2.35-.62-.06.36-.21-.09.06-.33-2.41-.58-.09.32-.17-.06.05-.35-4.82-1.21,0,.33-.29-.06.12-.36L291,190.22l-.12.3h-.15l.09-.36-3.73-1-.09.44-.21,0,.12-.45-3.11-.79h-.24l-.23.06-.18.09-.21.2-.09.18-.2.5-.94,2.73-.12.27-.23,0-1.53-.5-.68,1.7,1.18.5.44.21.12.09v.08l-.45,1.21-.23.76-.12.09-.44,1.09.09.09-.44,1.23-.12.12-.15.06-1.73-.3-.94,2.74.41.15-.24.61,1.06.62.09.06.06.09,0,.11-.62,1.77-.06.09-.14.11-.89-.2-.44-.09-1-.21-.58,1.68.94.26.44.15.7.24.06.06.06.05,0,.06,0,.09-.85,2.41-.12-.06-.27.71.15,0-.53,1.5-.2.06-.12.32,0,0,.06.17-.77,2.24-.06,0-.08.06h-.09l-.09.32.09.12,0,.09L271.85,220l-2.53,7.08,0,.12-.05.12-.15.15-.15.11-.15.09-.11,0h-.15l-.18,0-.14,0-2.38-.79,0,0,0,0,0-.12-.41-.06-.12,0-4-1.32h-.5l-.12.06-.14.06-.09.09-.09.08-.41,1L257.71,232l-.11.3-.09.14-.21.06-.5-.15-.44-.11-8.67-2.38-.09,0-.09-.09,0-.06,0-.15v-.06l1.47-5.2.06-.12.06-.06.06-.05.15,0,.11,0,.33-1.12h-.06l-.12-.12-.06-.09v-.14l.24-.77.09-.11.17-.06H250l.12-.12.18.18-.06.17.29.09.32-1.23,3.8,1,.58-2.17L251,218.29h-.06l-.14-.08,0-.09.08-.35.12-.12.06,0,.18,0,.85-3.15-.12-.06-.09-.08,0-.12.17-.65.09-.06.15-.06h.11l.56-1.94L250,210.39l.24-.71,2.94.91,2.91,1.06,2.08-5.94.18.06.15-.41-.15-.06,2.56-7.17-2.88-1-.5-.2-.12-.09-.12-.12-.06-.12-.06-.12,0-.14,0-.18V196l.05-.17,2.15-5.71.09-.29h.15l.17-.44-.06,0-.08-.09.14-.35,1.91-5.14-.17-.06,1.5-4.62,0-.12.76-2.73v-.09l0-.09,0-.08,0-.12,0-.09-.09-.09-.11-.09,0,.06-3.74-.79,0-.06.3-1.44,4.5.88.32.3h1.17l8.76,1.76.33.06,4.14,1.14,10.44,2.68,0-.15,3.41.27,2.26-1.3,9.14-2.52.15,0,8-2.21.12-.06,9.29-2.5,1.09-.32,2.67-.73,1.24-3.56,8.79-8.23,7.85-7.44,4.52-4.29,3.53-3.38,1.91-1.79,1.26-.77,3.15-2.06,11.52-7.64,12.61-3.29,13-3.5"/></g><g id="isole_26" data-name="isole 26"><path class="cls-1" d="M333.64,234.73l1.91,1,.12-.24.59.3-.09.26,2.85,1.53,5.14,3.17-1.44,2.65-.12,0v.12l-.11.53v.08l-.12.86-.09.23-.09.3.91.17,0,.06L343,246l-.15.12-.06.65,0,.15,0,0,0,.27v.06l-.32,0,0,.47-.5,0,0,.12.06.11-.09.36.09.08,0,.18.26,0-.11.68-.39-.06-.05.38-.44,2.35.08.53.5-.06.06.68-.47.08.18,1.06.06.36.14.73.65,2.76v.15l.21.91,0,.09.2.88-.12.06.15.5.09.32.32-.32.8-.21.26,1-1.18.32,0,.15.12.38.38,1.5.18.32.91,2.21,1.29-.56.47,1.17-.47.21-.2,0-.59.26.62,1.47,1,2.5.85,2,.06.15.73,1.88-1.2.41-7,2.59-.38.11-.44.15-1.41.35-.44.15-1.35.35-.77-2.94-.91-2.38-1.09-.85-.64-.47-.33-.27-2.44-2-.2-.24-.5-1.2-.09.14-.06-.11-.26-.36,0,0-.15-.41h0l-.18-.44-.08-.29-.15-.56,0-.15-.21-1.15-.17-1.17-.24-1.82-.26-2-.36-2.88-.17-1.44-.12-1.12V255l.09-.53,0-.26.12-1.15.5-1,.05-.18.5-1,.12-.2.21-.41.23-.62.27-.5.38-.62.56-1.14.14-.62.18-.8.09-.82.15-.91.26-1.56.29-.79.27-.8.47-1.23.79-2.23.3-.53.35-1.21.5-1.17"/></g><g id="isole_27" data-name="isole 27"><path class="cls-1" d="M312.33,228.79l.53.12,0,.11.88.15,3.85.56,4.64.73.06.06,1.21.3.14,0,1,.26.89.21v-.06l.44.14,0,.18.56.18,0-.18.55.15-.05.17.35.09.06-.2,2.35.76-.3.74.48.11.23-.64,1.76.53-.17.5.64.26-.26,1.21-.12.41-.35,1-.24.55-.35,1.3-.23,1.14-.59,2-.41,1.41-.5,1.88-.44,1.47-.09.36-.15.5-1.23,3-.09.18-1.79,3.79.14,1.24v0l.09.44.18,1.17.09,0,.05.56h.09l0,.36h-.06l.59,4.9.06.39h0l0,.26,0,0,.09,1.09.26,1.5.06,0,.09.35h0l.35,1.38.15.59h-.06l.21.82.26.5.68.77-.06.06.17.26.09-.06.77.91,1.76,1.71.26.23-.08.06.67.56.3.24,1.38,1.2,0,0,.2.18,0,.06.62,1.55.41,2.27,0,.12-1.79.41-2.29.5-5,.29-.24,0-.61.15h-.06l-6.35.67-.44.06-.12-.73-.5-4.09v-.09l-.53-4.2.06-.09.15-.09v0l.38-.32-.24-.88-.08-.32-.12-.56-.15-.89h.09l-.06-.47h-.06l-.09-.61-.17-1.21-.33-1.7-.14-1.27-.06-.53,0,0-.12-1-.32-2.55-.21-1.71-.09-.61-.11-1.45,0-.58-.12-.94,0-.36-.24-1.82-.23-1.76-.35-3.06-.65-5.11-.15-1-.79-6.68-.35-2.91-.33-2.44-.09-.44v-.17h-.14l0-.56"/></g><g id="isole_28" data-name="isole 28"><path class="cls-1" d="M324,209l.17,0,.71.26v.3l1.18.35,7.29,2.32.11-.5.09,0,.74-2.5,1.35.33,1.41.35,1.7.41.42,1.85,1.17.27,6.23,1.23,10,1.88v0l.29.71v0l2.68,4.61.09,0,0,.18-.14.06-8.09,6.82-.29.41L344.78,239l-7.5-4.94-2.32-1.5-1.29-.65-4.12-2.08-1.11-.56L325.88,228l-.53.86-.71-.33-.17-.08-.53-.24,0,.06-.09.18-5.29-1L312,226.32l-.94-.21-.09,2.77,0,.85,0,.44.08,1.44.06.88.41,2.85.21,1.65.32,3.2.39,3,1.32,9.94.29,2.08,1,7.94.59,4.59.32,2.73.06,0,.09.91-.91.06v-.09l-3.79-.17-10.06-.44-1.61-.09-8.5-.41-5.26-.27-4.91-.26-1.59.73L276,271.94l-1.33.56-3.17,1.59-2.53,1.2-.15.06-.32.18-.12.06-2.7,1.29-.27.15.06.05-3.58,1.86-.06-.12-.24.15-.38.41-1.38,1.2-.94-.7,0,0,.06.61-1.27,1.62-.7.06-.44.65-.62.08-.53.65-.59,0-.53.68-.58,0-.53.65v.06l-1.06.68h-.24l-1.61,1-.62,2.91-.41,1.88-.44,1.06-.18.41h0l-.06.17-.14.27-1,1.2-.59,1h-.15l-1.67-1.08-.53-.36-8.64-5.73-2.36-1.59-.06-.08,0-.09,1-1.5.89-1.35.14-.18.06-.38-.23-.24.26-1.29.18-.82.09-.39.17-.76.06,0,.32-1.29.18-.5.68-2.68.08-.26.15-.53.77-3L239.9,265l1.68-6.55.35-2.06.44-8.64,0-.47.35-3.47,0-.5.06-.82.12-.41v0l.47-2.21.64-1.62,2-5.17.06-.09.09-.06.18-.05h.11l.12,0,7,1.91.17,0,1.74.49.41.12.23.06.18.06.12,0,.09.06,0,.12v.14l-.85,5.32h-.14l-.09.47.14,0-.2,1.18v.41l0,.09,0,.06.11.11.15.09.21.06,5.29.85.12,0,.05,0,.09.06.09.06.06.12.06.09.06.11.06.15,0,.12v.26l-.27,1.74,3,.41-.06-.09-.06,0-.06-.09.15-.64,0-.09,0-.09.06,0,.14,0,.5.09.06,0,.06.06.06.12-.12.73-.14.15,2.85.38.26-1.68.06-.11.06-.15.12-.15.11-.12.21-.11.29-.06,3.85.59,11.26,1.79,8.88,1.44,2.56.41.35.09.38,0,.38,0,.36-.09.32-.12.32-.17.33-.21.32-.23.27-.36.2-.26.21-.35.09-.21.41-1.23,5.73-18.55,1-3.26-.06-.15-1.26-.35-.42-.8.59-1.85.8-.38,1.23.35.12-.06,1.73-5.61.27-.35.2-.09.36-.06,3.55,1.06,3.59,1,.15-.06,2-1.71.15,0,.68.09.14.35,2.56.83,2-2.94-2.5-.8-.29.18-.71-.29-.09-.06v-.21l.39-.53.08-.06.21-.05.62.29,0,.23,1.5.47,2-3-1.46-.5-.18.06h-.18l-.56-.21-.08-.12v-.12l.17-.32L324,209"/></g><g id="isole_29" data-name="isole 29"><path class="cls-1" d="M347.69,277.53l.29.58,0,.06.3.68.14-.06.06.12.18.38v.06l.21.64.17.27.3.56,0,0-.09,0,.17.44.12-.06.38.88.06,0,.06.06.12.29,0,.06.09.24.05.08.09.15-.23.09.56,1.06-.12.06.94,1.76,1.06-.59,1.94,3.44-1.09.56.12.21-.15.08.15.44.53,1.18.44,1v0l.47,1.06,1.29,2.91.91.59.77-.33.58,1.47.74-.26,0,.09,1-.39.06.15-.3.09.18.59-.29.06.11.5h-.06l.15.47.09,0v.05l0,.18.06.35.15.47.05.18.47,1.56.3,1,.26.76.62-.17.09.38-.15,0,.06.2-.53.18v-.06l-1.91.68-3.26,1.2-.71.27-4,1.61-.08,0-.39.12-.06,0L348,309.83l-3.76,1.56-.35.14-.56.24-3.85,1.59L335.55,315l-3.5,1.47-.73.33-3.88,1.61-4.27,1.74L318.56,322l-1.38.09-1.12.06-.38.11-1,.21-3.44.65,0,.11h0l-2.09.36-2.73.58-.59.15-.7.38-.5.27.06-.8-.5-.05-.09.82h-.06l0,.35-1.29-.09-.71,1.06-.79,1.24-.12.26-.12.15-.15.09-11-6.5-10.11-6L264,306.13l-12.43-7.35-.71-.44-1.64-1v-.09l.64-1.18.5-1.47.3-.64.2-.44.15-.39,0,0,.06,0h.06l0-.58,0-.91-.27-2.62.33-.47.62-.65.49-.61,1-.68.65-.47.68-.47,1.5-1,1.14-.76.36-.27,1.2-.79,1-.53.27-.15.91-.5,1.53-.73,0-.15.67-.29,1.12-.53.44-.21,2.76-1.26.41-.21,1.39-.62.2-.11.33-.15.2-.09,2.35-1.12,1.56-.73,1-.5,1.65-.76.35-.18.73-.35,1.94-.92,1.33-.61.23-.15.32-.12.27-.09.2,0H282l.21,0h.23l.24.05,2.06.06,1.44.12,5.23.21,10,.38,5.32.18v-.06l.39,0v.05l4.35.15.88,0v-.06l.47,0,0,.06,2.44.06h.15l0,0h.18l.15.09.14.09.12.14.09.18,0,.17v.15h-.06l.35,3.47v.09l.42,4.17.08.74-.17,0-3.88.32.23,1.53,3.88-.5.86-.12,1-.09,6.74-.67h.14l.68-.12,9.32-1.23v0l.41-.06,0,.06.41-.06,2.29-.3,0-.09.35-.05,0,.05.94-.11.68-.3,6.14-2.67.68-.32"/></g><g id="isole_30" data-name="isole 30"><path class="cls-1" d="M186.17,152.19l6.37,4.32h.06l1.44.94v.09l3.77,2.52-.06.36,1.14.17.92.15L201,161l1.29.27,2.74.47.06,0,.58.09h.06l7.53,1.44,0-.12,2.17.56,4.91,1.23,3.56.89,6.32,1.41.47.11,3.61.77-.17.47-.12.32-4,9.55-.06.18,10.44,3.73.53-1.67L233.17,178l3.11-9-.14-.06.17-.5.06-.12,7.38,1.59,14.61,3.09.26,0-.32,1.47v0l0,0-4.91-1.08-.12.47,0,0-.33-.09-.47,1.76.27.06,0,.06,0,.06-.36,1.32,0,.06-.09,0-.26-.09-.47,1.82.18.06.06.09,0,.15-.32,1.14v.06l-.06,0-.06,0-.2-.09-.5,1.91.17,0,0,.12,0,.41,3.56,1.27.12.05.06.09v.09l-2.27,6.17-2.94,8-.14.32L246,208l1.88.79-.27.68-2.06-.71-1.61.91-5.41,16.85,0,0h0l-.21-.06-.26.85.23.09v.11l-.08.15-.15.47-.09.27-.79,2.55.88.27-.06.35-.06,0-.79,2.47.09,0-1,3-.09,1.26,1.85.83-.06.14.21.06.17.09.18.06,0-.12,1.53.56.09.71-.38,0v.21l.38-.06.06,1.06h0l.26.44,0,.85-1-.14v0l-.82,0-1.62-.09-2.85-.09-1,0-.38,0-2.65-.09h-.17l-.33,0-3.88-.2-.09-.41-.91-3.85,1.15-1.24.23-.23,1-1.09.56-.62.21-.7.82-2.56,3.62-11.2,2.52-7.82,1.12-3.44.21-.65.11-.35,1.65-3.76.12,0,.91-2,.06-.12-2.82-1.23-.21.38-.38-.18-.06.18-4.88-2.32-.91-.44-1.09-.5-.5-.24-.06,0-3.82-1.94-.12,0-.58-.26-1.27-.62-1.41-.71-.35-.14-1.24-.59-.76-.53-.12-.09-.32-.23-.82-.47-.68-.06L212.74,191l-1.38-.44h-.27l-3.52-.39-1.12-.17-1.5-.24h0l-2.73-.44-.71-.09-.29,0v.12l-3.15-.18-1.2,0-.44,0h0l-1.24,0-1.7-.09L192,188.9l-1.21-.09-.67-.06-1.33-.2-.67,0-3.62-.12-.35-.12-.47-.06-1.15-.06-.09,0h0l-.05-.05v-.06l0-.06v-.47l0-.65,0-.35v-.5l.09-1.15.06-.94.06-.5,0-.76.06-.3.62-5.43.73-6.27-.15,0,.33-3.39h.17l0-.32.12-.44.62-6.23.23-2.06-.06,0,.45-4.44-.27-.06.06-.38.26,0-.11-.38.5-.79"/></g><g id="isole_31" data-name="isole 31"><path class="cls-1" d="M222,243.52l.06-.06v0l.06,0,0,0,.15,0,1.94-.21h.38l.53,0,0,.06h.53l3.79.15h.41l2.77.06h.38l3.85.09,1.62,0,1.61.08,0,1.5,0,.91h-.11l0,.86,0,0,0,.11-.06.44v.12l-.06,0-.44,5-.44,5.94.14,0,0,.14.08,0v.12l-1,3.73,0,0-.67,2.17-.74,2.65-.38,1.35,0,0,0,.26-.47,1.71-1.2,4.88-.68,2.82-.23,1-.15.47-.33.65-.47,1-.29.55-1,1.27-1,1.53-.06,0h-.12l-6.32-4.68-.44-.32,0,.06-.85-.65,0-.06-.44-.32-.44-.35-5.64-4.27-1.86-1.35,0-.06,0-.06v-.06l1-2.23,1-1.53.92-1.14.58-.68,2.62-3.15,1.53-1.82.06-.17.2-1.09.27-.53.09-.21.44-.88.88-2.53-.12-.67-.68-4,0-.24-.17-1.29,0-.26h-.06l-.18-1.09-.2-1.53-.33-2.44-.11-.47L222,244l0-.06.06-.38"/></g><g id="isole_32" data-name="isole 32"><path class="cls-1" d="M229.08,199.86l2.3,1.06,2.76,1.53,1.59.94,1.7.91-.91,2-.12.32L235.28,209l-1.11,2.14-.41.83-.77,1.5-.06,0-.2.53L232.2,215l-1.29,2,.61.29.8.33-.53,1.82-.27.85-1.82,5.53-2.29,7.08-.56,1.65-1.38,1.56-.24.26L223.82,238v.09l.15.76.12.56-.15,0,.06.18h.14l.56,2.58-.09.09-.05,0h0l-.39,0,0-.06-2.24.35-.73.09-.5-.88-.09-.21-.74-.79L219,240l-.32-.27-.27-.14-2-1.27-1.64-1.41-1-1,0,0-.33-.23-.05,0-.71-.74-.41-.44-1.21-1.58-1.58-2.42-.15-.29-1-1.67-.68-1.09-.41-.8-.44-.79-1-2.06v0l-.53-1.14,1.8-1.27,1.32-1.08.47-.3.23-.15.12-.08,1.56-1.36,1.56-1.35.41-.35.15-.09,1.88-1.38.53-.38,1.11-1.06,1-.94-.06,0,1-1,1.44-1.44.44-.41.33-.32,2.55-2.8.48-.5,1.64-1.79.06-.06.21-.23.23-.24,1.26-1.47.12.06,1.59-2.18.35-.47"/></g><g id="isole_33" data-name="isole 33"><path class="cls-1" d="M182.08,189.9l.18,0,3.32,0,.53,0,2,.09.7,0,4.38.32,1.68.09,1.64.09v0l3.09.29,1.7.18.71.09,1.18.06h.88l2.35.17,2.15.3,1.29.26,1.17.24.8.2,2.47.88.26.12.41.21,2.15.94.38.14.09-.26,3.12,1.53.08,0,.27.11.06,0,.47.24.35.15.82.41.5.29.06,0,4.47,2.65-.06.06-2,2.73-.23.38-.09-.06-.18.24-.26.29-.09.09-.79.94-.18-.12-.15.18-1.44,1.59-1.44,1.58-.2.18.17.24-1.09,1.05-.55.56-1.68,1.68-.09.12-.79.88-.94.67-1.77,1.36-.2.14,0,.06-.47.44-.33.3-1,.76-.26.24-2.09,1.7-1.11.79h0l-.24.21-.2.15-1,.79-3.24,2.5.41.76.59,1.18.94,2.12.21.47.17.44,1.12,1.5,1.09,1.41.15.23v0l1.32,2.35.23.41.65,1.09.5.91.56.71.47.53.06,0,.14-.18.39.27.14.2,1.8,1.32,2.5,2.15.49.41.53.53.06,0,.3.29,0,0,1.2,1.12-.06.06.06.06-.23.32.29.62.79,1.41.24,1.23.06.27.2,1.12.21,1.14.29,1.88.06.3.27.94.61,2.73-.08,1.3-.06.58,0,.27-.24.82-.44,1.32-.17.44-.09.18-.09.12-.12.2-.47.89-.76,1.38-.24.29-.53.44-2,1.88.14.15-.61.65,0,0-.44.44-1.15,1.18-.5.61-1,1.5-1.32,2.15-.06,0-.8-.44-.05-.06-1-.62-1.88-.76-.15-.09-1.59-.56-.15-.06-2.46-.76-.27-.09-.76-.21-.86-.17v0l-2.64-.41-.15,0-1.5-.14-2.17-.18-.59,0H195l-1.55-.15h-.18l-.94-.08-.15,0-1-.06-.2,0-3.65-.3h-.12l-1.11-.08-.15,0-1.73-.12h-.12l-2.24-.21-.26,0-1.44-.11-.06-.06,0-.06.27-2.79.26-1.68v-.06l.5-3.55.62-3.27.11-.41.18-1.12.44-2.2.27-1.15.06-.38.23-1.15.21-.5.32-1.38.26-1h0l.12-.38.47.12,1.06-3.17h.06l.23-1.15.62-2.94.56-1.94.29-1.32.33.06.14-1,.06-.42.06-.38.06-.26,0-.33-.06-.7-.09-.44-.17-.59-.33-2.32h-.2l-.09-.47,0-.44v-.06l0-.06,0,0-.68-1.59-.62-.76-.41-1-.35-.71-.29-1h0l-.15-.41-.3-.5,0-.23h-.06v-.15l-.56-1.32-.12-.59,0-1.79.38-1.77.21-.88h0l.14-1.06.36-2.7.2-2.12V208l-.06-1.21-.11,0,0-.79.11-.71v-.23l-.41-2.74-.29-1.64-.24-.91-.32-1.41-.26-1.45h.08v-.52l-.32,0v0l-.29,0-.09-.56-.47-2.27h0l-.06-.2h.15l0-.24H182l0-2,0-.59v-.59"/></g><g id="isole_34" data-name="isole 34"><path class="cls-1" d="M138.11,117.76l.38-.94,1.11.89,5.8,4.32.58.47,6.44,4.91.12.08.79.59,1.8,1.35,8.9,6.65.38.29,1.33,1,.11.06L179,147.07l.94.68,1.68,1.26,2.26,1.62-.64.85L183,154l-.38,3.38-.35,3.17-.3,3.06h-.41l-.2,1.79h.38l0,.53h0l-.3,3,0,.32h.27l-.15,1.41.09,1.62-.41.06-.24,2.38.06.21.36,0-.09,2.17-.44,0-.12.15,0,1.32,0,1-.12,2.53,0,.53-.26,3.32-.27,2.82-1.41.06h-2.06l-3.05.12H172l-.91,0-2-.21-2.85-.61-.68-.15-1.56-.38-2.17-.5.06-.38-.15,0-.12.32-.26-.09,0,.06-1.27-.32-.44-.18.09-.32-1-.27-2.47-.62-1.53-.41,0,.06-3.41-1h0l-.47-.14-.88-.24-1.2-.35-.65-.15-1.65-.29-.82-.09-.56-.06-1.94-.38-.64-.18-.06.15-.38-.06-.27-.09-.18,0-.88-.09-1-.14-2.44-.24-.38-.06-.7-.11-.65-.09-.35-.06-.33,0,0,.18-.67-.09-.44-.06-.5-.06-.89-.09-2.52-.23-.77-.09-1.23-.15-.21,0-.17.06-.47-.12h-.09l-3.32-.29-.5-.12-1.15-.29-1.09-.21-1.82-.29v.06l-.71-.18.06-.26-.41-.09-2.91-.65.41-2.53.24-.76.17-1.12h0l0-.26.3-.62.08-.21,1.65-4.14,2.35-6.09,0-.11.35-.94.12-.3-.53-.17.24-.68.32-.79,3.44-9,1.59-4-.18-.06.35-1,.18.08.56-1.47,2.35-6,.21-.71h.08l1.71-4,1.47-3.41-.12,0,.18-.44-.06,0,1.62-3.85.2-.47.24.08,3.11-6.58.36-.77"/></g><g id="isole_36" data-name="isole 36"><path class="cls-1" d="M136,182.34l1.09.15,4.17.65,0-.18.47.06h.12l.73.12,2.8.62.88.17,1.76.44,2.41.47.09,0,.47.15,3,1,1.85.53,3.53,1,.41.12.85.23,2.94.74-.23,2-.15,1.33-.47,5.2-.5-.12-.59-.2-1.82-.39-.85-.35-.36-.14-.06.23-.47-.18-.29-.17,0,0-.23-.12-.24-.12.06-.11-.59-.3-.06.12-.47-.27.06-.08-.44-.24-2.41-1.32-1.21-.71-1.5-.88-.67-.41-1.47-.82.09-.27-.8-.35-.64-.32-.59-.33-1.06-.59-1.5-.7-.62-.29-1-.45-1.08-.5-1-.47h-.09l-.65-.17-.11-.06-1.3-.71.09-.17-1.79-1-.91-.62.32-1.18"/></g><g id="isole_37" data-name="isole 37"><path class="cls-1" d="M165.3,190.63h2.94l4.29,0h1.41l5.14,0,1.21,4.14.53,1.29.38.92.41,1.29h.09l.09.32-.06,0,.67,1.91.09,0,.09.27-.09,0,.24,1.23h.06l0,.18.32,3.23.06.68.17,1.64-.2,1.33-.24,1.2H183l-.15.85-.23,0v.21l.09,0-.74,3.88-.47,3.82.24.59.09.26.08-.06.18.56.06.24h-.09l.12.41.2.56.06.2.83,1.89.08.26.09.12.71,1,1,2,.11.2.3,1,.5,2.35.06.41-.09.53,0,.5-.09.47,0,0-.47,2.27-.09.32-.67,3-.74-.18-.17,1.88-.21,1.12-.06.29-1.15,4-.08.33-.27.94h.09l-.24.79-.11.47-.06.26-1.79,7.65L179,261l-.14,1.71-.3,2.76,0,.09-.09.09-.85-.09-.12,0-2.23-.17h-.15l-.85-.06-.67-.06-.47,0-1-.12-.94-.09-1.35-.12L168,264.8l-.15-.09-.06-.09,0-.15,0-.41v-1l0-.61,0-.56v-1.71l.14-3.67.06-.44.09-1.65-.06-1.23,0-1.68-.09-.62-.08-2-.15-1.39-.12-1.52-.18-1.77.45-.06-.39-2.44-.11-.38-.36-1.2-.29-1.89-.18-1.82,0-1.12-.17-2.76v-.62l-.33,0,0-1.53V228.2l.09-3.82,0-.29-.09-2.5,0-.71,0-.7h0l-.11-4.8.06,0,0-.33-.09-5.76,0-.88h-.35l-.24-.24,0-.67,0-.65.24,0,0-.85-.27-.82-.14-1.44-.09-.68v-.09l-.12-1.2v-.09l-.15-1.24-.08-.7-.09-1,0-.21,0-1.29.5-4.06.59-2.53"/></g><g id="isole_38" data-name="isole 38"><path class="cls-1" d="M140.78,188.05l2.85,1.26.3.15.26.17,2.15,1.15,1,.5,1,.53v0l.14.12,1.85.94,1.39.73,1,.53,2.39,1.35.29.12,2.47,1.21.12.06.2.11.12.06,1.26.5.71.32,2.12.89.14,2.79.09,3.79-.06.85,0,.15.09,1.35h-.18l.06.88.21,0,0,.55,0,.3-.18,0,.06.53h.17l.15,1.85h-.17l0,.56h.21l.18,2h-.18l0,.44.18,0,.23,2.44.18,2.38.17,1.26,0,.18.06.76.21,3.29,0,.71-.3,2.29.3.41-.47.86-.56,0h-.35l-1,.06-.92,0-.55.06-.36,0-.47,0-1.11.09h-.18l-.29,0-1.89.09H156l-.47.09-3.65,1-.06-.74-.23-1.82h-.09v-.18l.09,0,0-.2,0-.15.09-2v-.2l0-.21v-.56l0-.38-.09,0,0-.21h.09V224l0-.24-.06-.17,0-.09,0-.12-.94-1.68-.23-.44-.27-.44-.65-1.2-.2-.36-.94-1.7-1.12-2-.06,0-.14-.32,0,0-.55-1,0,0-.15-.15-.06-.15.06,0-.09-.14-.29-.47,0,0-.18-.32,0,0-.82-1.44-.06,0-.21-.38.06,0-.59-1-.23-.41h0l-.12-.24-.62-1.08-.26-.45-.09-.17-.15-.24-1.7-3.17-.12-.24-.06-.11,0,0-.06-.12,0,0-.7-1.32,0-1.94V199l0-1.94,0-1.26v-.21l.23-2.23-.11-.71,0-.26v-.65l.14-.5.59-3.23"/></g><g id="isole_39" data-name="isole 39"><path class="cls-1" d="M154.92,230.93l.79-.32.47-.12,0,.21,1.74-.24,1.08-.08.62-.06.5,0,2.76-.15h.3l.56.38.06,1.3.08.85.39,2.76.82,5.5.06.65.15.91.2,6.23-.09,7.82,0,.94-.11,1.85h.32l.06.88V262l0,.52v.18l0,.85v.09l0,.53v.27l0,.14-.06.15-.09.09-.09.09-2.26.11-1.5.12-2.15.24-.08,0-1.65.17-.09,0-.59.06-.47.18-1.2.11h-.09l-.76.06,0,0,0,.12,0,.18-.06.11-.15.15-.24.12-.32,0-.09,0-1.58.2-.15,0-.12,0-.12-.08-.05-.09-.09-.12,0-.18v-.08l-.12,0h-.09l-2,.27h-.11l-.21,0-1.82.23-1.06.24-2.41.65-.21,0-2.32.62-.2.06-.39.06-.23-.21-.09-.47,0-.14-.15-.83-.11-.64-.12-.47-.33-1.56-.11-.5h-.06l-.27-2.41,0-.38-.17-1.47-.35-2.24-.06-.41-.18-1.15-.15-1.41-.11-1.17-.12-1.24-.33-2.88-.14-1.32-.12-1.09h-.06l-.12-1.29-.05-.38,0-.53,0-.15,0-.06,0-.47-.06,0v-2.94l1.08-.2.65-.12.47-.06,0-.15.24-.35,1.88-2.29L142,237l1.5-1.56,1.09-.41.65-.26h0l1.17-.42v0l.5-.17.12,0,.44-.15.12-.06,3.26-1.26,1.15-.44-.06-.12.82-.32.09.14,2.06-.85-.06-.15"/></g><g id="isole_40" data-name="isole 40"><path class="cls-1" d="M120.56,181.4l1.94.12.44,0,1.79.15.82.06-.08-.06.58.06,0,.11.5.06.5.06,1.39.24,1.17.2,1.35.24v0l2.21.29.53.09v.32l.38.39.73.2.39.27.23.14.53.33.12.44v.14l1.32.62-.06.12,1.44.85.47.3,0,0,.68.32-.18.35-.06.09-.14.82-.44,1.91-.27.42.21,3.26v1.26l-.06,2.65h-.06l0,.85h0l-.06.79-1.53.59-.29.21-1.53.85-2.15,1.2L133,203l0,0L133,203l-.06,0-.17.12,0,0-.06,0h0l-.59.38-1,.76-.79.68-.15.12-1.91,1.94-.32.35-.33.41-.32.41v0L127,208l-.21.23.32.24,0,0-.29.38-.06.09-.24.29-.94,1.29-.2.3-.53.73-.24.3-.44.61.15.15L123.2,214l-1.56,1.41-.08,0-.59.26-.62.26-.44.21-.21.09-.38.17-.38.21-1,.38-.71.18-.11-.41-.15-.47-.53-1.53-.29-.94-.06-.33L116,213l-.41-2.61-.24-.33-.08-.41-.53-2-.42-1.62-.29-.33-.76-.88-.06-.09-.09-.2-.35-.53-.15-.15-.88-1-1.3-1.52-1.91-2.12,0-.12-.17-.26.17-.41,0-.09,1.62-2.09,1.09-1.62.5-.7.85-1.24.41-.55,1-1.33,0-.09.09-.32.2-.29.06,0,1.44-2.38v-.06l0-.21-.09-.06.06-.09,0,0,.12-.53.35-.58,1.71-2.68.06-.06.79-.61h0l.68-.53.91-.89"/></g><g id="isole_41" data-name="isole 41"><path class="cls-1" d="M137.49,201.83l.7,1.44.3.62.14-.06.21.44-.12.06.36.74.5,1,.55,1.17.89,1.62.14,0,.15.29.32.42.24.35-.18.09V210l.77,1.08,0,.06.85,1.15,0,0,.12.14,0,.09,1.42,2,1.41,2,.85,1.5.41.76,1.53,2.65,0,0,.09.18.14.35.06.09.53.64.21.44.23.36.21.58.06,1.3h-.15v1.76l0,.27V228l0,.45.12,2.05,0,.8-.24.61-.23.15-.65.27-2.14.94-.06,0-.27.14-.09.06-1.85.91-.91-1.09-.18-.17-1-1-.91-.65-.53-.29-1-.62-.5-.18-.68-.29-.56-.26-.44-.24-.53-.35-1.56-.59-1.55-.56-.42-.15-.76-.29-.21,0-.73-.12-.12,0-.32-.23-.27,0-1.05-.44-1.94-1.12-.24-.12-.53-.14,0-.18H128l-.2,0-.18,0h-.2l-.18.06-.18,0-.41.18-.82.35-2.76,1.32-.39-.47-.26-.32-1.27-1.62-.14-.2-.56-.71-.15-.18-.5-.67-2.17-2.88-.39-.5-.55-.5.08-.18,0,0,.71-.59h.71l1.23-.67.09-.06.17-.09.09-.06.41-.2.21-.12,1.62-.88.14-.15,1.74-1.53.53-.7.58-1,.24-.27.26-.29.68-.71.06-.08.2-.21.92-1.26.2-.3.82-1.12.21-.52,1-1.45,1.18-.91.64-.5h0l.21-.11,1.47-.91,2-1.12,2.35-1.24"/></g><g id="isole_56" data-name="isole 56"><path class="cls-1" d="M88.25,174l.33-.21h.17l2,.77.79.35,1.92.88.23-1.09.68.21.06-.15.26.06-.06.15.71.14,0-.11.23.06v.08l.12.06,1.85.44.24.12,2.29.59.73.23,1.27.5.06,0,.26.12.27.15.49.2,1,.39,1.74.7-.32,2.09-.33,1.17-.06.36-.29,1.55-.41,1.77-.21.5,0,.09-.79,2.7-.38,1.18-.53,1.58-.15.36L102,193.4l-.15.38-.06.26-.26,1,0,.18-.09.29-.88,1.21L99,196.51l-.23-.09-1.47-.29-.71-.12-.62-.14-.2,0-.68-.18-.68-.06-.2,0-1-.32-.18-.09-.56-.2-1.64-.65.29-2.18.18-.73.12-.35.08-.36-.79-.11-.23,0-.48-.06-.85-.06-1.09-.24-2.29-.56h0l-.79,0-2.12-.3-.26,0,0-.14L81,188.9l-2.23-.26h-.18l-1-.12.27-1.71.14-1.06.27-.55.17-.42.74-1.55.23-.24.65-.91.62.32.38-.61.09-.12.41-.65.15-.29.38-.06.29.06.5-.88.27-.47.32-.5.85-1.09,1.24-1.09.29-.26.62-.53v0l.59-.71.23-.23.09-.09.44-.44.38-.41"/></g><g id="isole_57" data-name="isole 57"><path class="cls-1" d="M107,178.44l1.76.67,1.29.5,2.15.62,0,0,.23.09.53.14,0,0,1.41.59.8.3,2,.76-1.71,3.38-.15.24-1,2.05-1.3,2,0,.06-.17.41-1,1.59-1,1.56-1.3,2-1,1-1,1-.06,0-.3.33-.29-.09-.24-.09-.47-.41-.14-.09-1.77-1.62-1.64-1.14,0,0-.33-.27.74-1.94.7-1.91.24-.64-.06,0,.68-1.71.44-1.47v-.09l0-.5,0-.06.38-1.55.47-1.8.91-3.49h0l.12-.47"/></g><g id="isole_58" data-name="isole 58"><path class="cls-1" d="M78.73,189.52l3.2.2.65.18.23.06,1.09.23,1.18.24.35.06.44.09.06,0,1.06.18,1.7.3,1.21.32.59.15-.33,1.76-.35,1.15-.06.23.32.09,1.42.67,1,.42.3.14.15.12,1,.38.24-.44.12,0,1.26.3.18,0,.38.09,1.41.24,1,.15.21,0,0-.08.26,0,1.62.59.2,0L101,197l.23-.29,1.09-1.38,2,1.47,1.21,1.14v0l.32.36.06.06.29.32,1,1,1.47,1.67.94,1,.91,1.21.62.94.18.2.14.47,0,.12.47.79.12,0,.24.41.14.23.06.12.18.35-.06.06.56,1,.94,2.73v.53l.44,1.41.23.8.92,2.82.17.5.15.47.15.47-.92.76-.26.24-1.15.94-.35.09-1.12,1.26-.29.41-1.44,2.06-.15.24-1.64,2.26-.53.73-.24.36,0,.06,0,.08v.15l-.29.59-.09-.09-.71,1-.32.44-.26.27-.59,0-1,.56-1.74-2-.73-.82-.88-1.32.11,0-.67-1.21-.41-.56-.3-.44-1.79-2.29-.06-.09-.29-.41-.06-.06-.3-.29-1.2-1.24-.5-.26-1.79-1h0l-1-.5-.24-.12-.38-.17h-.06l-1.06-.24-.38-.15.06-.17-.71-.27,0,.18L90,217l-.21.74-.53.08-2.76.21-.41.06h-.18l-1.79.23-.53,0-1.21-.23-1.08-.3-.8-.2-1.11-.47-1.5-.74L77,215.27l-.26-.5-.32-1.88v-.15l-.06-.24-.3-2.11h-.2v0l0-1.56.29-.68.15-1.23.12-1,.2-1.18.09-.26.09-.32.12-.36.5-1.73.32-1.29.09-.3.06-.32.38-2V198l.06-.38.2-1.56,0-.29,0-.21,0-2.38V193l.12-1.83.12-1.64"/></g><g id="isole_59" data-name="isole 59"><path class="cls-1" d="M115.82,219.71l.12.14.18-.14.62.41.47.56.2.26.3.44,1.55,2,.21.29.06,0,.2.26,0,0,.14.18.15.2.56.68.17.26,1.15,1.62.24.29.11.15-.08.06.29.29.09-.06.5.59.11.15.3-.18,1.5-.94,1.09-.59,1-.35.53-.06.59.12.44.15,1.77.88.17.09.71.38.12,0,.17.09.15.08,2.06.62.32.09.38.12.65.2.91.3,1.56.64.41.21,2.44,1.29.73.42.68.38.53.47,1.23,1-.67.88-.27.38-.35.47-.47.53-.18.21-.73.88-.44.11-1.38,2.06-.36.44-.58.27-.74-.06-.62-.09-.55-.2-.15.47,0,0,0,1.59v.18h.12v.47l.11,1.73,0,.21.06.53,0,.23.32,3,.15,1,.12,1,.06,2.41h.06l.06.74.11,1.17.12,1.09.21,1.88,0,.41.09,1,.15,1.12.18,1.2,0,.39.41,3,0,.14.14,1.5.06.47.06.15.32,1.91.09.5-.23.06-.18,0-.5.09-.23.05-1.06.24-1.62.47-2.5.65-.17.08-1.09.27-.18,0-.7.18-.5.11-1.3.36-2.11.64-1,.3-.24.05-.56.18-.11-.06,0-.09-.47-1.47-.15-.47-.35-1-.44-1.14-.15-.33-.21-.64,0-.12-.52-1.56-1.3-3.76-.12-.29-.11-.33-.77-2.23,0-.21-.38-1.58-.76-2.91-.3-1.18-.88-3.26-.15-.65,0-.15-.58-2.41-.06-.17,0-.09-.18-.65-.23-.73-.44-1-.65-2.32-.18-.56-.09-.21-.08-.32-.3-1.15-.06-.2-.14-.45-.33-1.35-.17-.53-.24-.85-.59-1.85-.35-1.09-.35-.94-.41-.79-.65-1.12-.26-.35-.33-.41-.47-.53-.44-.5-1-1.15,2.68-3.32.73-1,.74-1,.35-.5.41-.44,1.09-1.12.67-.7"/></g><g id="isole_108" data-name="isole 108"><path class="cls-1" d="M423.88,299.16l.65-.53,1.09,1.44.08,0,.06,0,.12,0H426l.09,0,.11,0,.06.06.09.06,23.87,31.63.15.17.08.15v.15l0,.2-.05.12-.06.09-.09.06,1.12,1.5-.65.5-1.12-1.53-.15.09-.08.06h-.15l-.12,0-.06,0-.08,0-.09-.09-23.81-31.54-.3-.38,0-.09v-.24l0-.11.06-.09.06-.06.06-.06-1.06-1.44"/></g></g></svg>