<svg id="Livello_1" data-name="Livello 1" xmlns="http://www.w3.org/2000/svg" viewBox="0 0 540 540"><defs><style>.cls-1{fill:#b500b5;}</style></defs><title>icone sestieri5</title><g id="isole"><g id="isole_35" data-name="isole 35"><path class="cls-1" d="M95.57,303.17V303l-3.73-2.09,0,0-.06-.09v-.06l4.53-8.14.79-1.44.18.09,2.14-3.85.21-.3,4.32-7.85.09-.14.09-.15-.15-.06-.06-.15v0l0-.06,2.56-4.91.09-.21.79-1.56.76-1.79.89-1.67.17-.3,1.59-3,.76-.55.18-.3-.12-.17,4-6.94.06,0,3.94-6.35-1-.62.73-1.23.33-.5-.18-.09,3.35-6.38,1.65-2.47,3.73-5.47-1.09-.7.33-.5.14.09.83-1.3-.24-.14,3.24-6,6.49-10.26,5.79-9.91.47,0,3.21-5,.67-6.94.18-.23,1.76-2.53.53-.68,1-1.26h0l.06,0,0,0,0,.44-.06,0-.06.59v.58l.26.12.33.15.26.06.15,0,.12,0,.09.06.08.12.09.18,0,.09.06.41.06.09.12.2.17.44.18.88,0,.3.23-.06.15.65H154l.47,1.17-.29.09,1,2.35V198l.44-.18.09.21-.42.17.33.68.29-.12,1.65,4h.14l.68,1.59.56,1.47,1.79,4.46-.59.27,1.44,2.88.86,1.68,1.2,2.41,1.18,2.35,2.35,4.73.2-.09.06.15-.17.09.09.14.17-.06.68,1.36.23.5.15.44,2.18,6.61-.15.06.09.29.14,0,.27.95.29.85.12.5,1.06,5.44.26,1.64.09.5L173,245l1.23,7.47.15.11.35.53.06.21.5.38L177,255l2,1.47h.12l.24.12.2.18.15.14.53,1.09.12,0,.41.86.35.79,2.47,5.47-.06,0,1.24,3.08.23.68V269l-.06.14-3.76,2.15-.82.38-1.09.53h0L176,273.75l-.06-.06-.15.09-.06,0-.29.12V274l-3,1.56-2.56,1.56-.23.15-.68.35-.23.12-.94.55-.86.42-1.44.61-1.2.56-.21.06-.32.18-.3.2-.11.24-.06.17,0,.21.2,0,1.44,4.32.12.56.24,1,.11.62.59,5,.35,2.86,0,.32-.17,0v.29l.67,6.59H167l.35,3.76H167l0,.12h-.18l0-.09-1.67.2v.09l0,.06h-.44l0,0,0-.06-1.38.12-43.74,4.41.44,3.91-2.32.29-13.79-7.67-.17.09-.27-.15,0-.17L96,303.23l-.14.09-.24-.15"/></g><g id="isole_74" data-name="isole 74"><path class="cls-1" d="M410.57,300.14,412,300h.26l.24,0,.26-.06.71-.09.73-.06,0,.06,4.94-.38v0l2.23-.18h.12l1.44-.12.27.06,3.41-.23,0-.06,1.91-.12v.09l.79-.06,5.09.27,2.47.11,2,.09,5.24.41,0-.29,2.23.15,0,.35,1.44.09.24,0,.08,0,0,.05.09.09.06.06,0,.06v.21l0,.08-.06.09-3.32,2.44-7.91,5.68-2,1.38L431.11,313l-2,4.61-8.46,10.5-.5.65-.62-.5-.47-.59-.29-.35-.09.05-.06-.17.09-.06-.65-1.5H418l-.09-.15.09,0-.23-.58-.09-.21-.09,0-.06-.18.09,0-.32-.79-.09,0-.06-.18.09,0-.33-.79-.05.06-.09-.21.09,0-.33-.76-.06,0-.05-.18.05-.06-.32-.73-.06,0-.09-.18.09,0-1.23-3.14-.15-.53-.38-1.33-.27-1.11,0-.06v0l-.38-1.5-.35-1.47.12-.09,0-.12-.3-1.23-.09-.06h-.17l-.33-1.35-.05-.38-.06-.15-.59-2.44-.06-.29-.12-.53-.09-.36-.08-.41-.91-3.44,0-.5"/></g><g id="isole_75" data-name="isole 75"><path class="cls-1" d="M409.24,300.14l.27,1.15.56,2.56.11.5.06.23.09,0,.12.53,0,.06.23.47.09.29.06.24.06,0,.2.91.3,1.27.06.17.09.38.64,2.86.12.49-.06,1v.71l.35-.06.15,1.06.21.82,0,.27.59,1.32.56,1.18.32.85.5,1.41v.06l.15.38.77,2,.5,1.2.11-.08.21.47.15.32-.15.09,1.32,2.94.56,1.2.41.71-.2.26-1.42,1.77-1.47,1.7v0l-.38.5-5.23,4.35-1.2.76L407,340.8l-3,1.85-6.91,4.17-.38.21-.06.18-.82.38-.24-1.09-.14-.79-.21-1.24-.65-4.05-.64-4.18,0-.65-.53-3.79-.5-3.23-.12-.91-.44-2.85-.2-1.27-.33-1.94-.12-1.32-.05-.5,0-.41,0-.24-.38-3.17-.09-.74-.5-3.82-.06-.32-.24-2-.14-1v-.14l-.15-.48,0-.08-.06-.33-.12-.73-.06-.44-.05-1.06h-.12l-.12-1.62.12-.2,0-.21.41,0v-.15l1.12-.14,0,.17.35-.05,1.53-.27v.09l1.09-.15,1.14-.15.71-.08.17,0h.3l.23-.06,2.41-.18v.09l.89-.18,0-.14,2.7-.53,2.56-.5.06,0,1.17-.06,2.88-.21"/></g><g id="isole_76" data-name="isole 76"><path class="cls-1" d="M383.58,303.52l1.09-.17.67-.09.36,0,1.56-.18,1.26,0,.26,2.23,0,.59.09,1.23,0,.27.41.53.06.23.15.47.29,2.56.24,1.88.23,2.26.24,2.21.17,1.94.06.7.15,1.68.15,1.82.11,1.76.21,2.39.09,1.14.06.88.17,2.18.09,1,.24,2.91.23.62.24,1.67.26,2.41.15,1.5.47-.06.18,1.15.05.5h0l.18,1,.32,2,.09.41.3,1.06-.5.23-.18-.09-.35.15-1.65.5-1.59.53-6.4,1.29-2.36.32-.29.06-2.35,0-.59-.05v.17l-.76-.12,0-.14-6.85-.94-6.62-.89-.2-.05-1.33-.18-1.11-.15-1.36-.23-1.2-.24-1.82-.32-2.18-.41-.88-.27.26-.61.89-2.8.64-2,.53-1.64h0l.12-.38h0l.62-1.92.35-1.08.35-1.15.53-1.32.35-1,.06-.18.74-2.17.12-.27.14.06.68-1.59.2-.58.71-1.83.09-.38.15-.41.23-.71.21-.58.11-.33.24-.56.29-.82.12-.26.26-.8.21-.58,0-.12.09-.35.94-2.56,1-2.59h.23l.3-.23h.67l.09,0,2.74,0,2.49,0,1.74-.06,2.5-.09,1.67-.09,1.74-.09,1.41-.09,1.7-.14.3,0,1-.09.11-.06.09-.12,0-.7,0-.33.12-.41,0-1.47,0-.44,0-.5v-.41l-.3-2.82-.06-.38-.32-3.8"/></g><g id="isole_77" data-name="isole 77"><path class="cls-1" d="M358.74,302.79l.06-.15.06-.06.15-.08,0-.06.5.11,0,.18.61.12,0-.21.44.09.27.06h.44l0,0,3.38.15.06-.15,1,.18,0,.14,1.15.24,0-.15,1.42.27.08.08.21.06.09.12v.09l-.06.09.38.14.5.06,0-.23.59.06,0,.23,1.32.06,0-.2,0-.15.44.06h1.24l.41,0,.35-.09,0-.33.47-.38,1.12.06H376l1.11,0,.44.41V304h-.23v.14h.09l.09,0h.5l.05,0,.53.06.15,0,.44,0,.12,0h.15l0,.12h.17l3.41-.56.3,3.15.06,1,.23,2.76,0,.06,0,.26v.06l0,.94v1l0,.39.06,0v.18h-.06l0,.32-.06.21-.06.15,0,.06-.09.08-.12.09-.06,0-.06,0-.26,0-.3,0H381l-.53,0h-.58l-1.24,0-1.09,0-3.32.09h-4l-.67,0-.35,0-2.68-.32h-.09l-.64-.06-.06,0h-.18l-.09.32-.82-.18-.21.86-.11.44-.36,1.14-.67,1.94-.09.21-.88,2.35-.12.41,0,0-.56,1.56-.79,2-.15.32-1.12,3-.23.41,0,.12-1,2.41-.59,1.53-.09.18-.08.17-.24.56-.32.77-.33.79-.08.29-.71,2-.09.21-.56,2.29-.41,1.29-.06.18-.38,1.12-.47,1.47-.7,2.08,0,.09-.24.65-.68-.18-1.47-.47-2.82-.88-3.26-.94-1.76-.53-.18-.06-1-.29.18-.88.17-.89.09-.41.15-.53.67-2.85.09-.62.12-.61L344,335l.41-.92.17-.5.24-.58,1.59-3.85.7-1.71.18-.44.62-1.76.26-.71.27-.65.2-.47.88-2.05.62-1.41.26-.53.95-1.86,1.14-2.26.71-1.38,1.32-2.59,0-.08.26-.62.15-.12.06,0,.12-.26.35-.65h.06l1.47-3.15.2-.44.24-.47,1.29-2.76"/></g><g id="isole_78" data-name="isole 78"><path class="cls-1" d="M321.56,280.21l.09.09,1.76,1.59.65.62,0,0,2.14,2.47.91.91.15,0,.12.09.32.41v.09l0,0,.94.94-.08.11.47.44,2.91,2.33-.06.14-.21.3-.47.7-.82,1.27.7.44,1.5-2.24,1.41.89,1,.7.74.47.47.3.61.41,1.21.79.24.12,0-.06h.06l.33.21,0-.06.23.11.76.42.24.11-.15.33,1.21.85-.77,1.47,1.06.53.85-1.62.24-.44,2.79,1.32,1.24.53.11-.23.62.26-.09.24,1.74.7,0,0,3.08.94.36.12,2.23.7.38.15.33.09,1.5.85-.71,2.88-.15.47.18.06-.15.5-.06.27-1.11,2.35-.15-.09-.56,1.18-.2.44,0,.06-.24.52-.15.18-.26.32-1.44,1.8-.5.67-1,2.33-.38.91-.77,1.79-.82,2-.76,1.91-.83,2-.73,1.76-.18.5-.62,1.76-.23.68-.18.5-1,2.68-.35,1-.76,1.91-.15.88,0,.26-.06.59-.44,1.38-.76,1.74-.09.23-.18.47-.41,1.3-.29.82-1-.3-.15-.05-2.38-.71L333,341h0l-1.85-.56-1.44-.44-.12,0-3.08-.88-.15,0-2-.32-1.5-.35-.06.06-1.05-.24-.3-.06-.06.09-.08.06h-.15l-.71-.21,0,.06-.09.06-.08.06-1.74-.53-.09-.06,0,0,0-.09,0-.11-.91-.24.12-.41-1.73-.44-2.15-.5-1.76-.5-3.59-1,.06-.18-.38-.11L303,332.74l-.85-.26-.56-.15-.21-.06,0,0,0,0-.08-.11-.06-.09,0-.12,0-.15v-.11l-.91-.27.38-1,1.65-3.61,1.67-2.83.18-.26,0,0,.53-.91,2.14-3.65-.06,0,.18-.27,1-1.65,1.18-3,.94-2.36.41-1.55h0l.53-1.8-.09,0,.09-.26H311l.55-2,.09-.7.06-.39h-.18l.09-.64.18,0,.15-1.36.08-.67.3-1.24-.12-.06.15-.44h.06l.56-2,1-2.68-.26-.09.21-.62.29.06.65-1.82L315,293l.44-.94-.08,0,.17-.41.06,0,1.09-2.73.15-.33,1.41-3.58,0-.06.47-1.47.17-.56.59-.62,1.85-2,.18-.06"/></g><g id="isole_79" data-name="isole 79"><path class="cls-1" d="M318,281.39l-.2.68-.86,2.94-1.17,3-1,2.39-.5,1-.5.85-.3.53-.2.53-.71,2.11-.53,1.53,0,.18-.58,2.41.08,0-.14.61-.09,0-.62,2.59h0l-.64,2.5-.09.71-.18.44-.94,3.11,0,.15-.76,1.91-.42.91L305.42,318l-.59,1.11-.67-.41-1.71,2.79,0,.12-1.73-1.11-1.88-1.21L297,318.1l0-.2-.2-.06-1.62-.88.06-.15L291.66,315l-1.23-.59-.53-.23-2.7-1.24-.12-.12-.44-.14-3.09-1.44-.29-.12-1.15-.44-.29-.06.11-.71,1.77-4,2.08-5.53,0-.06.11-.47h.06l.59-3-.06,0,0-.41,0-.06h.06l-.12-2.56h0l-.06-.35.09,0-.29-4.26-.06,0-.06-.35h.06l-.44-1.62-.24-.59-1.2-4-.3-.59-.14-.3.44-.29.09,0,1.35-.68,1.2-.61,2.18-1,.23-.09,1.59-.65.68-.17.23.64,1.85,4.27.3.44.23.29,1.3,1.29.5.59,1.44.5.06,0,1.32-.15-.41-1.14,1.38-.74,1.67-.56.47-.2,3.21-1,.53-.15v-.14l2.32-.45,4.5-.35,2.44-.12,3.14.18"/></g><g id="isole_80" data-name="isole 80"><path class="cls-1" d="M316.56,269.46l.47,1.14.21.5.61,1.5.12.24.09,0,.21.56.23-.09,1.09,2.55-.06,0,.71,1.91.52,1.33-.61.35-.91.56-.62.2-.5.18-1.18.06-2,0-1,0-3.27.15-1.06.08-1.58.15-.91.06-.5.09-1.62.53,0-.21-1.21.35.06.15-.35.15-1.47.56-.5.2-.44.18-1.59.82-1.64.91h0l-1.09.62-1.85-2-.24-.26-.17-.3-.94-2.06-.12,0-.12-.29.09-.06-.47-1.09-.5-1.38-.18-.53,3.76-1.91.68-.38,1.15-.59v0l1.82-.88.29-.09,1.8-.59.58-.17,1.83-.53.32-.09,1.85-.35.18,0,1.23-.3.27-.06,1.73-.44,1.12-.29.76-.18.94-.23,2-.44,2.06-.41"/></g><g id="isole_81" data-name="isole 81"><path class="cls-1" d="M301.54,323l-.82,1.44-.33.5-.5,1.27-.17-.09-1,2.82-.32.71-.39,1-.7-.24-.06.09-.15.15-.09.05-.14.06-.09,0-1.5-.5-6.79-2L285,327.25l-1.47-.44.09-.36-.47-.14-.09.35-5.7-1.74.09-.35-.74-.2-.11.35-10-3.12,0,.06-.32,1.18-.09.17-.27.83,5.41,1.41-.56,2-18.25-5.29.65-1.83,5.05,1.5.33-1.14,0-.09.35-1.3-7.56-2.55-3.88-1.15v0l-.52-.15-5-1.08-.06,0-1.35-.33-.06,0-1.65-.35-.09,0-.14,0-.39.12-.82-.18-1-.2-2.94-.62-.32-.09,0-.67.12-4.74.11-2.29.12-1.56,0-.61-.26-5.12,0-.35-.15-3.29L232,289.62l-.41-.7-4.17-5.8-.3-.32L223,277.75l-.24-.3-.5-.59-2.64-3.7.06-.09,2.88-3.35h0l2.79-2.35.62-.53,2.61-2.18,1.91-1.41,0,0,1.8-1,1.32-.73-.06-.15.85-.47.06.12,1-.53,1.32-.73,1.65-.77,1.5-.7,3.08-1.44,2.33-1,.76-.42,2.09-1,1.73-.82,0,.06,1.82-1.26,1.68-1.15.94-.62,1.88-1.35,0-.06,1.44-1.26.27-.27.5-.5,1.76-1.7,1-1.56.06-.2.62-1.36.41-1,.53-1.26.52-1.44,0,0,.11-.41.09-1.18.24-1.35v-.32l.23-1.47.27-1.62.08-.82,0-.06,0-.27v-.11l.21-2.15,0,0,.06-.59.14-1.11,0-.41.62-.74.41-.35.27-.21.14-.12.77-.38.62-.17,2.11-.12,1.41-.12,1,.09,1.12.29,1.09.33v.05l.7.5.62.42.47.32,0-.06,1,.5.06.09.35.17-.09.15.83.38,1.35.68-.27.56.18.09-.12.29,1.47.59.56.2,1.29.5.77.33.67.26-.06.06.71.29.32.18.56.29,1.12.56,1.59.89h0l.2.05v.06l.3.09.26.09,0-.06.12,0,1.41.5.38.09.41.17,1.77.65.11.06.74.26.67.39.59.2.32.15.36.12,1.09.29,1.44.35h.26l.79.09.12,0,1.56.06,3.09.09,6.2.15.23,4.32.41,3.26.06.5.18,1.7H312v.15l.17,1.32-.23.06.11.44.27,1.41.35,1.45.09.26.23.94.24-.09.44,1.65-.23.09.2.67.21,0,.14,1.15h.27l.26.06.21.17.06.15.12.8,0,.08,0,.12-.09.21-.12.17-.18.06-.14,0-.09,0,.14,1.15-.85.11,0-.11-4.58.7,0,.21,0,.09-.44.06-.15-.06,0-.24-3,.44V261l-1.85.24,0-.06-4.44.85-4.14.79,0,0-.41.09v0l-1.94.35-.5.09-.59.24-.41.11-.59.15-1.47.24-5.62.94-1.61.23-.53.12,0,.15-.59.09v-.12l-.15,0h-.08l-.53.17-.12,0-4.23.83v.05l-.33.09,0-.09-1.94.36-2.53.64,0,.09-.32.09,0-.09-.91.21-1.15.56-1.11.35-.3.09,0,0-2.85.7-1.47.42-.29.05-2.12.53-.73.15h-.12l-.06-.06,0-.12-1.41.3-.65.12-1.94.5-1.29.35-1.38.23-1.06.39-3,1.08-.64.24-1.53.59-1.56.58-.35.18,0,.47.55-.29v.08l.15.59-.12,0,.09.24.15,0,.09.29,1.2,3.65.41,1.2.59,1.82.35.42.15.29-.2.09.67,1.91.18,2.35,0,.24.17,2.32,0,.38.06,1.18,0,.35.06.59v.23l.06.27-.12,0-.09.11-.14.21-.09.2-.06.3,0,.29,0,.35,0,.36v.29l0,.3v.17l.06.06.06.09.32,0v1l-.32,0,0,.35-.09.15-.06.14-.06.18,0,.18,0,.14v.18l0,.21v.2l0,.18,0,.15.09.2.12.18,0,.09.18.05.12.8-.06.56v.55l.85.15,1.5.21.27,0,1.88.29,2,.5,2.32.59.29.06,1.24.29H260l0-.09,1.62.15,1.56.44.26.21.53.06,3.94,1.38,0,.09,3.94,1.47.27.14.29.15h0l2.64,1.29-.29,1.15,1.5.62,1.41.53,1.38.55.06-.17.12-.21.15-.06.17,0,.18,0,.76.33.09.08.09.15,0,.15v.17l0,.09,0,.09.94.38.5.27.35.14.12-.26.94.38-.06.3,2.44,1L286,315l.5.23,0,.15,1.29.53.18-.41.41.18-.2.44,1.29.58-.09.3,1.44.67.15-.32,5.11,2.47.5.29,1,.47-.17.33,4.17,2.17"/></g><g id="isole_82" data-name="isole 82"><path class="cls-1" d="M314.27,260.64l.06,0,.17,1.64.15,1.47.06.21-.06.29.06.18.5,1.17.68,2.53-1.21.36-2.29.61-1,.27-3.18.85.06.21-.38.08-.06-.23-1.76.44-1,.29-1.38.39-.77.08-.5.15-1.29.38-1.85.68-.21.06-1.2.44-1.18.56-.38.29-2.59,1.32-1.64,1-.53.24-.68.44-1.62.71-.79.26-1.44.56-.85.2-2,1-.15.06-.85.41-.38.39-.77.53-.29.11-1.32.56-1.62.53v.06l-1.32.26-1.5.18-.06-.06h-.35l-1.09.3-.71.29h0l-.47.18-1.06.5-.58.26-1.8.76-2.32.92.12.26-.94.56-1.56,1-.21.09-1.05.56-2.77,1-.56.06-.23.09-2.29.5-1.18.15-2.09.14-.67.09-3.68.5-.11-1.23-.06-.38-.38-3.53h0l-.17-1.53-.15-1.26-.09-.65-.09-.32-.11-.06-.33-.88-.88-2.27-.44-1.17-.32-1.09-.33-1.09,1.56-.59,2-.82,1.94-.5.32-.09,1.8-.67,2.61-.62.12-.06.65-.12,2-.41,1.32-.26v-.06l.5-.09,0,0,3.29-.71.44-.11,6.12-1.86.14-.06.3,0v0l.11,0,0,.06,5-.83v-.09l.56-.05,0,.05,2.32-.32.59-.09.7-.14,0,0,3.65-.86.7-.17,0,.09,2.5-.65,2.15-.41.73-.21v0l.38-.09.53-.29,1.15-.38L294,264l2.7-.47.79-.15.92-.15,1.61-.29.91-.15.86-.17,1.67-.27.5,0,1.79-.14,2.86-.5,0-.18,1.64-.29,1.62-.27,2.15-.26.32,0"/></g><g id="isole_83" data-name="isole 83"><path class="cls-1" d="M282.7,282.45l.09,0,.14,0,.09,0,.09.06.06.09.09.23.29,1.18.06,0,.09.35-.06,0,.73,2.59.15.61,0,.12.41,1.91.06.32,0,.15.09,4.26,0,0v.33H285l-.09,2.11.06,0v.38h-.09l-.09,1.59-.67,2.47.06,0-1.53,4.59-1.82,3.67-.36.65-2.76-1.15-1.88-.79-2.35-1.15-.88-.44-7.21-2.53-1.58-.44-.3-.15-4.91-1.08-.29-.06-3-.71h-.06l-.29-.06-3.56-.56-.61.09-.06-.53v-.08l-.12-2-.06-3.68,0-1.53,0-.82,2.29-.38.82-.12,3.44-.47,2.41-.44,1.62-.41,0-.06,1.88-.82.8-.33L265,289l.53-.26.59-.32,2.06-1.12,2.32-1.18,1.2-.64,1.45-.68.11-.06v0l.41-.18.45-.26.64-.35,5.62-1,2.32-.59"/></g><g id="isole_84" data-name="isole 84"><path class="cls-1" d="M168.41,291.53l-1.29-3.79-.18-.44-.7-2-.18-.53-1.15-3.06.15-.53.09-.2.41-.33L168,279.6l1.41-.74.12-.12.64-.38.21,0,.71-.47,2.35-1.61.73-.36,5.15-2.29.58-.32,1.92-.83.73-.32,1.06-.32,2.61-1,.33-.21.17-.32,0-.32-.26-1.68-.21-.68-.41-1.32.06,0-.12-.32-.09,0,0-.12-2.21-6.23.09,0-.12-.38-.09.06,0-.12-.06,0-.23-.71,0-.14.09-.06.06-.06-1.77-3.73-2.23-2.71-.06-.06-.18-.58-2.85-4.83-.29-1.44-.24-1.52,1.68-.56,3.61-1.33,2.15-.82,1.73-.65.71,1,1.09,1.5.2.33,1.15,1.64.59.8.41.73.88,1.65.35.73,1,2.3.36-.15.58-.24.36-.17,2.5-.71,2.73-.67.7-.18v-.12l1.39-.29,2.35-.71,5.2-1.53.18,0,.35-.08,1.88-.65.53-.18,1.62-.41.29-.12,2.47-.67,1.73-.5.8-.21v-.09l4.41-1.41.06.15.55-.18.5.12.94,1.29.12,0,.33.47.35-.24,1.41,2.06-.35.23.35.5-.09.06.56.8.09-.06.29.47.8,1.17,1.61,2.27,3.24,4.38,1.32,1.76.67,1,.24.67-.12.09L229.05,262l-.47.38-4,2.85-.61.53-.68.68L222,267.66l-2,2-1,1-.62.74-.61.73-.71.65L216,273.87l-2,1.29-2.44,1.41-.35.21-.85.5-1.09.55-2,.65-.32.12-.8.26L206,279l-1.5.53-1.23.44-2.24.38-3.53.62-2.7,0-4.26.06h-.41l-.59.12-4.12.88-.5.06-.11.09-.24.14-.85.5-.36.21-1.44.91-7.05,4.88-1.76.94-.5.21-2.15.88-2,.76"/></g><g id="isole_87" data-name="isole 87"><path class="cls-1" d="M187.14,239.39l.5-.24.17-.06.06-.09.53-.17,10.23-3.47,1.35-.44,1.06-.36,2.79-.91,4.85-1.67v0l.65-.21L226,226.16l.14-.06.62-.18.12.3.06.26.17.53v.06l0,0H227l.64,2.41.71,2.56.06.23,0,.12,0,.12v.17l-.06.06-.27.24-3,2.38L223,237l-.18.09-.53.41-.12.09,0,.06L220.06,239l-1,.62-.18.12-.35.15-1.47.44-.21.11.15.33-.91.38-4.5,1.26v0l-.32.06v.06l-.47.15-.32.12-3.06.88-.35.09-.36.08-.41.15-1.47.44-.32,0-11.29,3.32-.41.15-.38-.06-.27-.2-.2-.27-3.27-5.47-1.55-2.52"/></g><g id="isole_88" data-name="isole 88"><path class="cls-1" d="M223.73,216.4h.06l.56-.18.06.24.7,2.67h.06l.21.8-.06,0,1.09,4.35h0l.06.23-.68.24,0,0-.09.06-1.17.44-3.41,1.11-7.26,2.44-.65.21-8.17,2.7-4.79,1.47-.56.18-.12,0h-.15l-.38-.71-1.32-4.14.06-.06-.94-3.11,1.2-.42,3.77-1.32.82-.26,3-1,1.61-.53.33-.12,3.17-1,.38-.15,1.56-.5,1.26-.41,3.59-1.11,3-.94.53-.18,2.67-.94"/></g><g id="isole_107" data-name="isole 107"><path class="cls-1" d="M224,238.62l1.56-1.23,3.73-2.91,0-.06.2-.3.24-.23.21-.32.08.08.12-.11.85-1.27.8-1.09.88-1.14.15-.24,2.17-3,.3-.38,2.14-3,.18-.2-.09-.06.09-.21.06-.09-1.65-.73-1.06.15-.32.7.47.88-.94,2-.59,1.27,0,.06-.09,0-.35.61-1.18,1.65-.14-.06-.3.59-1.11.41-.33-.85-.94-2.47-.17-.59-.12-.5-.21-.68-.38-1.23-.26-.91-.94-3.76-.12,0-.15-.59.15-.06-.8-3-.38-1.44-.29-1.12-.09-.47-.21-.53.39-.08.17-.06.12,0L226,212l1.11.09.71.35,2.44,1.12,1.88.85,1.65,1,.7.41,2.15,2.29,1.73,1.86,2.06.94,1,.38.7.18,2.5.49,12.79,2.53.5.12,1,.21,2.17.17,2,.18,0,.85-.11,3.85h0l0,.35h0l0,.65-.06.47-.18,1.47h.06l-.06.38-.06-.06-.56,4.8-.14.41-.47,1.76-1.12,2.18-.35-.12-.06,0-.68,1.38.3.35-.77,1.47L255,248.17l-2.73,1.74-6,3,0,.08-.47.24-.06-.09-.74.35-.79.39-1.35.64v.06l-2.06,1L238.05,257l-.94.39-.53-.59-.27-.3-2.52-3.41-.39-.5-3.73-5.05-.15-.15,0,0-.26-.44h0l-4.18-5.59-1-1.26-.45-.62,0-.06.33-.79"/></g><g id="isole_125" data-name="isole 125"><path class="cls-1" d="M169.41,306.14l-.44-4.88h-.18l-.55-5.55.14,0-.06-.62,1.06-.15-.06-.47,1.24-.73,1.56-1.36,2.17-1.32.44-.23,1.82-1.21,1.42-1-.06-.09.41-.29.06.09,3.08-2.12h0l1.5-1,.06.06.59-.41,1.2-.53.12,0,4.53-.2.06-.06-.12-1.47.06-.06.26,0,0-.09.59-.06,3.18-.23h3l3.26-.3,5-.79,2-.71-.06-.11.8-.3,2.32-.85,0-.09.82-.32,1.89-.85,1.11-.56.77-.59,3.61-2.62,1.06,1.5.56.85,1.06,1.18.64.71.59.52,1.62,1.92v0l.15.18h0l.44.65.7.94.18.23.12.24.91,1.29,1.5,2.24.06,0,1.7,2.61.38.59.65.74.32,1,.94,3v0l.27,5.24V302l0,.32v.53l0,.12-.09,2.23-.38,4.79,0,.24-.3.91-.2.64-1.29,4.09,0,.09-.06.06h-.15l-4.17-1.3-.12.12-.35-.09-.06-.17-6.35-2-.12.09-.32-.09,0-.15-3-.91-.09.09-.38-.12,0-.12-2.94-.94-.12.12-.35-.09-.06-.18-3.12-1-3.41-1-.79,2.52-.2.74-5-.85.06-3.41-4.59-.18-.12.15-.32,0-.09-.15L189,307l-.09.15-.35,0-.12-.15-2.82-.11V307l-.5,0,0-.14-3.59-.12v.15l-.5,0v-.15l-4.47-.21-3.44-.14-2.23-.09v.06l0,0,0,.06-.38,0,0-.06v-.09l-.68,0v.06l-.2,0v-.12l-.12,0"/></g></g></svg>