<svg id="Livello_1" data-name="Livello 1" xmlns="http://www.w3.org/2000/svg" viewBox="0 0 540 540"><defs><style>.cls-1{fill:#b500b5;}</style></defs><title>icone sestieri7</title><g id="isole"><g id="isole_109" data-name="isole 109"><path class="cls-1" d="M180.36,223.63l.15,1.35-.15.94-.23.94-.36,1.47L178.13,234l-.74,2.38,0,.15-.14.55-.06.12-.18.62-.21.73,0,.06-.15.5-.53,1.71-.38,1.17.09,0-.36,1.27.41,0,.18,0-.15,1.24-.88-.06-.44,1.38-.12.15-.47,1.62-.26,1.26-.12.71-.09.52-.06.62-.14.65-.09.65-.5,1.38-.06.2-.06.09-.47,1.53.56.15-.15,1.85-.35,1.38L171,262.72l-2.41-.7-1.73,9.55-.12.5-.06.3-.17.38-.15.2-.21.21-.29.26-.35.21-.44.18-.59.17H164l-.38-.06-.18-.08-.24,0-1-.27-.08,0-.21,0,.09-.41-2.23-.65-.09,0-1-.26-.12-.06-.68-.2h-.08l-7.88-2.06-.59-.15.09-.59-1.62-.67-.5-.18-.38-.12h-.21l-.38.15-.12.24v0h-.08l-11.56-1.94-.23,0-3.68-.61.06-.33-5.76-1,0,.21-.67-.09-3.53-.38-.65-.09-.26-.06-.62-.11-1.68-.42-3.08-.73-.77-.15-2.7-.64-1.88-.45-.3-.11-1.2-.33-.18-.08-1.17-.65-.06,0-.41-.24-.36-.26-.38-.41-.09-.09-.05-.12-.09-.14-.12-.18-.18-.27-.2-.47-.21-.79v-.23l.06-.45.09-.67,2.09-6.41,1.29-3.94,1.38-4.14.12-.36.14,0,.06-.2-.11-.06.76-2.38.82-2.41.24-.65.7-2.09v-.08l.3-.53.67-1.15,1.77-2.7,1.7-2.38.27-.3.79-.79,8-1.77.21,0,3.85-.92.06.18.68-.15-.06-.11.53-.12-.18-.62,1.32-.32.44-.74.71.41.91-.17.06.06.26,1.08,1.36-.35-.24-1.06,2.73-.61,3.33.14v.27l1.08.09,0,.17,4,.27,1.91.11,2.33.24.7.06,0-.68.79.06-.08.65,3.29.2,0-.2,1.17.06v.2l2.85.21,1.47.09.06-.06,2.18.11,3.32.21,3.64.24,3.86.23,6.52.53"/></g><g id="isole_110" data-name="isole 110"><path class="cls-1" d="M110.49,264.78l0,.56,2,5.38,1,2.53,1.17,2.94.33.76.41,1.06.32.79,1.59,3.94.06,0,1.17,2.88-.2.09.41,1.44,0,.09.06.15.06.14.26.33.06.35.2,0,.15.71.5-.09.09.38.35-.06.41,1.56-.26.09.12.38-.36.09.09.32-1.85.56v.09l-.09,0,.62,2.61.06.18-.38.09-.18,0-.44.06V295l-2.21.12-1.73-.24h-.73l-.21-.09-.09-.05-.23-.15-.15-.15-.12-.23-.06,0-1.5.5.09.44.18,1-3.06-.06v-.06l-.62-.06,0-.18-.64.12-.18-.06-.26,0-.24-.06-.21-.08-.29-.21-.44-.29-.21-.09-.23-.06-.44-.24-.21-.11-.23-.06-.56,0-.32,0-.27.06-.32.12-.38.08-.33.06-.26-.06-.24.06h-.5l-.17,0-.12,0-.09.06-.09,0-.09-.09,0-.14.09-.15.09-.24.15-.29.09-.29,0-.27.06-.35v-.38l-.11-.3-.09-.09-.06,0-.29-.09-.42-.12-.2-.09-.12-.09-.15-.17-.11,0-.06,0-.24,0-.15-.09-.2-.09-.24-.06-.17-.08-.36-.12-.38-.15-.35-.09-.44-.06-.59-.26-.56-.21-.32-.11-.35-.18-.12,0h-.12l-.09.06-.17.12-.18.11-.18-.11,0,.08-.11-.05.09-.18-.09-.15-.12-.29-.21-.35-.11-.12-.12-.06-.24-.09-.23-.06-.32-.06-.24-.08h-.35l-.12-.06-.09-.12-.12-.12-.17-.09-.36-.06-.38-.08-.32-.09-.29-.15L90,288l-.5,0-.26-.09-.39-.15-.26-.06-.56-.09-.44-.09-.53-.14-.41-.12-1.18-.41h-.29l-.15,0-.11-.06,0,0-.15-.09-.12-.11-.12-.21-.08-.15,0-.41.06-.35.14-.62.09-.23v-.12l-.06,0,.06-.21.15-.5.09-.26.47.15.79.23.68.18.82.26,5.88,1.65.61.17.56.18h0l.06-.06v0l.12-.26,0-.15.23-.5,0-.09.06-.06.12-.23.12-.32.17-.42.21-.55.09-.24v-.18l.11-.35.09-.32.09-.15.09-.15V282l0-.33v-.32l0-.12.15-.64.08-.18.18-.21.21-.49.11-.3.12-.32.06-.24.76-1.32.09-.21.18-.5.12-.23.23-.65.41-1.23.12-.41.15-.39.12-.47.2-.61.27-.8.14-.5.24-.7.17-.56.12-.35.09-.36.21-.85.26-1.09,0-.08,0-.12v-.68l0-.91v-1.38h-.06l.06-.15.18-.56,0-.14.29-.15.27-.35.76-.44,2.44.55.09.06.5.09.17,0,.65.24.06,0,.76.23,1.3.3.26.14.27.06,0,.35,1.26.09"/></g><g id="isole_111" data-name="isole 111"><path class="cls-1" d="M132.51,268.43l.94.67.41,1.21.09.23L135,274l1.42,2.83.52,1,1.33,2.79,1.88,4.2.23.5.15.38-.09.41-.64.53-.47.24-.77.23-.65.12-1.05.27-.45.14-1.2.36-1.68.55L129.39,290l-.65.18-.85.23-1.35.15-.71-.09-.26-.08-1.27-.59-.52-.47-.45-.83-.2-.53-.35-1.35-.36-1-.53-1.47-.32-.58-.41-.83-.5-.82-.35-.62-.83-1.32-.5-.77-.2-.38-.15-.44-.73-1.85-.47-1.29-.39-1.21-1.23-4-.24-.79-.5-1.44-.2-.65,0-.26v-.09l0-.15,0-.11v-.09l.06-.12.11-.21,0-.05.12-.09.18-.09.09,0,5.41,1.2.88.15,1,.15,1.67.23,4.15.41.88.09,3,.24"/></g><g id="isole_112" data-name="isole 112"><path class="cls-1" d="M134.92,268.57l.23,0,.15-.17,8.61,1.88,6.2,2.17v0l5,1.71.3.15,1.64.61,2.79,1.09,1.06.35.85.42,1,.41v.14l-1,.24-1.14.47-1.91.62-.3.09-.7.26.06.53-1.33.59-1.52.58-2.24.86-.2.06-1.59.58v0h-.24l-.23,0-.38.06-.39,0-.14.06-.12.09-.27.26-.32.18-.65.12-.73.06-2.76.29-1.38.47-.53.12-.15,0-.06,0-.06,0-2.17-4.06,0,0-.62-1.17-.06-.15-.32-.59,0,0-.82-1.5,0-.06-.24-.47-.23-.44-.47-.73-.06-.12-.62-1.17-.15-.15-1.32-3.15-.06-.23-.29-1.3"/></g><g id="isole_113" data-name="isole 113"><path class="cls-1" d="M213,231.54l-.47,1.17-.47,1.12-1.32,4.35-1.36,4.32-1.88,5.41-.29-.12-.12.3-.21.58.12.06-.56,1.5.21.09-2.09,5.7-.09,0-.08.24.14.06-.5,1.38-.2-.09-.41.74-.18.5-.21.58-.11.44-.06.12-.36,1,.21.06-.41,1.44-.21-.06-1,3.29-.35,1.09,0,0-.88,2.76-.23-.08-.71,1.94-.79,2.29-.86,2.76,0,0-1.77,4.68-1,2.64-.17.44-.09.3,0,.35-.06.29-.56.21-.09-.18-.32.36-.24.23-.17.06-.3.09-1.67.32-.35.32-.15.21L190,287l-3.2-1.89-.12,0-.38-.18-.5-.38-.06,0-.76-.39V284l-1.86-1-1.64-.8-3-1.73-1.53-.79-.68-.53,0-.09,0-.27.09-.23.27-.62.09-.38.05-.35,0-.33.15-.38.21-.26-1.12-.62,4.44-12.17L182,259.4l.26-.64.21-.59.58-1.56,1.3.44.14-.41-1.17-.41,1.12-2.79.26-.8.12-.38-.12,0,.09-.32.15,0,.58-1.88-.11-.06.14-.44-.09-.06,2.44-7.94-.44-.12.53-1.55,2.65-8.35-.12,0,1.68-5.68.06-.11,0-.09h.09l.77.26,0,.12,10.52,3.29.68-.7,5.9,2.11.56-1.52,1.91.61-.47,1.53.71.21"/></g><g id="isole_114" data-name="isole 114"><path class="cls-1" d="M214.72,232.18l1.33.47.08-.14.15,0,1.59.53-.06.2L220,234l.24.08,3.53,1.24.56.23,2.47,1.12.41.24.64.29,1.86,1,1.49.79,0-.44L241.71,244l7.38,3.67,3,1.62.24.15-.09.14-.35,1-.09.83-.53,2.35-.21.88-.17.74L250.5,257l-.27,1.06-3.06,12.46-8.23-2.26-.67-.2-3.18-1-.11,0-.47-.18L231,265.46l-.53-.21-.73-.29-.27-.12-.5-.18-.15,0-1.94-.65-.08.32-.74-.23.09-.33-1-.32-.12.32-.61-.2.08-.35-.58-.18-.12.32-3.59-1.09-.67-.2-3.38-.85,0-.36-2.14-.55-7.88-2.06,2.68-9,2.11-6.64.41-1.29.5-1.88.47-1.33.77-2.2.09,0,.52-1.33.48-1.11.23-.44.35-.83"/></g><g id="isole_115" data-name="isole 115"><path class="cls-1" d="M236.39,309.64l-.24-.06-1.7-.56-.15-.06-3.2-1-.21.41-.35-.17-.18-.12-1-.2-1-.39.06-.14-3.2-1.15-.21.71-.17,0-1.47-.62.29-.94-.12,0v-.09l-1.38-.47-.44-.29-1.18-.53.12-.24-3.41-1.53L214.93,301l-.59-.3.18-.32-.8-.41-3.44-2.29-.26-.18-.24-.06h-1l-.2-.23-.24-.33-.29-.32-.35-.24-.3-.17-.29-.21-.32-.17-.3-.18-.38-.18-.35-.17-.27-.15-.23-.15-.27-.17-.17-.21-.27-.24-.32-.17-.3-.06h-.44l-.41,0h-.85l-.56,0-.41-.09-.65-.26-.32-.24-.32-.26-.39-.27-.38-.23-.38-.24-.29-.23-.33-.24-.38-.29-.32-.24-.59-.5-.35-.38-.21-.26-.12-.21-.17-.32-.18-.44-.09-.38,0-.33,0-.44,0-.41,0-.38,0-.62.09-.26.09-.36.15-.26.14-.24-.2-.11.23-.74.5-1.23.47-1.12.18-.35.21-.3.11-.32.09-.18,0-.17,0-.18.35-.79.91-2.21-.23-.12,2.29-5.46-.5-.21.5-1.32,1.24-3.35.61-1.71.5-1.26.27-.77.15.06.67-1.73-.12-.06.06-.21.12,0,.06-.17-.09,0,.32-1.15.12-.44.06-.15,1.71.53,5.35,1.65,2.35.73,7.14,2.18,7.35,2.2,1.06.39.61.2,2.71.94.38.15.47.18h.15l.61.2,0,0,6.24,2,5.49,1.88v.12l-.14.44-1.8,6.88-2.58,9.79-2.15,7.82-1.23,4.52-.18-.09-.32,1.18-.21-.09v0L237,307.2l.09.06-.67,2v.08l-.06.27"/></g><g id="isole_116" data-name="isole 116"><path class="cls-1" d="M271.1,313.87l-1.91.09v.15h-.35l-.27,0-1.52-.18-.15,1-.06,0-.09.85-2.56-.44-.14,0-.09,0-.82-.2-3.68-.59-.38,2.47-1.68-.24-2.88-.47.15-1-.68-.08.15-1,.62.09.06-.48-3.21-.49-.5,2.46-1.5-.08-1.2-.24.12-.65-3.35-.67-.18.85-1.18-.23.39-1.71-2.12-.41v.09l-.21-.06v-.09l-.76-.15-.06.09-.18,0v.06l-.38-.06v-.06l-.2,0v0l-1.09-.2.26-1.38-.23,0-.56-.44-.15-.06,1.68-6.85-.15-.06,1.85-6.5.47.24.3-.47-.62-.35,1.73-6.18.71-2.35.68-2.76.11-.71,2.18-8.55.44-1.65.15-.44.53-2.73,2.85-12,.14-.5.47-2,1.18-3.85.15-.5.26-.77,0-.12,0-.14.09-.12.12,0,.14,0-.2-.12.06-.14.11-.44.65.2.68.3.08,0-.11.36.73.23,5.91,2,6,1.56,5.35,1.38,3.73,1.18,3.17,1,7.32,2.33,3.91,1.26,1.24.35,4.32,1.36.41.14,0,.06V264l-.15.56-.06.23-.79,2.68-1.73,5.14-1,3.26-.53,1.68-1.5,4.64-.18.56-.17-.09-.5,1.62-1.36,3.56.12.06-.35.88-.12,0-1.53,3.5-.76,2-1.09,2-.15.23-.32.62-.5.65-1.56,1.7-1.58,1.71-1.68-.24-3-.21-.59,0-.91-.26-.59-.18-4.11-.55-.09.44-.12.64,5.68.68.61.09,3.56.7v.12l-.18.24-1,1.38-.5.88-.14-.09-.18.27-.12.2-2.17,2-.65.91-.32.44-1,1.77.29.14-.47,1.12-.09.2-.26.68-.24.38-.29.33-.21.2-.17.12-.27.12-.7.17-.68.09"/></g><g id="isole_117" data-name="isole 117"><path class="cls-1" d="M299,264.28l5.49,1.33,1.71.38,5.5,1.26,5.26,1.3,2.08.58,3.83,1,1,.21-.12.76-.06.09-.41,3.06-.5,2.29-.68,1.71v0l-.06.21.77.18-.24,1,.12.05-.18.92-.11,0-.21,1.08-.76-.11,0,.26.26,0-.06.5-.26,0-.24,1.65.18,0-.09.64.24,0-.06.35-.39,0-.23,1.82.65.12-.09.5-.24-.06-.06.7,0,0-.11,1.06-.36,0-.11,1.06-.71-.15-.91,1.24-.06,0-.06.12-.32-.18-6.26-1.12-7.26-1.73-.83-.06,0,.53-.74-.06,0-.56-1.32-.06-.06.24-.24,0v.35l-1,.15,0,.26h-.73l0-.26-1.38-.12-.91-.09-.42,0-.61-.06-2.12-.29-1.88-.44-.88-.21.91-3.29,1.14-3.56.42-1.26L295,277l2.32-7.52.15-.47,1.2-4.06.15-.5.06-.12.15-.06"/></g><g id="isole_118" data-name="isole 118"><path class="cls-1" d="M307.93,316.31l-.47.18-.29.12-.59.17-.29.06-.21.06-.47,0-.23,0-.3,0-.38,0h-.35l-.5,0h-.38l-.39,0-.32,0h-.38l-.5,0-.53,0-.5,0-.56,0-.47-.06h-.47l-.23,0-.42,0-.73-.06-.56-.06-.65-.06-.35,0-.47,0-.53-.06h-.17l-.09,1.08H295l0,.09-.88-.09,0,.42-.74-.09,0-.41-.88-.09v-.09h-.09l.12-1.06-.91-.09,0-.29-1.26-.12-.12,0-8.94-.79V315l-3-.29-.29.14-.38-.2-.06,0-.47-.41-.24-.36-.11-.44v-.5l.08-.44.27-.67,1.41-3.44.38-.74.3-.44.88-1.44,1-1.12.35-.38,2.5-2.79,2.2-2.21.39-.38.82-1,.53-.5.11-.17.06.05.21-.29.35-.53.41-.56.24-.44.15-.29.47-.77.26-.47.29-.56,1.33-3.17,3.64.71,1.62.05h.41l6.17.77,5.62.7,7.35.83.29,0,.06-.12.38.09-.17.41-.3.85-.2-.06-1.36,3.35-1.64,3.88.09.06-.36.94-.09,0-2.46,6-.65,2.15L309,314.4l-.12.41-.11.41-.15.39-.06.23-.09.12-.17.12-.18.14-.18.09"/></g><g id="isole_119" data-name="isole 119"><path class="cls-1" d="M382.33,318.87l-5.38-.56-2,.18-1.61.17-.33-2.11,0-1.74-.06,0-.94-.06.12,1.47,0,.3.15.85,0,1.44-.47,0,0-.15-2.06.21-3.41.67-2.47.5-.18.27-.2.09-.21.09-.26.05h-.32l-.3.06-.47.12-.41.06-.32,0-.44.06-.45.06L360,321l-.44.05-.23.06h-.18l-.24,0-.29,0h-.76l-.3,0h-.23l-.36,0-.58.06-.53,0-.33,0-.23.09-.27.11-.26.12h-.24l-.26-.09h-.15l-.26.06-.15-.06-.73-.2-.33-.09-.35-.18L352,321l-.24,0-.23,0-.36,0-.2,0-.12,0-.06.06,0,.09-.09.06,0,.15h-.18l-.06,0-.12.05-.17.06-.18,0h-.26l-.18,0-.24.12h-.14l-.33-.18h-.08l-.33,0-.17,0-.39-.11-.32,0-.41,0h-.35l-.27-.08-.23-.24-.24-.09-.23,0h-.24l-2.17.15-.06-.09-.5.18-.12-.06-.15-.09-.12-.12v-.14l0-.24-.61-.06-.3-.2-.53-.09-1-.15-3-.44-.68-.09-.35-.09-.09.56-.76-.08.08-.65h-.08l.32-2.29h-1.71l-.17,0-.21.11-1.79-.11-.12-.09-.2-.15-.27-.12-.38,0-.32-.06-.24,0-.41.12-.18,1.3-7.29-.77-.53,0-.94-.12-4-.47-.23-1.55,0-.8.06-.47.29-1.47.18-.67.41-1.41-.15-.09.3-1.24.11-.26.18-.21.09-.26.53-1.38,0-.12.5-1-.12-.06.59-1.73.2.06.53-1.62.15-.38,3-8.85.17-.15.3-.67,1.56-4.3,1.2-4.55.18-.68,1.32-5.76.79-3.32.15-.53.24-.71.82.24.17-.15,1.71.15,1.7.18-.14,0L335,273l.64.12,5.59.68.65.09.17.08,1,.39.18,0,.61.05,1.18.15,2,.21.65.06,2.85.32,2.41.29h.23l1.88.12,1.77.12,8.7.62h1.53l1.05.05,1.3.09,1.29.09,3.24.24,1.29,0,10.2.21,1.06,1,0,.21h.41L387,280h-.47l0,.53,0,1.12.17.08-.06,2v.74l-.11,2-.3,4.58-.29,4.56,0,.32-.18,3.2-.12,1.15,0,.82h-.06l-.06,1.94v.47l-.18,1.86-.12,1.5,0,.26-.11,1.56-.06.82-.18,1.41-.15,1.59-.17,1.44-.74,2.88-1.38,2"/></g><g id="isole_120" data-name="isole 120"><path class="cls-1" d="M489.51,218.25l1,1.71.42.58.38.74v.2l0,.68.06.82,0,.68.14.62.18,0,.18,1.35.14,1.12v.35l.06.73v.06l0,.56.09,1.24.35,1.61-.29.06-.44,0,0,1.26v.89l2.38-.47.11.79-.38.06.15,4.88-2,.26.24.36-.33,3.9-.06,1.06-.09.62,0,.29-.08.86-.09,1-.06,1-.12,1.17-.15.8-.11.88-.21.06-.35,1.14-.24.88-1.5,6.15-.91,3.7-.23.94-.35,1.91-.33,1.59-1.06,4.09-.26.73L484.74,277l-.32,1.18-.5,2-1.32,1.55L480,284.45l-.2.23L477,287.5l-2.73,2.74-5.35,4.85.15.15-.94,1.08-.89.8-3.67,3.76-1.41.94-1.06.56.32.65-.14.35-.77.32.21.41.5.91-1.53.71-1.88,1,.12.23-.5.27.08.18-.14.23-.56.35-.88-1.17-.88.47-.33.14-1.29.65-.41.21-.53.23.26.59-6.85,2.68-.2.17-.15-.56-2.76,1.27-.21.09-2.41,1.11-6.76,3.09-1.32.12-5.12.5-2.79.26-.18,0-4.29.32h-.14l-3.21.27-.09,0-11.9,1-10.58.79-6.85-.79-.47-.33-.36-.47-.17-.32-.06-.59-.06-.67-.09-2.15.09-.76-.38,0,.09-.88.11-1.18,1-8.5.42-3.08.05-.83.06-.38.06-.35.06-.68.15-1.55.53-4.88.61-6.15.21-1.35.06-.94-.91.09.5-2.65.59.27v-.15l0-.29-.09-.42-.09-1.49-.06-.42-.09-.17.5-1,3.06-1.44,2.17-1.06.83-.41,2.5-1.15,3.08-1.5.56-.29,1.18-.59.47-.09,2-.5,3.74-.91.23-.06,1.12-.29.41-.09.24-.06,4-1,.44-.11.73-.24,1.65-.91,5.08-2.82.59-.41,6.29-3.47.12-.15.06-.32,0-.18,1.29-.73,1.88-1.12-.15-.24,2.83-1.64.14.23,1.3-.76.29-.15,6-3.64.11-.06.5-.3.09-.05,4.44-2.47-.09-.33.09-.23,1.73-.94-.2-.24.26-.23,1.24-.68.17.35,5-2.67,2.77-1.56.2-.12.5.18,6.61-4.91.53-.41,4.06-3.09,5.17-3.91,2.33-2,2.08-1.76,4.06-3.44.7-.59.89-.79,1.88-1.62.26-.2.83-.68"/></g><g id="isole_121" data-name="isole 121"><path class="cls-1" d="M79.13,282.1l-.15.47-.24.82L76,284.77l-4.2-1.62-1.74-.7-.61-.09-.12-.06-.15,0-.09,0-.06-.06-.5-.23-.14-.12-5.73-2.91-.15-.09-.53-.23-.41-.24-.44-.2L60,277.6l-.44-.15-.33-.26L59,277l-.29-.26-.3-.24-.65-.35-.47-.3-.52-.26-.59-.27-.47-.2-.53-.24-.44-.2-.59-.24-.38-.23-.56-.24-1.12-.53-.56-.26-2.23-1.06-.15-.12L49,272l-.33-.14-.62-.41-.14-.12-.38-.18L47.2,271l-.14-.06-.27-.09-.41-.24-.29-.17-.12-.18-.21-.32-.09-.21-.05-.29v-.53l0-.5v-.32l0-.24v-.26l.09-.33.18-.29.2-.32.21-.33.18-.26.17-.24.24-.32.09-.27,0-.2.12-.24.06-.14.27-.3.11-.14.42-.3.2-.2.21-.15.2-.21.47-.29.21-.06.17-.06.3-.12.23-.11.18-.12.29-.24.33-.29.41-.29.29-.27.44-.32.3-.24.38-.32.26-.21.24-.17.32-.27.36-.26.41-.3.26-.2.24-.18.26-.23.12-.09.29-.24.27-.2.41-.3.18-.11.17-.09.15,0,.26,0,.3-.06.23-.06.3-.09.23-.14.24-.15.26-.21.18-.14.26-.18.27-.15.17-.08.33-.21.38-.09.18-.09.29-.11.35-.18.24-.15.32-.29.32-.3.3-.08.59-.24.23-.15.32-.2.39-.27.35-.17.2-.18.3-.18.17-.17.12-.18.21-.12.17-.11h.09l0,0h.06l0-.06.06,0,.06,0,.14-.09.18-.09.24-.09.17-.08.18-.09.23-.12.27-.12L67,252l.23-.09.18-.09.14-.09.12-.06.18-.09.32-.17.24-.12.14-.06.09-.06.12,0,.06,0,.17,0h.09l.09,0,.15-.09.23-.06.09-.06.21-.09.26-.12.35-.17.21-.09.29-.15.36-.17.32-.15.32-.15.27-.12.29-.14.32-.15.53-.26.36-.12.23-.15.35-.15.42-.17.17-.06.18-.09,0,0,.12,0,3.32-1.38.32-.15.15-.06.12,0,.11-.06.18-.06.15-.06.08-.09.09,0,.15-.14.26-.27.18-.12.09-.09.12,0,.08,0,.09,0,.06,0,.18-.06.12-.06.08-.06.41-.26.09,0,.06,0h.06l.09,0,.06,0,.09,0h.08l.09-.06.09-.09.09-.06.09-.06.11-.08.09-.06.06,0,.06,0,0,0H83l.11,0,.21,0,.09,0,.14-.06.12,0,.21-.08.06-.06.11-.09.06-.09.12-.09.15-.12.17-.11.06-.06.15-.12.12,0,.14-.09.09,0,.15-.08,0,0,.09-.06.2-.18.12-.15.12-.08.12-.06.08-.09H86l.09-.06.12,0,.12-.06.08,0,.12-.09L90,240.06l.41-1.09,3.15,1.42v0l.06.09.06.33,0,.44,0,.38V242l0,.41-.06.38-.12.5-.12.42-.06.35-.2.53-.27.62-.44,1.14-.23.65v0l-1.36,3.5-2.43,6.2-1,2.26-.45,1.21-.73,1.91-.56,1.53-.2.55-.27.53-.09.39-.14.58-.18,1.12-.06.59-1.09-.21.39.5.94.21,0-.09H85l0,.12.24.06,0-.09.09,0,0,.06.2.05,0-.05.09,0,0,.05.91.21-.23.94-.85-.23v.05l-.15,0V269l-.24-.06V269H85l0-.06-1.2-.3-.88.33-2.41,8.49-.59-.17-.06.14-.18-.06-.41,1.47.18.06,0,.18.59.15-.85,2.88"/></g></g></svg>