<svg id="Livello_1" data-name="Livello 1" xmlns="http://www.w3.org/2000/svg" viewBox="0 0 540 540"><defs><style>.cls-1{fill:#b500b5;}</style></defs><title>icone sestieri1</title><g id="isole"><g id="isole_60" data-name="isole 60"><path class="cls-1" d="M258.71,153.51l4.18.67,2.47.39,1.17.17.77.12.76.15,1.7.32.83.35.53.24.7.29,1,.44,1.41.68.3.15.2.09.38.23.24.26.15.39v.06l.14,1.47,0,.29.12.85.29,2,.18,1.32.06.44,0,1-.09.47-.06.77-.09.67-.08.59-.09.82-.12,1-.21.86-.05.23-.12.47-.06.33-.06.23-.65,2.35-.11.47,0,.09-.5,2-.21.5-.26,1.29,0,.27-.09.47-.12,3.09v.32l-.06.79,0,.24v.11l-.17,2.89.29.11,0-.11,0-.06.06-.06.06,0,.09,0,.08,0h.09l.65.23h.12l.05.06.06.06,0,.06,0,.06v.09l0,.06v0l.06,0-.12.39,1.3.67.26.15,3.09,1.73-.71,1.15-.29.41-.06.12-.29.44-.86,1.32-.14.3-.86,1.29-.14.21-.24.41-.5.76-.5.8-.23.38-.12.2-.68.94-.11-.08-.3.47-.29.41-.32.47-.89,1.23.12.06-.35.44-.12-.06-.85.92-.44.44-.09.08-.06.09-.88.77-.3-.12-.23-.12-1.38-.67-2-1.24-.74-.47.09-.09-.94-.61-.35-.21L263,201l-.23-.17-.68-.53L259.65,198,257,195.63l-.44-.47-2.83-3-1.61-1.76-.12-.15-.29-.32-.06-.09-1.35-1.64-1.24-1.62-.09-.12-.38-1.06-1.82-2.23-.59-.74-.73-.85-1.33-1.62-.56-.64.68-.71-.18-.17-.06-.09v-.24l.53-.56.42-.44.11-.08.24,0,.12.05.17.15.74-.79h0l.12-.21.2-.29.44-.65,1.65-2.61.41-.65.26-.44.3-.44.12-.24.58-.91.09-.09.15-.17L253,167l.29-.32,3.27-4.71.23-.47.06-.32.12,0,.64-2.79,1.09-4.88"/></g><g id="isole_61" data-name="isole 61"><path class="cls-1" d="M293.34,247.75l.18-.06h.08l.09.06,0,.06,1.41,3.91.09.2.47,1.74.06.17.09-.06.79,1.21.3.76-.21.15-.26.09-3.12,1.44h0l-2.09.94-.06,0-3,1.35-.15.09-.06-.15-3.09,1.47v0l-3,1.38.3.71-1.09.5-.06,0-2.2,1,0,0-.21-.5,0-.06-1.17-2.56-.27-.67-.35-.89-.59-1.41-.29-.73-.18-.59-.09-.32,0-.18,0-.47,0-.38.06-.27.06-.29.09-.27.06-.2.12-.24.11-.26.21-.32.29-.21.24-.18.44-.17,4-1.47,1-.36-.09-.23.88-.35.09.23,2-.7,3.94-1.44L293,247.9l.38-.15"/></g><g id="isole_62" data-name="isole 62"><path class="cls-1" d="M270.59,204.83l.94.47,1.88,1,1.26.56,1,.44.47.15,1-.27,0-.06,1.53.18,1.82.88.3.18,2,1.32.5.33.35.23.06,0,1.5,1-1,3.2-.21.65-.41,1.23-.15.8v.29l-.06.38h0l.21,1.47.12.92.29.5.3.49.61,1.06-2,1.71-1.29.91-.68.47-1.26.91-.06,0,0,0-.23.18-.68.41-.06,0-1.91,1.26-.32.15-.53.38-.24.18-1.08.73-.71.5-.32.24-1,.73-.06,0-.29.18-.18.12-1.38,1-1.85-2.08-.15-.12-.59-.41-.59-.3-.32-.11-.09,0-.62.09-.91.2-.26,0h-.15l-.2-.06-.39-.11-.38-.24L264,229l-1.29-1.41-.15.12-.64-.68.14-.11-.88-.94-.06,0-.5-.47-.06,0L258.42,223l-.3-.33-1.58-1.79-.12-.15-.5-.53,1.91-2.41.06,0,.85-.71-.2-1.29-.36-.71.3-1.53.2,0,.15-.56-.24-.08.18-.8.12-.06,1.76-1,.8-.47.76-.17.41-.18.33-.15v0l1.91-1.29.23-.2,1.18-.8,1.06-.7,1.08-.68.3-.21.5-.35.44-.32.11-.09.83-.56"/></g><g id="isole_63" data-name="isole 63"><path class="cls-1" d="M280.91,190.49l2.23.23,1.67.15.15,0,1.3.12.11-.24.56.12.27-.79.58-.09,2,.26.06,0,.24.06.82.23.56.21.23.06,1.41.53.83.47,1.73,1.59.56.5.24.41.05.09.77,1,1.06,1.47,1,1.41,1.08,1.5.47.64-.5.41.42.42.79.82,1.38,1.44.68.67,1.23-1,.56-.45.47-.35.94-.5,1.21,0,.29.12.21.06,1,1.32.11.12.27.29.2.3-.05,0,.17.35h.06l.26.59,1.24,3.85,0,.15v.67l.09.12.44,1.88.26.62,0,.12,0,.26h.06l0,.32-.09,0,.12.24.15,0,.11.41,0,.09,0,.15-.14,0,0,.2h.09l.09.41.47,2,.12.5.23.74.24.85.79,2.79,1.18,4,.5,1.82.64,2.21,1.18,4,.06.33.06.32.85,3-.06,0,.65,2.44,0,.09.2.7,0,.12.09.29.29,1.21.3,1,.38,1.35,0,.26,0,.15-.06.18-.09.14-.08.12-.12.09-.59.24-.18.08-1.7.74-.15,0-.29.12v0l-2,.83-.15.06-1.23.53-.15,0L312.21,249l-.15.06-.64.27-.15.08-.71.3-.17.06-1.68.73v0l-.2.12-.15.06-.68.29-.17.06-.62.26-.21.09-.58.27-.18.06-1.06.44-.2.09-.59.26-.24.06-5.2,2.23-.18.09L298,255l-.06.06-.17.06-.12-.39,0,0-.06-.14-.38-1.38,0-.06,0,0-.09-.12-.24-.59-.29-.7-.18-.47-2.41-6.91-.82.35.65,1.56-1.41.53-3.91,1.44-3.94,1.44-1.94.7-.94.36-1,.35-4,1.47-.32.12.08.2-2.26.86.06.17-.85.35.91,2.33-.21.11.27.71.41,1.06.12.32h0l1,2.65.48,1.23.82,2.12v.06l.2.56-.35.14.06.15-2.41,1.09-1.71.58-.55.3-.15-.3-.35.15.2.44-4.61,2.12-.06-.06-.27.09-.11.12-.09-.06-.06,0-.15-.47-.38.17.26.56-.23.09,0,.12-.59.29-.41.15-.12-.27-.23.09.08.18-2.05.88-.18-.56-.26.09-.06,0,.29.65-.32.11-.09,0-.12.06.24.53-2.68,1-.35-.85-.88.32,0-.06-.06-.15-.38.09,0-.12-.21,0,0,.11-.29-.14,0-.06-.15-.09-1.18-3.12-.23-.58-.88-2.12L255.1,266l-.59-1.56-.85-2.14-.74-1.82-.09-.21-.11,0-.47-1.88-.45-1.79H252l-.32-1.36-.21-.91-.29-1.58-.38-1.89-.18-.76-.44-.76-.21-.47-1.5-2.62-1.11.56-2.8-1.18-.38-1.06-.12-.29-.14-.35-.06-.27-1.15-3.94-.2-.58,0-.21-.77-2-.67-1.76-.21.06-.32-.94-.09-.5-1.18-1.94-.14-.24-.62-1,0,0L236.87,228l1.91-.82,2.59-1.12,1.06-.26,1.56.06,2.52-.12.56,0h.09l.71,0H248l1.88-.5.06,0,.24-.11.29-.12,1.3-.56.82-.38.85-.53,1.15-.94.59-.53.08-.09.33-.41.32.38,1.65,1.85,2.14,2.41.06.06.56.59,0,0,2.76,3,1.24.73.2.12.36.24.82.47,2,3.14.14.21.15.06h.18l0-.12,0-.15.09-.09,1.61-1.29.18,0,.12.06.08.09.24-.09.29-.06H271l.15,0,.06,0,.05,0,.15-.09,1.41-1.12.06-.06.06-.05.18-.18.35-.24.09-.06.29-.23.24-.15.64-.5,1.3-.85.32-.21.7-.41,1.62-.91.65-.38.32-.21.38-.2,0,0,.53-.5,1.59-1.29,1.38-1.12,1.53-1.24.73-.58-.38-.77-.47-.94-.23-.53-.39-.85,0-.29-.09-.53.06,0-.06-.24.09,0-.15-.35.18-.09-.06-1.12h0l.23-.73.27-.79.11-.33.09-.26.41-.94.65-1.5.65-.44-.89-.8-.38-.35-.35-.29-.88-.71,0,0,0,0-.35-.23-.24-.21-1.38-.88-1-.68-.5-.32-1.35-1-.68-.53-.17.3.05,0,0,0,0,0v.09l0,0h-.08l0,0-.06-.06,0,.09-1.06.38-.5-.11h0L275,206.1l-.47-.12-2.62-1.38,1.56-2.71-.18-.12.5-.88.21.09.06-.12.11-.55.65-1,.24-.36.14.09.47-.79,1-1.62.12-.18.12-.14,1.91-2.74.12-.17.35-.53,1.09-1.59.53-.76"/></g><g id="isole_64" data-name="isole 64"><path class="cls-1" d="M243.13,179.55l.33.71,2.55,3.32.33.41,1,1.32.85,1.15.35.47,1.5,1.79,1.21,1.44.14.24.27.35.09.15.17-.09.47.71,0,0v0l.59.74.24.26.52.62.47.56.92,1,.17.18,0,0,.77.67.35.41.38.44,1.09,1.06.73.71.5.47,1.41,1.44,1.71,1.76.23.24.56.26.15.21.09,0,1,.5.44.23,1.12.59.58.3,1.5.85-1.41,1.58-.62.45-.08.08-.12.06-1.09.77-.65.41-1.55.88-.39.15-.35.17h0L259,210.86l-.24.23-.35.24-2,1.44.94,3.11-.15.45v0l-.11.45-1.53,1.64-.83.59.12.18-.35.29-.24.21-.17.17-.53.41-.18.18-.53,1.91-.09.15-.11.09h-.09l-.71.67-.35.21-1.7.67-.06,0-.24.06h-.06l-1.26.15-.3,0-.91.09-.41,0h-.53l-1.67.11-1.94.15-.38.12-.48.12-.38.11-.91.3-.18,0-.49.23v.09l-.18.09-.68.29-.44.18-1.94.91-.85.38-1.85-2.05-.71-.86-.47-.59-1.82-2.26-.09-.15-.2.12-.56-1-.24-.47h0l-.23-.47,0,0-1-2,0,0-.36-.79-.2-.53.26-.17-1.06-2.3-.38-.56-.12-.26-1-2-.89-1.73-.29-.53-.27-.36-.61-.76-.12-.12-.62-.53-.11-.09,0-.05-.76-.71-.44-.41-.71-.41-1.58-1.3-.5-.41-3.18-2.64-1.32-1.09-1.38-1.71.53-.26-.06-.15,0-.17,0-.18.12-.15,1.11-.64.18-.12,1-.56.12-.06.32.44.79-.44.27-.15,2.32-1.35.35-.17-.06-.12.09-.06.88-.5.15-.09.5-.29.09-.06.23-.12.06.15.77-.44.09-.06.52-.32.09.14.3-.14.08,0,.77-.44v-.18l.32-.18.18-.09.32-.17h.15l.06.06.82-.44.06,0,.73-.39,0,0,.12-.06.15-.09.68-.38v-.12l.05-.06.09-.09.83-.47.08,0,.06,0,.09.06.74-.44.11-.06.27-.15.59-.38.05,0-.26-.47.47-.32v-.18l.5-.32.15-.12.06-.06.41-.23.17-.12.47-.29.39.17,1.55-1.11.09-.06.44-.33.12.15,2.7-1.94,1.83-1.29.73-.53.15-.12.68-.5.08-.06.68-.5.09-.06.06.06.5-.35.14-.12"/></g><g id="isole_65" data-name="isole 65"><path class="cls-1" d="M173.47,253.19l-.38.47-.53.64-.18.24-2.12,2-.29.29-.56.56-.12-.12-.17.18.09.14-2,1.71v.06l-1.38,1.12-.33.26-.23.18-2.38,1.88-.86.67-1,.8-1.49,1.14-.8.65-.32.27-.82.64-.77.62h0l-2.59,2.06-.55-1.8h0l-.33-1.08-.2-.59-.59.15-.3.05-.08-.5.38-.08.44-.15-.62-1.82-.17-.44H152l-.06-.06-.06-.09-.06-.24v-.11l0-.09.09,0-.21-.65L151,259.3,150.6,258l-.77-2.59v-.06l-.05-.29.05-.35.15-.06-.15-.65-.05,0-.59-2.47h0l-.06-.26-.09-.45-.15-.5-.08-.38-.92-.73-.41-1.5-.35.12-.15,0-.11,0-.09-.12-.09-.06-.06-.12-.2-.82-.06-.18-.18-.76,0-.06v-.06l0-.09.06-.09.06,0,.12-.09.23-.06-.21-.77.18,0-.18-.74,0-.29-.06-.36-.15,0-.06-.53h.15l-.12-.82-.06-.26-.65-3.38-.14-1.71-.12-1.09.38-1,.85-2.17-.2-.09.2-.41,1.74-2.56.12-.06,2.61-1.73.18-.09.7-.35,2.36-1.18.11-.09,1.06-.55-.06-.12,0-.15.24-.12-.06-.08.18-.09,0,.06.42-.21h.14l.09.15,2.06-1.12-.06-.12.12-.06.2-.11.36-.21h0l.05.09,1-.53.15-.06.35-.15-.11-.2.55-.32.24-.15,1.09-.62,0,.06.76-.44.09.12.65-.36-.09-.14,1-.59.08-.15h.3l.5-.23.06.14.38-.17.59-.3-.09-.17.62-.27.06.18.58-.3.27,0,2.58-.8.47-.17.27-.09,2.73-1.21.09.12,1.59,2.91,0,0,.23.5,1.65,3.64,1.41,2.65,0,1.29,0,.27,3.91-.47h.44l.33-.15.05.09,1.44-.68,1.77-.85,1.76-.82.15.23.59.91.2.33.94,1.5.06.11.12.18,1.88,3,.27.47.52.82.77,1.21.53.76.5.74,1,1.47.08.14.18.24,1.56,1.61.88.94,1.38,1.83.27.38.08.12.36.47-.41.41-.06.06-1,1-.59.59-2.35,2.55.17.21-.44.53-1,3.08-.2.83-.41,1.38-.5,2-.59,2.14v.06l-.12.3v0l-1,3.24-.06.14-.88,2.91-.29,1-.18.62-.79,2.76h-.09l-.06.27-.09.32-1.17,4.38-.33,1.18-.61,2.88-.21,1-.23.94-.5,2.12-.09.32-.09.47-.35,1.65-.12.7-.09.41-.15.88-.85-.11-.79-.15-.06.21-.38-.09-3.06-.44-1.91-.18-.74-.15-.7-.2-1.41-.36,1.17-3.61.09-.32.65-2.3.35-1.47.06-.26.79-2.79.3-1.24.44-1.88.2-.88-.61-.21-.06.12v.06h.06l-.09.23h-.06L179,271.7l-.55,2.06h.05l-.5,1.85h.06l0,.15-.58,2.24-.56,1.73-.15.41-1,3.59-1.23-.5-.06.17-1.06-.44-.38-.17-.18-.06-1.17-.5-.15-.06.06-.18-.21-.09,0,.09-.23,0-.33-.06-.29-.08-.24-.09-.29-.12-.29-.18-.21-.2-.15-.18.06-.18-.44-.17v0l-.44-.18,0,.12-.26-.15-.77-.41-.23-.12.12-.23-.09-.06-1.24-.23-.17-.18,0-.12.11-.2,0,0-.06-.06v-.09l.14-.32.71-1.27.15-.26,1.14-2.06.33-.56,1.52-2.82.18-.32.71-1.44.23.08.3-1.41.14,0,.09-.47.24-.41.23-.53.09,0,.18-.26,0-.33h.21l.5-.64,1.76-2.83,1.8-2.82.14-.23,2.27-3.62-.33-.2-.11.17L174.82,254l0,.09-.65-.41-.67-.44"/></g><g id="isole_66" data-name="isole 66"><path class="cls-1" d="M173.7,254.16l1.65,1.2.23.18,2,1.32-1.14,1.82-.56.88-.15.27-1.23,2-.24.41-.26.44-.91,1.59-1.42,2-.11.23,0,0-.15.33-.38.85-.5.85.06.09-.74,1.26-.35.59-.26.41-.21.33-.18.26,0,0-.41.65-.14.2-.77,1.15-.15.29-.2.35-.12.18v0l-.94,1.47-.32.59-.15.26-1,1.83-1.7-1.06-.5-.33-1.12-.7-.65-.41-.64-.41-.33-.3.09-.12-.23-.2-.12.12L157,272.88l0,.06-.24-.18-.14-.2-.42-.5-.85-1.09-.59-.73,3.38-2.71v0l1.06-.82.38-.32,2.88-2.3.92-.73,2.29-1.88.2-.18.36-.26.14-.12,1.27-1.09,1-.88,1.08-.94,1-.94,3-2.88"/></g><g id="isole_67" data-name="isole 67"><path class="cls-1" d="M187.14,209.8l.06.09h0l1.74,3.05.53.86h0l1.32,2.14.41.65.06,0,.12.18,0,.06.15.26.11.18.53.82.68,1.06.41.35.62.82.26.39.21.38.29.38.44.53.3.32,0-.06.42.44-.12.12,1,1,.09.12,1.2,1.5.83,1.17-2.18,2.21-.85.7-.8.59-1.2.71L192.72,229l-.94-1.5-.21-.35-.85-1.47-.82-1.44-.44-.88-.06-.26-2.82,1.38-2.38,1.17-1.18.18.09.23-.41.12-2.06.35,0-.29-1-1.7-.59-.94-.38-.71-.44-.76-1.38-3-.74-1.62-.7-1.56-.18-.32.47-.24,1.38-.64,2.09-1,0-.18.06-.12.65-.32h.08l.15.06.06.12,1.09-.53,0,.06.17-.09,1.09-.5,1.85-1,1.15-.62,1.62-.82"/></g><g id="isole_68" data-name="isole 68"><path class="cls-1" d="M211.33,198.86l.26.3,2.74,3.06.06.05.08.09,2.35,2.06.77.56.12.06,1.44,1.06.06-.09,1.67,1.29.3.24.17.14.47.44v.06l.21.21.09-.09.29.41.73.68.21.26.09.09.15.21,0,.06.09.11.27.33.09.08,0,.21.56.94.94,2.26.06.09.06.12.21.56.29.38-.53.47.88,1.68.06.06.21.52v.06l.17.36,0,0,.45.88.73,1.44h0l.29.5.15.23.06.09.79,1.32,1.36,1.8L229,226.05l-1.44,1.39-.91.7-3.76,3-.26.21-.56.38-2.21,1.88-.88,1.15-.41.52-.94,1.21-.21.26-.06.12-.11.24,0,0-1,2.11-.36,2.12,0,.26-.29,2.06-.15,2.24,0,.08-2.26.06h-.09l-.47,0-.79,2.47-2.32-.2-.24,0-1.62-.3-1.05-.23-.86-.44-.11-.09-.06-.06-.15-.15,0-.08-.15-.36-1.29-2.7.35-.18-.26-.26-.53-.56-.32-.35L202,241.28l-.38-.41-.12-.12-.26-.29-.39-.38-1.23-1.83-.26-.29-.36-.38-1.5-1.91-.26-.33-.79-1.05-.18-.18-.53-.62-.09-.06-1.17-1.91,1.47-1.2.38-.33,1.44-1.23,2.11-2.18.21-.38-.12-.12-1-1.05-.47-.59-1-1-.67-.71L195.25,221l-.06-.06-.18-.29,0,0-.2-.3-1.47-2-.94-1.42-.91-1.38-1.38-2.14-.62-.94-1.71-2.71,2.47-1.32,2-1,.74,1.35.79,1.27.94,1.35.62.88.35.5,1.59,1.94,1.61,2,.27.29.21.21,0,.09.74.7,1.41,1.36.41.47.47.58.53.65.38-.26h0l-.47-.59L203,220l-.62-.79-1.61-1.83-1-1.08,0-.09-.24-.27,0-.08-1.59-1.65-.29-.32-.79-.89-.77-1.05-.7-1.06-1-1.44L192.81,207l3.85-1.8.26-.11,1.27-.45-.12-.2.68-.27.09.24,1.79-.62,0-.29.5-.18.26.15,4.41-1.71,2.32-1.14,3.18-1.8"/></g><g id="isole_69" data-name="isole 69"><path class="cls-1" d="M231.73,224.85l1.38,1.47,1.2,1.35.39.44.53.65,1.32,1.53.65.94.17.23.15.18.32.47,1.5,2.15.21.47.32.85.35.91.83,2.15.17.76.06.29,0,.15.06.5-.06,0,0,.21.41,1.64-.17.09.64,1.85,0,.06-3.76,1.68-1.24.61-.67.33-.74.5-1.11.79-.15.12-.32.44-.42.23-1.38.83-1.61,1-1.68.91-.32.17-.77.42-2.55,1.61-.27.18-.5-.68-.88-.79-1.35-.06-.53,0h-.8l0,0-.06-.35-1.59.65-.09-.15-.5-.18-.23,0-.06,0-1.21-2.26-.56-1,.12-.17.09,0-.73-1.8,0-.38v-.79l0-1.65,0-.35.06-.85.27-2.3.64-1.5.06-.11,0-.12.83-1.74.26-.32.06-.12.18-.2,1.11-1.47.77-1,1.94-1.62.44-.35.26-.21.21-.17.09-.06,1.5-1.21,1-.67,1.29-.86,1-.67.06-.06.29-.77.44-.47.62-.44.32-.29,1.36-1.18.35-.29"/></g><g id="isole_70" data-name="isole 70"><path class="cls-1" d="M201.48,243l1.65,1.14.06.06.05,0,.36.24,1.06,2.2v.24l0,.14,0,.39.06.61v.06l-.67,3.73.06,0,0,.09.29,0-.18,1.18-.26,0-.09,0-.44,2.08.65.15,1.67.21,1.06.14,1.59.3,1.32.38.23.59,0,.06,0,0-1,3.05-.88,2.77-.2.73-.09.62-.24,1.7-.35,2.41-.29,1.83-.39,2.23-.7,4.15v.14l0,4.18,0,1.41.26,0V284l-.67,0,.06,1.18v.23l-.47,0,0,.27h-.47l-.14,0h-.38v.41l-.45.44h-1.35l-.47-.41,0-.33-.53,0h-.17l-1,.06-.21,0-1.2,0-.21-.14-2.73.17-.68-.35-2.53-.09v.21l-3.55-.21-.8-.09h-.2l-1.12-.14.5-2.39.12-.47.09-.41.23-.94.59-2,.15-.52h0l.47-1.45.11-.38.47-1.91v-.06l.12-.35h.06l.15-.62-.06,0,0-.08.09-.33.08-.32.77-3.29.06,0,.2-1.09.33-1.15L192,266l.32-1,.09-.29.5-1.65.32-1.35.35-1,.06-.17,1-3.09v0l.06-.32V257l.06-.15.79-2.7.12-.47.82-2.82.06-.18.15-.44.82-2.24.36-.7.32-.59.56-.88h0l1.05-1.12.68-.67.94-1,0-.06"/></g><g id="isole_71" data-name="isole 71"><path class="cls-1" d="M205.3,248.37l1.47.14,1.18.18.82.09.68.06,3.47.38-.24-1.32.06-.39.09-.38.47-.29,2.11-.15.3,0v.41l.29,2.82v.3l.06,2.73-2.38.33-.26.35h-.15l-.12,2.82-.26,2.23-.3,2.71-.09.64,0,.21-.17,1.12,0,.14-.12,1-.2.83-.15.47-.06.41-.12.65v.53l-.09.58-.14,2.44-.15,2.53v1.71l0,2.11-.12,0,0,.56v2.59l0,1.17v1.44l0,1.09,0,.59-1.35.26-1,.18-1.15.23-1.06.21-.05-1.88,0-1.44v-1.06l0-1.12.32-2.5,0-.41.06-.67.12-1,.08-.74.09-.88.06-.5.06-.32.12-.82.44-3.12,0-.15.26-1.14,0-.15.44-2.09.18-.7.15-.5.17-.77.62-2.47.09-.29.59-2.23.29-1.18.06-.56,0-.15-.12-.32-.35-.2-1-.12-1.23-.06-1.56-.35L206,255l-.27-.09V255l-1.2-.21.09-.67.11-.85V253l.06-.26.18-1.33.38-3"/></g><g id="isole_72" data-name="isole 72"><path class="cls-1" d="M213.91,254.33h.21l.24-.38.44-.06.53,0,.82-.06.73-.08.62-.15.68.47.7,0,2.24,0h.11l.77,0h.17l.15.12.09.08,0,.18.15.65.23,1,.12.76.18,2.5,0,.2.24,1.39.06.26.18,1.09,0,.32,0,.41.06.33.09,1,.27,2.32v.23l0,.41,0,.18.27,1.68.12,1.14.11.94.12,1.12.06.29,0,.36,0,.29.15,1.32h0l0,.3.06.44.24,2.12.23,2.05.27,2.35,0,.33-.09,0,.15,1-2.86.38,0-.53-.47.06-.18,0-.35,0,.06.55-1.59.18-.15-1-.44,0,0-.21-.29,0h-.21l-.5.06h-.2l-.39,0-.32,0v.18l-.62.09h-.17v.17l-1.09.09-1.56.15-.26,0-2.33.32V278.7l0-1.26v-.8l0-1.05v-1.47h0l.06-2.94.09-.8.35-2.91.06-.56.12-.64.06-.27.15-.56,0-1.32.21-.7,0-.18.18-1,0-.15.29-1.61.12-1.41,0-.5h-.15v-.39h.18l0-3.85"/></g><g id="isole_73" data-name="isole 73"><path class="cls-1" d="M223.73,255.07l.44-.09,1.65-.56.76-.23,1.62-.86,1-.79,0,.06.32-.21,1.59-1,1.71-.88.26-.12,1.15-.58.44-.24.32-.5,0,0,1.15-1,0-.06,1.44-.85,1.29-.76,1.53-.56,2.17-.74,1.3,2.83.41.88.18-.09,1.88-.53.61,0,.83.26.35.15.65.47.14.21.33.44.17.5.12.29.12.41.06.18.2,1.09.24,1.17v.06l.14,1.18v.94l.12.53.12.76-.21.06.12.5.18,0,.15.85-.15,0v.12l.09.21.7,2.05.06.12.12.3.65,1.76.29.82.15.38,1,2.44.47,1.24,1,2.53.05.17,1.21,3.21-2.06.79-1.76.65.14.35-1.32.44-.32.12-.32.12-.36.08-2.11.77-1,.41.11.29-1,.36,0,.09-.17.08-1.62.53-.06,0-.09,0-.2.06-.47.18-.21.06-.18-.68-.64.21.06.26-.44.12-1.74.41-.06-.26-.61.11-.24,0-1,.21v0l-.88.15-1.32.26-.8.18-1.64.35-.53.15.09.35-.18,0-.38.09-.39.08-.41.09-.17.06-.89.18.12.56-4.26.88-.24-.8-.26-2.41-.23-2.08-.21-1.88,0-.21-.18-1.56-.08-.5v-.11l-.06-.53-.06-.33-.12-1.08-.12-.92L225.5,269l-.15-1.82,0-.24-.18-.56-.06-.29-.05-.24,0-.05-.36-2.53,0-.74-.12-.79-.18-1.21-.06-.26-.23-1-.12-1.41-.09-.71-.06-2.14"/></g><g id="isole_122" data-name="isole 122"><path class="cls-1" d="M350.81,308.3l-.18-.62.38-.41.5.15.15.5-.38.38,4.88,1.35,6.35,1.77,5,1.41-.12.29L376,316l9.29,3.15,6.82,2.29-.12-.56.38-.32.24.06.29.12.12.5-.47.38-.47,1.5.17,0-1.35,4.05-.06.06,0,.21.15-.06.12.14.06.09.05.09.56-.12.24,1.3-.35.06.2,1,0,.11.09.15.15.18.11.14.06.15,0,.12,0,.2-.17.36-.15.23-.09.24-.09.2,0,.5.06.18,2.7.73.12.09.09.09,0,.18v.11l0,.12-3.06,10.14-.17.33-.18.29-.26.32-.24.27-.23.23-.21.21-.29.18-.18.14-.21.09-.29.12-.32.15-.3.11-.29.06-.32,0-.24,0-.29,0-.15,0h-.12l-.12.41-.26-.09-.24-.14.12-.45.06,0,.47-1.77-2.91-1-2.7-.91.06-.15-.65-.23-.06.15-2.56-.83-1.14,3.47-1,2.82,3.17,1.06,3.09,1,3,1,.47-1.79,0-.06.12-.41.29.08.18.06,0,.06-.11.38.23.12.41.27.36.26.38.32.23.18.24.26.23.24.15.23.21.24.14.29.21.39.12.32.08.32.06.27.06.29.06.53,0,.44,0,.35-.06.59-.09.74-.17,0-.68,3.41L385.61,376l-.91,4.47-.12.23-.18.27-.14.11-.15.12-.12.06-.14.06-15,4.73-1.38.41-.2,0-.21,0-.15,0-.11,0-.12,0-.15-.06-.12,0-.11-.12-.12-.18-5.7-11.64-6.06-12.81-3.73-7.41-1-2-.15-.15-.32-.88-.62-1.2-.7-1.39-.71-1.35L345,342.81l.08-.06-.29-.53-.15-.23-.32-.71-.38-1.06-.86-2.85-3.79-12.78,2.35-5,.12-.44.77-1.24,1.52-4.85.15-.58.15,0,1.09-3.26,0-.12.05,0,.09-.06.12,0,1.76.09,2.12.61,1-.76.18-.65"/></g><g id="isole_123" data-name="isole 123"><path class="cls-1" d="M392.34,317.91l-.23-.64.41-.5-.15-.59.06-.09-.15-.35-.09-.18-.08-.2-.15-.27-.12-.23-.26-.36-.27-.32-.12-.15-.2-.26-.24-.24-.23-.2-.24-.21-.2-.17-.27-.15-.26-.18-.24-.14-.23-.09-.27-.12-.2-.09-.77-.23-1.26-.42-1.09-.38-2.32-.73-1.38-.47-1.09-.33-4.61-1.49-2.74-.92-1.26-.41-1.65-.56-2.11-.7-1.65-.53-1.74-.56-2.41-.79-1.08-.36-.65-.23-.73-.24-.62-.2-.41-.09-.33-.06-.26,0-.27,0H358l-.27,0h-.38l-.32,0-.32.06-.33.06-.26.06-.21.06-.2.06-.27.11-.32.15-.3.15-.2.11-.32.21-.21.15-.12.06v0l-.12.08V304l-.41.26v.21l.06.47-.59.38-.61-.32-.06-.68.35-.26.91-.65.38-.26.3-.21.35-.2.18-.09.32-.15.38-.18.38-.11.42-.12.38-.06.29-.06.35,0,.36,0,.38,0,.29,0,.24,0,.23,0,.24,0,.2,0,.21,0,.24.06.23.06.38.12.83.26.7.24.94.32.91.29,2.12.68,1.7.56,2.44.79,2.5.82,4.32,1.41,3.33,1.06,1.91.65,1.41.44,1.82.62,1,.29.79.27.62.2.5.18.26.09.36.14.23.09.24.09.23.12.24.12.17.11.21.12.18.12.2.12.15.14.2.18.21.18.21.2.23.21.24.23.11.18.24.26.23.36.21.32.12.23.11.27.18.41.09.21.09.26.12.32.38,1.12-.44.5-.71-.15"/></g></g></svg>