<svg id="Livello_1" data-name="Livello 1" xmlns="http://www.w3.org/2000/svg" viewBox="0 0 540 540"><defs><style>.cls-1{fill:#b500b5;}</style></defs><title>icone sestieri4</title><g id="isole"><g id="isole_92" data-name="isole 92"><path class="cls-1" d="M209.24,303.57l3.56,1.56.88.38,1.06.47.23.09,1.33.64.5.39,2.11.91.38.17,1.06.47.18.06.29.09-.14.29.23.09.15-.26,1.23.67,1,.59,1.21.56.41.18.85.44L227,312l.29.14.09.06.17.09.21.12.47.23.12.06,1,.53.44.21,1.06.55,0-.08.41.17.47.3.5.26-.09.12,1.06.67,1.94,1.27.91.59,2,1.7.26.21,1.77,1.64.08.06.06,0,.44.38,0,.06,2.71,2.21,0,0,2.32,2.08,1,.74.06.06,0,.06-.24.2h.06l-.2.24-.06,0-.24.26-.44.56-.53.65.09.11v.18l-.09.09-.11.06h-.06l-.12-.09-.59.73-.17.12-2,1.47-1.53,1.09-.06-.06-1.94.09-.76-.06v0l-.36,0,0,.21-3.05.06-5.74.55,0,0-1.44-.3-.05,0v0l-.77.12-.47,0h-.62l0,.12h-.35v-.12l-.7-.12-.24-.06-.29-.09-.24-.05-.35-.15-.09,0-.32-.12-.44-.2-.91-.36-.39-.17-1.2-.47-.21-.12-.44-.18-.2-.09-.59-.26-.8-.32-1.08-.5-1.33-.56-1.76-.77-1.65-.73-.05.12-2.5-1.33-.56-.41.23-.61-3.7-2.65-.44-.32-.62-.42-.38-.29-.21-.15-.06-.08v-.09l0-.15v-.09l0-.23v-.09l0-.12.06-.17.33-.83.11-.41.18-.5.21-.65.64-1.79.47-1.23.53-1.47,1-2.59.41-1.15.09-.53.06-.08.41-1.27.44-.91-.11,0,.58-1.67.59-1.59"/></g><g id="isole_93" data-name="isole 93"><path class="cls-1" d="M209.15,302.45l0-.32h.09v-1.47h-.09l0-.3-1.82-1.29-.79-.44-1.59-.85,0,0-.79-.35-.27-.06-.7-.33-1.15-.82,0,0-.24-.18V296l-1-.7-.36-.33-.53-.44-.58-.53-1.89-1.7-.26-.12-3.67-1.91-2-1-1.44-.73-.18-.12-.82-.73-.77-.71-.64-.68-.5-.61-.42-.53-.23-.27-.38-.5-.38-.58-.39-.83-.14-.59-.12-.58V281l0-.73.06-.5.17-1.29.12-.83.27-2v-.08l.08-.65.06-.21.06-.32.41-2.26.15,0,0-.15-.15,0,.15-1.06.09-.53,1.64-3.38.09-.17,0-.09,2.29-3,.91-1.21.92-.94.11.12.21-.21-.12-.08.53-.59.12-.12.47-.41.06-.06.88-.94,0,0,2.2.79,2,.77.15.06,1.73.64L202,262l.94.35,1.41.5,2,.79v0l.5.15.18.06,2.06.67.76.27.59.17.53.09.41.09.7.15,1.59.11.38.06v.06l1.06.21,1.3.23h.41l2,.24.71.09.41.06,0-.27.15-.23h.35l.44,0,.24-.88h.06l.17-.41,1.35-1.85.18.06.59-.71.29-.35.94-1.06,1.27-1.61h.14l.12-.36.38-.06,1.47-.08v-.12h.33v.12l1.5-.12.05.44.53-.06,1.21-.12,2.79-.32,2.59-.41,1.62-.36,1-.23,2-.53,1-.21.59-.11,1.18-.15,2,3.26.09.18.3.47.47.85.17.3,1.24,2.35h-.12l.06.47.09.38,1.41,3.35v0l.41.68.35.67-.38.24,1.38,2.06.47.73-.09.06.12.2h.09l1.68,2.83-2,.88-.33.15-2,.88-1.92.47-1.11.26-2.71.68-.44.12-3.64.76-1.18.24-1.62.29h0l.41,1.38.11.29.56,1.3,1,2.23.15.35-.18.09.47,1,.18-.06.21.36.79,1.26.23.3,1,.88.06.11-.17.24.29.35.18.21.23-.24.35.41,0,.09.15.44,1.41.8,1.15,1,.32.29.21.21.11.14h0l.47.47.09.09.15.15.91.91,1.21,1v.06l.88.73v0l-.09.24-.62,1.35,0,.06-.32.73-.44.94-.3.59-.64,1.21-.5,1.11.09.06-.12.24-.06-.06-.18.41,1.15.68.2.14h0l.18-.26.24.09,1.11.53.74.35.17.09.3.15,0,.11,1,.47.29.09,1.71,1.21.56.47.05,0,.62.41.56.53.47.64L256,312.5v.5l.06.3,0,.2.23,0,.12.68v.15l-.09.09-.09,0,.09.38.06.38.2.94.53,1.53.09,0,.06,0,.09.09.2.58-.2.09.09.3-.18.14-.12.12-.14.15-.36.29-.14.12-.56.5L256,320l-.15.09,0-.06-1.32,1.2H251.6l-.41.36-.36.38.09.06v.17l-.44.42-.17,0-.06-.09-.71.67,0,.12-.68.68.06.06-.17.17.09.12v.12l-.5.47h-.06l-.12-.12-.21.24-.7.67-.12-.06-3.17-3-.21-.2-2.38-2.24-.59-.23-.18-.15-.52-.44-.68-.62-.59-.47-1.14-1.17-.39-.24-.2-.2-.06.06-1.32-1-1.53-1.15v0l-2.15-.94-.38-.18-.09,0-.35-.17-.12,0-.26-.15-1.12-.5-.68-.35-.61-.29-.42-.21-.2-.12-.27-.12-.29-.14-2.56-1.18-.5-.2-.29-.12-.32-.21L221,308.33l-.15-.09-.26-.17-.27-.12v0l-2-1.06-.44-.2,0,0-.53-.26-.17-.09-.59-.29-2.15-1.12-1.38-.68-.23-.11.06-.12-.5-.24,0,.12-2.83-1.26-.41-.18"/></g><g id="isole_94" data-name="isole 94"><path class="cls-1" d="M258.83,318.59l-1.59-3.5,0,0-.06-.35-.06-.76,0-.89v-.47l0-.09,0-.61.06-2.35-.47-.94-.2-.21-1.21-1.12-.17-.14-.42-.3-.05,0-1.68-1.2-.24-.09-.29-.15-1-.47-.5-.23-.29-.15-.06,0-.77-.3-.2-.08-.53-.33-.24-.14-.82-.48,1.47-3.32.15-.32,0,0,.09-.12,0,0v0l.58-1.32.44-.79.12-.21.44-.68-.61-.41-.53-.47-1.09-1v0l-.21-.23-.53-.59-.47-.56,0-.09-.3-.35-.09-.06-.06.09-.2-.15-.27-.14,0-.06-.08-.06,0-.06-.35-.29,0-.06L245,290.61l-.67-.53-.27-.3-.08.06-.21-.2.06-.09-.24-.27-1.5-1.64-.73-1.27-1.09-1.88-.06-.26-.47-1.24,0-.12-.06-.17-.32-1.09-.06-.2.44-.12.65-.15,2.44-.68.06.12.29-.09,1.33-.35,2-.56,1.59-.32.33-.12,1.11-.29.36-.09,1.55-.56.33-.15.79-.26.53-.18.29-.11.12-.06,1.47-.77v0l.71-.35.82-.35,1.2,1.26,1.62,1.68.27.26.2.33v.11l-.06.12,0,.18,1.62,2.61,0,.06,0,0,0,.06,0,.06-.47.23-2.11,1.24-.42.2-.55.3.44.73.53-.26.29-.18.88-.47.68-.29,1.41-.68.06,0,.7,1.91.3.77.29.79-.12.09.71,2.17.23.92.09.38-.29.14.06.27.06,0,.2-.09.24.59-.24.12.21.5.11.29.3.85.62,1.09.23.73-.06.15-.12,0,.24.74v0l.09.15-.24.12v.41h-.06v.24h.12l0,.55h-.35l.23.45.12.2.15.21.12.14.08.12,2.09,2.85.41.36,1.06.85,2.12,1.76.14.15.94.76,2.33,2.06.26.21.35.32-1.2.88.15.21-.71.5-.15-.18-1.17.85-.91.68.11.21v.11l0,.06-.94.74h-.17l-.18-.24-1,.77L266.74,314l-2.62,1.46-1.41.83-1,.56-1.15.7.09.18v.06l0,.06-.47.29h-.09l0,0-.09-.15-1.12.68"/></g><g id="isole_99" data-name="isole 99"><path class="cls-1" d="M289.84,207.1l3,1.46.76.45,2,1.35-2.5,3.26-.82,1.06-1.5,1.85-.06.09-.11.15-.09.08-1.56,2-.18.21-.85,1.15L286.55,222l-.29.35-.15.21-.44.47-.36.41L283.08,226l-.56.61-.17.18-.8,1-1,1.21-.5.61-.14.18-.89,1-.41.47-.38.47-.5.59-1,1.2v0l-.7.91-.15.21-.94,1.41-.06.09-.21.26-.91,1.24-.53.73-.7,1-.21.27-.56.76-.23.35-.74,1.15-.23.35-.91,1.65,0,0-.53.91-.5,1.06-1.09,1.58-2-1.49-.2-.21-.56-.5-.33-.29-.23-.24-.24-.21-1.23-1,2.17-2.53.8-.94.94-1.35.76-1.18.41-.59,2-2.67,1.53-2.09.12-.15,0,0,.76-1.11,1.65-2.35.06-.09.2-.24.15-.17.38-.53.12-.18,1.53-2.26.12-.18,2.47-3.06,1.14-1.44,1.18-1.32.35-.41,0-.06,1.35-1.76,2.44-3.21.15-.14.2-.27.18-.23,1.65-2.36.23-.35,2-3.11"/></g><g id="isole_100" data-name="isole 100"><path class="cls-1" d="M296.13,210.62l.94.74.3-.38.08-.06h.21l.12,0,1.26,1,.06.14,0,.15,0,.06-.32.38.94.76-.65.83-.26.32-1.65,2.15-.32.47-.44.67-2.06,3.59-.18.32-.38.56-1.53,3.18,0,.05-.11.24L292,226l-.44.82-.56,1.09-.35.7-.3.59-.41.82-.15.24-1.41,3.09.21.11,0,.09-.18.35L286.81,237l-.11.2-.59,1.21-.35.68-.27.5-.68,1.29-.35.56-.2.35-.27.79-.15.42-.76,1.52-.09.18-.88,1.76,0,0-.12.27-.32.79-.62,1.12L280,250.6l-.29.38-1,1.82-.18.24-.61.79-1,1.3-1.77-1.44-.06-.06.06.06-.35-.3-1.21-.94-.88-.73-.35-.44L272,251l0,0-.65-.53-.12-.08L270,249.22l-.15-.12-1.41-1-.32-.23,1.67-2.56.53-.94.71-1.27.23-.35,1.83-2.73.88-1.3.85-1,.06,0,.73-1.06L276,236l.7-1,.06-.09.35-.5.06-.09.74-.91.73-.94.44-.53.15-.17.06-.06.88-1.15.32-.38.56-.68,1.35-1.61.15-.18.59-.71.94-1.08,1.5-1.62.38-.38,1-1,.12-.18.23-.29,1.27-1.85.35-.5.18-.3.23-.29,1.65-2.12.09-.11.23-.3,0-.06.06-.06.68-.82,1.49-2.06,2.44-3.32.09,0h0"/></g><g id="isole_101" data-name="isole 101"><path class="cls-1" d="M299.75,214.86l1.67,1.14,2,1.35.15.06.23.15,0,.06.35.29.12-.12.11,0,.21-.09.12,0h.2l.09.06.09,0,1.38,1.14.09.12.09.12,0,.12,0,.11,0,.12-.06.12-.15.23.29.24.42.32,2.2,1.62-.65.91-.82,1.21-.91,1.29-.18.23-.7,1-.62.91-.91,1.3-.79,1.29-.59.94,0,0,0,.06-.09,0-.06.15h0l-.18.26-.55.82-.62,1-.18.27-.73,1.12-.65,1.17L300,236l-.15.21v.05l-.47.77-.11.17L298.4,239l-.12.23,0,.06-.21.36-.53.88-.06.14-.38.71-.17.32-.83,1.62-.82,1.62-2.12,3.61-.73,1.27-.5,1-.18.38-.61.94-.5.79-1.09,1.47-.74,1-.17.24-.24.35-.15.24-.61,1.14-.24.44v0l-.23.44-.33.65-.06.12-.11.2-.09.06-1.82,2.5-.33.47-.79,1.15-2.09,2.79-1.2-1.38-.88-1-.39-.44-1.52-1.68-1-1.09-1.83-1.85,1.71-1.67.56-.5.73-.65,1-1.35.12-.18,1.09-1.73.7-1,.47-.71.09-.44.74-1.53.94-1.91.94-1.88.11-.26.53-1.24.39-.73.32-.71.2-.32,1-2,.27-.56.76-1.59.24-.41.73-1.53,1-2.29.71-1.73.41-.8.2-.5.45-.94.5-1,1.05-2.2,0,0,.09-.21.12-.23,1.2-1.88,1.18-2,2-3.5.29-.53.77-1.2.61-.8.77-1.11"/></g><g id="isole_102" data-name="isole 102"><path class="cls-1" d="M258.27,241.37l1.32.91,1,.65.27.23,1,.68.35.23,0,0,1.15.8.41.32.38.32.24.18.64.5,1.21.94,1.06.85.32.5.18.27,1.41,1.14.7.59.83.65.23.2.38.33.94.79.36.24.44.32.85.62.68.58,1.64,1.62-2.17,2.06-.56.35-1.53,1-.79.41-1.47.62-.18-.21-.24-.26-.47.26-.29.21,0,0-1.41,1.47-.53.47-.79.73-.24.24h0l-.17.12L263,265.74l-.26.23-.56.53-.15.12-.67.85-1.21,1.27-.23.29-1.06,1.15-.59.82-.67,1-.3.38-.79.91-.12.12-.09-.12-.11.15.11.12-.53.56-.7-.92-1.68-2.41-.09-.14.06-.06-.11-.24-1.44-2.44-.12-.14-.36-.53.59-.41.12-.09-.85-2.56-.12-.65.56-.32-.68-.91-.14.09-1.21-1.68-1.09-1.41L246.84,257l-.53-.86-.3-.5-.35-.58.53-.41,1.41-1.18,1-.76.21-.12.58-.44,1.47-1,1.15-.77-.24-.32.42-.32L254,248l.94-.91,1.21-1.17-.18-.15-.18-.18-.35-.44-.06-.09-.06-.44,1-1.17.38-.44,1.41-1.65,0,0h.12"/></g><g id="isole_103" data-name="isole 103"><path class="cls-1" d="M274.12,259l.11.14,1.59,1.74,1.15,1.26,1.47,1.65.91,1,.44.5.85,1-.15.12.33.5.38.58.09.12.29.38.94,1.24.53.7.71.94.41.62,1.56,2.62.23.79.24,1.53.14.85.21,1.27v0l.06.26v.09l.26,2,.06,1.17.06,1,0,.62.12,1.41.17.88.18.5.24.68,0,.56h-.17l.23,1.44.24,1.32.06.53V291l.11.47,1,2.56.53,1.08.09.24.47,1,.74,1.53.23.5.06,0,.32.64,1.18,2.29L288.9,303l-.29.12,0,.06-.24.11,0-.08-.29.14,0,.06-1.44.56-.27.09-1.38.59-2.67,1.14-.24.12.12.29-.5.21-.15-.29,0,0-.26-.3-2.32,1-1.89-1.56,1.5-3.11.41-.83.21-.58,1.06-2.33,0-.06.12-.14,0-.09,1.33-2.29v-.06l.09-.18h.05l.36-.59-.06-.06.38-.64.47-.85.29-1.89-.23,0-.24,0-.23.85,0,.09-.06.2-.73,1.27-.5.82-1.59,2.7,0,.09-.06.35-.62,1.77-1,2.11-.38.89-.85,1.61h-.06l-.23.53v0l-.24.47-.82-.5,0,0-1.35-.88-1-.76-.18-.15-.15-.12-1.35-1.2v0l-1-.89,0,0-.5-.53L268.5,299l-.35-.44-.33-.5-.17-.41-.09-.18-.09-.2v0l-.23-.56-.15-.53h0l-.12-1-.12-1,.06,0-.06-.23.12,0,0-.15-.44-1.12.12-.17-.65-2.18.09-.06,0-.17-.12-.35-.2-.59-.38-1-.8-2.32-.44-1.39-.53-1.61-.15-.47-.29-.77-.06-.2L263,281l-.11-.2-.3-.47-.14.09-.59-.92-.15-.23-.65-.94.15-.09-.23-.38-.71-.68-.32-.38-1.56-1.59-.29-.35-.86-.85.65-1,.21-.35.88-1.06.73-.88.91-1.09.42-.5,1.26-1.18,1.2-1.2.74-.74.23-.2,2-2,2.06,1.32.47.32.35.24,2.09,1.38,0,0,.5.44.74.62,1.05.91.27-.29-.33-.27.15-.15-.76-.58-.85-.65-.62-.56-1.77-1.32-.52-.38-1.92-1.77,2.24-1.67.5-.3.29-.14h0l.38-.36.42-.26,2.91-1.38"/></g><g id="isole_104" data-name="isole 104"><path class="cls-1" d="M327.82,231.61l.21.12v0l2.26,1.47.23.14,1,.65.15-.2,2.29,1.49-.17.21,3.85,2.53-.09.17,4,3.15.7.56.09-.06,3.17,3.32-.08.09.67.76,2.56,2.68.06,0,1.82,2.12.41.55,1.59,2.33.38.7,1,2.32,0,0,0,.12.38,1.53.36,1.38.2.79-1.29,2.83,0,.35.14,1.12.3.2-2.85,2.82-1.47.21-.5.09-.44.56.17.14-1.47,1.8-.17-.15-.86,1-1.08,1.14-.56.62-.09.09-.23.26-.18.15-.56.56-.5.47-.53.47-.41.38-.74.62-.08.09-.62.53-.12.12-.35.29-.94.76-.8.65-.61.44-.53.35-.47.33-.06.06-.62.44-.09,0-.41.29-.12.09-.67.44-.06.06-.88.59-.09,0-.68.42-.05.06-.74.41-.06,0-.7.47.41.61-1.47,1-.68-.64-1.26.73-.06,0-3.68,2.15-.32.17-.12,0-.17-.06-.09-.08-1.5,1,.18.24-.36.23,0,0-.29.21-.15-.21-1.2.83-.65.35-.88.41-.74.35-2.58,1.24-1,.56,0,.09,0,.14-.06,0-.12.06-.09,0-.11.09h-.12l-.12-.06-.06-.09-.91.41-.24.09-1.76.91-1.2.53.08.21-.38.14-.09-.2-1,.44,0,.06-.21,0h-.21l-.14-.06-.06-.15-.5-.88-.85-1.62v-.06l-.5-1-.53-1.05L305,288.75l-.68-1.14L304,287l-.53-.79-.85-1.21-.21-.29-.32-.53-.82-1-.53-.68-.53-.73-.15-.18-1.23-1.53-.24-.29-1.38-1.59-1-1.38-.64-.88-1.8-2.38-.12-.18,2.86-2.17.11-.06.18-.12,2.5-1.85.56-.53.2-.21.24-.17.64-.36.33-.5.5-.79-.24-.29-.76-1-.06-.5.68-.8.47-.56.52-.58.68-.8.59-.56.62-.41.76-.26,1.47-.47.53-.33,1.32-1.11.21-.21.09-.06,1.2-1.26.91-1,.59-.74.06-.05.26-.3.21-.23.15-.18.2-.29,1.21-1.71.44-.53,1.06-1.41.17-.23,1.24-1.5.09-.09,1.08-1.38.3-.41.47-.77.2-.26.33-.62.11-.21.86-1.55.11-.15.89-1.82.29-.62.21-.38.61-.88.12-.18,1.06-1.44.35-.47,2.29-3.15.3-.44,1.82-2.79.06,0"/></g><g id="isole_105" data-name="isole 105"><path class="cls-1" d="M293.37,301.16l-1-1.85-.21-.5-.2-.44-.36-.77-.94-2.11,0,0-.11-.24h0l-.06-.15-.47-1.08-.56-1.5,0-.12-.27-1.21-.38-1.79-.17-.88-.06-.15-.21-.94h.06l-.06-.26-.09-.68-.06-.41-.14-1.18.17,0-.26-2-.15-.94-.5-3.2v-.09l0-.29v0l-.17-1.27,1.47-.47,1.53-.55.2-.21.12-.12,1.12-.73,1.61-1.12,1.68,2.21.17.23.15.21.44.61.35.47,1.18,1.59.74,1,1.76,2,.68.82-.09.09.11.15,1.3,1.88-.06,0,.32.47.56.73,1.79,2.77.21.32.88,1.56.56,1,1.41,2.61.47.83-.38.14.06.18-.59.26-.18.09-1.23.5-.21.09-.58.24-.18.11-.74.3h-.2l-2.15,1.06-.06-.18-.38.15.09.17-3,1.36-.26,0h-.3l-.2,0-.47,0-1.44.5-.44.14-1.62.74"/></g><g id="isole_106" data-name="isole 106"><path class="cls-1" d="M288.37,275.73l-1.41-2-.29-.38-.62-.91-1.47-2.15-1.47-2-.29-.44-.68-.94,2-2.58-.24-.18,1.09-1.56.32-.44,1.8-2.41.23-.29.15-.27.38-.7.18-.36.2-.38.65-1.2.09-.18.2-.41.12-.15,1.06-1.47,1.29-1.88.18-.26.88-1.33L294,249l.09-.14.59-1.09,1.21-2,.2-.32.82-1.24,1.21-2.32.12-.21.32-.7.27-.59.14.09.21-.35L299,240l.12-.21.15-.32.08-.18-.05-.06.14-.23.15.06.12-.24-.15-.06L300,238l.27-.5.35-.68.12-.26,1.17-2.32,0,0,.91-1.47,1-1.65.15-.26.91-1.5.12-.18.06-.12.2-.32,2.12-3,1.23-1.73.39-.53.82-1.18,1.67,1.3,1.33,1,2.88,2.14.35.21L316,227l2.35,1.77.09.09,1.24.94.11-.15,1.47,1-.11.18,1.73,1.32.09.09,1.35,1.06.62.44-.3.5-1,1.52-.3.47-.56.92-.2.32-.36.5-.76,1.17-.32.65L321,240l-.91,1.73L320,242l-.47.85-.44.85-.41.8-.38.76-.12.18-.21.26-.09.15.15.12-.17.29-.33.5-.15-.09-1.52,2-.12.12-1.29,1.5-1.27,1.64-.88,1.24-.62.85-.47.68,0,.06-.2.23-.21.27,0,.05,0,0-.64.83-1.42,1.38-.73.7-.09.06-1.41,1.3-1.32.58-.38.18-.21.12-1,.47-.29.17-.56.59-1,1.09-.33.38-1,1.18-.62.82.32.74.27.55-.15.15.15.12-.36.47-.61.62-.24.23-.29.27-.47.26-1.53.79-1,.86-.12.11-1.53,1.33.12.14L294,272l-.15-.15-.59.5-.06.06-.29.26-.38.36-.15.09-2,1.55-.65.39-.47.29-.94.38"/></g></g></svg>