<svg id="Livello_1" data-name="Livello 1" xmlns="http://www.w3.org/2000/svg" viewBox="0 0 540 540"><defs><style>.cls-1{fill:#b500b5;}</style></defs><title>icone sestieri2</title><g id="isole_1" data-name="isole 1"><path class="cls-1" d="M81.2,249.66l18.13-34.33,8.47-16.05,6-11.35,5.55-10.55,6.56-12.44.88-1.61,1.12-.83,10.4-1.47.77-.08,13.58-2,1.76.06,5.23,3,5,2.74,6.41,3.5,7.2,4,6.23,3.44L215.74,193l.14.08v2l-.2.33-.06.85-.06.09-.29,0h-.12l-.71.12-.17,0-4,.77-2.79.32-7.32,1.2-.82.15-1.39.21-.35.09-4.5.7-.26,0-2.06.32-.23.06-5.12.83-.15,0-1.49.23-.15,0-4,.62-4.64.76-1.18.15-2.06-1.18-.09,0-3.11-1.79-4.23-2.44-.15-.06-.21-.09-.14-.06-.12,0-.15,0H163l-.73.08-6.09.62-.08,0-5.62.59-.15,0h-.08l-.12,0-.12,0-.12.06-.17.08-.21.09-.18.15-.23.2-.12.15-.06.12-.09.15-1.91,3.44,0,.05-.61,1.12-.5.91-2.91,5.26-.47.89-2.91,5.23-.5.88-2.91,5.26-.44.82-2.91,5.3-.47.88-2.88,5.23-.5.88-4.47,8.17-.8,1.44-4.32,7.94-.76,1.44-4.32,7.91-.77,1.44-.73,1.32-.47.29-31-16.22"/></g><g id="isole_85" data-name="isole 85"><path class="cls-1" d="M257.77,286.31l-3.91-11.4.15,0-.76-2-.27.09-.09.09-.38-1-.18-.38-.11-.39-.15-.5,0-.17v-.12l-.09-.35v-.44l.12-.94.35-.68,3.68-6.79.73-1.38.88-1.65.27-.41.61-1,.3-.44.41-.35.76-.47.39-.09.35-.18L261,255l0,0,.3-.41-.06,0,.62-.94.5-.74.41-.94,6.52-10.67,3.12-2.91.09.06,1.26-1.18,0-.08,2.27-2.24h.08l2.18-1.44.5-.2.44-.24,5.58-2.67h.71l.26.08.5.21.33.18.12.06,1.55.76.18.09.06.06.91,1.32.09.15,2.32,3.41.59,1.05,1.5,2.38-.06,0,.15.27.08,0,.47.73.09.12.77,1.18.08.14.56.86.09.11,1.56,2.3.41.58-.06.06,1.38,1.77,3.44,1.38,1.27.53,1.53.5.85.26.35.15.26.06.12,0,.21.06.44,0,.35,0,.53,0,.12,0h.2l1.68-.17,0-.21.21-.06v.21l.55-.06,1.3-.47,0,.29.12.53.14,1h.15l.09.71-.15,0,.62,4.14v.15l.12.91.17,1.09v.09l.53,3.55.18.74.17,0,.18.65-.18.05.06.39.24.88.09.32.2-.06.21.94-.21,0,.41,1.65.18-.06.2.82-.2.06.44,1.91.06.09.06.77.12,1.32.11.94-.11,2.2v.5h-.59l-.18,0-.35.36-1.94-.09-.33-.06h-.17l-1.77-.18-1-.09-.15,0-.88-.12-.94-.15-.68-.12-.65-.14-.58-.21-.42-.18-.35,1.24,1.26.23,6.21,1.06.41,0,.2,0,.53.06-.06.59-.52.2-.12.06-6.35,2.24-5.88,2-1.12.38-1.06.35.06.09-.7.26-.06-.14-7.17,2.49,0,.15-.8.27-.06-.12-9.46,3.17-3.44,1.09-.24.09-2.41.79-.08-.06-1.53.5v.09l-.12.06-.59.12-6.11,2.09-5.21,1.76L260.39,294l-1.59-4.68-.56-1.64,2.53-.89,1.88-.64,1.41-.44.91-.33-.08-.23,3.26-2.38-.8-1.12-3.49,2.53-.53.23-5.56,1.88"/></g><g id="isole_86" data-name="isole 86"><path class="cls-1" d="M272.2,323.94l-.23-1.26.15,0-.83-5-.14-.88-.18-1.06-.18,0-.14-.91.2,0-.61-4,0-.06-.18-1.15,0-.06v-.2l0-.09-.15-.91v-.06l-.17-1.23-.09-.5.12-.06-.44-1.41,0-.12-2-7.85-.18-.53,6.2-2.06.56-.17.09,0,3.17-1,.68-.21.15-.06.26-.08,3.47-1.12.74-.24,3.38-1.11.82-.27,4.82-1.61,3.15-1,2.73-1,3.85-1.27,4.67-1.5,1.62-.56h.12l5.52-1.79.12-.06.5-.14h.15l2.26-.53h.06l.59.2.17.77.21.85,1.53,6,.2.79h-.11l.14.44h.09l.18.62.62,2.41.7,2.64.15.56.35,1.41,0,.12-.62.24-.06,0-2.29.76-1,.32-.5.12-3.7,1.38-2.47.68-4.73,1.62v0l-1.44.59,0,.09-1.53.59.06.17-.8.33-6.64,2.29-2.68.94.24.74,1.94,6.55h.06l.09.27,0,0,.14.38v.06l.12.61-6.7,2.12L284,320l-.17.06-.56.23-.15,0-1.91.65-2.32.79-.56.21-2.29.76-1.74.53-1.85.65-.21,0"/></g><g id="isole_89" data-name="isole 89"><path class="cls-1" d="M320.18,279.38h0l.35,0,.44.06,1.06-.06,2.2.06.5,0,1.62.06,2.32.06.33.06,1.08.15h.15l.53.06,1.62.79.5.18,1.64.5,1.77.5.38.11.09-.08h.08l.42.11-.06.09,2.88,1.21,1.5.61,0,0,.17,0,.38.15-.05.09,1.76.85,2,1,.06-.09.11,0,.39.18-.06.12,1.11.56L350,288l.18.06.59.41.11.26.06.24.27,2.73,0,.36.35.76.38.26.85.74.56.35,1,.38.71-.05h.32l.85.05h.18l.23,0,.27,0v.15l1.47.09.44.09.18.06.17.08.24.15.14.12.12.12.15.17.15.24.08.11.06.18.06.18.09.35V297l0,.53-.06,1.71-.09,1.67-.08,1.36,0,3.11,0,.36-.47-.06-1.27-.18-1.38-.18-1.68-.32-.64-.12-5.29-1-4.27-.82-3.05-.59-2.35-.47-.71-.17-.76-.36-1-.47-.74-.35-.12-.09-.5-.88-.47-.56-.32-.41-.12-.09-2.67-2.38L328.17,294,326,292.87l-.74-.35,0-.06-.29-.65-.38-.53-.15.09-.35-.41-1.27-2.29,0-.06-1.44-4.06-.67-2.17-.27-.8-.38-1.14-.06-.45.24-.61"/></g><g id="isole_90" data-name="isole 90"><path class="cls-1" d="M320.15,277.82l0-.82.2-4.53-.17-.77-1.65-6.79-.24-.85-.38-1.59-.06-.26-.14-1-.62-3.35-.21-1-.35-2-.35-2L316,251l0-.53,0-.35-.05-.5-.06-1.12,1.08-.79-.11-.18,1.5-1.09.11.18,1.91-1.5-.08-.09,1.05-.85.09.12.91-.68.09-.09.85-.7.12-.09,2.59-2.09.67-.55.65.73.91,1.24,1.41,2.2,2.27,3.5.2.32.18.32.18.33,1,2.7.08.21,1.38,3.64.24.56.91,3.62.21.7.06.38-.09.24-.24.18-.53.35-.94.65-.67.47-1.36.88-.29.5-.06,1.58-.2,1.21-.09,1.06-.06.73-.09.83-.26,2.73-.15,1.62,0,.2-.09,1.77v.26l0,.32v.42l-.2,1.61-.06.35-.44,0h-.09l-.74,0,0,.09-.58-.06-.42,0-3.58-.29-.15,0h-.15l-.41-.06-2.85-.29-.82,0h-.47"/></g><g id="isole_91" data-name="isole 91"><path class="cls-1" d="M332.79,279.29v-3.12l0-.2v-2.41l0-1.65v-3.06l.09-.32.14-.79.24-1.33,0-.32.58-1.26.33-.44.2-.42.83-1.08.11-.06.89-.41.5-.21.73-.35.29-.65-.41-2.12-.7-3.55h0l-.12-.44h.06l-.18-.41-1.67-3.77-1.32-3-.24-.52-.21-.36-2.14-3.52-2-3.21-.18-.32-.14-.21L328,239l.79-.68v-.17l.59-1.12.09.06.2-.41-.09-.06,2.21-3.71.12-.2.14-.24v0l1.53-2.47.44-.61.71-1,.06-.06.26-.38,0-.06.94-1.71.06-.06.91-1.67.06,0,.18-.3-.06,0,.2-.38.27-.47.88-1.5.09-.2.23-.33.06,0,.18-.38-.09,0,.94-1.64.12-.12.32-.47.27-.41.55-.89.44-.76.48-1,.52-.62-.05-.08.88-.8,0,0,.15-.11.67-.77,2.35-2.44.33-.35,1.26-1.21,1.09-1,.56-.5,0,0,.26-.29.26-.26.06-.09.39-.39,0-.05.33-.33L353,205l1.68-1.12.64-.5.27-.18,1-.7,1.08-.85.27.44.12-.06.17.29,1.33,2-.12.09.67,1,.53.82,1.38,2.12-.08.06.35.53.06.11.79,1.21.09-.06.09.21,1.32,2,.32.5.12.17.8,1.15.23.32.12.18,2.56,3.73.26.38.62.8.32.44h.06l.41.59,0,0,.3.41.61.7,1,1.21.82.91.18.17.77.8.5.62,1.14,1.26.24.23.94,1,.53.48,2.76,2.41,2.12,1.85.26.2.76.59,1.59,1.15,1.62,1.38,2.7,2.32,0,0,.18.18.2.17.53.47.27.18,1.79,1.27.56.52,2.09,1.74.14.12-.23.29L392.4,246l-.47.59-2.18,2.59-.29.35-.65.77-2.44-.44-1.29-.18-.82-.12-.59-.09-1.85-.26L381,249l-1.73-.32-1.65-.53-.55-.26-1.74-.77,0,0-.44-.23-1.71-.8-.7-.35-2-.68.06-.08-.3-.09-.05.09-.92-.27-.58-.18-2.56-.64-1.21-.41-1.05-.39h0l-.15.18,0,.06-.15.18-.44.58-.15.18-.41.5-.2.21-.09.08-.82,1-1,1.12-.3.23-.35.48-.76,1-1.18,1-.38.53-.3.56-.08.15-.41.76-.39.83-.26.64-.06.18-.29,1.38-.12.47-.38,1.71h.05l-.23,1.79,0,.32,0,.3,0,.61-.06,1.41-.2,1.53-.5,4.18.44,1.08.26.65.88,1,.77.88.09.12.38.47.56.59,1.09,1.17.47.38.44.33.79.56,1.41.85.32.18.94.47,3.8,1.82.23.12,1.15.85,0,.12.18.11V279l.08,0,1.59,1.27,1.68,1.35.14.12.47.41.18.15-.06,0,.79.76-.08.09,1.44.7.91.42.44.2,1.7.82-.38,1.3-.12.38-.14.56-.36,1.23-.35,1.18-.32,1.06-.18.67-.88,2.85v0l-.12.5-.47,1.62-.14.5-.53,1.85-.09.27-.8,2.52.06.89-.64,1.94-.09.91-2.71-.33-.32-.08-.09.73h-1.58l-.77-.06-.82,0v.3l-2.62.05-2-.38,0-3.67h0l0-1.18.15-1.44h.06l.06-1.76.12-1.71,0-.85.18-.7-.76-.3v-.06l-1.3-.41-.59-.23-.26-.15-.79-.38-.65-.27-1.23-.56-.3-.17-1.26-.5-1.59-.65,0-1.12.38-2.38v-.2l-.15-.15-.5-.15-.35-.11-.12-.06-.7-.24h0l-.21,0-.64-.23-.18-.06-.47-.21L350,286l-.38-.15.06-.08-1.59-.65-2.53-1-.35-.12-.09,0,0-.06-.79-.32L340.55,282l-1.59-.67-.06.09-.47-.21v-.06l-.18-.06-1.58-.56-1.06-.35-2.23-.85-.59,0"/></g><g id="isole_95" data-name="isole 95"><path class="cls-1" d="M412.56,239.72l-.67.24-2.12.7-.47.12v.09h-.12l0-.06-1,.29-.56.15-1.91.35-.89.09-.55.09-.45.06-1.58.06-.3,0-1.73-.12-1.5-.09-2.18.09-1-.56-.83-.5-1-.56-.7-.35-1.56-1-.21-.14-.82-.89-.65-.7-1.52-1.56-.77-.59L385,233l-.06.06-.44-.32.09-.06-.35-.3L381,229.88l-.23-.21-.32-.23-.53-.42-.3-.23-.2-.21-1-1.06-.5-.5-.06-.05-.38-.36-1.5-1.47-.06-.08-.91-.89-.09-.08L373.82,223l-.79-1-.56-.68-.18-.2-.2-.27-.38-.47-.8-1-.73-.88-.47-.59-.39-.5-.88-1.35-.29-.47-.06-.12-.21-.47-.2-.44.06-.15v0l-.24-.36-.82-1.14-.79-1.33-.45-.73-1.05-1.68-.59-1-.06-.09-1.23-2-.95-1.5-.29-.47-1.88-3,2.23-1.59,1.27-.82.44-.27.09.15,2.08-1.26,0,0,2.24-1.32.53-.32,1.17-.62h.06l1-.56.47-.23.76-.38-.11-.21.64-.35.12.08.06.09.68-.35.38-.06.29-.15,2-1.08.09-.06.91-.5.06,0,1-.44-.06-.18.53-.23.06.17,3.08-1.44-.06-.14.56-.24.06.15,1.68-.8-.06-.17.59-.24.05.12,2.21-1,5.11-2,0-.12.53-.2,0,.14.33-.11,1.2-.41.59-.15,2.06-.59,1.26-.32.06.17.35-.08-.06-.18,2.47-.53,0,.18.3-.06v-.15l3.38-.56.94-.14,2.53-.5,2.29-.45,0,3.18,0,.85-.12,3.24v.41l-.09,1.55-.14,2,0,.44h.09l-.09.59h-.06l-.09.59,0,.26-.06.59v.24l.06.53v1.08l-.09.56-.14,1.15-.12,1.06-.12.58v0l-.26,1.47-.18,1-.09.42,0,.17-.09.35.09,0-.06.15-.58,1.91-.06.74-.15.35-.09.12-.09,1-.14,1.26-.24,1.65-.26,1.17-.06.24-.15-.06-.12.41-.29,2.53,0,.2-.29,1.94,0,.53v.12h0v.24h-.06l0,2h-1l.12,1.76v.06l.08.41,0,.47.21,1.7.18,1.68.2,1.59,0,.2,0,.27.06.38.09.94.23.79.41,1.24.3.29.17.18,2.39,3.11.2.27,0,.06.18.23,0,.06,1.7,2.35.5.74.82,1.2"/></g><g id="isole_96" data-name="isole 96"><path class="cls-1" d="M411,180.55l.79-.06,2.88-.29,2.29-.21,2.24-.26v-.09l2.06.12.67.12.06-.24,1.41.27.94.17,0,.24h.06l3.24.61,0-.08.08-.12.12-.06.09-.06.09,0,.11,0,.09,0,.09.06.09.12.06.08,0,.12v.09l2.94.41-.27.88-.61,1.77-.56,1.61-.83,2.33-.53,1.52.39.15-.36.94-.5,1.41-.08.24-.06.2-.18.33-1.2,3-.45,1.12-.17.38-.94,1.86-.21.47-.35.82-.12.38-.35.91-.06.38.18.8,0,.2.08.65.06.38-.56,2.21.12.11.06.06,1.85,1.59.94.79.89.8.17.15.32.26.24.21.29.26,2.56,2.18-.88,1.35-.71,1.11-.05.12-.18.35-.12.24-.59,1.21v0l-.94,1.94-.38.77-.23.44-.53,1-1,1.67-.36.59-.67,1.15-.06,0-.88,1.23.14.12.59.47.85.65-.82,1-.38.38-.79.85.79.8.12.14.26.5-.2.12-.12.09-2.32,2.12-.15.14.12.12-.36.38h0l-.08.12,0,0-1.12,1.06-1.12,1-.5.44-.41.32-.38.3-.74.52-.06-.05-.7.58L415,239l-.7.44-.53-.65-.76-1-1.42-1.88-.76-.91-.09-.12-.35-.35-.27-.35,0,0-.09-.12-.86-1.12-1-1.79-.12-.23-.5-1.18-.56-1.35-.12-.68-.09-.47V227l-.38-3.65.06,0,0-1.23v-.47l.15-1.38h.06l.26-2.21.09-.56.09-.5.38-3.14h0l0-.3,0-.26v-.15l0-.06.08-.94.65-3.23.21-1,.09-.5.11-.56.06-.35,0-.12,0-.23.71-3.62.08-.47v-.32l.3-1.33,0-.38,0-.38.06-.79.05-.56,0-.47.06-.8.3-2h.09l0-.17v-.12h0l0-.56,0-1.79-.06,0v-.24l0-.5.15-1.85,0-.58v-.95l.09-3.61v-4"/></g><g id="isole_97" data-name="isole 97"><path class="cls-1" d="M432.7,181.46l2,.44.5.09,2.73.56.06-.15,3,1-1.29,3-.33.76-.32.71-.82,1.85-.09.21-.09.26L436.84,193l-.5,1-1.2,2.65-.5,1.23-.12.27-.23.56-.3.76-1,2-.94,1.56-.56.88-.64,1.09,0,0-.15.29-.06.15-.67,1.2-.77,1.33-.67,1-.74-.56-.41-.33-.68-.44-.26-.2-1.38-1,.2-1.74-.23,0,0-1.06-.18-.58-.11-.44.08-.77.21-.82H425l.47-1.09.82-1.82.85-2,.42-.88h0l1.33-2.88.85-1.8.5-1.11.18-.74,0-.17,0-.09.33-1.27.88-2.7.82-2.59.12-.5"/></g><g id="isole_98" data-name="isole 98"><path class="cls-1" d="M441.9,183.67l2.73,1,2.68,1,1.53.73.12-.14.35.17,0,.06.23.09,0,.15.92.47,3.08,1.55.44.15.09.09,4.79,2.35-.64,1.24-.12.23-.91,1.5,0,.06-.18.41-1.59,2.38-.41.62-.14.2-.15.24-.24.29-.82,1.24-.18-.12-.55.82.17.15-.44.62-.15.06-1,1.23-.32.41-.23.3-.27.32-.2.23-.8,1-.41.5-.12.15-.59.77-1.32,1.7-.67.85-.68.68-.21.2-.94,1.21-.58,1-.06.06-.24.29-.12.15-.52.79-.83,1.15h.06l-.18.21-.5.73-.73,1.09-.06.06-.12.17-.11.15-1,1.53-.33.44-.44.62-1.35,2-.12.14-1.55,2.24-.77,1.2-.26.44-.21.18-.7.56-1.56,1.94-.21.23-1.12-.76-.26-.15-.41-.35-.18-.09-.29-.18-1.38-.91-.06,0-2-1.41,1.15-1.91.23-.5,0,0,.62-1.17.23-.47.89-1.77.88-1.58.06-.12.23-.38.09-.12,1.85-2.5.41-.47-1.7-1.41-.21-.18-.85-.76-.79-.77-.15-.11-.5-.47.09-.15.79-1.41.53-.91.15-.27.64-1,0-.06.15-.32,0-.06.94-1.44.85-1.47.59-.94.68-1.47.35-.73.15-.3.35-.76.38-.82.09-.21.82-2,.38-.88.8-1.79.91-2,.21-.44,1.64-3.29,1.5-3"/></g><g id="isole_124" data-name="isole 124"><path class="cls-1" d="M112.24,341.58l-2.41,4.26-7-3.85-.7-3.88,4-6.94,4.41,2.23,5.38-9.84-.06-.06v-.18l0,0,0,0,0-.06,0,0,.06,0h.12l5.64-10.35-.06-.06,0-.06v-.15l0,0,.09-.09.06,0h.15l3.7-6.79-.06-.06,0-.18.09-.09v0l0,0h.09v0H126l3.71-6.79,0,0,0,0,0-.06v-.12l0-.06,0,0v0l0,0,0,0,.06,0h.11l0,0,.77-1.38,2.94-5.41,0-.05,0-.09v-.15l0-.06,0-.06.09,0,.05,0h.06l.06,0,3.71-6.73-.06-.06,0-.08v-.09l0-.09,0-.06,0,0,.12,0h.09l2.82-5.14,4.82-8.85,0,0,0,0v0l0,0v-.06l0-.06,0,0,0-.09,0,0,.06-.06.09-.06h.18l1.73-3.15-.06-.05-.06-.18v-.06l0-.06v0l.09-.09.06,0h.21L154.6,253l4.88-8.91,11.64-21.28.85-1.64,3.76-6.77,7.29-1.08.27,0,.73-.12.26-.06,1.24-.2.56-.09,1.53-.24.58-.09,1.47-.23.59-.09,1.44-.23.59-.12,1.56-.21.59-.09,1.44-.2.55-.09.89-.15.26-.06.71-.11.26,0,.71-.12.26,0,.68-.12.23,0L210.68,209l2.26-.36,21.7-3.38,2.67-.2,8.29-11,.24-.32.11-.12.45-.2.32,0,3.59-.33.26,0,3.56,1.44.64.17.21.62,1.79-.56.33.24.08,0,.83.41-.12.17.06.06,0,.06.18.12,0-.06.36.18.61.32.09,0,.15.09.06,0,.88.53.12.06.09,0,.11.06.3.15.06.47.17.06.59.09h.85l.71.06,1.12.67.47.38.14.09.47.36.68.55.85.47,1.38.95.41.17,1.42.94.17.18.18.26.15.24.08.23.15.27.15.29.2.15.33.59.17.38.15.32.06.24.06.29.2.32,1.53,1.27-.56.65.5.41-.41.5,2.56,2.91,2.09,2.55,1.41-.26.2,0,.38.53.21.23.53.8.12.17.59.77.08.12.56.79.09.09-.21.09-.67,1,1.32,1.92.91-.56,1.71,2.44-.91.64.7,1.06-1.29,1.29-2.47,1.83.18.23-7.77,4.79L271,234.26l-2.15,1.58.33.33-1.88,1.94L266.18,237l-.74.73-.32-.23-.73.88.11.12.09-.09,1.47,1.23-1.12,1.39-.41-.36-1.17-1-.68.8,0,.12-.21.23.27.24-4.47,7.7-.53.79-2,1.12-1.2-.88-.36.5,1,.7-.64.32-.65.94.09.06-4.82,6.5-.12,0-.53,1.68,0,1-.06,0-1,1.5-.53.68L246,265l-.88,1.3-1.23-.91-13,23.48-.12.24-35.45,64.67,0,.08L181.49,379l-.17-.06-.33.56.18.08L180.4,381l-.17,0-4.38-2.32L172.59,377,165,373l9.73-17.7-.06-.2.15-.27h.2l3.71-6.76-.06-.17.15-.3.17,0,3.8-6.9-.06-.12.17-.35.12,0,3.76-6.84-.06-.12.15-.33h.15l3.85-7-.09-.15.15-.29h.17l3.74-6.82-.06-.15.17-.32h.15l3.76-6.85-.08-.15.2-.32h.15l3.76-6.85-.09-.15.18-.29h.15l1.79-3.24-.12-.14.18-.33h.17l1.74-3.14-.09-.18.18-.32h.2l3.77-6.88-.06-.15.17-.32.15,0,4.38-8-3-1.67,8.88-16.2-10.11-5.41-.06.12-.12,0,0,0-.32-.11v-.09l0-.09-11.35-6.06L186.34,275.7l-.09.44h-.14l-5.88,10.79.09.18-.18.29-.18,0-38.21,70.49-16.58-9.11-12.93-7.17"/></g></svg>