<?xml version="1.0" encoding="UTF-8"?>
<svg id="svg3680" xmlns="http://www.w3.org/2000/svg" xmlns:svg="http://www.w3.org/2000/svg" xmlns:sodipodi="http://sodipodi.sourceforge.net/DTD/sodipodi-0.dtd" xmlns:rdf="http://www.w3.org/1999/02/22-rdf-syntax-ns#" xmlns:inkscape="http://www.inkscape.org/namespaces/inkscape" xmlns:dc="http://purl.org/dc/elements/1.1/" xmlns:cc="http://creativecommons.org/ns#" version="1.1" viewBox="0 0 738.1 276.9">
  <!-- Generator: Adobe Illustrator 29.3.1, SVG Export Plug-In . SVG Version: 2.1.0 Build 151)  -->
  <defs>
    <style>
      .st0 {
        fill: #009b66;
      }

      .st1 {
        fill: #0058a5;
      }
    </style>
  </defs>
  <sodipodi:namedview id="namedview3682" bordercolor="#666666" borderopacity="1" fit-margin-bottom="0" fit-margin-left="0" fit-margin-right="0" fit-margin-top="0" gridtolerance="10" guidetolerance="10" inkscape:current-layer="g3688" inkscape:cx="509.57705" inkscape:cy="-144.2408" inkscape:pageopacity="0" inkscape:pageshadow="2" inkscape:window-height="961" inkscape:window-maximized="1" inkscape:window-width="1280" inkscape:window-x="-8" inkscape:window-y="-8" inkscape:zoom="0.70352133" objecttolerance="10" pagecolor="#ffffff" showgrid="false"/>
  <g>
    <g id="g3692">
      <g id="g3698">
        <path id="path3700" class="st0" d="M0,116.9h136c10.1,8.7,23.1,19,34.9,19,21,0,41.9-43.6,63-43.6s28.9,13.7,42.8,24.7C265.8,49.7,206.7,0,138.3,0,69.9,0,11.1,49.7,0,116.9" inkscape:connector-curvature="0"/>
      </g>
    </g>
    <g id="g3704">
      <g id="g3710">
        <path id="path3712" class="st1" d="M.5,159.8c11.1,67.2,69.6,117.1,137.8,117.1s127.6-49.7,138.6-116.9c-14-11.1-28.1-24.7-42.7-24.7-20.8,0-42,43.7-63.1,43.7s-24.4-10.5-34.7-19.2H.5Z" inkscape:connector-curvature="0"/>
      </g>
    </g>
    <g id="g3716">
      <g id="g3722">
        <path id="path3724" class="st1" d="M429.5,151.4l-17-50-16.8,50h33.8ZM399.4,68.1h27.8l52.4,139.6h-31.3l-11.1-32.3h-48.9l-11.1,32.3h-30.1l52.4-139.6Z" inkscape:connector-curvature="0"/>
      </g>
    </g>
    <g id="g3728">
      <g id="g3734">
        <path id="path3736" class="st1" d="M567.7,170.7c-1.1,12.2-5.3,22-12.6,29.2-7.4,7.3-18.4,10.9-33.2,10.9s-16-1.3-22.3-3.9c-6.3-2.6-11.4-6.3-15.3-10.9-4-4.7-6.9-10.3-8.9-17-1.9-6.7-2.9-14.1-2.9-22.1s1.1-15.5,3.4-22.2c2.3-6.7,5.6-12.4,9.9-17.2,4.3-4.7,9.6-8.4,15.8-11,6.3-2.6,13.4-3.8,21.5-3.8s13,.9,18.1,2.6c5.1,1.7,9.5,4.2,13,7.3,3.5,3.2,6.2,6.9,8.2,11.2,2,4.4,3.3,9.1,3.9,14.3l-27.6,3.8c-.6-5.3-2.1-9.4-4.5-12.6-2.3-3.2-6.4-4.8-12.1-4.8s-7.6.9-10.4,2.6c-2.7,1.8-4.9,4.2-6.5,7.2-1.6,3-2.8,6.4-3.4,10.3-.6,3.9-1,7.9-1,12s.3,8.4,1,12.3c.7,3.9,1.8,7.4,3.3,10.4,1.6,3,3.7,5.4,6.4,7.1,2.7,1.7,6.2,2.6,10.3,2.6s9.7-1.5,12.7-4.7c3-3.2,4.7-7.7,5.3-13.5h27.7Z" inkscape:connector-curvature="0"/>
      </g>
    </g>
    <g id="g3740">
      <g id="g3746">
        <path id="path3748" class="st1" d="M574.7,78.5h27.4v27.2h23.4v21.3h-23.4v47.1c0,5.3,1.1,9,3.3,10.8,2.2,1.9,5.1,2.9,8.6,2.9s3.7,0,5.5-.3c1.9-.2,3.8-.6,5.6-1.1l3.9,20.1c-3.8,1.2-7.5,2-11,2.4-3.6.5-7,.7-10.3.7-11.2,0-19.5-2.6-24.9-8-5.4-5.3-8.1-14.3-8.1-27v-96.1Z" inkscape:connector-curvature="0"/>
      </g>
    </g>
    <g id="g3752">
      <g id="g3758">
        <path id="path3760" class="st1" d="M630.4,105.7h31.7l22.8,70.9,22.9-70.9h30.3l-40.2,102h-27.3l-40.1-102Z" inkscape:connector-curvature="0"/>
      </g>
    </g>
  </g>
</svg>