<?xml version="1.0" encoding="UTF-8"?>
<svg id="svg3680" xmlns="http://www.w3.org/2000/svg" viewBox="0 0 250 250">
  <defs>
    <style>
      .cls-1 {
        fill: #1e9cd8;
      }

      .cls-2 {
        fill: #156f9a;
      }

      .cls-3 {
        fill: #fdfefe;
      }
    </style>
  </defs>
  <path class="cls-2" d="M121.3,107.19c4.01,5.78,6.14,12.47,8.66,19.3.95,2.58.67,5.71,2.15,8.55,2.49-3.58,4.53-7.42,6.87-10.92l8.44-12.59c1.62-1.51,3.39-3.34,5.05-5.16,6.57-7.19,15.04-11.73,24.48-14.03,19.79-4.83,25.28,16.09,46.25,7.67,2.12-.85,4.39-1.21,6.52.05,5.3,3.13,12.08,11.23,9.82,15.96-.41.85-1.55,1.17-2.61,1.58-8.93,3.45-18.28,3.35-27.04-.46-3.87-1.68-7.31-3.64-11.02-5.64-1.79-.96-3.82-2.06-5.9-1.78-12.79,1.73-23.33,8.84-30.54,19.35l-6.21,9.05-18.86,29.24c-5.43,2.14-13.13-5.59-14.88-11.07-2.12-6.64-3.65-13.23-5.15-20.06s-2.81-17.36-6.58-23.88c-.1-5.4-11.14-3.75-14.85-3.18-9.22,1.41-18.14,1.91-27.33.5-13.03-2.01-24.04-10.43-28.29-22.8-.44-1.28.05-2.76.5-3.49.74-1.2,2.47-1.21,3.79-.97,4.58.83,6.9,4.42,9.99,7.34,4.48,4.25,25.17,2.07,31.92.99,9.24-1.47,18.25.54,25.48,6.66,3.36,2.85,6.73,6.02,9.34,9.78Z"/>
  <path class="cls-1" d="M110.76,112.35c3.77,6.52,5.14,17.32,6.58,23.88-1.78,1.48-3.19,3.37-4.76,5.39-6.22,8.04-11.36,16.54-17.04,24.97-1.47,2.19-12.71-1.13-16.18-14.57l-3.41-13.2c-.92-3.58-1.79-6.96-3.43-10.35-5.05-.5-10.13,0-14.67,2.07-8.88,4.06-19.64,22.8-37.3,14.88-8.04-3.6-12.64-14.29-9.63-16.79,4.03-3.34,6.26,6.55,21.27-6.46,3.39-2.94,6.68-5.79,10.39-8.33,2.76-1.89,5.9-2.39,9.07-3.11,18.5-4.2,31.67,9.33,37.64,25.79,6.24-8.94,12.66-18.76,21.46-24.19Z"/>
  <path class="cls-1" d="M156.23,138.11l6.21-9.05c4.65,5.06,10.21,15.87,18.78,11.51,8.23-4.18,19.82,13.64,15.17,16.65-14.37,9.29-32.33-8.62-40.16-19.11Z"/>
  <path class="cls-1" d="M147.42,111.53l-8.44,12.59c-3.13.25-6.04,1.46-9.02,2.37-2.52-6.83-4.65-13.52-8.66-19.3,11.07-2.19,17.23-3.88,26.12,4.34Z"/>
  <path class="cls-3" d="M138.98,124.12c-2.34,3.49-4.38,7.33-6.87,10.92-1.48-2.84-1.2-5.97-2.15-8.55,2.99-.91,5.9-2.12,9.02-2.37Z"/>
</svg>