<?xml version="1.0" encoding="UTF-8"?><svg id="Livello_1" xmlns="http://www.w3.org/2000/svg" viewBox="0 0 78.98 101.89"><defs><style>.cls-1{stroke-width:0px;}</style></defs><path class="cls-1" d="m39.49,3.13v7c7.81,0,15.15,3.04,20.67,8.56,5.52,5.52,8.56,12.86,8.56,20.67s-2.98,15-8.39,20.5c-3.66,3.17-7.1,6.62-10.24,10.27-4.06,4.72-7.67,9.81-10.8,15.22-3.11-5.64-6.77-10.92-10.96-15.78-2.97-3.45-6.23-6.72-9.69-9.72-11.23-11.41-11.17-29.83.17-41.18,5.52-5.52,12.86-8.56,20.68-8.56V3.13m0,0c-9.27,0-18.55,3.54-25.62,10.61C-.29,27.9-.29,50.84,13.87,64.99c2.97,2.55,6.08,5.58,9.16,9.16,8.51,9.91,13.3,20.05,16.06,27.74,2.99-7.64,7.95-17.48,16.31-27.18,3.27-3.8,6.58-7.02,9.72-9.72,14.15-14.15,14.15-37.1,0-51.25-7.08-7.08-16.35-10.61-25.62-10.61h0Z"/><path class="cls-1" d="m47.68,59.07c1.25-1.64,2.01-3.67,2.09-5.87.05-1.45-.21-2.86-.74-4.17,1.21.49,2.51.74,3.83.74.11,0,.23,0,.34,0,2.2-.07,4.23-.84,5.87-2.09-2.15,5.13-6.26,9.24-11.39,11.39Zm-16.39,0c-5.12-2.15-9.23-6.26-11.39-11.39,1.64,1.25,3.67,2.01,5.87,2.09.11,0,.23,0,.34,0,1.32,0,2.62-.26,3.83-.75-.49,1.21-.75,2.51-.75,3.83,0,2.27.73,4.43,2.09,6.21Zm-11.38-27.78c2.15-5.12,6.26-9.23,11.39-11.39-1.25,1.64-2.01,3.67-2.09,5.87-.05,1.45.21,2.86.74,4.17-1.21-.49-2.51-.75-3.83-.75-2.28,0-4.43.73-6.21,2.09Zm39.16,0c-1.78-1.35-3.93-2.09-6.21-2.09-1.32,0-2.62.26-3.83.75.49-1.21.75-2.51.75-3.83,0-2.33-.78-4.49-2.09-6.21,5.13,2.15,9.24,6.26,11.39,11.38Z"/><path class="cls-1" d="m39.49,14.76c-13.63,0-24.73,11.09-24.73,24.73s11.09,24.73,24.73,24.73,24.73-11.09,24.73-24.73-11.09-24.73-24.73-24.73h0Zm-7.1,20.7c.54,0,1.08-.24,1.46-.69.28-.33.59-.64.92-.92.85-.71.95-2,.14-2.74-1.41-1.29-2.27-3.16-2.2-5.22.12-3.52,3.06-6.45,6.58-6.55.07,0,.14,0,.2,0,3.74,0,6.78,3.04,6.78,6.79,0,1.97-.85,3.74-2.19,4.98-.82.75-.73,2.04.12,2.75.33.28.64.59.92.92.38.45.92.69,1.46.69.47,0,.94-.18,1.29-.57,1.24-1.35,3.01-2.19,4.98-2.19,3.81,0,6.89,3.15,6.78,6.99-.1,3.52-3.03,6.46-6.55,6.58-.08,0-.15,0-.23,0-1.98,0-3.76-.85-4.99-2.21-.34-.38-.81-.56-1.27-.56-.54,0-1.09.24-1.47.7-.28.33-.59.64-.92.92-.85.71-.95,2-.14,2.74,1.41,1.29,2.27,3.16,2.2,5.22-.12,3.52-3.06,6.45-6.58,6.55-.07,0-.14,0-.2,0-3.74,0-6.79-3.04-6.79-6.79,0-1.97.85-3.74,2.19-4.98.82-.75.73-2.04-.12-2.75-.33-.28-.64-.59-.92-.92-.38-.45-.93-.7-1.47-.7-.47,0-.93.18-1.27.56-1.24,1.35-3.02,2.21-4.99,2.21-.08,0-.15,0-.23,0-3.52-.12-6.45-3.06-6.55-6.58-.11-3.83,2.97-6.99,6.78-6.99,1.97,0,3.74.85,4.98,2.19.35.38.82.57,1.29.57h0Z"/><path class="cls-1" d="m39.49,3.5C19.61,3.5,3.5,19.61,3.5,39.49s16.11,35.99,35.99,35.99,35.99-16.11,35.99-35.99S59.37,3.5,39.49,3.5Zm0,65.16c-16.11,0-29.17-13.06-29.17-29.17s13.06-29.17,29.17-29.17,29.17,13.06,29.17,29.17-13.06,29.17-29.17,29.17Z"/><path class="cls-1" d="m39.49,3.5C19.61,3.5,3.5,19.61,3.5,39.49s16.11,35.99,35.99,35.99,35.99-16.11,35.99-35.99S59.37,3.5,39.49,3.5h0Zm0,65.16c-16.11,0-29.17-13.06-29.17-29.17s13.06-29.17,29.17-29.17,29.17,13.06,29.17,29.17-13.06,29.17-29.17,29.17h0Z"/></svg>