<svg enable-background="new 0 0 40 40" viewBox="0 0 40 40" xmlns="http://www.w3.org/2000/svg"><path d="m11.88 19.76c.65-.12 1.02.06 2.39.47 2.75.82 3.07.63 3.19.5.22-.25.14-.76-.07-1.09-.26-.42-.7-.52-4.23-.82-.48-.04-.83-.07-1.25.07-1.08.35-1.7 1.44-1.58 1.57.1.1.59-.52 1.55-.7z"/><path d="m27.8 28.71c-.67.66-1.56 1.16-2.09 2.4-.17.39-.32.9-.59.91-.3.01-.4-.6-1.07-1.25-.2-.19-.3-.25-.96-.67-.96-.62-1.99-1.68-2.73-1.42-.06.02-.07.04-.29.13-.25.1-.45.3-.8.41-.06.02-.11.03-.14.04-.03 0-.07-.01-.13-.03-.26-.07-.38-.19-.71-.35-.2-.1-.23-.14-.32-.18-.66-.3-1.78.8-2.74 1.41-.65.42-.76.47-.96.67-.67.65-.78 1.26-1.08 1.25-.27-.01-.42-.52-.58-.91-.52-1.24-1.41-1.74-2.08-2.41-2.02-2.01-1.96-5.45-2.23-5.41-.3.04.13 4.09.26 5.31.2 1.89.3 2.84.46 3.28.43 1.21 1.78 2.54 4.45 5.16 1.39 1.36 1.87 1.76 2.66 1.98.68.19 1.53.15 3.23.08h.07c1.39.06 2.15.08 2.76-.09.79-.22 1.27-.61 2.67-1.96 2.68-2.61 4.03-3.94 4.47-5.14.16-.44.26-1.38.47-3.28.13-1.22.58-5.26.28-5.31-.29-.06-.25 3.38-2.28 5.38zm-4.41 4.23c-.03.75-.04 1.12-.21 1.45-.15.3-.19.18-1.11 1.1-.44.44-.66.7-.91.65-.16-.03-.27-.18-.35-.3-.22-.33-.22-.68-.21-.85.07-.89.85-1.4.73-1.54-.1-.12-.64.33-1.59.49-.61.1-1.1.04-1.2.02-.94-.14-1.48-.61-1.58-.5-.12.13.66.65.72 1.54.01.17.01.53-.21.85-.09.12-.19.27-.35.3-.25.05-.47-.21-.9-.65-.91-.93-.95-.81-1.1-1.11-.17-.33-.18-.71-.21-1.46s-.04-1.12.08-1.34c.16-.29.81-.55 2.11-1.08.3-.12.58-.29.95-.24.29.04.54.16.81.16.17 0 .18-.06.32-.14.14.07.13.12.28.12.27.01.52-.12.81-.15.37-.05.66.12.95.24 1.3.53 1.95.8 2.1 1.09.11.23.1.6.07 1.35z"/><path d="m33.17 12.3c-.86-.17-1.5-.7-1.91-1.14.65.12 1.61.19 2.6-.22.53-.22.75-.45 1.29-.75.6-.33 1.53-.71 2.86-.82-.52-.29-1.31-.62-2.28-.65-.43-.01-.64.05-1.05.06-.09 0-1.53.03-2.71-.6-1.36-.73-1.19-1.7-2.63-2.72-.75-.53-1.49-.76-2.02-.88.46-.1 1.73-.31 3.09.35.81.39 1.34.94 1.64 1.3-.9-1.55-1.91-2.21-2.54-2.52-.34-.17-.7-.3-2.35-.67-1.26-.28-2.3-.49-3.02-.62.6-.16 1.32-.3 2.15-.35 1.7-.1 3.1.23 4.03.54-.3-.2-.74-.45-1.3-.67-.52-.2-1.19-.4-2.36-.5-1.36-.12-2.41-.03-2.56-.01-3.56.31-5.07-1.03-8.36-.42-.6.11-4.49.83-5.47 3.53-.2.55-.23 1.06-.23 1.41-.51.09-1.27.3-2.05.83-1.78 1.21-2.24 3.19-2.34 3.69.21-.31.54-.72 1.02-1.1.31-.25.6-.41.86-.54-.06.1-.13.2-.19.31-.01.01-.03.03-.04.04 0 .02 0 .03-.01.05-1.51 2.96-.63 7.27-.6 7.37.04.18.1.35.1.35.02.06.04.11.05.15.14.38.27.53.49 1.38.44 1.74.38 3.05.53 3.06.13 0-.05-.96.51-2.05.33-.65.98-1.49 1.14-2.2.17-.8-.08-.84-.02-1.92.03-.47.14-1.65 1.52-2.82 1.11-.93 2.1-.8 6.19-.94.41.15.8.27 1.18.38.18.11.36.23.57.38.8.6 1.47.64 2.81 2.56 1.47 2.11 1.91 3.12 2.52 4.05-2.5.16-2.88.27-3.12.63-.22.33-.32.83-.1 1.09.12.14.43.33 3.21-.41.34-.09.61-.17.85-.23.02.02.03.03.04.05.82.9 2.17 2.09 4.39 2.99-.8-.47-2.28-1.47-3.4-3.26.17-.01.33 0 .51.04.95.2 1.43.84 1.53.74.13-.13-.46-1.23-1.53-1.61-.35-.13-.66-.13-1.03-.12-.42-.88-.65-1.71-.77-2.39 1.33 1 2.47 1.69 3.28 2.14.33.18.97.57 1.76.83.1 1.16.31 2.27.43 2.27.07 0 .16-.39.24-2.1.04.01.08.03.13.03.27.04.54.09.81.13.51.05 1.05.04 1.61-.06 1.31-.24 2.27-.9 2.81-1.34-.39.09-1.43.27-2.58-.24-1.1-.49-1.71-1.35-2.04-1.96.06-.18.09-.39.11-.62.26 0 .57-.02.92-.11.39-.11.69-.26 1.05-.47 1.24-.75 1.42-1.22 2.09-1.56.44-.23 1.15-.43 2.27-.19-1.17-.81-2.12-.98-2.8-.99-.68.01-1.08.19-1.78.04z"/></svg>